<?xml version="1.0" encoding="UTF-8"?>
<svg id="Layer_1" xmlns="http://www.w3.org/2000/svg" version="1.1" viewBox="0 0 905.3 372.2">
  <!-- Generator: Adobe Illustrator 29.1.0, SVG Export Plug-In . SVG Version: 2.1.0 Build 142)  -->
  <defs>
    <style>
      .st0 {
        fill: #073b52;
      }

      .st1 {
        fill: #fefefe;
      }

      .st2 {
        fill: #1a779d;
      }
    </style>
  </defs>
  <path class="st0" d="M743.2,135.8c74.3-7.2,104.1,40.1,107.1,108.2s1.7,17.7-3.7,19.3l-122.7,1.2c-7.3.6-6.8,6.4-6.2,12.2,5.1,47,66.2,45.3,91.7,16.3,3.9-1.3,7.1-.8,10.5,1.5s21.5,21,22.4,22.6c3.7,7.2-2.3,12.7-7.3,17.4-29.4,27.5-84.2,30.8-120.7,17.7-89.6-32.2-77-206.2,29-216.5Z"/>
  <path class="st0" d="M593.3,41.9c12.1-1.1,30.8-1.1,42.7.7s9.2.9,10.3,4.7.5,30.6-.3,32.3c-2.2,4.6-16.3,2.6-21.5,3.4-19.8,3.1-25,20.4-25.9,38.1-1.6,30.2,12.7,16.3,33.4,19.6s5.1,2.7,5.6,6.4c.7,5.9.8,24.3,0,30s-1.8,4.7-4.6,5.3c-6.9,1.6-27-1.9-31.2,1.7s-1.5,2-1.8,3.2l-.2,156.8c0,5-2.6,7.9-7.5,8.5-9,1.1-41.4,1.3-49.9,0s-5.7-2.2-5.6-5.4v-158c-2.3-14.6-28.3,1.5-30-13s-.8-24.3,0-30c1.8-11.6,24.4-.6,28.2-8.8,2.8-28.7-1.9-67.1,25.8-85.2,9-5.9,22-9.3,32.7-10.3Z"/>
  <path class="st2" d="M126.4,47.8c5.7-1.3,45.2-1.2,51.7-.2s5.9,3.6,6.5,7.5v287.9c0,4.6-1.5,8.6-6.5,9.4-15.8-1.2-34.5,1.9-49.9,0-2.6-.3-5.1-1.2-6.3-3.7l-.2-221.8c0-5.4-3.1-10.6-9.1-10-11.7,6.4-22.9,14.3-34.9,20.1-7,3.4-23.9,13.7-26,.9-1.2-7.7-1-34.9,0-43s.6-3.5,2-5c11.9-6.1,24.1-11.6,35.7-18.3,6.7-3.9,33.1-23.1,37-24Z"/>
  <path class="st0" d="M233,350.3c-1.2-1.5-1.3-3.4-1.3-5.2V53.1c.6-2.8,3.9-5.1,6.6-5.5l50.7.2c3.8,1.1,5.9,4.3,5.8,8.2l.2,221.8c.7,3,3.6,5.3,6.5,5.5s17.2-9.6,21.6-12c6.6-3.7,13.4-7.6,20.3-10.7s19-10.5,20.4,1.3c1.6,13.9-1.2,30.8,0,45-.3,2.2-2,3.2-3.6,4.4-8.8,6.3-24.7,12-35,18-7.2,4.2-29.6,21.3-34.3,22.7-4.4,1.4-46.4,1.3-52.6.5s-4.2-1.2-5.2-2.3Z"/>
  <path class="st0" d="M465.3,350.3c-1,1-4.7,2.1-6.2,2.3-10.3,1.1-37.8,1.2-48,0-3.2-.4-5.7-1.8-7.3-4.7l-.3-199.8c-.1-3.4,1.2-6.4,4.8-7.2,16.3,1,35.9-2.1,51.8-.2s5.4,1.4,6.3,4.7l.3,199.8c-.1,1.6-.1,4-1.3,5.2Z"/>
  <path class="st0" d="M406.3,47.8c17.6.8,37.5-1.8,54.8-.3s7,1.8,7.5,7.5c.8,9.1,1.2,32.3,0,41.1-.3,2.4-1.1,3.6-3.1,4.9-17.9-.3-38.8,2.2-56.5.6s-6.9-1.3-7.5-6.5c-1-8.7-1-32.3,0-41,.4-3.2,1.4-5.4,4.7-6.3Z"/>
  <path class="st1" d="M747.1,177.8c20.7-2.8,38.4,4.5,43.7,25.7,2.8,11,4.3,18-9,19-13.5,1.1-41.9,1.5-55,0s-9-12.3-6.2-21.2c3.8-12,13.7-21.8,26.5-23.5Z"/>
</svg>