<?xml version="1.0" encoding="UTF-8"?>
<svg id="Layer_1" data-name="Layer 1" xmlns="http://www.w3.org/2000/svg" viewBox="0 0 207.36 107.52">
  <defs>
    <style>
      .cls-1 {
        fill: #fff;
      }

      .cls-2 {
        fill: #ee9bac;
      }
    </style>
  </defs>
  <g>
    <path d="m8.72,84.66c-1.06.53-2.96.94-4.62,1.34v1.25l4.62-.37v17.36h2.4v-19.58h-2.4Z"/>
    <path d="m23.44,93.78c0-1.23,1.1-2.06,3.13-2.06,1.86,0,3.12.64,4.45,1.95l1.67-1.17c-1.17-1.42-3.66-2.41-5.92-2.44-3.33-.02-5.62,1.34-5.72,3.75-.2,5.08,10.04,3.21,10.04,6.74,0,1.17-1.13,2.3-3.72,2.3-2.17,0-3.83-.83-4.96-2.14l-1.89,1.15c1.59,1.71,4.22,2.65,6.91,2.65,3.13,0,6.05-1.37,6.05-4.07,0-5.19-10.04-3.64-10.04-6.66Z"/>
    <path d="m42.26,102.85c-1.39,0-1.96-.32-1.96-.96v-9.9h3.99v-1.66h-3.99v-4.57h-2.39v4.57h-2.83v1.66h2.83v10.22c0,1.76,1.09,2.3,3.69,2.3,1.39,0,2.36-.11,2.79-.22v-1.58c-.63.08-1.33.14-2.13.14Z"/>
    <path d="m64.14,86.32c.53,0,1.16.13,1.73.18v-1.71c-.7-.05-1.43-.13-2.13-.13-2.83,0-4.22.8-4.22,4.09v1.58h-2.93v1.66h2.93v12.25h2.39v-12.25h3.76v-1.66h-3.76v-2.03c0-1.55.6-1.98,2.23-1.98Z"/>
    <path d="m75.08,90.06c-4.72,0-7.08,3.21-7.08,7.22s2.36,7.23,7.08,7.23,7.08-3.21,7.08-7.23-2.36-7.22-7.08-7.22Zm0,12.79c-2.86,0-4.69-1.98-4.69-5.57s1.83-5.56,4.69-5.56,4.69,1.98,4.69,5.56-1.83,5.57-4.69,5.57Z"/>
    <path d="m88.19,93.08h-.07v-2.75h-2.39v13.91h2.39v-7.71c1.13-2.86,2.7-4.43,5.69-4.49v-1.92c-2.86,0-4.29,1.07-5.62,2.96Z"/>
    <path d="m123.82,90.33l-3.36,10.75h-.06l-3.46-10.75h-2.43l-3.39,10.7h-.07l-3.49-10.7h-2.42l4.68,13.91h2.43l3.43-10.75h.06l3.46,10.75h2.43l4.62-13.91h-2.43Z"/>
    <path d="m135.1,90.06c-4.72,0-7.08,3.21-7.08,7.22s2.36,7.23,7.08,7.23,7.09-3.21,7.09-7.23-2.37-7.22-7.09-7.22Zm0,12.79c-2.86,0-4.68-1.98-4.68-5.57s1.82-5.56,4.68-5.56,4.69,1.98,4.69,5.56-1.83,5.57-4.69,5.57Z"/>
    <path d="m163.6,90.06c-2.03,0-3.96.88-5.49,2.2-.63-1.29-2.19-2.2-4.42-2.2-1.66,0-3.56.7-5.02,2.01l-.13.11v-1.85h-2.4v13.91h2.4v-10.38c1.29-1.02,2.69-2.14,4.82-2.14,1.53,0,2.69.7,2.69,2.57v9.95h2.39v-10.38c1.3-1.02,2.7-2.14,4.83-2.14,1.53,0,2.69.7,2.69,2.57v9.95h2.39v-9.95c0-3.45-2.46-4.23-4.75-4.23Z"/>
    <path d="m184.75,100.49c-1,1.45-2.66,2.36-4.79,2.36-2.86,0-5.12-2.14-5.12-5.19h11.24v-1.29c0-4.44-3-6.31-6.59-6.31-4.25,0-7.05,2.73-7.05,7.22,0,5.09,3.66,7.23,7.52,7.23s5.52-1.66,6.65-3.24l-1.86-.78Zm-5.19-8.77c2.59,0,4.12,1.71,4.12,4.28h-8.78c.2-2.57,1.77-4.28,4.66-4.28Z"/>
    <path d="m198.28,90.06c-1.96,0-3.76.91-5.12,2.14h-.07v-1.87h-2.39v13.91h2.39v-10.41c1.1-.93,3.16-2.11,4.96-2.11s2.82.62,2.82,2.46v10.06h2.4v-10.11c0-3-2.43-4.07-4.99-4.07Z"/>
  </g>
  <g>
    <path d="m142.85,58.89c-.3-1.04-1.33-1.79-2.49-1.82-1.05,0-2.23.71-2.9,1.83-.32.54-.62,1.15-.93,1.79-.04.08-.08.16-.12.24-.04-.52-.16-1.01-.37-1.45-.45-.94-1.26-1.59-2.34-1.88-.81-.22-1.46-.14-1.97.05.02-.04.03-.07.05-.11,1.23-2.75,2.36-7.16,2.09-10.78-.18-2.46-.77-4.3-1.51-6.62-.25-.77-.51-1.59-.78-2.5-2.54-8.61,3.5-13.81,3.76-14.02l.65-.55-10.11-8.12c.55-.01,1.04-.17,1.43-.4.89-.54,1.36-1.46,1.17-2.3-.22-.94-1.06-1.69-2.06-1.82-.78-.1-1.45.21-1.79.84-.23.43-.23.79,0,1.11.25.34.72.45,1.11.25.36-.18.52-.58.39-.96-.05-.14-.09-.25-.13-.35.11-.01.22,0,.3,0,.53.07,1.15.48,1.3,1.13.1.45-.21,1-.75,1.33-.85.51-1.92.33-2.87-.49-.55-.47-1.18-1.36-1.85-2.3-1.37-1.91-3.06-4.29-5.28-4.94-2.31-.69-4.54-.08-6.33.41-.6.17-1.18.32-1.69.41-.83.15-1.72-.09-2.11-.57-.42-.5-.49-1.23-.18-1.72.32-.51.73-.64,1.01-.67.41-.04.77.14.96.33-.18.15-.41.38-.46.69-.04.22.02.44.17.61.18.21.45.31.72.26.31-.06.56-.3.68-.64.14-.44-.03-1.08-.41-1.5-.42-.46-1.09-.71-1.73-.65-.69.06-1.29.44-1.7,1.08-.52.82-.42,1.97.25,2.78.61.74,1.8,1.09,2.97.88.56-.1,1.15-.26,1.77-.43.08-.02.16-.04.24-.06-.33.34-.59.71-.77,1.12-.37.87-.33,1.8.11,2.71.53,1.08,1.34,1.45,1.93,1.56.18.04.36.05.54.05.75,0,1.42-.29,1.78-.61.81-.72.82-2.09.03-2.98-.47-.53-1.05-.59-1.4-.41-.32.16-.47.49-.4.85.07.36.29.54.45.62.33.18.73.11.97.04.15.44.07.92-.25,1.2-.25.22-.89.48-1.54.35-.56-.11-1-.47-1.29-1.07-.33-.66-.36-1.34-.09-1.95.38-.88,1.34-1.6,2.72-2.05.91-.09,1.85-.06,2.81.22,1.92.57,3.51,2.81,4.8,4.6.61.86,1.15,1.6,1.68,2.14l-.06.21s-1.02,3.21-2.88,3.3c-1.37.06-2.61-.77-4.17-1.83-2.39-1.62-5.36-3.64-10.54-3.77v.34s-.02-.34-.02-.34h0c-5.18.13-8.15,2.15-10.54,3.77-1.56,1.06-2.8,1.89-4.17,1.83-1.56-.07-2.61-2.41-2.88-3.3l-.09-.28c.51-.54,1.03-1.26,1.61-2.08,1.28-1.8,2.88-4.03,4.8-4.6.96-.28,1.9-.31,2.81-.22,1.38.44,2.34,1.17,2.72,2.05.26.62.23,1.29-.09,1.95-.3.6-.73.96-1.29,1.07-.65.13-1.29-.13-1.54-.35-.21-.19-.32-.47-.32-.79,0-.14.03-.28.07-.42.24.07.63.13.97-.04.16-.09.38-.27.45-.62.07-.36-.08-.69-.4-.85-.35-.18-.92-.12-1.4.41-.37.41-.58.96-.59,1.51,0,.59.21,1.11.62,1.47.36.32,1.03.61,1.78.61.18,0,.36-.02.54-.05.59-.11,1.4-.48,1.93-1.56.44-.91.48-1.84.11-2.71-.17-.41-.44-.78-.77-1.12.08.02.16.04.24.06.62.17,1.21.33,1.77.43,1.17.21,2.36-.14,2.97-.88.67-.81.77-1.95.25-2.78-.41-.64-1.01-1.02-1.69-1.08-.66-.06-1.32.19-1.73.65-.38.42-.55,1.06-.41,1.5.11.34.37.58.68.64.27.05.54-.04.72-.26.15-.18.21-.39.17-.61-.05-.3-.28-.54-.47-.69.19-.19.56-.37.96-.33.28.02.69.16,1.01.67.31.49.24,1.21-.18,1.72-.4.48-1.28.72-2.11.57-.52-.09-1.09-.25-1.7-.41-1.79-.49-4.02-1.1-6.33-.41-2.21.66-3.91,3.03-5.28,4.94-.67.94-1.31,1.83-1.85,2.3-.95.82-2.02,1-2.87.49-.54-.32-.85-.88-.75-1.33.15-.65.77-1.06,1.3-1.13.08-.01.19-.02.3,0-.04.1-.08.22-.13.35-.13.38.03.77.39.96.39.2.87.09,1.11-.25.23-.32.23-.68,0-1.11-.34-.63-1.01-.95-1.79-.84-1,.13-1.84.88-2.06,1.82-.19.84.28,1.77,1.17,2.3.41.25.93.41,1.51.41,0,0,0,0,0,0l-10.1,8.12.65.55c.26.22,6.3,5.42,3.76,14.02-.27.91-.53,1.73-.78,2.5-.74,2.32-1.33,4.16-1.52,6.62-.27,3.62.85,8.02,2.09,10.78.03.06.05.11.08.17-.52-.23-1.22-.36-2.12-.12-1.08.29-1.89.94-2.34,1.88-.21.44-.33.93-.37,1.46-.04-.08-.08-.17-.12-.25-.31-.64-.61-1.25-.93-1.79-.68-1.13-1.85-1.82-2.9-1.83-1.16.03-2.19.78-2.49,1.82-.24.81-.12,1.59.33,2.2.43.59,1.12.96,1.81.97.64,0,1.29-.31,1.54-.75.2-.34.22-.73.04-1.03-.15-.26-.41-.41-.74-.41-.25,0-.48.11-.64.3-.22.27-.25.63-.23.89-.3-.02-.71-.2-.98-.56-.19-.25-.37-.69-.18-1.33.18-.62.84-1.08,1.56-1.1.69-.05,1.54.55,2.02,1.34.3.5.59,1.09.89,1.71.9,1.85,2.02,4.15,4.28,5.57,2.16,1.36,5.38,1.05,7.97.79,1.27-.12,2.47-.24,3.27-.13,1.37.19,2.31.96,2.5,2.04.12.68-.11,1.36-.56,1.59-.65.35-1.44.14-1.89-.26-.07-.06-.15-.15-.22-.25.11-.04.24-.09.39-.15.41-.17.62-.59.51-1.02-.12-.47-.55-.79-1.02-.74-.43.04-.73.31-.92.81-.28.74-.05,1.53.6,2.11.51.45,1.17.68,1.82.68.42,0,.83-.1,1.2-.29.84-.45,1.27-1.52,1.07-2.65-.08-.47-.3-.97-.66-1.43.42.1.85.19,1.29.29.92.2,1.88.41,2.88.66,6.61,1.63,8.98,6.95,9,7l.71,1.64.59-1.68c.02-.05,2.01-5.47,8.96-6.95l1.61-.34c.82-.17,1.6-.33,2.37-.5-.31.42-.5.88-.57,1.32-.2,1.13.23,2.2,1.07,2.65.37.2.78.29,1.2.29.65,0,1.31-.23,1.82-.68.66-.58.89-1.36.61-2.11-.19-.5-.49-.77-.92-.81-.46-.05-.9.27-1.02.74-.11.43.1.85.51,1.02.15.06.28.11.39.15-.07.1-.15.19-.22.25-.45.39-1.24.61-1.89.26-.45-.24-.68-.91-.56-1.59.19-1.08,1.13-1.84,2.5-2.04.8-.11,2,0,3.27.13,2.59.25,5.81.57,7.96-.79,2.26-1.42,3.38-3.72,4.28-5.57.3-.62.59-1.21.89-1.72.47-.79,1.3-1.35,1.98-1.35.01,0,.02,0,.04,0,.72.02,1.38.48,1.56,1.1.19.64,0,1.08-.18,1.33-.27.37-.68.54-.98.56.01-.26-.02-.62-.23-.89-.16-.19-.38-.3-.64-.3-.3,0-.58.15-.74.41-.18.3-.16.69.04,1.03.26.44.88.78,1.54.75.68-.01,1.38-.39,1.81-.97.45-.61.57-1.4.33-2.2Zm-57.46,7.6c-2.44.24-5.46.54-7.34-.64-.94-.59-1.65-1.35-2.24-2.18-.63-1.47-.74-2.8-.28-3.76.32-.67.91-1.14,1.7-1.35.72-.19,1.34-.09,1.84.29.58.45.84,1.17.83,1.54,0,.31-.15.61-.42.84-.12.1-.26.18-.4.24-.12-.25-.35-.62-.74-.77-.19-.07-.5-.12-.85.08-.35.2-.51.57-.41.95.11.42.57.86,1.36.86.66,0,1.23-.21,1.69-.6.34-.29.56-.64.68-1.03,1.28,2.06,2.66,3.51,4.29,4.52.55.34,1.12.63,1.71.88-.45.03-.92.08-1.42.13Zm30.95.54l-1.62.34c-5.59,1.19-8.28,4.65-9.37,6.56-1.17-1.86-3.96-5.25-9.27-6.56-1.01-.25-1.98-.46-2.92-.67-2.85-.62-5.32-1.17-7.33-2.41-2.17-1.34-3.88-3.6-5.55-7.32-1.16-2.59-2.22-6.72-1.97-10.1.17-2.3.74-4.06,1.45-6.3.25-.78.51-1.61.79-2.53,2.3-7.8-1.95-13.19-3.6-14.91l9.86-7.92c.56,1.24,1.77,3.26,3.79,3.35,1.84.08,3.31-.91,5.02-2.07,2.23-1.51,5-3.4,9.76-3.53,4.76.13,7.53,2.01,9.76,3.53,1.71,1.16,3.18,2.15,5.02,2.07,2.02-.1,3.24-2.12,3.79-3.35l9.86,7.92c-1.64,1.72-5.89,7.11-3.59,14.91.27.92.54,1.75.79,2.53.71,2.23,1.28,3.99,1.45,6.29.25,3.38-.81,7.51-1.97,10.1-1.67,3.73-3.38,5.99-5.55,7.32-2.32,1.43-5.23,2.04-8.6,2.73Zm18.5-3.36c-.59.83-1.3,1.59-2.24,2.18-1.87,1.18-4.9.88-7.33.64-.46-.05-.89-.08-1.31-.12.6-.26,1.17-.55,1.72-.89,1.6-.99,2.96-2.4,4.21-4.39.11.29.28.56.51.78.47.46,1.14.73,1.82.72.79,0,1.25-.44,1.36-.86.1-.38-.06-.75-.41-.95-.35-.2-.65-.15-.85-.08-.39.15-.62.52-.74.77-.18-.08-.34-.18-.48-.31-.16-.15-.34-.41-.35-.77,0-.37.25-1.09.83-1.54.5-.39,1.12-.48,1.84-.29.79.21,1.38.68,1.7,1.35.46.95.35,2.29-.28,3.76Z"/>
    <g>
      <path class="cls-2" d="m105.31,71.19c-1.71-1.98-4.52-4.3-8.84-5.37-.98-.24-1.93-.45-2.83-.65l-.12-.03c-2.71-.59-5.05-1.11-6.83-2.21-1.88-1.16-3.4-3.2-4.93-6.62-1.04-2.33-2.06-6.25-1.83-9.33.16-2.11.67-3.71,1.38-5.93.25-.79.52-1.63.8-2.56,2.11-7.15-.84-12.52-2.85-15.14l7.11-5.71c1.12,1.57,2.56,2.45,4.18,2.53.1,0,.2,0,.29,0,2.24,0,4-1.2,5.7-2.35,2.17-1.47,4.62-3.14,8.9-3.25,4.2.12,6.65,1.78,8.82,3.25,1.71,1.16,3.47,2.35,5.71,2.35.09,0,.18,0,.27,0,1.62-.08,3.06-.96,4.18-2.53l7.12,5.71c-2.01,2.62-4.95,7.99-2.85,15.14.28.94.55,1.78.8,2.57.71,2.21,1.22,3.81,1.38,5.92.23,3.08-.79,7-1.83,9.33-1.53,3.42-3.05,5.46-4.93,6.62-2.08,1.29-4.86,1.86-8.09,2.53l-1.62.34c-4.59.98-7.43,3.34-9.09,5.38Z"/>
      <path class="cls-1" d="m105.31,21.38c8.24,3.68,8.38,13.62,1.87,20.63,2.59-1.81,4.76-4.14,6.01-7.59,0,0,1.68-1.5,4.32-1.23s4.29,2.99,8.23,2.77c-3.79,5.52-6.34,8.62-8.82,9.33-2.75.79-5.47.31-10.28-1.62,2.26,2.69,5.43,3.22,9.46,2.91,0,0,1.04.53,1.71,3.76s.16,4.25,1.93,7.13c-9.26,1.35-15.49-3.07-14.67-13.87-1.99,2.33-1.94,6.82.15,11.07,0,0-1.37,2.96-4.21,3.35s-5.25-1.24-8.07.71c-.92-9.74,1.17-13.74,11.49-16.46-3.67-.4-7.07.65-10.22,3.03,0,0-3.01-.66-4.71-3.73s-1.99-3.96-4.46-5.54c6.4-4.72,17.51-4.01,20.79,5.38-.34-3.61-2.63-6.64-6.25-9.25,0,0-.35-3.01,1.84-5.47,1.66-1.86,2.96-2.99,3.9-5.32Z"/>
    </g>
  </g>
</svg>