<?xml version="1.0" encoding="UTF-8"?>
<svg id="Layer_1" xmlns="http://www.w3.org/2000/svg" version="1.1" xmlns:xlink="http://www.w3.org/1999/xlink" viewBox="0 0 157.7 53.7">
  <!-- Generator: Adobe Illustrator 29.1.0, SVG Export Plug-In . SVG Version: 2.1.0 Build 142)  -->
  <defs>
    <style>
      .st0 {
        fill: url(#linear-gradient2);
      }

      .st1 {
        fill: url(#linear-gradient1);
      }

      .st2 {
        fill: #04295d;
      }

      .st3 {
        fill: url(#linear-gradient);
      }
    </style>
    <linearGradient id="linear-gradient" x1="-3643.1" y1="3166.9" x2="-3620" y2="3133.3" gradientTransform="translate(380.2 -4768.7) rotate(-45)" gradientUnits="userSpaceOnUse">
      <stop offset="0" stop-color="#84d3ec"/>
      <stop offset=".7" stop-color="#00a6d5"/>
      <stop offset=".8" stop-color="#019fd0"/>
      <stop offset=".8" stop-color="#038bc5"/>
      <stop offset=".9" stop-color="#057cbc"/>
      <stop offset=".9" stop-color="#086cb2"/>
      <stop offset="1" stop-color="#0b5ca9"/>
    </linearGradient>
    <linearGradient id="linear-gradient1" x1="-3666.6" y1="3124.2" x2="-3616.5" y2="3124.2" gradientTransform="translate(380.2 -4768.7) rotate(-45)" gradientUnits="userSpaceOnUse">
      <stop offset="0" stop-color="#1e582c"/>
      <stop offset=".2" stop-color="#357934"/>
      <stop offset=".3" stop-color="#48963c"/>
      <stop offset=".3" stop-color="#56ab41"/>
      <stop offset=".4" stop-color="#5fb744"/>
      <stop offset=".5" stop-color="#62bc46"/>
      <stop offset=".8" stop-color="#c4d92f"/>
      <stop offset=".8" stop-color="#a8d035"/>
      <stop offset="1" stop-color="#63bc45"/>
      <stop offset="1" stop-color="#62bc46"/>
    </linearGradient>
    <linearGradient id="linear-gradient2" x1="-3649.6" y1="3160.1" x2="-3663.2" y2="3133.9" gradientTransform="translate(380.2 -4768.7) rotate(-45)" gradientUnits="userSpaceOnUse">
      <stop offset="0" stop-color="#1d2f5e"/>
      <stop offset=".4" stop-color="#0b5ca9"/>
      <stop offset=".5" stop-color="#1864af"/>
      <stop offset=".7" stop-color="#2069b3"/>
      <stop offset="1" stop-color="#236bb5"/>
      <stop offset="1" stop-color="#fff"/>
    </linearGradient>
  </defs>
  <g>
    <path class="st3" d="M35.7,36.7c0,.3,0,.7,0,1,0,3.6-1.5,7.2-4.2,10l15.1-15.2c5.7-5.7,5.7-15,0-20.7-2-2-4.3-3.3-6.8-3.9-3.4-.8-7-.4-10.1,1.2l-1.1.6c4.9,8.3,7.3,17.6,7.2,27h0Z"/>
    <path class="st1" d="M7.1,40.7c-.8-3.4-.4-7,1.2-10.2,0,0,.4-.8.6-1.1,2.2-4,5.1-7.8,8.5-11.2,3.4-3.4,7.2-6.3,11.1-8.5.4-.2,1.1-.6,1.1-.6,3.1-1.6,6.7-2,10.1-1.2L19.8,2.5c-4.9-1.5-10.5-.2-14.4,3.7S.3,15.6,1.7,20.5l5.4,20.2h0Z"/>
    <path class="st0" d="M7.1,40.7c-.8-3.4-.4-7,1.2-10.2,0,0,.4-.8.6-1.1,8.2,4.9,17.5,7.3,26.8,7.2,0,0,0,.7,0,1,0,3.6-1.5,7.2-4.2,10-5.7,5.7-14.9,5.7-20.5,0-2-2-3.2-4.4-3.9-6.9h0Z"/>
  </g>
  <g>
    <path class="st2" d="M93.6,31.6v-7.5c0-2-1.6-3.5-3.5-3.5s-3.5,1.6-3.5,3.5v7.5h-3v-7.5c0-3.6,2.9-6.5,6.5-6.5s6.5,2.9,6.5,6.5v7.5h-3,0Z"/>
    <path class="st2" d="M29.8,21.1c-.6-1.1-1.5-1.9-2.5-2.5-.6-.4-1.3-.6-2-.8h0c-3.1-.6-5.1,1.2-5.3,3.1,1.2-.5,4.4-1,6,.2h0c.5.4.9.8,1.2,1.4.3.6.5,1.4.5,2.2s-.2,1.5-.5,2.2-.8,1.2-1.4,1.5c-.6.4-1.3.5-2,.5s-1.4-.2-2-.5c-.5-.3-.9-.7-1.2-1.2h0c-1.4-2.1-1-4.8-.5-6.3-2.7.5-3.6,3.5-2.9,5.9h0c.1.5.3,1,.6,1.5.6,1.1,1.3,1.9,2.3,2.5s2.1.9,3.3.9,2.3-.3,3.3-.9c.4-.2.7-.5,1-.8v1.7h3.1v-7.2h0c0-1.2-.3-2.4-.9-3.4h0Z"/>
    <path class="st2" d="M39,12c-1,0-2,.3-2.8.8-.9.5-1.5,1.2-2,2.1-.5.9-.7,2-.7,3.2h0c0,.1-2.2.1-2.2.1v2.7h2.2v10.7h3.1v-10.7h3.6v-2.7h-3.6v-.4c0-.6.1-1.1.3-1.6.2-.4.5-.8.9-1,.4-.2.9-.4,1.4-.4h1.5v-2.8h-1.8,0Z"/>
    <path class="st2" d="M80.7,21.1c-.6-1.1-1.4-1.9-2.5-2.5s-2.2-.9-3.5-.9-2.5.3-3.6.9-1.9,1.5-2.5,2.5c-.6,1.1-.9,2.3-.9,3.6s.3,2.5.8,3.6c.6,1.1,1.3,1.9,2.3,2.5s2.1.9,3.3.9,2.3-.3,3.3-.9c.4-.2.7-.5,1-.8v1.7h3.1v-7c0-1.3-.3-2.5-.9-3.6h0ZM78.1,26.8c-.3.6-.8,1.2-1.4,1.5-.6.4-1.3.5-2,.5s-1.4-.2-2-.5-1.1-.9-1.4-1.5c-.3-.6-.5-1.4-.5-2.2s.2-1.6.5-2.2c.3-.6.8-1.1,1.4-1.5.6-.4,1.3-.5,2-.5s1.4.2,2,.5c.6.4,1.1.9,1.4,1.5.3.6.5,1.4.5,2.2s-.2,1.5-.5,2.2h0Z"/>
    <polygon class="st2" points="147 25.6 152.1 31.6 155.9 31.6 149.4 24 155.7 17.7 151.6 17.7 147 22.3 147 13 143.9 13 143.9 31.6 147 31.6 147 25.6"/>
    <path class="st2" d="M46.7,17.7c-1,0-2,.3-2.8.8-.9.5-1.5,1.2-2,2.1-.5.9-.7,2-.7,3.2v7.9h3.1v-8.1c0-.6.1-1.1.3-1.6.2-.4.5-.8.9-1,.4-.2.9-.4,1.4-.4h1.5v-2.8h-1.8,0Z"/>
    <path class="st2" d="M64.9,27.6c-.2.3-.6.5-.9.7-.6.4-1.3.5-2.1.5s-1.5-.2-2.1-.5-1.1-.9-1.4-1.5c-.3-.6-.5-1.4-.5-2.2s.2-1.6.5-2.2c.3-.6.8-1.1,1.4-1.5.6-.4,1.3-.5,2.1-.5s1.5.2,2.1.5c.3.2.6.4.9.7l.2.2,2.1-2.1-.2-.2c-.4-.4-.9-.8-1.4-1.1-1-.6-2.2-.9-3.6-.9s-2.6.3-3.6.9-1.9,1.4-2.5,2.5-.9,2.3-.9,3.7.3,2.6.9,3.6,1.4,1.9,2.5,2.5,2.2.9,3.6.9,2.6-.3,3.6-.9c.5-.3,1-.7,1.4-1.1l.2-.2-2.1-2.1-.2.2h0Z"/>
    <path class="st2" d="M51.7,12c-.5,0-1,.2-1.3.6s-.6.8-.6,1.3.2,1,.6,1.3.8.6,1.3.6,1-.2,1.3-.6.6-.8.6-1.3-.2-1-.6-1.3c-.4-.4-.8-.6-1.3-.6Z"/>
    <polygon class="st2" points="50.2 19.2 50.2 19.2 50.2 30.1 50.2 30.1 50.2 31.6 53.3 31.6 53.3 28.5 53.3 28.5 53.3 20.8 53.3 20.8 53.3 17.7 50.2 17.7 50.2 19.2"/>
    <path class="st2" d="M132.1,24.1c0-2,1.6-3.5,3.5-3.5s3.5,1.6,3.5,3.5v7.5h3v-7.5c0-3.6-2.9-6.5-6.5-6.5s-6.5,2.9-6.5,6.5v7.5h3v-7.5h0Z"/>
    <path class="st2" d="M109.1,28.5c-1.2.5-4.4,1-6-.2h0c-.5-.3-.9-.8-1.2-1.4-.3-.6-.5-1.4-.5-2.2s.2-1.5.5-2.2.8-1.1,1.4-1.5c.6-.4,1.3-.5,2-.5s1.4.2,2,.5c.5.3.9.7,1.2,1.2h0c1.4,2.1,1,4.8.5,6.3,2.7-.5,3.6-3.5,2.9-5.9h0c-.1-.5-.3-1-.6-1.5-.6-1.1-1.3-1.9-2.3-2.5s-2.1-.9-3.3-.9-2.3.3-3.3.9c-.4.2-.7.5-1,.8v-6.4h-3.1v11.9h0c0,1.2.3,2.4.9,3.4.6,1.1,1.4,1.9,2.5,2.5.6.4,1.3.6,2,.8h0c3.1.6,5.1-1.2,5.3-3.1h0Z"/>
    <path class="st2" d="M126.4,21.1c-.6-1.1-1.4-1.9-2.5-2.5s-2.2-.9-3.5-.9-2.5.3-3.6.9-1.9,1.5-2.5,2.5c-.6,1.1-.9,2.3-.9,3.6s.3,2.5.8,3.6c.6,1.1,1.3,1.9,2.3,2.5s2.1.9,3.3.9,2.4-.3,3.3-.9c.4-.2.7-.5,1-.8v1.7h3.1v-7c0-1.3-.3-2.5-.9-3.6h0ZM123.8,26.8c-.3.6-.8,1.2-1.4,1.5-.6.4-1.3.5-2,.5s-1.4-.2-2-.5c-.6-.4-1.1-.9-1.4-1.5-.3-.6-.5-1.4-.5-2.2s.2-1.6.5-2.2c.3-.6.8-1.1,1.4-1.5.6-.4,1.3-.5,2-.5s1.4.2,2,.5c.6.4,1.1.9,1.4,1.5.3.6.5,1.4.5,2.2s-.2,1.5-.5,2.2h0Z"/>
  </g>
</svg>