<?xml version="1.0" encoding="utf-8"?><!DOCTYPE svg PUBLIC "-//W3C//DTD SVG 1.1//EN" "http://www.w3.org/Graphics/SVG/1.1/DTD/svg11.dtd"><svg version="1.1" id="Layer_1" xmlns="http://www.w3.org/2000/svg" xmlns:xlink="http://www.w3.org/1999/xlink" x="0px" y="0px"  width="370.735px" height="127.95px" viewBox="1 15.245 370.735 127.95" enable-background="new 1 15.245 370.735 127.95"  xml:space="preserve"><g> <path fill="none" d="M124.345,127.914c-2.728,0-4.104,2.119-4.104,4.608c0,2.488,1.377,4.607,4.104,4.607  c2.728,0,3.999-2.119,3.999-4.607C128.344,130.033,127.073,127.914,124.345,127.914z"/> <path fill="none" d="M268.63,47.302c-7.863,0-14.834,4.882-14.834,13.246h29.174C282.469,52.283,277.487,47.302,268.63,47.302z"/> <path fill="none" d="M307.632,127.914c-2.729,0-4.105,2.119-4.105,4.608c0,2.488,1.377,4.607,4.105,4.607c2.727,0,4-2.119,4-4.607  C311.632,130.033,310.358,127.914,307.632,127.914z"/> <path fill="none" d="M117.616,74.352c0,5.972,5.17,7.665,10.055,7.665c10.051,0,14.429-7.267,14.429-15.93h-6.863  C129.361,66.087,117.616,66.087,117.616,74.352z"/> <path fill="none" d="M96.517,127.914c-2.092,0-3.945,1.298-3.945,3.522h7.759C100.198,129.239,98.874,127.914,96.517,127.914z"/> <path fill="none" d="M153.922,127.914c-2.092,0-3.946,1.298-3.946,3.522h7.759C157.603,129.239,156.279,127.914,153.922,127.914z"  /> <path fill="none" d="M250.493,127.914c-2.939,0-4.238,2.171-4.238,4.608c0,2.728,1.352,4.607,4.238,4.607  c2.303,0,3.627-1.88,3.627-4.607C254.12,130.085,252.848,127.914,250.493,127.914z"/> <path fill="none" d="M42.251,39.607c0-10.754-9.363-10.948-15.929-10.948H15.668v22.697H26.12  C34.483,51.356,42.251,49.86,42.251,39.607z"/> <path fill="none" d="M358.309,127.914c-2.754,0-3.996,2.04-3.996,4.608c0,2.383,1.242,4.607,3.996,4.607  c2.648,0,3.869-2.225,3.869-4.607C362.178,129.954,360.958,127.914,358.309,127.914z"/> <path fill="none" d="M26.323,57.724H15.668v23.297h10.655c9.261,0,17.91-1.495,17.91-11.949  C44.232,59.222,35.977,57.724,26.323,57.724z"/> <path fill="none" d="M343.721,127.914c-2.094,0-3.945,1.298-3.945,3.522h7.76C347.401,129.239,346.077,127.914,343.721,127.914z"/> <path fill="none" d="M81.269,47.371c-7.859,0-14.825,4.88-14.825,13.241h29.166C95.115,52.35,90.132,47.371,81.269,47.371z"/> <path fill="#E41F49" d="M204.553,131.489c-1.564-0.29-3.629-0.317-3.629-1.694c0-1.535,1.668-1.88,2.939-1.88  c0.928,0,1.748,0.106,2.33,0.477c0.609,0.37,0.98,1.007,0.98,2.065h1.693v-3.972h-1.693v1.457h-0.053  c-0.664-1.219-2.119-1.723-3.682-1.723c-2.223,0-4.688,1.219-4.688,3.787c0,2.808,2.701,3.072,4.926,3.442  c1.324,0.187,3.1,0.159,3.1,1.802c0,1.298-1.457,1.88-2.49,1.88c-0.98,0-1.959-0.105-2.701-0.53  c-0.715-0.397-1.219-1.086-1.244-2.251h-1.695v4.211h1.695v-1.668h0.051c0.559,1.376,2.254,1.933,3.684,1.933  c2.461,0,5.031-1.085,5.031-3.892C209.108,132.205,206.698,131.861,204.553,131.489z"/> <polygon fill="#E41F49" points="215.46,126.485 211.198,126.485 211.198,128.179 213.29,128.179 213.29,136.865 211.198,136.865   211.198,138.56 217.553,138.56 217.553,136.865 215.46,136.865  "/> <rect x="212.971" y="121.241" fill="#E41F49" width="2.488" height="2.489"/> <path fill="#E41F49" d="M238.79,130.431c0-2.781-1.562-4.212-4.342-4.212c-1.695,0-3.152,0.875-3.84,2.41  c-0.742-1.694-2.014-2.41-3.893-2.41c-1.826,0-3.311,0.875-3.814,2.41h-0.053v-2.145h-4.264v1.694h2.092v8.687h-2.092v1.694h6.355  v-1.694h-2.092v-4.952c0-2.039,0.9-3.999,3.258-3.999c2.568,0,2.621,1.801,2.543,3.866v5.085h-2.094v1.694h6.355v-1.694h-2.092  v-5.085c0-2.039,0.848-3.866,3.205-3.866c2.516,0,2.594,2.012,2.594,3.866v5.085h-2.09v1.694h6.355v-1.694h-2.094V130.431z"/> <path fill="#E41F49" d="M250.493,126.219c-1.988,0-3.574,1.113-4.184,2.675h-0.055v-2.409h-4.289v1.694h2.117v13.056h-2.117v1.694  h6.408v-1.694h-2.119v-5.005h0.055c0.793,1.721,2.303,2.595,4.184,2.595c3.84,0,5.957-2.515,5.957-6.302  C256.45,128.656,254.227,126.219,250.493,126.219z M250.493,137.13c-2.887,0-4.238-1.88-4.238-4.607  c0-2.438,1.299-4.608,4.238-4.608c2.355,0,3.627,2.171,3.627,4.608C254.12,135.25,252.796,137.13,250.493,137.13z"/> <polygon fill="#E41F49" points="262.538,121.241 258.276,121.241 258.276,122.937 260.368,122.937 260.368,136.865   258.276,136.865 258.276,138.56 264.632,138.56 264.632,136.865 262.538,136.865  "/> <path fill="#E41F49" d="M273.606,128.179h2.33l-3.414,8.104l-3.471-8.104h2.33v-1.694h-6.037v1.694h1.324l4.688,10.381  c-0.742,1.43-0.82,2.939-2.648,2.939c-0.449,0-0.873-0.079-1.271-0.105v1.642c0.557,0.079,1.113,0.159,1.668,0.159  c2.465,0,3.047-1.431,3.92-3.496l4.953-11.52h1.324v-1.694h-5.695V128.179z"/> <path fill="#E41F49" d="M294.311,131.49c-1.561-0.291-3.627-0.318-3.627-1.695c0-1.535,1.67-1.88,2.939-1.88  c0.928,0,1.748,0.106,2.33,0.477c0.609,0.37,0.98,1.007,0.98,2.065h1.695v-3.972h-1.695v1.457h-0.053  c-0.662-1.219-2.117-1.723-3.68-1.723c-2.227,0-4.689,1.219-4.689,3.787c0,2.808,2.703,3.072,4.928,3.442  c1.324,0.187,3.096,0.159,3.096,1.802c0,1.298-1.455,1.88-2.486,1.88c-0.98,0-1.961-0.105-2.703-0.529  c-0.715-0.398-1.217-1.086-1.244-2.252h-1.695v4.211h1.695v-1.668h0.053c0.557,1.376,2.252,1.933,3.682,1.933  c2.463,0,5.031-1.085,5.031-3.892C298.868,132.205,296.46,131.861,294.311,131.49z"/> <path fill="#E41F49" d="M307.632,126.219c-3.918,0-6.436,2.357-6.436,6.304c0,3.945,2.518,6.302,6.436,6.302  c3.92,0,6.33-2.356,6.33-6.302C313.962,128.576,311.552,126.219,307.632,126.219z M307.632,137.13  c-2.729,0-4.105-2.119-4.105-4.607c0-2.489,1.377-4.608,4.105-4.608c2.727,0,4,2.119,4,4.608  C311.632,135.011,310.358,137.13,307.632,137.13z"/> <path fill="#E41F49" d="M320.182,128.948h-0.053v-2.463h-4.264v1.694h2.092v8.687h-2.092v1.694h6.752v-1.694h-2.488v-3.284  c0-2.462,0.396-5.667,3.443-5.667c0.502,0,0.951,0.079,1.295,0.133v-1.775c-0.289-0.025-0.58-0.053-0.979-0.053  C322.063,126.219,320.553,127.12,320.182,128.948z"/> <path fill="#E41F49" d="M332.204,137.13c-1.139,0-1.324-0.9-1.324-1.906v-7.045h3.945v-1.694h-3.945v-3.39l-2.172,0.742v2.647  h-2.355v1.694h2.355v6.091c0,2.463,0.105,4.555,3.178,4.555c2.596,0,3.549-1.482,3.549-3.972h-1.854  C333.581,135.859,333.501,137.13,332.204,137.13z"/> <path fill="#E41F49" d="M343.88,126.219c-3.918,0-6.436,2.357-6.436,6.304c0,3.945,2.518,6.302,6.436,6.302  c2.543,0,5.641-1.059,5.721-4.024h-2.014c-0.131,1.562-2.039,2.33-3.416,2.33c-2.832,0-4.395-1.218-4.395-3.999h9.93  C349.68,129.266,348.171,126.219,343.88,126.219z M339.776,131.437c0-2.225,1.852-3.522,3.945-3.522  c2.355,0,3.68,1.324,3.814,3.522H339.776z"/> <path fill="#E41F49" d="M364.348,121.241h-4.316v1.695h2.146v5.772h-0.055c-0.66-1.643-2.568-2.49-4.289-2.49  c-3.602,0-5.854,2.597-5.854,6.304c0,3.601,1.828,6.302,5.854,6.302c1.879,0,3.654-1.032,4.289-2.568h0.055v2.304h4.289v-1.694  h-2.119V121.241z M358.309,137.13c-2.754,0-3.996-2.225-3.996-4.607c0-2.568,1.242-4.608,3.996-4.608  c2.648,0,3.869,2.04,3.869,4.608C362.178,134.906,360.958,137.13,358.309,137.13z"/> <path fill="#E41F49" d="M186.557,135.749c-0.846,0-1.532,0.686-1.532,1.538c0,0.848,0.686,1.534,1.532,1.534  c0.854,0,1.54-0.691,1.54-1.534C188.096,136.435,187.411,135.749,186.557,135.749z"/> <path fill="#E41F49" d="M370.194,135.749c-0.844,0-1.529,0.686-1.529,1.538c0,0.848,0.686,1.534,1.529,1.534  c0.857,0,1.541-0.691,1.541-1.534C371.735,136.435,371.052,135.749,370.194,135.749z"/> <path fill="#EB6824" d="M38.665,54.042v-0.198c8.061-1.197,12.944-7.271,12.944-14.238c0-16.923-14.536-17.323-25.287-17.323H1  v6.375h5.908v52.363H1v6.371h25.323c14.331,0.004,27.275-2.291,27.275-18.32C53.597,59.415,47.927,53.945,38.665,54.042z   M15.668,28.658h10.655c6.565,0,15.929,0.194,15.929,10.948c0,10.253-7.768,11.749-16.131,11.749H15.668V28.658z M26.323,81.022  H15.668V57.724h10.655c9.655,0,17.91,1.498,17.91,11.348C44.232,79.527,35.584,81.022,26.323,81.022z"/> <path fill="#EB6824" d="M81.874,40.999c-14.735,0-24.194,8.864-24.194,23.694c0,14.833,9.458,23.693,24.194,23.693  c9.557,0,21.202-3.98,21.506-15.133h-7.567c-0.502,5.876-7.672,8.763-12.843,8.763c-10.654,0-16.525-4.58-16.525-15.03h37.328  C103.669,52.448,97.998,40.999,81.874,40.999z M66.445,60.613c0-8.361,6.965-13.241,14.825-13.241  c8.863,0,13.846,4.979,14.341,13.241H66.445z"/> <path fill="#EB6824" d="M217.78,81.022v6.369h17.441v-6.369h-4.631V56.829c0-10.455-5.877-15.83-16.34-15.83  c-6.361,0-11.848,3.285-14.43,9.062c-2.789-6.372-7.566-9.062-14.632-9.062c-6.876,0-12.443,3.285-14.339,9.062h-0.199v-8.066  h-13.261v6.371h5.097v32.656h-4.252h-0.896h-7.071V55.038c0-11.745-9.459-14.039-20.209-14.039  c-9.764,0-18.922,3.683-19.512,14.138h8.761c0.599-6.468,5.673-7.766,11.847-7.766c7.171,0,10.946,2.39,10.946,9.655v2.688h-8.759  c-10.949,0-24.491,0.8-24.491,14.638c0,10.155,8.767,14.035,17.827,14.035c7.269,0,13.239-3.186,15.23-10.35h0.193v9.356h16.134  v-0.002h17.052v-6.369h-4.635V62.404c0-7.669,3.385-15.028,12.245-15.028c9.656,0,9.859,6.765,9.561,14.529v19.117h-4.641v6.369  h17.436v-6.369h-4.631V61.905c0-7.662,3.18-14.529,12.045-14.529c9.459,0,9.75,7.559,9.75,14.529v19.117H217.78z M127.671,82.016  c-4.884,0-10.055-1.692-10.055-7.665c0-8.265,11.745-8.265,17.62-8.265h6.863C142.1,74.75,137.722,82.016,127.671,82.016z"/> <path fill="#EB6824" d="M283.173,73.191c-0.51,5.875-7.668,8.757-12.848,8.757c-10.656,0-16.529-4.576-16.529-15.033h37.33  c-0.098-14.534-5.768-25.982-21.896-25.982c-14.738,0-24.195,8.859-24.195,23.694c0,14.834,9.457,23.696,24.195,23.696  c9.555,0,21.203-3.983,21.494-15.132H283.173z M268.63,47.302c8.857,0,13.84,4.981,14.34,13.246h-29.174  C253.796,52.185,260.766,47.302,268.63,47.302z"/> <path fill="#E41B49" d="M240.747,31.946c4.609,0,8.355-3.74,8.355-8.353c0-4.607-3.746-8.348-8.355-8.348  c-4.611,0-8.352,3.741-8.352,8.348C232.395,28.206,236.135,31.946,240.747,31.946z"/> <path fill="#E41F49" d="M83.913,128.948h-0.053v-2.463h-4.264v1.694h2.092v8.687h-2.092v1.694h6.752v-1.694h-2.489v-3.284  c0-2.462,0.397-5.667,3.442-5.667c0.503,0,0.953,0.079,1.297,0.133v-1.775c-0.291-0.025-0.583-0.053-0.979-0.053  C85.794,126.219,84.284,127.12,83.913,128.948z"/> <path fill="#E41F49" d="M96.676,126.219c-3.919,0-6.435,2.357-6.435,6.304c0,3.945,2.516,6.302,6.435,6.302  c2.542,0,5.64-1.059,5.72-4.024h-2.013c-0.132,1.562-2.039,2.33-3.416,2.33c-2.833,0-4.396-1.218-4.396-3.999h9.93  C102.475,129.266,100.966,126.219,96.676,126.219z M92.572,131.437c0-2.225,1.854-3.522,3.945-3.522  c2.357,0,3.681,1.324,3.813,3.522H92.572z"/> <path fill="#E41F49" d="M110.948,137.13c-2.569,0-3.946-2.119-3.946-4.607c0-2.489,1.377-4.608,3.946-4.608  c1.934,0,3.23,1.219,3.417,3.125h1.721v-4.555h-1.694v1.509h-0.053c-0.689-1.218-2.039-1.774-3.39-1.774  c-3.76,0-6.276,2.357-6.276,6.304c0,3.945,2.516,6.302,6.276,6.302c2.701,0,5.19-1.377,5.296-4.316h-2.013  C113.993,136.282,112.642,137.13,110.948,137.13z"/> <path fill="#E41F49" d="M124.345,126.219c-3.919,0-6.435,2.357-6.435,6.304c0,3.945,2.516,6.302,6.435,6.302  c3.919,0,6.329-2.356,6.329-6.302C130.675,128.576,128.265,126.219,124.345,126.219z M124.345,137.13  c-2.728,0-4.104-2.119-4.104-4.607c0-2.489,1.377-4.608,4.104-4.608c2.728,0,3.999,2.119,3.999,4.608  C128.344,135.011,127.073,137.13,124.345,137.13z"/> <polygon fill="#E41F49" points="140.259,128.179 142.457,128.179 139.014,136.548 135.731,128.179 137.929,128.179   137.929,126.485 131.997,126.485 131.997,128.179 133.48,128.179 137.611,138.56 140.259,138.56 144.523,128.179 146.006,128.179   146.006,126.485 140.259,126.485  "/> <path fill="#E41F49" d="M154.081,126.219c-3.92,0-6.436,2.357-6.436,6.304c0,3.945,2.516,6.302,6.436,6.302  c2.542,0,5.64-1.059,5.72-4.024h-2.013c-0.133,1.562-2.04,2.33-3.416,2.33c-2.833,0-4.396-1.218-4.396-3.999h9.931  C159.88,129.266,158.37,126.219,154.081,126.219z M149.976,131.437c0-2.225,1.854-3.522,3.946-3.522  c2.357,0,3.682,1.324,3.813,3.522H149.976z"/> <path fill="#E41F49" d="M166.34,128.948h-0.053v-2.463h-4.264v1.694h2.092v8.687h-2.092v1.694h6.752v-1.694h-2.489v-3.284  c0-2.462,0.397-5.667,3.442-5.667c0.503,0,0.953,0.079,1.297,0.133v-1.775c-0.292-0.025-0.583-0.053-0.98-0.053  C168.22,126.219,166.711,127.12,166.34,128.948z"/> <path fill="#E41F49" d="M185.802,126.485h-5.694v1.694h2.33l-3.415,8.104l-3.47-8.104h2.331v-1.694h-6.038v1.694h1.325  l4.687,10.381c-0.742,1.43-0.822,2.939-2.649,2.939c-0.45,0-0.873-0.079-1.271-0.105v1.642c0.556,0.079,1.112,0.159,1.669,0.159  c2.462,0,3.044-1.431,3.918-3.496l4.952-11.52h1.324V126.485z"/></g></svg>