<?xml version="1.0" encoding="UTF-8"?>
<svg id="Layer_1" data-name="Layer 1" xmlns="http://www.w3.org/2000/svg" viewBox="0 0 150 60">
  <defs>
    <style>
      .cls-1 {
        fill: #1dabe3;
      }

      .cls-2 {
        fill: #2e90cd;
      }

      .cls-3 {
        fill: #cccdc9;
      }
    </style>
  </defs>
  <g>
    <g>
      <path class="cls-1" d="m25.27,42.89c1.92,1.45,4.32,2.59,7.27,3.26,3.44-.51,6.52-2.09,8.91-4.39-2.73,1.35-5.76,2.16-8.91,2.16-2.61,0-5.05-.36-7.28-1.02Z"/>
      <path class="cls-1" d="m37.87,30.06c6.71-.57,8.13-3.49,8.19-3.63-.35-1.56-.92-3.03-1.68-4.38-.62,1.31-1.84,2.35-3.78,2.86-2.85.76-8.58,1.28-15.05-1.57-1.75-.77-2.97-1.57-3.82-2.32-.62.91-1.21,1.94-1.71,3.11-.16.36-.29.75-.42,1.15,4.16,3.13,11.69,5.36,18.26,4.8Z"/>
      <path class="cls-1" d="m31.97,21c5.55,1.12,8.66-.49,9.01-1.9.13-.53,0-1.06-.29-1.56-2.27-1.93-5.08-3.25-8.17-3.7l-.35.38c.3.03.62.07.94.13,2.45.44,4.31,1.54,4.15,2.46-.16.93-2.29,1.32-4.74.89-2.45-.44-4.31-1.54-4.15-2.46,0,0-1.68.68-3.67,2.43.99,1.17,3.24,2.52,7.27,3.33Z"/>
      <path class="cls-1" d="m25.01,33.69c-2.62-.89-4.58-1.87-6.05-2.83.11,1.89.54,3.84,1.34,5.7,3.62,1.92,8.19,3.09,13.53,3.21,4.67.11,8.05-.8,11.08-2.84.79-1.69,1.3-3.53,1.48-5.47-2.41,3.52-11.4,5.64-21.38,2.23Z"/>
    </g>
    <g>
      <path class="cls-2" d="m14.79,35.61c2.29,6.25,8.29,10.72,15.34,10.72.82,0,1.62-.06,2.41-.18-2.96-.66-5.36-1.81-7.27-3.26-4.54-1.35-8.17-3.95-10.48-7.29Z"/>
      <path class="cls-2" d="m24.08,16.46c.04.35.24.76.62,1.21,1.99-1.74,3.67-2.43,3.67-2.43.14-.81,1.77-1.21,3.8-1.01l.35-.38c-.78-.11-1.57-.18-2.38-.18-1.6,0-3.14.23-4.6.66-.17.1-1.59.94-1.46,2.13Z"/>
      <path class="cls-2" d="m20.31,36.56c-.8-1.86-1.23-3.82-1.34-5.7-4.48-2.92-4.42-5.72-4.42-5.73-.48,1.54-.74,3.17-.74,4.86,0,.34.01.68.03,1.01,1.54,2.21,3.73,4.1,6.47,5.55Z"/>
      <path class="cls-2" d="m19.05,24.82c.18.15.37.29.56.43.13-.4.26-.78.42-1.15.5-1.17,1.09-2.2,1.71-3.11-2.22-1.98-1.88-3.63-1.86-3.71-1.19.96-2.25,2.09-3.13,3.35.02,1.2.52,2.69,2.3,4.18Z"/>
    </g>
    <g>
      <path class="cls-3" d="m25.27,42.89c-2.33-1.76-3.95-3.97-4.96-6.33-2.74-1.46-4.92-3.35-6.47-5.55.1,1.61.43,3.15.95,4.6,2.3,3.34,5.93,5.94,10.48,7.29Z"/>
      <path class="cls-3" d="m18.96,30.86c-.12-2.01.12-3.94.65-5.61-.19-.14-.38-.29-.56-.43-1.78-1.49-2.28-2.98-2.3-4.18-.95,1.36-1.71,2.87-2.21,4.49,0,0-.05,2.8,4.42,5.73Z"/>
      <path class="cls-3" d="m21.74,21c.95-1.39,1.99-2.49,2.95-3.33-.37-.44-.58-.86-.62-1.21-.14-1.19,1.29-2.03,1.46-2.13-2.09.61-4,1.63-5.65,2.96-.02.07-.36,1.73,1.86,3.71Z"/>
    </g>
  </g>
  <g>
    <path d="m56.7,23.45c-1.09,0-2.12.25-3.04.68.33-1.39.88-3.85.86-4.72-.03-1.23-2.14-2.38-2.14-2.38l-2.71,12.14s0,.01,0,.02v.02s0,0,0,0c-.09.46-.14.94-.14,1.43,0,3.97,3.22,7.19,7.19,7.19s7.19-3.22,7.19-7.19-3.22-7.19-7.19-7.19Zm0,11.57c-2.42,0-4.38-1.96-4.38-4.38s1.96-4.38,4.38-4.38,4.38,1.96,4.38,4.38-1.96,4.38-4.38,4.38Z"/>
    <path d="m66.21,23.58h2.96s-1.05,4.64-1.37,6.29.39,4.68,3.64,4.94c3.57.28,4.12-3.26,4.59-5.16s1.28-6.07,1.28-6.07h3.03s-1.29,6.16-2.11,8.95c-.81,2.79-2.91,5.26-6.92,5.1-4.33-.17-6.34-3.59-6.34-6.4,0-3.38,1.24-7.66,1.24-7.66Z"/>
    <path d="m93.99,19.05c-.64,1.82-1.12,5.27-1.33,6.93-1.32-1.55-3.28-2.53-5.47-2.53-3.97,0-7.19,3.22-7.19,7.19s3.22,7.19,7.19,7.19,6.61-2.89,7.19-7.19l2.88-13.61s-2.4-.43-3.26,2.03Zm-6.8,15.96c-2.42,0-4.38-1.96-4.38-4.38s1.96-4.38,4.38-4.38,4.38,1.96,4.38,4.38-1.96,4.38-4.38,4.38Z"/>
    <path d="m102.86,23.45c-3.97,0-7.19,3.22-7.19,7.19s3.22,7.19,7.19,7.19c1.05,0,2.04-.23,2.94-.63-.03.46-.08,1.37-.19,2.13-.15,1.07-1.07,2.76-2.75,3.44-.73.3-1.68.29-2.43.54-.96.32-1.67.98-1.85,2.57h2.13c.8,0,5.6.13,7.14-4.58,1.1-3.38,1.78-7.37,2.04-9.18.06-.29.13-.98.13-.98.01-.17.03-.33.03-.5,0-3.97-3.22-7.19-7.19-7.19Zm0,11.57c-2.42,0-4.38-1.96-4.38-4.38s1.96-4.38,4.38-4.38,4.38,1.96,4.38,4.38-1.96,4.38-4.38,4.38Z"/>
    <path d="m125.41,32.16c.11-.49.17-1,.17-1.53,0-3.97-3.22-7.19-7.19-7.19s-7.19,3.22-7.19,7.19,3.22,7.19,7.19,7.19c2.33,0,4.39-1.11,5.71-2.83-.23-.24-.68-.62-1.33-.75-.89-.18-1.57.18-2.59.5,0,0-.02,0-.02,0-.54.24-1.14.38-1.77.38-1.92,0-3.53-1.24-4.13-2.96h11.15Zm-11.14-2.84c.59-1.71,2.21-2.95,4.12-2.95s3.53,1.24,4.12,2.95h-8.25Z"/>
    <path d="m131.88,23.6c.72-3.5,1.29-6.38,1.29-6.38-2.02-.24-3.07.81-3.57,3.05s-3.76,17.55-3.76,17.55c0,0,2.65,0,3.38-2.16.33-.99,1.24-5.17,2.09-9.29h2.43c2.2,0,2.46-2.77,2.46-2.77h-4.32Z"/>
  </g>
  <g>
    <path d="m49.23,46.26h-.85l1.09-5.13h.85l-1.09,5.13Zm1.33-6.24h-.93l.22-1.01h.93l-.22,1.01Z"/>
    <path d="m55.48,46.26h-.85l.7-3.34c.03-.16.05-.32.05-.47,0-.41-.24-.66-.68-.66-.62,0-1.17.55-1.35,1.4l-.65,3.08h-.84l.81-3.83c.08-.38.14-.72.23-1.3h.81l-.13.76h.02c.39-.6.8-.83,1.45-.83.72,0,1.21.45,1.21,1.21,0,.1,0,.29-.12.85l-.66,3.14Z"/>
    <path d="m58.1,45.34c.36.19.68.3,1.13.3.53,0,.99-.23.99-.83,0-.48-.64-.82-.79-.94-.21-.15-.83-.48-.83-1.25,0-.97.68-1.57,1.8-1.57.38,0,.85.08,1.09.16l-.21.75c-.28-.13-.55-.23-.92-.23-.55,0-.92.33-.92.74,0,.43.34.63.72.9.6.41.92.64.92,1.35,0,.99-.76,1.6-1.88,1.6-.57,0-1.02-.1-1.35-.23l.25-.75Z"/>
    <path d="m66.74,46.26h-.82l.13-.76h-.02c-.4.61-.8.84-1.44.84-.73,0-1.2-.47-1.2-1.19,0-.12,0-.32.12-.87l.66-3.14h.85l-.69,3.31c-.04.19-.06.36-.06.51,0,.4.23.65.67.65.62,0,1.16-.5,1.34-1.37l.65-3.11h.85l-.92,4.36-.12.76Z"/>
    <path d="m70.11,46.26h-.84l.82-3.86c.09-.41.15-.89.22-1.27h.81l-.14.8h.02c.47-.73.78-.88,1.64-.88l-.17.83c-.11-.02-.2-.03-.31-.03-.69,0-1.25.57-1.47,1.61l-.58,2.79Z"/>
    <path d="m77.17,45.6c-.06.29-.08.48-.1.65h-.76l.1-.71h-.02c-.41.52-.84.78-1.4.78-.85,0-1.38-.52-1.38-1.37,0-1.35,1.01-1.84,2.71-1.84h.57c.05-.19.1-.47.1-.66,0-.41-.32-.71-.82-.71-.53,0-1.02.17-1.49.48v-.78c.57-.29,1.04-.38,1.56-.38,1.03,0,1.56.64,1.56,1.34,0,.17-.04.44-.07.57l-.55,2.64Zm-.4-1.88h-.04c-1.61,0-2.27.27-2.27,1.18,0,.47.33.78.76.78.66,0,1.24-.59,1.4-1.3l.15-.66Z"/>
    <path d="m83.18,46.26h-.85l.7-3.34c.03-.16.05-.32.05-.47,0-.41-.24-.66-.68-.66-.62,0-1.17.55-1.35,1.4l-.65,3.08h-.84l.81-3.83c.08-.38.14-.72.23-1.3h.81l-.13.76h.02c.39-.6.8-.83,1.45-.83.72,0,1.21.45,1.21,1.21,0,.1,0,.29-.12.85l-.66,3.14Z"/>
    <path d="m88.9,46.13c-.31.12-.64.2-1.01.2-1.11,0-1.92-.72-1.92-1.99,0-1.66,1.05-3.28,2.74-3.28.47,0,.83.09,1.12.21l-.21.76c-.23-.17-.52-.25-.89-.25-1.17,0-1.86,1.21-1.86,2.49,0,.85.48,1.33,1.15,1.33.43,0,.76-.12,1-.28l-.11.8Z"/>
    <path d="m94.39,46.04c-.36.15-.82.29-1.35.29-1.16,0-1.82-.64-1.82-1.86,0-1.4.8-3.41,2.42-3.41.96,0,1.56.61,1.56,1.59,0,.43-.1.87-.19,1.3h-2.92c-.04.19-.05.35-.05.51,0,.81.4,1.23,1.1,1.23.43,0,.85-.15,1.32-.39l-.07.74Zm-.07-2.74c.07-.25.1-.44.1-.67,0-.56-.3-.93-.79-.93-.59,0-1.13.54-1.41,1.6h2.1Z"/>
  </g>
</svg>