<?xml version="1.0" encoding="UTF-8"?>
<svg xmlns="http://www.w3.org/2000/svg" version="1.1" viewBox="0 0 800 800">
  <defs>
    <style>
      .cls-1 {
        fill: #ded41e;
      }
    </style>
  </defs>
  <!-- Generator: Adobe Illustrator 28.7.4, SVG Export Plug-In . SVG Version: 1.2.0 Build 166)  -->
  <g>
    <g id="Layer_1">
      <path class="cls-1" d="M500,618.8h-200c-17.2,0-31.2,14-31.2,31.2v50h0c0,8.6,3.5,16.5,9.2,22.1l50,50c5.6,5.6,13.5,9.1,22.1,9.1h100.1c8.6,0,16.4-3.5,22.1-9.1l50-50c5.6-5.6,9.1-13.5,9.1-22.1h0v-50.1c0-17.3-14-31.2-31.2-31.2h0ZM468.8,687.1l-31.7,31.7h-74.1l-31.7-31.7v-5.8h137.5v5.8ZM678.1,313.9c0-2.4.1-5.3.1-8.2,0-54.6-16.3-105.4-44.4-147.7l.6,1c-48-81.3-133.2-136.2-231.6-141.1h-.7s-1.8,0-1.8,0c-98.4,4.1-183.4,57.3-231.9,135.6l-.7,1.2c-29.3,42.2-46.7,94.4-46.7,150.8v.9h0c4.6,57.3,23.1,109.5,52,154.3l-.8-1.3c8.1,13.9,16.6,27.5,25.2,41.1,16.8,24.8,32.9,53.3,46.6,83.1l1.6,3.8c4.9,11.4,15.9,19.2,28.8,19.2h0c4.3,0,8.5-.9,12.2-2.5h-.2c11.4-4.8,19.2-15.9,19.2-28.8s-.9-8.5-2.5-12.2v.2c-16.6-37-34.3-68.5-54.3-98.2l1.5,2.4c-8.2-13.1-16.4-26.1-24-39.4-23.5-34.9-38.9-77.1-42.8-122.5v-1c.4-43.4,14.1-83.5,37.1-116.6l-.4.7c37.8-62.3,103.7-104.3,179.6-108.3h.5s1.3,0,1.3,0c76.8,5.3,142.4,48.4,179.1,110.6l.6,1c21.6,32.3,34.5,72.1,34.5,114.8s0,2.7,0,4v-.2c-5.5,46-21.4,87.4-45.2,123l.6-1c-7.2,12.2-14.7,24.2-22.2,36.1-17.9,26.6-35.3,57.5-50.5,89.5l-1.8,4.4c-1.7,3.7-2.7,8-2.7,12.6,0,17.3,14,31.2,31.2,31.2s23.8-7.7,28.6-18.7v-.2c15.7-33.2,31.7-61.3,49.5-88l-1.5,2.4c7.8-12.4,15.6-24.9,23.1-37.6,28.3-42.7,47.3-93.9,53-149v-1.4c.1,0,.1,0,.1,0ZM378.5,142.2c-5-11-15.8-18.4-28.4-18.4s-9.1,1-13.1,2.9h.2c-61.6,35.3-105.4,95.7-117.8,166.8l-.2,1.4c-.3,1.5-.4,3.3-.4,5.1,0,15.4,11.2,28.2,25.9,30.8h.2c1.6.3,3.4.5,5.2.5h0c15.4,0,28.2-11.2,30.8-25.8v-.2c9.2-51.7,39.4-94.9,81.3-121.3l.7-.4c10.9-5,18.4-15.8,18.4-28.5s-1-9.1-2.9-13.1v.2c0,0,.1,0,.1,0ZM36,78l100,50c4,2,8.7,3.1,13.7,3.1,17.3,0,31.2-14,31.2-31.2s-6.8-22.5-16.8-27.7h-.2c0,0-100-50.1-100-50.1-4-2-8.7-3.1-13.7-3.1-17.3,0-31.2,14-31.2,31.3s6.8,22.5,16.8,27.7h.2ZM650,131.2h0c5.1,0,9.9-1.2,14.1-3.4h-.2c0,0,100-49.9,100-49.9,10.2-5.3,17-15.8,17-27.8,0-17.3-14-31.2-31.2-31.2s-9.7,1.2-13.9,3.2h.2c0,0-100,49.9-100,49.9-10.3,5.3-17.3,15.8-17.3,28,0,17.3,14,31.2,31.2,31.2h0ZM764,522.1l-100-50c-4.1-2.1-8.9-3.3-14-3.3-17.3,0-31.2,14-31.2,31.2s6.9,22.7,17.1,27.9h.2c0,0,100,50.1,100,50.1,4.1,2.1,8.9,3.3,14,3.3,17.3,0,31.2-14,31.2-31.2s-6.9-22.7-17.1-27.9h-.2ZM139,471.7l-97.8,45.7c-10.7,5.1-17.9,15.9-17.9,28.3s14,31.2,31.3,31.2,9.3-1.1,13.3-3h-.2c0,0,97.8-45.7,97.8-45.7,10.7-5.1,17.9-15.9,17.9-28.3s-14-31.2-31.2-31.2-9.3,1.1-13.3,3h.2ZM50,331.2h25c17.3,0,31.2-14,31.2-31.2s-14-31.2-31.2-31.2h-25c-17.3,0-31.2,14-31.2,31.2s14,31.2,31.2,31.2h0ZM750,268.8h-25c-17.3,0-31.2,14-31.2,31.2s14,31.2,31.2,31.2h25c17.3,0,31.2-14,31.2-31.2s-14-31.2-31.2-31.2h0Z"/>
    </g>
  </g>
</svg>