<?xml version="1.0" encoding="UTF-8"?>
<svg version="1.1" xmlns="http://www.w3.org/2000/svg" width="512" height="512">
<path d="M0 0 C4.84825341 2.11560149 7.27972083 5.04325011 9.359375 9.79296875 C10.52279821 13.80110359 10.37495864 17.0635702 9 21 C4.44515036 28.73525342 -4.24976635 34.58538407 -11.02587891 40.32421875 C-12.92496043 41.93630081 -14.81395429 43.5592941 -16.69921875 45.1875 C-21.97298045 49.73890744 -27.26979694 54.24472944 -32.6875 58.625 C-37.37594687 62.42792763 -41.81769663 66.45113712 -46.2578125 70.5390625 C-48.90015883 72.91039895 -51.60694167 75.15252997 -54.375 77.375 C-59.8117971 81.76177191 -64.90371523 86.45989882 -70.0078125 91.22265625 C-72.32240262 93.38077719 -74.66895746 95.4917381 -77.0625 97.5625 C-80.92039497 100.90059439 -84.67436744 104.34852071 -88.42675781 107.80395508 C-91.69765052 110.81398221 -94.99509941 113.79110084 -98.3125 116.75 C-101.72322545 119.80714147 -104.98922779 122.95540145 -108.19374084 126.22618103 C-109.94774291 127.94868144 -111.75986912 129.54479603 -113.63061523 131.13891602 C-118.38598257 135.27698602 -122.83479484 139.69088397 -127.28515625 144.15234375 C-128.14507675 145.01130753 -129.00499725 145.8702713 -129.89097595 146.75526428 C-131.69815861 148.56177015 -133.50409392 150.36952462 -135.30883789 152.1784668 C-138.05438393 154.9293681 -140.80522546 157.67489221 -143.55664062 160.41992188 C-145.3206332 162.18457532 -147.0843155 163.94953897 -148.84765625 165.71484375 C-149.66138199 166.52654526 -150.47510773 167.33824677 -151.31349182 168.17454529 C-155.53357399 172.41180334 -159.60602603 176.71899678 -163.49830627 181.26019287 C-165.87843759 184.01772549 -168.38339105 186.65612539 -170.875 189.3125 C-175.36189457 194.13582423 -179.62289013 199.08155978 -183.74609375 204.22265625 C-185.7143136 206.64796702 -187.7331608 209.01797862 -189.77880859 211.37792969 C-221.55845531 248.19482907 -248.91202598 291.48223965 -265.19750977 337.39892578 C-269.26969152 348.87516494 -269.26969152 348.87516494 -273.51171875 351.6328125 C-275.08373047 352.37144531 -275.08373047 352.37144531 -276.6875 353.125 C-277.2863501 353.41157471 -277.8852002 353.69814941 -278.50219727 353.9934082 C-282.46192982 355.87158656 -286.46123299 357.66413276 -290.453125 359.47265625 C-292.44815415 360.3770805 -294.44293823 361.28204549 -296.4375 362.1875 C-297.97096069 362.8834729 -297.97096069 362.8834729 -299.53540039 363.59350586 C-306.83489861 366.93539695 -314.00923183 370.47090537 -321.125 374.1875 C-322.5629895 374.93761353 -322.5629895 374.93761353 -324.0300293 375.70288086 C-328.79492903 378.21737811 -333.43818225 380.84361489 -338.01513672 383.68383789 C-344.38729509 387.59985472 -349.52032212 389.62874058 -357 388 C-364.53606136 384.87182359 -367.46816483 376.99908401 -371.00390625 370.10546875 C-378.62215367 355.28999108 -387.2357584 341.15436654 -396 327 C-396.5760498 326.06494629 -397.15209961 325.12989258 -397.74560547 324.16650391 C-410.7199222 303.13340791 -425.08635537 282.9192571 -441 264 C-441.88674192 262.92580037 -442.77345942 261.8515806 -443.66015625 260.77734375 C-449.27896228 254.03496874 -455.17177936 247.6478598 -461.375 241.4375 C-462.04088135 240.77081299 -462.7067627 240.10412598 -463.39282227 239.41723633 C-466.28722816 236.55556024 -469.18663652 233.79501262 -472.35546875 231.23828125 C-476.16087154 228.01746028 -477.74050768 224.82388696 -478.19921875 219.83203125 C-477.97788378 213.0638408 -474.75593881 209.50562624 -470 205 C-469.11634766 204.12214844 -469.11634766 204.12214844 -468.21484375 203.2265625 C-453.65848725 189.56645725 -436.4531506 183.41210043 -416.8671875 183.7265625 C-395.2136109 184.57260166 -377.69319285 200.10786086 -363.61425781 215.19482422 C-350.63214698 229.71232687 -340.64237172 246.94380509 -331.3125 263.9375 C-330.79494141 264.87932129 -330.27738281 265.82114258 -329.74414062 266.79150391 C-329.26783203 267.67370605 -328.79152344 268.5559082 -328.30078125 269.46484375 C-327.87966064 270.244646 -327.45854004 271.02444824 -327.0246582 271.82788086 C-326.05344443 273.88670595 -325.46125021 275.77721027 -325 278 C-324.34 278 -323.68 278 -323 278 C-322.72776611 277.26370361 -322.45553223 276.52740723 -322.17504883 275.76879883 C-321.05952475 273.14025976 -319.8241192 271.0374513 -318.19921875 268.69921875 C-317.64081299 267.89492432 -317.08240723 267.09062988 -316.50708008 266.26196289 C-315.90661865 265.41239014 -315.30615723 264.56281738 -314.6875 263.6875 C-314.06447998 262.80247803 -313.44145996 261.91745605 -312.79956055 261.00561523 C-306.88902125 252.69650964 -300.55793227 244.80204161 -294 237 C-293.05413561 235.85983262 -292.10880578 234.71922151 -291.1640625 233.578125 C-285.21766022 226.43227929 -279.0147924 219.55342163 -272.65820312 212.77148438 C-270.87641687 210.86797421 -269.10206466 208.95769843 -267.328125 207.046875 C-248.01353998 186.28425304 -248.01353998 186.28425304 -237.859375 177.640625 C-235.81699172 175.83852211 -233.91098289 173.94061053 -232 172 C-228.87154036 168.82910002 -225.63144648 165.8743004 -222.25390625 162.97265625 C-220.04015714 161.0351462 -217.87757752 159.0485561 -215.72119141 157.04760742 C-210.51462801 152.21815105 -205.18264588 147.6355974 -199.6484375 143.1796875 C-197.02724881 141.02242601 -194.50845719 138.78689 -192 136.5 C-186.82812206 131.79383618 -181.4379003 127.39333188 -176 123 C-174.26990474 121.58446752 -172.54074945 120.16778547 -170.8125 118.75 C-168.8751893 117.16643505 -166.93766862 115.58312697 -165 114 C-164.09241943 113.2567749 -164.09241943 113.2567749 -163.16650391 112.49853516 C-154.2231634 105.17760977 -145.19432683 98.00245469 -136 91 C-133.99933461 89.45919693 -131.99935347 87.91750505 -130 86.375 C-127.66822527 84.58129935 -125.33439966 82.7902828 -123 81 C-122.23655273 80.41444336 -121.47310547 79.82888672 -120.68652344 79.22558594 C-109.00151628 70.2717842 -97.24063433 61.43423477 -85.36474609 52.73535156 C-82.93335199 50.95109085 -80.50700464 49.16016328 -78.08203125 47.3671875 C-67.46615719 39.51920429 -56.78513355 31.77814939 -45.9921875 24.17578125 C-45.29778564 23.68658203 -44.60338379 23.19738281 -43.88793945 22.69335938 C-42.46753152 21.6928939 -41.04679795 20.69289058 -39.62573242 19.69335938 C-35.7501397 16.96167955 -31.89402757 14.20580609 -28.05859375 11.41796875 C-27.24487305 10.82669189 -26.43115234 10.23541504 -25.59277344 9.6262207 C-24.02245511 8.48291037 -22.45400623 7.3370267 -20.88769531 6.18823242 C-20.17581055 5.6697876 -19.46392578 5.15134277 -18.73046875 4.6171875 C-17.79303833 3.93052002 -17.79303833 3.93052002 -16.83666992 3.22998047 C-11.32467667 -0.46128923 -6.53835015 -0.74019058 0 0 Z " fill="#83CF8F" transform="translate(490,62)"/>
</svg>
