<?xml version="1.0" encoding="UTF-8"?>
<svg id="Layer_1" xmlns="http://www.w3.org/2000/svg" version="1.1" viewBox="0 0 93.1 40.8">
  <!-- Generator: Adobe Illustrator 29.1.0, SVG Export Plug-In . SVG Version: 2.1.0 Build 142)  -->
  <defs>
    <style>
      .st0 {
        fill: #477e30;
      }

      .st1 {
        fill: #73ae2c;
      }
    </style>
  </defs>
  <path class="st0" d="M78.8,17c.3,1.1,1,2.1,1.7,3s1.8,1.6.9,2.5-1.6,0-2.1-.6c-3.3-3.6-3.8-9.4-1.5-13.6,2.5-4.7,8-7.2,13.2-5.9,1.9,7.6-4.4,15.2-12.2,14.7Z"/>
  <path d="M51.5,27.7v-1.9c0,0-.4.8-.4.8-3.2,3.1-6.4.8-5.7-3.4.8-4.9,5.9-6.6,10.3-5.1-.5,3.2-1.5,6.3-1.4,9.6h-2.7ZM51.1,19.9c-1.2.2-2.2,1.5-2.6,2.6s-.6,3.2,1.1,3.1,1.9-2,2.2-3,.5-2.5.5-2.6c0-.2-1-.2-1.2-.1Z"/>
  <path class="st1" d="M75.8,16.5c-5.1-1.5-8.7-6.6-8.4-12,2.8-.1,5.7.8,7.9,2.6s1.1.8,1,1.2c-1.2,2.6-1.3,5.5-.5,8.2Z"/>
  <path d="M65.4,23.9c.1,2.5,3.4,1.9,5,1.2l.2,2.2c-3,1.2-7.6,1.3-8-2.9-.3-3.8,2.6-7.2,6.6-6.7s2.4,1.1,2.6,2.3c.6,3.8-3.6,4.1-6.4,4ZM65.6,21.8h1.4c.2,0,1-.2,1.3-.3,1.1-.5.9-1.7-.3-1.7s-2.1,1-2.3,2Z"/>
  <path d="M56.5,20l.4-2.2h1.3c.3-2.5,1.6-4.6,4.3-4.7s1.7,0,1.8.3l-.4,2.2c-1.6-.6-2.7.6-2.7,2.1h1.9l-.5,2.2h-2c0,0-1.4,7.7-1.4,7.7h-2.9l1.4-7.7h-1.2Z"/>
  <path d="M13.1,13.4l-2.6,14.4h-1.5l.2-1.8c-1.1,1.4-2.7,2.5-4.6,1.9s-1.8-1.7-1.9-2.9c-.3-3.7,2.5-7.5,6.4-7.2s1.3.3,1.4.2l.9-4.6h1.7ZM8.3,19.1c-2.6.3-4.1,3.5-3.8,5.8s2,2.1,3.3,1.1,1.9-4.3,2.4-6.5c0-.4-1.6-.5-1.9-.5Z"/>
  <path d="M24.8,13.4l-1.2,6.3c1.7-2.5,5.7-3,6.4.6s-2,7.5-5.7,7.7-3.7-1-3.3-3.5l2.2-11.1h1.7ZM24.4,20c-.7.7-1.1,1.5-1.3,2.4-.5,1.7-1.2,4.5,1.6,4.2s4.3-4.3,3.3-6.5-2.6-1.1-3.6,0Z"/>
  <path d="M44.7,18.1l-.7,2.1c-.8-.3-2.1-.7-2.9-.3-1.6.9,1.5,2.1,2.1,2.6s.8.9.8,1.5c.5,4.1-4.8,4.7-7.5,3.2l.6-2.1c.8.4,3.6,1.3,3.9,0s-1.3-1.4-1.9-1.8c-1.1-.8-1.6-1.6-1.3-3,.6-2.8,4.7-3.1,6.9-2.2Z"/>
  <path d="M13.9,23.5c-.4,3.4,2.7,3.8,5,2.5l.2,1.2c0,.2-1.1.6-1.4.6-8.6,2.2-6.3-10.6.2-10.1s2.3.9,2.4,2.2c.4,3.4-4.2,3.6-6.5,3.6ZM14.2,22.1c1.3,0,4.4,0,4.6-1.7s-.5-1.3-1.2-1.4c-1.7-.2-3.2,1.5-3.4,3.1Z"/>
  <path d="M30.9,19.2l.3-1.3h1.4s.4-1.8.4-1.8l1.8-.5-.4,2.3h2.3l-.3,1.3c-.2.1-1.8,0-2.2,0s-.2,0-.2.1c-.2,1.8-.7,3.5-1,5.2s-.1,2.2,1.7,1.9v1.3c-.9.4-2.4.4-3.1-.4s-.4-1.4-.4-2.2l1.1-5.8v-.2h-1.4Z"/>
  <polygon points="28.5 32.4 29.6 35.6 30.2 32.5 31 32.4 30.2 36.9 29.3 36.9 28.1 33.5 27.5 36.9 26.7 36.9 27.6 32.4 28.5 32.4"/>
  <path d="M43.1,34.5c0,.3.3.3.5.5.4.7,0,1.5-.7,1.8s-1.6.3-2.4.2l.9-4.5c.7-.1,1.4-.2,2,0s.7,1.7-.3,1.9ZM41.7,34.3c1.5.2,2-1.5.2-1.2l-.2,1.2ZM41.3,36.3c1.7.4,2.3-1.7.3-1.4l-.3,1.4Z"/>
  <path d="M50.7,33.8c.1.1-.5,3.1-.6,3.5-.4,1-1,1.2-2.1,1.1s-.7-.1-.6-.8c1,.3,1.8.3,2-.9s0,0-.1,0c-.3.2-.4.4-.9.4-1.3,0-1.2-1.7-.6-2.5s1.8-1.1,2.9-.7ZM49.8,34.3c-1.1-.6-2.1,1.6-1.2,2s1.3-1.4,1.2-2Z"/>
  <path d="M65.4,38.2l.2-.6c.9.4,2,0,1.9-1.1-.8.9-2,.4-2-.8s1.8-2.6,3.3-1.9c0,0,0,.5,0,.6-.1.8-.4,2.8-.8,3.3s-1.7.8-2.5.4ZM67.9,34.3c-.2,0-.3,0-.5,0-1.2,0-1.5,2.3-.5,2.1s.8-1.5,1-2Z"/>
  <path d="M35.3,33.7v2.3c0,0,1.2-2.3,1.2-2.3h.6s.3,2.4.3,2.4l.9-2.4h.9c-.3.4-1.3,3-1.6,3.2s-.6,0-.8,0l-.2-2.2c-.2.4-.7,1.9-1,2.1s-.6,0-.8,0l-.3-3.3h.8Z"/>
  <path d="M59.3,36.9h-.9c.1-.8.4-1.7.3-2.5h0c-1.3-.3-1.2,1.6-1.5,2.4h-.8c0,0,.6-3.2.6-3.2h.7s0,.4,0,.4c.4-.4.9-.7,1.5-.4,1,.5,0,2.4,0,3.3Z"/>
  <path d="M64.6,36.9h-.8c-.1,0,.5-2,.3-2.5s-.5-.1-.7,0c-.7.4-.7,1.9-.9,2.6h-.8s.5-3.3.5-3.3h.8s0,.5,0,.5l.5-.4c2.3-.9,1.3,2,1.1,3.2Z"/>
  <path d="M55.5,36.9h-.9c0-.6.5-1.6.4-2.2s-.1-.5-.4-.5c-1,0-1.1,2-1.2,2.7h-.9s.6-3.3.6-3.3h.7s0,.4,0,.4c.4-.4.9-.7,1.5-.5,1,.4,0,2.5.1,3.3Z"/>
  <path d="M31.9,35.6c.1,1,.9.8,1.7.6v.4c0,0,0,.2,0,.2-1.8.8-3.1-.6-2.1-2.3s2.7-1.3,2.7,0-1.5,1.1-2.2,1ZM33.2,34.8c.7-.7-1.2-.9-1.1.2.3,0,.9,0,1.1-.2Z"/>
  <path d="M45,35.6c0,1.1,1,.8,1.7.6.2.9-1,.9-1.6.8-1.4-.3-1-2.7.2-3.2,1.7-.8,2.6,1.1,1.1,1.7s-.9.2-1.4.2ZM45.1,35c.3,0,1.1,0,1.2-.3v-.3c-.3-.5-1.2.2-1.2.6Z"/>
  <path d="M71.3,34.4c-.3-.2-1.1-.3-1.1.1s1.3.6,1.1,1.6-1.5,1.1-2.3.8v-.6c.2,0,1.3.5,1.4-.1,0-.6-.8-.5-1-1.2-.3-1.1,1.3-1.7,2.1-1.1l-.2.6Z"/>
  <polygon points="52.4 33.7 51.8 36.9 51 36.9 51.6 33.7 52.4 33.7"/>
  <polygon points="61.5 33.7 60.9 36.9 60.1 36.9 60.7 33.7 61.5 33.7"/>
  <path d="M52.5,33.1c-.4.4-1.1-.2-.7-.7s1.2.2.7.7Z"/>
  <path d="M60.9,33.1c-.4-.4.3-1.1.7-.7s-.3,1.1-.7.7Z"/>
</svg>