<svg id="Layer_1" data-name="Layer 1" xmlns="http://www.w3.org/2000/svg" viewBox="0 0 278.29 47.02"><defs><style>.cls-1{fill:#f9a800;}</style></defs><title>Vector Smart Object</title><path class="cls-1" d="M78.22,30.8c-1,.94-2.88,1.25-3.95,1.44l-3.32.5c-3.82.56-5.89,1.75-5.89,4.51C65.07,39.32,67,41,70.14,41c5,0,8.08-3.26,8.08-6.64V30.8Zm9.15,6.58c0,3.82.94,4.7,0.94,6.14,0,2.07-1.94,3.51-4.14,3.51-3.95,0-5.26-2.51-5.39-5.32A15.75,15.75,0,0,1,66.26,47c-5.2,0-10.34-3.57-10.34-9.33,0-7.58,5.76-9.71,12.78-10.52l5.57-.63c2.19-.25,3.95-0.75,3.95-3.38s-2.69-3.76-5.76-3.76c-6.76,0-7,5-10.59,5A3.64,3.64,0,0,1,58,20.9c0-3.63,5.13-8.27,14.53-8.27,8.77,0,14.85,2.82,14.85,9.4V37.37Zm81.76-20.67a4.11,4.11,0,1,1,8.23,0v4.12c0.92-3.66,3.2-8.23,7.77-8.23,2.74,0,5,1.83,5,4.57a5,5,0,0,1-4.57,5h-1.83c-3.66,0-5.49,1.83-5.49,9.6V42.41c0,2.44-1,4.57-4.57,4.57s-4.57-2.13-4.57-4.57V16.71Zm46.21,9.58c-0.5-4.2-3.63-7.27-7.71-7.27-4.57,0-7.33,2.82-8.33,7.27h16Zm-16,5.26c0,4.82,3.13,8.33,8.46,8.33,6.89,0,6.89-4.51,10.59-4.51a3.78,3.78,0,0,1,3.76,3.57c0,5.51-8.83,8.08-14.34,8.08-12.78,0-17.6-8.64-17.6-16.6,0-10.65,6.45-17.79,17.29-17.79,10.52,0,16.54,7.46,16.54,15,0,3.13-.94,3.95-4,3.95H199.3Zm45-18.92c7.64,0,13.34,4.32,13.34,8.58,0,2.63-1.94,3.95-4.26,3.95-4.32,0-2.76-5.39-9.33-5.39-3.57,0-7.77,2.44-7.77,10.71,0,5.7,2.69,9.4,7.7,9.4,6.39,0,5-5.89,9.83-5.89a3.62,3.62,0,0,1,3.82,3.51c0,4-4.51,9.52-13.9,9.52-11.28,0-16.6-7-16.6-16.54,0-10.52,5.95-17.85,17.16-17.85m17.91,6.83V7.87c0-3,1.82-4.57,4.57-4.57s4.57,1.57,4.57,4.57v5.58h2.76c2.69,0,4.13.81,4.13,3s-1.44,3-4.13,3H271.4V37.75c0,1.38.75,2.13,2.38,2.13h1.31A2.87,2.87,0,0,1,278.29,43c0,2.63-2.25,4.07-6.64,4.07-6.64,0-9.39-2.76-9.39-8.14V19.46ZM44.73,0A4.76,4.76,0,1,1,40,4.76,4.76,4.76,0,0,1,44.73,0M40.16,17.16c0-2.44,1-4.57,4.57-4.57s4.57,2.13,4.57,4.57V42.41c0,2.44-1,4.57-4.57,4.57s-4.57-2.13-4.57-4.57V17.16ZM16.41,39.84c5.32,0,7.33-4.76,7.33-10,0-4.7-1.75-10.21-7.33-10.15-5.83,0-7.27,5.89-7.27,10.15,0,5.39,2.38,9.83,7.27,10m16-2.46c0,4.12,1.37,4.12,1.37,5.94,0,2.29-2.29,3.66-4.57,3.66-4.11,0-5.49-2.74-5.49-5.48-1.5,3.88-4.9,5.48-9.35,5.48C6.7,47,0,41.4,0,29.57c0-8.77,4.45-17,14.09-17,4.07,0,7.2,1.69,9,4.64h0.13V4.82c0-3,1.82-4.57,4.57-4.57s4.57,1.57,4.57,4.57V37.38ZM156.33,0a4.76,4.76,0,1,1-4.76,4.76A4.76,4.76,0,0,1,156.33,0m-4.57,17.16c0-2.44,1-4.57,4.57-4.57s4.57,2.13,4.57,4.57V42.41c0,2.44-1,4.57-4.57,4.57s-4.57-2.13-4.57-4.57V17.16ZM128,39.84c5.32,0,7.33-4.76,7.33-10,0-4.7-1.75-10.21-7.33-10.15-5.82,0-7.27,5.89-7.27,10.15,0,5.39,2.38,9.83,7.27,10m16-2.46c0,4.12,1.37,4.12,1.37,5.94,0,2.29-2.29,3.66-4.57,3.66-4.12,0-5.49-2.74-5.49-5.48-1.5,3.88-4.9,5.48-9.35,5.48-7.64,0-14.34-5.58-14.34-17.41,0-8.77,4.45-17,14.09-17,4.07,0,7.2,1.69,9,4.64h0.13V4.82c0-3,1.82-4.57,4.57-4.57S144,1.82,144,4.82V37.38Zm-38.78,0c0,4.12,1.37,4.11,1.37,5.94,0,2.29-2.29,3.66-4.57,3.66-4.11,0-5.94-2.74-5.94-5.48V4.82c0-3,1.82-4.57,4.57-4.57s4.57,1.57,4.57,4.57V37.38Z"/></svg>