<?xml version="1.0" encoding="UTF-8"?>
<svg id="Layer_1" xmlns="http://www.w3.org/2000/svg" version="1.1" viewBox="0 0 1370.1 720">
  <!-- Generator: Adobe Illustrator 29.1.0, SVG Export Plug-In . SVG Version: 2.1.0 Build 142)  -->
  <defs>
    <style>
      .st0 {
        fill: #00954d;
      }

      .st1 {
        fill: #fedd00;
      }
    </style>
  </defs>
  <g>
    <path class="st0" d="M74.3,220.7v-100.4h35.3v70c12.1-.4,22-5.6,29.8-15.5s11.6-20.9,11.6-32.8-1.5-13.5-4.5-17c-3-3.5-6.2-5.9-9.7-7.1-2.3-.8-4.5-1.2-6.7-1.3-2.1-.1-3.9-.2-5.2-.2l-57.3-.2,8.2-30.4h57.3c20.1.1,34.2,5.6,42.1,16.3,7.9,10.8,11.9,23,11.9,36.6,0,25.4-8.4,45.4-25.3,60-16.8,14.6-36.5,21.9-58.9,21.9h-28.7,0Z"/>
    <path class="st0" d="M231,112.8h-31.7v-26.9h31.7s0,26.9,0,26.9ZM231,220.7h-31.7v-99.7h31.7v99.7Z"/>
    <path class="st0" d="M304.5,147.1h-14.2c-3.4.1-5.8.4-7.1.9s-2,1.5-2,3.1.2,1.3.5,1.9c.3.6.7,1.2,1.2,1.7.2.3.4.6.6.7.2.2.3.4.4.6l14,17.5c2.6,3.4,4.9,7,6.8,10.7,1.9,3.7,2.8,7.8,2.8,12.2,0,6.4-2.2,12-6.7,16.9-4.5,4.9-10.5,7.4-18.2,7.4h-32.2l-7.9-26.9h17.5c.3.1.7.2,1.2.2.4,0,.9,0,1.3,0s.9,0,1.3,0c.4,0,.9,0,1.3,0h.8c1.3,0,2.5-.2,3.5-.5s1.5-1,1.5-2.1-.1-.9-.3-1.5c-.2-.6-.4-1.1-.7-1.6-.2-.3-.5-.7-.7-1.1-.3-.4-.5-.7-.7-1.1-.4-.4-.8-.9-1.2-1.3-.3-.4-.6-.8-.8-1.2l-13.4-17.5c-2.6-3.3-4.9-6.7-6.9-10.3-1.9-3.6-2.9-7.6-2.9-12s.2-2.7.6-4.5c.4-1.8,1.1-3.6,2.1-5.4,1.6-3.3,4.4-6.3,8.2-9,3.8-2.7,9.1-4,15.9-4l26.6-.2,7.9,26.1h0Z"/>
    <path class="st0" d="M364.2,176h-53.2v-26.1h53.2v26.1Z"/>
    <path class="st0" d="M451.1,220.7h-6.1c-22.8,0-41.4-8.2-55.7-24.7s-21.5-35.6-21.5-57.3,4-25.9,11.9-36.7c7.9-10.8,22-16.2,42.1-16.2l27.6-.2,8.2,30.5h-27.6c-1.3.1-3,.2-5.2.3-2.1.1-4.4.6-6.7,1.3-3.5,1.2-6.8,3.6-9.7,7.1-3,3.5-4.5,9.2-4.5,17,0,13,4.5,24.3,13.5,34,9,9.7,21.7,14.6,38,14.6h1c.3,0,.7,0,1-.2h2l-8.3,30.4h0Z"/>
    <path class="st0" d="M499,121h17.5c13.5.1,22.9,3.2,28,9.4,5.1,6.2,7.7,15.9,7.7,29.1v61.2h-31.7v-57.1c-.2-6.3-.9-10.4-2.2-12.4-1.2-2-5.1-3-11.7-3.1h-7.6v72.6h-31.7V85.8h31.7v35.2h0Z"/>
    <path class="st0" d="M640.6,220.7h-19.2c-15.8,0-29.5-6.1-40.9-18.2s-17.1-26.5-17.1-43.1c.2-14.1,3.8-24.4,10.8-31,7-6.6,18.6-9.8,34.9-9.6l6.6-.2c10.9.1,19,1.7,24.2,4.6,5.2,3,8.8,6.2,10.7,9.7,1.3,2.6,2.1,5.1,2.3,7.4.2,2.3.3,4.1.3,5.3v.7c0,10.2-3.4,18.8-10.1,25.8-6.7,7-14.1,12.9-22.3,17.7-.7.3-1.3.7-1.9,1.1-.6.4-1.2.7-1.9,1.1,4.2.9,7.7,1.4,10.6,1.6,2.9.2,5.6.2,8.2.2h12.5l-7.9,26.9h0ZM621,150.7c0-1.8-.7-3-2-3.6s-2.8-1-4.5-1.2c-.5-.1-1.1-.2-1.7-.2h-1.7c-5,0-8.8,1.2-11.4,3.7s-4,6.2-4,11.1,0,1.3,0,2c0,.7.1,1.3.2,2,.1,1.3.3,2.6.7,4,.3,1.3.7,2.6,1.2,4,1.2-.7,2.7-1.5,4.5-2.5,1.8-1,3.7-2.1,5.5-3.5,2.5-1.8,4.9-3.7,7.2-5.7,2.2-2,3.9-4.1,4.9-6.4.2-.7.4-1.3.6-1.9.2-.6.2-1.2.2-1.7v-.2h0Z"/>
    <path class="st0" d="M759.2,121c13.5.1,22.9,3.2,28,9.4,5.1,6.2,7.7,15.9,7.7,29.1v61.2h-30.9v-57.1c-.2-6.3-.9-10.4-2.2-12.4-1.2-2-5.1-3-11.7-3.1h-5.1v72.6h-30.9v-72.6h-19v72.6h-30.9v-99.7s94.9,0,94.9,0Z"/>
  </g>
  <g>
    <polygon class="st0" points="232.7 382.4 140.9 382.4 140.9 276.9 73.6 276.9 73.6 536.3 140.9 536.3 140.9 432.3 232.7 432.3 232.7 536.3 300 536.3 300 276.9 232.7 276.9 232.7 382.4"/>
    <path class="st0" d="M477.9,354.7c-15.4-7.6-32.5-11.4-51.1-11.4s-37.7,4.1-53.6,12.4c-15.9,8.3-28.3,19.9-37.3,34.7-9,14.8-13.5,31.7-13.5,50.6s4.6,35.8,13.8,50.6c9.2,14.8,22.2,26.5,38.9,35,16.7,8.5,36.2,12.8,58.7,12.8s34-2.6,47.3-7.9,24.5-12.9,33.6-22.9l-35-36.4c-6.5,5.6-13.1,9.8-19.8,12.4-6.6,2.7-14.6,4-24,4s-18.7-1.8-25.9-5.4c-7.2-3.6-12.8-8.8-16.6-15.6-1.7-2.9-2.9-6.1-3.9-9.5h137.8c.2-2.6.5-5.4.7-8.4.2-3,.3-5.7.3-8,0-21-4.5-38.9-13.7-53.6-9.1-14.7-21.4-25.9-36.8-33.4h0ZM406.3,395.8c6-3.5,12.9-5.2,20.8-5.2s14.9,1.8,20.8,5.2c6,3.5,10.6,8.4,14,14.7,2,3.8,3.4,8,4.1,12.6h-77.7c.8-4.5,2.1-8.7,4-12.4,3.3-6.4,7.9-11.4,13.8-14.9h0Z"/>
    <path class="st0" d="M703,366.2c-16.8-14-40.4-21-70.9-21s-29.7,1.9-44.6,5.7c-14.9,3.8-27.7,9.2-38.3,16.1l22.2,44.7c6.5-5.1,14.3-9.1,23.6-12,9.2-2.9,18.4-4.3,27.4-4.3,13.9,0,24,2.8,30.3,8.5,5.8,5.1,8.9,12.3,9.5,21.3h-37.4c-19.4,0-35.3,2.2-47.5,6.8-12.3,4.5-21.3,11-27.2,19.4-5.9,8.4-8.8,18.4-8.8,30s2.7,20.7,8.2,29.5c5.4,8.8,13.3,15.7,23.8,20.8s23.1,7.6,38.2,7.6,29.7-3.3,39.7-9.9c6.7-4.4,12-10.3,15.8-17.5v24.3h61.4v-104.4c0-29.8-8.4-51.7-25.1-65.7h0ZM649.2,492.4c-5.9,3.6-12.4,5.4-19.6,5.4s-13.6-1.7-18-5.2-6.6-8.1-6.6-13.9,2.1-10.4,6.4-13.9c4.3-3.5,11.7-5.2,22.4-5.2h28.4v16.3c-2.8,7.4-7.1,12.9-13,16.5h0Z"/>
    <rect class="st0" x="755.8" y="278.2" width="66.3" height="258.1"/>
    <path class="st0" d="M955.4,488.5c-5.7,0-10.3-1.9-13.9-5.7-3.6-3.8-5.4-9-5.4-15.7v-62.2h47.6v-49.1h-47.6v-77.3h-64.6v77.3h-24.9v49.1h24.9v62.9c0,24,6.6,41.9,19.7,53.8,13.1,11.9,31.5,17.8,55.1,17.8s16.9-.9,24.8-2.6c7.9-1.7,14.6-4.4,20.1-8.1l-16-46c-5.4,3.9-12,5.9-19.7,5.9h0Z"/>
    <path class="st0" d="M1204.4,380.9c-6.8-12.3-16.1-21.4-27.9-27.3s-24.9-8.9-39.5-8.9-29.8,3.4-42.2,10.2c-5.2,2.9-9.9,6.3-14.2,10.3v-87h-65.8v257.8h65.8v-91c0-10.4,1.6-18.9,4.8-25.4,3.2-6.5,7.7-11.3,13.5-14.4,5.8-3.1,12.1-4.7,19-4.7s17.2,3.1,22.7,9.2c5.4,6.1,8.1,15.9,8.1,29.4v97h65.8v-107.7c0-19.5-3.4-35.3-10.2-47.6h0Z"/>
  </g>
  <g>
    <path class="st0" d="M110.8,597.4c-3.6-1.6-7.8-2.4-12.8-2.4h-24.7v54.6h15.3v-14.3h9.4c4.9,0,9.2-.8,12.8-2.5,3.6-1.6,6.3-4,8.3-7,1.9-3,2.9-6.6,2.9-10.7s-1-7.8-2.9-10.8c-2-3-4.7-5.4-8.3-7ZM104.2,621.1c-1.6,1.4-3.9,2.1-7.1,2.1h-8.5v-16h8.5c3.2,0,5.6.7,7.1,2.1,1.6,1.4,2.3,3.4,2.3,5.9s-.8,4.5-2.3,5.8h0Z"/>
    <path class="st0" d="M143.3,612.4v-5.1h-14v42.3h14.7v-19.4c0-3.7.9-6.4,2.8-8s4.3-2.5,7.2-2.5,1.1,0,1.6,0c.5,0,1.1,0,1.7.2v-13.3c-4,0-7.3.8-10.1,2.4-1.6.9-2.9,2-3.9,3.4h0Z"/>
    <path class="st0" d="M177.4,589c-1.6-1.4-3.8-2.2-6.5-2.2s-4.8.8-6.5,2.3-2.5,3.4-2.5,5.6.8,4.1,2.5,5.6,3.8,2.3,6.5,2.3,4.9-.8,6.5-2.3c1.6-1.5,2.4-3.5,2.4-5.8s-.8-4.1-2.5-5.5Z"/>
    <rect class="st0" x="163.6" y="607.3" width="14.7" height="42.3"/>
    <polygon class="st0" points="207.5 633.2 197.5 607.3 182.4 607.3 199.6 649.6 214.8 649.6 232 607.3 218.1 607.3 207.5 633.2"/>
    <path class="st0" d="M268.2,611.4c-3.7-3.2-9-4.7-15.8-4.7s-6.6.4-9.9,1.3c-3.3.9-6.2,2.1-8.5,3.6l4.9,10.1c1.4-1.1,3.2-2,5.2-2.7s4.1-1,6.1-1c3.1,0,5.3.6,6.8,1.9,1.3,1.2,2,2.8,2.1,4.8h-8.3c-4.3,0-7.8.5-10.6,1.5-2.7,1-4.7,2.5-6.1,4.4-1.3,1.9-2,4.2-2,6.8s.6,4.7,1.8,6.6c1.2,2,3,3.5,5.3,4.7s5.1,1.7,8.5,1.7,6.6-.7,8.8-2.2c1.5-1,2.7-2.3,3.5-4v5.5h13.6v-23.5c0-6.7-1.9-11.6-5.6-14.8h0ZM256.2,639.8c-1.3.8-2.8,1.2-4.4,1.2s-3-.4-4-1.2c-1-.8-1.5-1.8-1.5-3.1s.5-2.3,1.4-3.1c.9-.8,2.6-1.2,5-1.2h6.3v3.7c-.6,1.7-1.6,2.9-2.9,3.7h0Z"/>
    <path class="st0" d="M304,638.8c-1.3,0-2.3-.4-3.2-1.3s-1.2-2-1.2-3.5v-14h9.6v-11.1h-9.6v-11h-14.7v11h-6.1v11.1h6.1v14.2c0,5.4,1.5,9.5,4.5,12.1s7.1,4,12.5,4,3.8-.2,5.6-.6c1.8-.4,3.3-1,4.5-1.8l-3.6-10.4c-1.2.9-2.7,1.3-4.5,1.3h0Z"/>
    <path class="st0" d="M348.4,609.2c-3.4-1.7-7.1-2.5-11.3-2.5s-8.3.9-11.8,2.8c-3.5,1.8-6.2,4.4-8.2,7.7-2,3.3-3,7.1-3,11.3s1,8,3,11.3c2,3.3,4.9,5.9,8.6,7.8,3.7,1.9,8,2.8,12.9,2.8s7.5-.6,10.4-1.8,5.4-2.9,7.4-5.1l-7.7-8.1c-1.4,1.2-2.9,2.2-4.4,2.8-1.5.6-3.2.9-5.3.9s-4.1-.4-5.7-1.2c-1.6-.8-2.8-2-3.7-3.5-.4-.7-.6-1.3-.8-2.1h30.3c0-.6.1-1.2.1-1.9,0-.7,0-1.3,0-1.8,0-4.7-1-8.7-3-11.9-2-3.3-4.7-5.8-8.1-7.5h0ZM332.6,618.3c1.3-.8,2.8-1.2,4.6-1.2s3.3.4,4.6,1.2c1.3.8,2.3,1.9,3.1,3.3.5.8.7,1.8.9,2.8h-17.1c.2-1,.5-1.9.9-2.8.7-1.4,1.7-2.5,3-3.3h0Z"/>
    <path class="st0" d="M425.2,608.6c-2.6-1.3-5.5-2-8.8-2s-6.6.8-9.4,2.3c-1.2.6-2.2,1.4-3.2,2.3v-19.5h-14.7v57.9h14.7v-20.4c0-2.3.4-4.2,1.1-5.7.7-1.5,1.7-2.5,3-3.2,1.3-.7,2.7-1,4.2-1s3.8.7,5,2.1,1.8,3.6,1.8,6.6v21.8h14.7v-24.2c0-4.4-.8-7.9-2.3-10.7-1.5-2.8-3.6-4.8-6.2-6.1h0Z"/>
    <path class="st0" d="M475.2,609.2c-3.4-1.7-7.1-2.5-11.3-2.5s-8.3.9-11.8,2.8c-3.5,1.8-6.2,4.4-8.2,7.7-2,3.3-3,7.1-3,11.3s1,8,3,11.3c2,3.3,4.9,5.9,8.6,7.8,3.7,1.9,8,2.8,12.9,2.8s7.5-.6,10.4-1.8,5.4-2.9,7.4-5.1l-7.7-8.1c-1.4,1.2-2.9,2.2-4.4,2.8-1.5.6-3.2.9-5.3.9s-4.1-.4-5.7-1.2c-1.6-.8-2.8-2-3.7-3.5-.4-.7-.6-1.3-.8-2.1h30.3c0-.6.1-1.2.1-1.9,0-.7,0-1.3,0-1.8,0-4.7-1-8.7-3-11.9-2-3.3-4.7-5.8-8.1-7.5h0ZM459.5,618.3c1.3-.8,2.8-1.2,4.6-1.2s3.3.4,4.6,1.2c1.3.8,2.3,1.9,3.1,3.3.5.8.7,1.8.9,2.8h-17.1c.2-1,.5-1.9.9-2.8.7-1.4,1.7-2.5,3-3.3h0Z"/>
    <path class="st0" d="M525.8,611.4c-3.7-3.2-9-4.7-15.8-4.7s-6.6.4-9.9,1.3c-3.3.9-6.2,2.1-8.5,3.6l4.9,10.1c1.4-1.1,3.2-2,5.2-2.7s4.1-1,6.1-1c3.1,0,5.3.6,6.8,1.9,1.3,1.2,2,2.8,2.1,4.8h-8.3c-4.3,0-7.8.5-10.6,1.5s-4.7,2.5-6,4.4-2,4.2-2,6.8.6,4.7,1.8,6.6c1.2,2,3,3.5,5.3,4.7s5.1,1.7,8.5,1.7,6.6-.7,8.8-2.2c1.5-1,2.7-2.3,3.5-4v5.5h13.7v-23.5c0-6.7-1.9-11.6-5.6-14.8h0ZM513.8,639.8c-1.3.8-2.8,1.2-4.4,1.2s-3-.4-4-1.2c-1-.8-1.5-1.8-1.5-3.1s.5-2.3,1.4-3.1c1-.8,2.6-1.2,5-1.2h6.3v3.7c-.6,1.7-1.6,2.9-2.9,3.7h0Z"/>
    <rect class="st0" x="540.9" y="591.7" width="14.7" height="57.9"/>
    <path class="st0" d="M590.2,638.8c-1.3,0-2.3-.4-3.2-1.3-.8-.9-1.2-2-1.2-3.5v-14h9.6v-11.1h-9.6v-11h-14.7v11h-6.1v11.1h6.1v14.2c0,5.4,1.5,9.5,4.5,12.1s7.2,4,12.5,4,3.8-.2,5.6-.6c1.8-.4,3.3-1,4.5-1.8l-3.6-10.4c-1.2.9-2.7,1.3-4.5,1.3h0Z"/>
    <path class="st0" d="M640.2,608.6c-2.6-1.3-5.5-2-8.8-2s-6.6.8-9.4,2.3c-1.2.6-2.2,1.4-3.2,2.3v-19.5h-14.7v57.9h14.7v-20.4c0-2.3.4-4.2,1.1-5.7.7-1.5,1.7-2.5,3-3.2,1.3-.7,2.7-1,4.2-1s3.8.7,5,2.1c1.2,1.4,1.8,3.6,1.8,6.6v21.8h14.7v-24.2c0-4.4-.8-7.9-2.3-10.7-1.5-2.8-3.6-4.8-6.2-6.1h0Z"/>
    <path class="st0" d="M675.2,619.6c1.4-.8,2.9-1.2,4.6-1.2s3.3.5,4.7,1.4,2.7,2.3,3.6,4.3l11.3-5.8c-1.4-3.7-3.9-6.5-7.3-8.6s-7.5-3-12.3-3-8.8.9-12.4,2.8c-3.6,1.8-6.5,4.4-8.5,7.7-2.1,3.3-3.1,7-3.1,11.3s1,8,3.1,11.3,4.9,5.9,8.5,7.8,7.8,2.8,12.4,2.8,8.8-1,12.3-3c3.4-2,5.9-4.9,7.3-8.6l-11.3-5.8c-1,2-2.2,3.4-3.6,4.3-1.4.9-3,1.4-4.7,1.4s-3.2-.4-4.6-1.2c-1.4-.8-2.5-1.9-3.3-3.4-.8-1.5-1.2-3.3-1.2-5.5s.4-3.9,1.2-5.4,1.9-2.6,3.3-3.4h0Z"/>
    <path class="st0" d="M738.9,611.4c-3.7-3.2-9-4.7-15.8-4.7s-6.6.4-9.9,1.3c-3.3.9-6.2,2.1-8.5,3.6l4.9,10.1c1.4-1.1,3.2-2,5.2-2.7s4.1-1,6.1-1c3.1,0,5.3.6,6.8,1.9,1.3,1.2,2,2.8,2.1,4.8h-8.3c-4.3,0-7.8.5-10.6,1.5s-4.7,2.5-6,4.4-2,4.2-2,6.8.6,4.7,1.8,6.6c1.2,2,3,3.5,5.3,4.7,2.3,1.1,5.1,1.7,8.5,1.7s6.6-.7,8.8-2.2c1.5-1,2.7-2.3,3.5-4v5.5h13.7v-23.5c0-6.7-1.9-11.6-5.6-14.8h0ZM727,639.8c-1.3.8-2.8,1.2-4.4,1.2s-3-.4-4-1.2c-1-.8-1.5-1.8-1.5-3.1s.5-2.3,1.4-3.1c1-.8,2.6-1.2,5-1.2h6.3v3.7c-.6,1.7-1.6,2.9-2.9,3.7h0Z"/>
    <path class="st0" d="M768,612.4v-5.1h-14v42.3h14.7v-19.4c0-3.7.9-6.4,2.8-8,1.8-1.6,4.3-2.5,7.2-2.5s1.1,0,1.6,0c.5,0,1.1,0,1.7.2v-13.3c-4,0-7.3.8-10.1,2.4-1.6.9-2.9,2-3.9,3.4h0Z"/>
    <path class="st0" d="M827.6,616.6c-2-3.3-4.7-5.8-8.1-7.5-3.4-1.7-7.2-2.5-11.3-2.5s-8.3.9-11.8,2.8c-3.5,1.8-6.2,4.4-8.2,7.7-2,3.3-3,7.1-3,11.3s1,8,3,11.3c2,3.3,4.9,5.9,8.6,7.8,3.7,1.9,8,2.8,12.9,2.8s7.5-.6,10.4-1.8,5.4-2.9,7.4-5.1l-7.7-8.1c-1.4,1.2-2.9,2.2-4.4,2.8-1.5.6-3.2.9-5.3.9s-4.1-.4-5.7-1.2c-1.6-.8-2.8-2-3.7-3.5-.4-.7-.6-1.3-.8-2.1h30.3c0-.6,0-1.2.2-1.9,0-.7,0-1.3,0-1.8,0-4.7-1-8.7-3-11.9h0ZM803.7,618.3c1.3-.8,2.8-1.2,4.6-1.2s3.3.4,4.6,1.2c1.3.8,2.3,1.9,3.1,3.3.5.8.7,1.8.9,2.8h-17.1c.2-1,.5-1.9.9-2.8.7-1.4,1.7-2.5,3-3.3h0Z"/>
  </g>
  <g>
    <path class="st1" d="M891.3,626.9c-1.5-.9-3.1-1.6-4.9-2.1-1.8-.5-3.5-.8-5.3-1-1.8-.2-3.4-.5-4.8-.7-1.5-.2-2.6-.6-3.5-1-.9-.4-1.3-1.1-1.3-1.9s.5-1.5,1.5-2.1c1-.6,2.7-.9,5.2-.9s3.8.2,5.9.7,4.1,1.3,6.2,2.5l4.4-10.1c-2.1-1.2-4.6-2.1-7.6-2.7-3-.6-6-.9-8.9-.9-4.4,0-8.1.6-11.1,1.8-3,1.2-5.3,2.9-6.9,5-1.6,2.1-2.3,4.5-2.3,7.2s.4,4.4,1.3,5.9,2,2.8,3.5,3.7c1.5.9,3.1,1.6,4.9,2,1.8.4,3.5.8,5.3,1,1.8.3,3.4.5,4.8.7,1.5.2,2.7.5,3.5.9.9.4,1.3,1,1.3,1.8s-.5,1.6-1.4,2.1c-1,.5-2.7.8-5.1.8s-5.1-.3-7.7-1-4.9-1.7-6.9-2.8l-4.4,10.1c2.1,1.2,4.8,2.3,8.1,3.1s6.8,1.2,10.4,1.2,8.3-.6,11.4-1.9,5.4-2.9,6.9-5,2.3-4.4,2.3-7-.4-4.3-1.3-5.9c-.9-1.5-2-2.8-3.5-3.7h0Z"/>
    <path class="st1" d="M923.5,638.8c-1.3,0-2.3-.4-3.2-1.3-.8-.9-1.2-2-1.2-3.5v-14h9.6v-11.1h-9.6v-11h-14.7v11h-6.1v11.1h6.1v14.2c0,5.4,1.5,9.5,4.5,12.1s7.2,4,12.5,4,3.8-.2,5.6-.6c1.8-.4,3.3-1,4.5-1.8l-3.6-10.4c-1.2.9-2.7,1.3-4.5,1.3h0Z"/>
    <path class="st1" d="M971,611.4c-3.7-3.2-9-4.7-15.8-4.7s-6.6.4-9.9,1.3c-3.3.9-6.2,2.1-8.5,3.6l4.9,10.1c1.4-1.1,3.2-2,5.2-2.7s4.1-1,6.1-1c3.1,0,5.3.6,6.8,1.9,1.3,1.2,2,2.8,2.1,4.8h-8.3c-4.3,0-7.8.5-10.6,1.5s-4.7,2.5-6,4.4-2,4.2-2,6.8.6,4.7,1.8,6.6c1.2,2,3,3.5,5.3,4.7,2.3,1.1,5.1,1.7,8.5,1.7s6.6-.7,8.8-2.2c1.5-1,2.7-2.3,3.5-4v5.5h13.7v-23.5c0-6.7-1.9-11.6-5.6-14.8h0ZM959.1,639.8c-1.3.8-2.8,1.2-4.4,1.2s-3-.4-4-1.2c-1-.8-1.5-1.8-1.5-3.1s.5-2.3,1.4-3.1c1-.8,2.6-1.2,5-1.2h6.3v3.7c-.6,1.7-1.6,2.9-2.9,3.7h0Z"/>
    <path class="st1" d="M1000.1,612.4v-5.1h-14v42.3h14.7v-19.4c0-3.7.9-6.4,2.8-8,1.8-1.6,4.3-2.5,7.2-2.5s1.1,0,1.6,0c.5,0,1.1,0,1.7.2v-13.3c-4,0-7.3.8-10.1,2.4-1.6.9-2.9,2-3.9,3.4h0Z"/>
    <path class="st1" d="M1042.4,638.8c-1.3,0-2.3-.4-3.2-1.3-.8-.9-1.2-2-1.2-3.5v-14h9.6v-11.1h-9.6v-11h-14.7v11h-6.1v11.1h6.1v14.2c0,5.4,1.5,9.5,4.5,12.1s7.2,4,12.5,4,3.8-.2,5.6-.6c1.8-.4,3.3-1,4.6-1.8l-3.6-10.4c-1.2.9-2.7,1.3-4.5,1.3h0Z"/>
    <path class="st1" d="M1087.4,626.9c-1.5-.9-3.1-1.6-4.9-2.1-1.8-.5-3.5-.8-5.3-1-1.8-.2-3.4-.5-4.8-.7-1.5-.2-2.6-.6-3.5-1-.9-.4-1.3-1.1-1.3-1.9s.5-1.5,1.5-2.1c1-.6,2.7-.9,5.2-.9s3.8.2,5.9.7c2.1.4,4.1,1.3,6.2,2.5l4.4-10.1c-2.1-1.2-4.6-2.1-7.6-2.7s-6-.9-8.9-.9c-4.4,0-8.1.6-11.1,1.8-3,1.2-5.3,2.9-6.9,5-1.6,2.1-2.3,4.5-2.3,7.2s.4,4.4,1.3,5.9c.9,1.6,2,2.8,3.5,3.7,1.5.9,3.1,1.6,4.9,2s3.5.8,5.3,1c1.8.3,3.4.5,4.8.7,1.5.2,2.7.5,3.6.9s1.3,1,1.3,1.8-.5,1.6-1.4,2.1c-.9.5-2.7.8-5.1.8s-5.1-.3-7.7-1-4.9-1.7-6.9-2.8l-4.4,10.1c2.1,1.2,4.8,2.3,8.1,3.1s6.8,1.2,10.4,1.2,8.3-.6,11.4-1.9,5.4-2.9,6.9-5,2.3-4.4,2.3-7-.4-4.3-1.3-5.9c-.9-1.5-2-2.8-3.5-3.7h0Z"/>
    <path class="st1" d="M1157.5,608.6c-2.6-1.3-5.6-2-8.8-2s-6.6.8-9.4,2.3c-1.2.6-2.2,1.4-3.2,2.3v-19.5h-14.7v57.9h14.7v-20.4c0-2.3.4-4.2,1.1-5.7.7-1.5,1.7-2.5,3-3.2,1.3-.7,2.7-1,4.2-1s3.8.7,5.1,2.1c1.2,1.4,1.8,3.6,1.8,6.6v21.8h14.7v-24.2c0-4.4-.8-7.9-2.3-10.7-1.5-2.8-3.6-4.8-6.2-6.1h0Z"/>
    <path class="st1" d="M1207.6,609.2c-3.4-1.7-7.2-2.5-11.3-2.5s-8.3.9-11.8,2.8c-3.5,1.8-6.2,4.4-8.2,7.7-2,3.3-3,7.1-3,11.3s1,8,3.1,11.3c2,3.3,4.9,5.9,8.6,7.8,3.7,1.9,8,2.8,12.9,2.8s7.5-.6,10.4-1.8,5.4-2.9,7.4-5.1l-7.7-8.1c-1.4,1.2-2.9,2.2-4.4,2.8-1.5.6-3.2.9-5.3.9s-4.1-.4-5.7-1.2c-1.6-.8-2.8-2-3.7-3.5-.4-.7-.6-1.3-.8-2.1h30.3c0-.6,0-1.2.2-1.9,0-.7,0-1.3,0-1.8,0-4.7-1-8.7-3-11.9-2-3.3-4.7-5.8-8.1-7.5h0ZM1191.8,618.3c1.3-.8,2.8-1.2,4.6-1.2s3.3.4,4.6,1.2c1.3.8,2.3,1.9,3.1,3.3.4.8.7,1.8.9,2.8h-17.1c.2-1,.5-1.9.9-2.8.7-1.4,1.7-2.5,3.1-3.3h0Z"/>
    <path class="st1" d="M1239.6,612.4v-5.1h-14v42.3h14.7v-19.4c0-3.7.9-6.4,2.8-8s4.3-2.5,7.2-2.5,1.1,0,1.6,0c.5,0,1.1,0,1.7.2v-13.3c-4,0-7.3.8-10.1,2.4-1.6.9-2.9,2-3.9,3.4h0Z"/>
    <path class="st1" d="M1299.3,616.6c-2-3.3-4.7-5.8-8.1-7.5s-7.2-2.5-11.3-2.5-8.3.9-11.8,2.8c-3.5,1.8-6.2,4.4-8.2,7.7-2,3.3-3,7.1-3,11.3s1,8,3.1,11.3c2,3.3,4.9,5.9,8.6,7.8,3.7,1.9,8,2.8,12.9,2.8s7.5-.6,10.4-1.8,5.4-2.9,7.4-5.1l-7.7-8.1c-1.4,1.2-2.9,2.2-4.4,2.8-1.5.6-3.2.9-5.3.9s-4.1-.4-5.7-1.2c-1.6-.8-2.8-2-3.7-3.5-.4-.7-.6-1.3-.8-2.1h30.3c0-.6,0-1.2.2-1.9,0-.7,0-1.3,0-1.8,0-4.7-1-8.7-3-11.9h0ZM1275.4,618.3c1.3-.8,2.8-1.2,4.6-1.2s3.3.4,4.6,1.2c1.3.8,2.3,1.9,3.1,3.3.4.8.7,1.8.9,2.8h-17.1c.2-1,.5-1.9.9-2.8.7-1.4,1.7-2.5,3.1-3.3h0Z"/>
  </g>
  <path class="st1" d="M978.1,116.4h-39.2c-2.1,0-3.8-1.7-3.8-3.8v-39.2c0-2.1-1.7-3.8-3.8-3.8h-53.1c-2.1,0-3.8,1.7-3.8,3.8v39.2c0,2.1-1.7,3.8-3.8,3.8h-39.2c-2.1,0-3.8,1.7-3.8,3.8v53.1c0,2.1,1.7,3.8,3.8,3.8h39.2c2.1,0,3.8,1.7,3.8,3.8v39.2c0,2.1,1.7,3.8,3.8,3.8h53.1c2.1,0,3.8-1.7,3.8-3.8v-39.2c0-2.1,1.7-3.8,3.8-3.8h39.2c2.1,0,3.8-1.7,3.8-3.8v-53.1c0-2.1-1.7-3.8-3.8-3.8Z"/>
  <rect class="st1" x="1242.5" y="478.5" width="59.9" height="58.3" rx="4.8" ry="4.8"/>
</svg>