<?xml version="1.0" encoding="UTF-8"?>
<svg id="Layer_1" xmlns="http://www.w3.org/2000/svg" version="1.1" viewBox="0 0 130.8 40.1">
  <!-- Generator: Adobe Illustrator 29.1.0, SVG Export Plug-In . SVG Version: 2.1.0 Build 142)  -->
  <defs>
    <style>
      .st0 {
        fill: #004b8d;
      }

      .st1 {
        fill: #ba8c60;
      }
    </style>
  </defs>
  <path class="st0" d="M118.7,12.1l.2,1.7s-1.4-.7-3.2-.6c-1,0-1.7.4-2.3.9v8.5h-2.3v-10.4l2.3-.3v1c.5-.3,1.2-.8,2.3-.9,1.3,0,2.6.2,2.9.3M56.7,21.6c.9,0,2.5-.3,2.5-1.8s-.3-.9-.9-1.2-1.7-.8-2.1-1c-1.5-.6-3.2-1.4-3.2-2.9s1.3-3,4.5-3,3.1.4,3.1.4v1.6s-1.8-.9-3.4-.9-2.1.3-2.1,1.3.3.9.9,1.2c.8.4,1.7.7,2.1.9,1.6.6,3.2,1.4,3.2,3.2s-2.1,3.3-4.9,3.3-3.6-.4-3.6-.4v-.9s2.3.3,3.8.2M72.5,13.7s-1.8-.9-3.3-.9c-2.9,0-3.4,2.1-3.4,3.3s0,2.7,1,3.7c.9,1,2.7,1.7,4.4,1.7s1.6-.2,1.6-.2v.9s-1.2.4-3,.4c-4.8,0-6.5-2.4-6.5-5.8s1.4-5.2,5.4-5.2,3.9.4,3.9.4v1.6s0,.1,0,.1ZM106.3,15.4c0-1.3-.9-2.6-2.3-2.6-2.1,0-2.6,1.7-2.8,2.6h5.1ZM108.6,22.3s-1.3.4-3.4.4c-4,0-6.3-2.1-6.3-5.8s1.5-5.2,5.5-5.2,4.6,1.5,4.6,4.2v.5h-7.8c0,1.1.2,2.6,1.1,3.6s2.5,1.6,4.3,1.6,2-.3,2-.3v1h0ZM86.6,12.3l2.3-.3,3.8,7.9,3.6-7.9h1.8l-5,10.7h-1.4l-5.1-10.4h0ZM80,21.6c2.9,0,3.1-2.6,3.1-4.3s-.4-4.4-3.1-4.4-3.1,2.6-3.1,4.4.5,4.3,3.2,4.3M74.3,17.3c0-3.3,1.7-5.5,5.6-5.5s5.7,2.2,5.7,5.5-1.8,5.5-5.7,5.5-5.7-2.2-5.7-5.4M47.2,8.5c0-.8.7-1.4,1.7-1.4s1.6.6,1.6,1.4-.8,1.4-1.6,1.4-1.7-.6-1.7-1.4M47.8,12l2.3-.3v10.8h-2.3s0-10.5,0-10.5ZM36.4,7.4c2.4,0,4.8.6,6.4,1.9,1.8,1.4,2.7,3.5,2.7,5.7s-.9,4.3-2.7,5.7c-1.6,1.3-4,1.8-6.4,1.8h-4.4V7.4h4.4ZM34.6,8.5v12.8c1.7,0,3.3-.1,4.4-.6,2.4-1.1,3.6-3.4,3.6-5.8s-1.2-4.7-3.6-5.8c-1.1-.5-2.7-.6-4.4-.6M120.2,12l2.3-.3,3.1,7.7,3.5-7.7h1.7l-4.9,10.9c-.8,1.7-2.3,4-4.9,4h-.4v-1.6c2.6.2,3.7-1.8,3.7-2.6s-.3-1.3-.3-1.3l-3.7-9.2s0,.1,0,0Z"/>
  <path class="st1" d="M9,9c-.7.7-1.3,1.3-1.9,2,2,2.2,4.2,4.4,6.3,6.5,2.2-2.1,4.3-4.3,6.3-6.5-.6-.7-1.3-1.3-1.9-2-1.5,1.4-2.9,2.8-4.4,4.2-1.4-1.4-2.9-2.9-4.4-4.3M11.1,7.2c.8.7,1.6,1.4,2.4,2.1.8-.7,1.6-1.4,2.4-2-.8-.6-1.6-1.3-2.4-1.8-.8.6-1.6,1.2-2.4,1.8M5.3,13c-.5.6-1,1.3-1.5,1.9,2.6,3.6,5.9,6.9,9.5,9.4,3.6-2.6,6.9-5.8,9.5-9.5-.4-.7-.9-1.3-1.4-1.9-2.4,3-5.1,5.8-8.1,8.3-2.9-2.6-5.7-5.3-8.1-8.3M1.6,14.9C1.6,8.6,6.9,3.1,13.3,3.1s11.7,5.4,11.7,11.8-5.3,11.8-11.7,11.8S1.6,21.3,1.6,14.9M0,14.9C0,7.5,6,1.5,13.3,1.5s13.3,6,13.3,13.4-6,13.4-13.3,13.4S0,22.3,0,14.9M.9,14.9c0,6.9,5.6,12.5,12.4,12.5s12.4-5.6,12.4-12.5S20.1,2.4,13.3,2.4.9,8,.9,14.9"/>
  <g>
    <path class="st0" d="M40.4,39.7h-1.7v-4.8h-4.9v4.8h-1.7v-10.6h1.7v4.4h4.9v-4.4h1.7v10.6Z"/>
    <path class="st0" d="M47.1,39.9c-1.3,0-2.2-.4-2.9-1.1-.7-.7-1.1-1.7-1.1-3s.3-2.3,1-3.1c.7-.8,1.6-1.1,2.7-1.1s1.9.3,2.5,1c.6.6.9,1.5.9,2.7v.9h-5.4c0,.8.2,1.4.6,1.8.4.4,1,.6,1.7.6s.9,0,1.3-.1c.4,0,.9-.2,1.3-.4v1.4c-.4.2-.8.3-1.3.4-.4,0-.9.1-1.5.1ZM46.8,32.8c-.5,0-1,.2-1.3.5-.3.3-.5.8-.6,1.5h3.7c0-.7-.2-1.2-.5-1.5-.3-.3-.7-.5-1.3-.5Z"/>
    <path class="st0" d="M57.8,39.7l-.3-1.1h0c-.4.5-.8.8-1.2,1-.4.2-.9.3-1.5.3s-1.4-.2-1.9-.6c-.4-.4-.7-1-.7-1.8s.3-1.5.9-1.9c.6-.4,1.6-.7,2.8-.7h1.4v-.5c0-.5-.1-.9-.4-1.2-.2-.3-.6-.4-1.1-.4s-.8,0-1.2.2c-.4.1-.7.3-1.1.4l-.6-1.2c.4-.2.9-.4,1.4-.5.5-.1,1-.2,1.5-.2,1,0,1.8.2,2.3.7.5.4.8,1.1.8,2.1v5.4h-1.2ZM55.2,38.6c.6,0,1.1-.2,1.5-.5.4-.3.6-.8.6-1.5v-.7h-1c-.8,0-1.4.2-1.8.4-.4.2-.5.6-.5,1.1s.1.6.3.8c.2.2.5.3,1,.3Z"/>
    <path class="st0" d="M63.7,39.7h-1.7v-11.3h1.7v11.3Z"/>
    <path class="st0" d="M69.7,38.5c.4,0,.8,0,1.3-.2v1.3c-.2,0-.4.2-.7.2-.3,0-.6,0-.9,0-1.6,0-2.4-.9-2.4-2.6v-4.3h-1.1v-1.2h1.3s0-1.9,0-1.9h1.5v1.8h2.3v1.3h-2.3v4.3c0,.4.1.7.3.9.2.2.5.3.8.3Z"/>
    <path class="st0" d="M80.2,39.7h-1.7v-4.9c0-.6-.1-1.1-.4-1.4s-.6-.5-1.2-.5-1.2.2-1.6.6c-.3.4-.5,1.1-.5,2.2v4h-1.7v-11.3h1.7v2.9c0,.5,0,1,0,1.5h.1c.2-.4.6-.7,1-.9.4-.2.9-.3,1.5-.3,2,0,2.9,1,2.9,2.9v5.2Z"/>
  </g>
</svg>