<svg id="Layer_1" data-name="Layer 1" xmlns="http://www.w3.org/2000/svg" width="315" height="64.52" viewBox="0 0 315 64.52">
  <defs>
    <style>
      .cls-1 {
        isolation: isolate;
      }

      .cls-2 {
        fill: #808286;
      }

      .cls-3 {
        fill: #221f20;
      }

      .cls-4 {
        fill: #ffc829;
      }

      .cls-5 {
        fill: #ed2410;
      }

      .cls-6 {
        fill: #ed2e66;
      }

      .cls-7 {
        fill: #332132;
      }

      .cls-8 {
        fill: #37b77e;
      }

      .cls-9 {
        fill: #379014;
      }
    </style>
  </defs>
  <title>logo-new</title>
  <g>
    <g class="cls-1">
      <path class="cls-2" d="M73.17,24.58h.63l2.68,5.93h-.71L75.08,29H71.87l-.7,1.56h-.68Zm1.65,3.78-1.34-3-1.35,3Z" transform="translate(107.22 -17.77)"/>
      <path class="cls-2" d="M80.17,24.62h.67L83,27.84l2.14-3.22h.68v5.89h-.67V25.74L83,28.9h0l-2.14-3.15v4.76h-.65V24.62Z" transform="translate(107.22 -17.77)"/>
      <path class="cls-2" d="M89.28,30.05a1.79,1.79,0,0,0,1.37-.62l.41.37a2.27,2.27,0,0,1-1.79.81,2.27,2.27,0,0,1-.09-4.54,2.07,2.07,0,0,1,2,2.3,2.11,2.11,0,0,1,0,.23H87.75A1.52,1.52,0,0,0,89.28,30.05Zm1.27-2a1.42,1.42,0,0,0-1.39-1.46,1.5,1.5,0,0,0-1.41,1.46Z" transform="translate(107.22 -17.77)"/>
      <path class="cls-2" d="M92.35,26.16H93v.73a1.6,1.6,0,0,1,1.41-.82,1.48,1.48,0,0,1,1.4.87,1.73,1.73,0,0,1,1.53-.87,1.56,1.56,0,0,1,1.61,1.75v2.69H98.3V28c0-.84-.42-1.31-1.13-1.31A1.22,1.22,0,0,0,96,28v2.51h-.63V28c0-.81-.43-1.29-1.12-1.29A1.27,1.27,0,0,0,93,28v2.48h-.64V26.16Z" transform="translate(107.22 -17.77)"/>
      <path class="cls-2" d="M101,29.68v.83h-.65V24.37H101V27a1.92,1.92,0,0,1,1.66-1,2.11,2.11,0,0,1,2.08,2.25v0a2.12,2.12,0,0,1-2.08,2.26A1.94,1.94,0,0,1,101,29.68Zm3.08-1.33v0a1.57,1.57,0,0,0-1.53-1.68A1.62,1.62,0,0,0,101,28.32v0A1.62,1.62,0,0,0,102.55,30,1.53,1.53,0,0,0,104.08,28.35Z" transform="translate(107.22 -17.77)"/>
      <path class="cls-2" d="M107.86,30.05a1.82,1.82,0,0,0,1.37-.62l.4.37a2.26,2.26,0,0,1-1.79.81,2.27,2.27,0,0,1-.08-4.54,2.07,2.07,0,0,1,2,2.3v.23h-3.45A1.51,1.51,0,0,0,107.86,30.05Zm1.27-2a1.43,1.43,0,0,0-1.39-1.46,1.51,1.51,0,0,0-1.42,1.46Z" transform="translate(107.22 -17.77)"/>
      <path class="cls-2" d="M110.92,26.16h.65V27.3a1.86,1.86,0,0,1,1.77-1.22v.7h0a1.76,1.76,0,0,0-1.72,2v1.73h-.65V26.16Z" transform="translate(107.22 -17.77)"/>
      <path class="cls-2" d="M116.58,28.36v0a2.27,2.27,0,0,1,4.54,0v0a2.26,2.26,0,0,1-2.28,2.27A2.22,2.22,0,0,1,116.58,28.36Zm3.88,0v0a1.65,1.65,0,0,0-1.62-1.7,1.61,1.61,0,0,0-1.59,1.68v0A1.63,1.63,0,0,0,118.86,30,1.61,1.61,0,0,0,120.46,28.36Z" transform="translate(107.22 -17.77)"/>
      <path class="cls-2" d="M122.53,26.73h-.59v-.56h.59v-.38a1.54,1.54,0,0,1,.38-1.12,1.29,1.29,0,0,1,.94-.34,2.08,2.08,0,0,1,.71.11V25a2,2,0,0,0-.63-.11c-.5,0-.76.3-.76.92v.36h1.38v.55h-1.37v3.78h-.65V26.73Z" transform="translate(107.22 -17.77)"/>
      <path class="cls-2" d="M130.19,24.58h.62l2.69,5.93h-.72L132.09,29h-3.2l-.7,1.56h-.68Zm1.64,3.78-1.33-3-1.35,3Z" transform="translate(107.22 -17.77)"/>
      <path class="cls-2" d="M134.63,26.73H134v-.56h.6v-.38a1.5,1.5,0,0,1,.38-1.12,1.26,1.26,0,0,1,.93-.34,2.14,2.14,0,0,1,.72.11V25a2.15,2.15,0,0,0-.64-.11c-.5,0-.75.3-.75.92v.36h1.38v.55h-1.37v3.78h-.65Z" transform="translate(107.22 -17.77)"/>
      <path class="cls-2" d="M137.47,26.16h.65V27.3a1.87,1.87,0,0,1,1.78-1.22v.7h-.05a1.76,1.76,0,0,0-1.73,2v1.73h-.65Z" transform="translate(107.22 -17.77)"/>
      <path class="cls-2" d="M140.43,28.36v0a2.27,2.27,0,0,1,4.53,0v0a2.26,2.26,0,0,1-2.28,2.27A2.22,2.22,0,0,1,140.43,28.36Zm3.87,0v0a1.65,1.65,0,0,0-1.62-1.7,1.61,1.61,0,0,0-1.59,1.68v0A1.63,1.63,0,0,0,142.7,30,1.61,1.61,0,0,0,144.3,28.36Z" transform="translate(107.22 -17.77)"/>
      <path class="cls-2" d="M146,27.58h0a3,3,0,0,1,3-3.05,3.09,3.09,0,0,1,2.3.93l-.46.49a2.55,2.55,0,0,0-1.85-.81,2.31,2.31,0,0,0-2.28,2.42v0A2.33,2.33,0,0,0,149,30a2.54,2.54,0,0,0,1.9-.85l.44.43a3.07,3.07,0,0,1-2.36,1A2.94,2.94,0,0,1,146,27.58Z" transform="translate(107.22 -17.77)"/>
      <path class="cls-2" d="M154.18,30.05a1.79,1.79,0,0,0,1.37-.62l.4.37a2.24,2.24,0,0,1-1.79.81,2.27,2.27,0,0,1-.08-4.54,2.07,2.07,0,0,1,2,2.3,2.11,2.11,0,0,1,0,.23h-3.45A1.51,1.51,0,0,0,154.18,30.05Zm1.27-2a1.43,1.43,0,0,0-1.39-1.46,1.49,1.49,0,0,0-1.41,1.46Z" transform="translate(107.22 -17.77)"/>
      <path class="cls-2" d="M157.24,26.16h.65v.76a1.65,1.65,0,0,1,1.49-.85,1.59,1.59,0,0,1,1.67,1.74v2.7h-.65V28a1.16,1.16,0,0,0-1.21-1.31,1.27,1.27,0,0,0-1.3,1.36v2.49h-.65V26.16Z" transform="translate(107.22 -17.77)"/>
      <path class="cls-2" d="M162.65,29.36V26.73h-.6v-.57h.6V24.85h.65v1.31h1.38v.57H163.3v2.54A.65.65,0,0,0,164,30a1.39,1.39,0,0,0,.64-.15v.55a1.65,1.65,0,0,1-.79.19A1.11,1.11,0,0,1,162.65,29.36Z" transform="translate(107.22 -17.77)"/>
      <path class="cls-2" d="M165.83,26.16h.64V27.3a1.87,1.87,0,0,1,1.78-1.22v.7h-.05a1.76,1.76,0,0,0-1.73,2v1.73h-.64Z" transform="translate(107.22 -17.77)"/>
      <path class="cls-2" d="M169.25,24.49H170v.72h-.74Zm0,1.67h.65v4.35h-.65Z" transform="translate(107.22 -17.77)"/>
      <path class="cls-2" d="M171.18,28.36v0a2.27,2.27,0,0,1,4-1.5l-.43.46a1.72,1.72,0,0,0-1.32-.66,1.61,1.61,0,0,0-1.56,1.68v0a1.63,1.63,0,0,0,1.6,1.69,1.78,1.78,0,0,0,1.33-.65l.41.39a2.21,2.21,0,0,1-1.77.84A2.23,2.23,0,0,1,171.18,28.36Z" transform="translate(107.22 -17.77)"/>
      <path class="cls-2" d="M178.63,27.58h0a3,3,0,0,1,3-3.05,3.15,3.15,0,0,1,2.2.78l-.43.51a2.5,2.5,0,0,0-1.79-.68,2.3,2.3,0,0,0-2.24,2.42v0A2.28,2.28,0,0,0,181.65,30a2.85,2.85,0,0,0,1.7-.59V28h-1.79v-.6H184v2.35a3.57,3.57,0,0,1-2.37.9A2.88,2.88,0,0,1,178.63,27.58Z" transform="translate(107.22 -17.77)"/>
      <path class="cls-2" d="M185.38,26.16H186V27.3a1.88,1.88,0,0,1,1.78-1.22v.7h-.05a1.76,1.76,0,0,0-1.73,2v1.73h-.64V26.16Z" transform="translate(107.22 -17.77)"/>
      <path class="cls-2" d="M188.33,28.36v0a2.27,2.27,0,0,1,4.54,0v0a2.26,2.26,0,0,1-2.28,2.27A2.22,2.22,0,0,1,188.33,28.36Zm3.87,0v0a1.65,1.65,0,0,0-1.61-1.7A1.6,1.6,0,0,0,189,28.32v0A1.63,1.63,0,0,0,190.6,30,1.6,1.6,0,0,0,192.2,28.36Z" transform="translate(107.22 -17.77)"/>
      <path class="cls-2" d="M194,28.86v-2.7h.65V28.7a1.16,1.16,0,0,0,1.2,1.32,1.29,1.29,0,0,0,1.31-1.37V26.16h.64v4.35h-.64v-.76a1.65,1.65,0,0,1-1.49.85A1.58,1.58,0,0,1,194,28.86Z" transform="translate(107.22 -17.77)"/>
      <path class="cls-2" d="M199.22,26.16h.65V27a1.94,1.94,0,0,1,1.66-1,2.11,2.11,0,0,1,2.08,2.25v0a2.12,2.12,0,0,1-2.08,2.26,1.94,1.94,0,0,1-1.66-.92v2.18h-.65ZM203,28.35v0a1.57,1.57,0,0,0-1.53-1.68,1.62,1.62,0,0,0-1.58,1.67v0A1.62,1.62,0,0,0,201.42,30,1.53,1.53,0,0,0,203,28.35Z" transform="translate(107.22 -17.77)"/>
    </g>
    <g class="cls-1">
      <path class="cls-3" d="M-23.22,44.2H-5V49H-17.94v4.91H-6.55v4.75H-17.94V63.7H-4.82v4.74h-18.4V44.2Z" transform="translate(107.22 -17.77)"/>
      <path class="cls-3" d="M-2.1,66,.15,62.52A10.38,10.38,0,0,0,6,64.74c1.52,0,2.21-.56,2.21-1.39v-.07c0-1.14-1.8-1.52-3.83-2.14-2.59-.76-5.53-2-5.53-5.58v-.07c0-3.77,3-5.89,6.77-5.89a12.79,12.79,0,0,1,6.9,2.15l-2,3.64a11,11,0,0,0-5-1.73c-1.27,0-1.93.55-1.93,1.28V55c0,1,1.76,1.52,3.76,2.21,2.59.87,5.59,2.12,5.59,5.51v.07c0,4.12-3.07,6-7.07,6A12.92,12.92,0,0,1-2.1,66Z" transform="translate(107.22 -17.77)"/>
      <path class="cls-3" d="M14.88,66l2.24-3.47A10.41,10.41,0,0,0,23,64.74c1.51,0,2.2-.56,2.2-1.39v-.07c0-1.14-1.79-1.52-3.83-2.14-2.58-.76-5.52-2-5.52-5.58v-.07c0-3.77,3-5.89,6.77-5.89a12.79,12.79,0,0,1,6.9,2.15l-2,3.64a11,11,0,0,0-5-1.73c-1.27,0-1.93.55-1.93,1.28V55c0,1,1.76,1.52,3.76,2.21,2.59.87,5.59,2.12,5.59,5.51v.07c0,4.12-3.07,6-7.07,6A12.92,12.92,0,0,1,14.88,66Z" transform="translate(107.22 -17.77)"/>
      <path class="cls-3" d="M32.76,59.27V59.2c0-5.3,3.76-9.66,9.14-9.66,6.18,0,9,4.81,9,10.07,0,.42,0,.9-.07,1.39H38a4.28,4.28,0,0,0,4.52,3.63A6,6,0,0,0,47,62.73l3,2.67a9.24,9.24,0,0,1-7.55,3.46A9.26,9.26,0,0,1,32.76,59.27Zm13-1.56c-.31-2.36-1.69-4-3.9-4s-3.59,1.56-4,4Z" transform="translate(107.22 -17.77)"/>
      <path class="cls-3" d="M54.81,49.88h5.24v2.63a6.56,6.56,0,0,1,5.42-3c4,0,6.28,2.63,6.28,6.89v12H66.5V58.09c0-2.49-1.17-3.77-3.17-3.77s-3.28,1.28-3.28,3.77V68.44H54.81V49.88Z" transform="translate(107.22 -17.77)"/>
      <path class="cls-3" d="M77.17,63.18v-8.8H75v-4.5h2.21V45.14h5.24v4.74h4.35v4.5H82.41v7.94c0,1.21.52,1.8,1.69,1.8a5.38,5.38,0,0,0,2.59-.66v4.22a7.7,7.7,0,0,1-4.14,1.08C79.34,68.76,77.17,67.47,77.17,63.18Z" transform="translate(107.22 -17.77)"/>
      <path class="cls-3" d="M90.73,43.16h5.52v4.68H90.73Zm.14,6.72h5.24V68.44H90.87Z" transform="translate(107.22 -17.77)"/>
      <path class="cls-3" d="M99.94,63.11V63c0-4,3.07-5.92,7.45-5.92a13.07,13.07,0,0,1,4.52.76v-.31c0-2.18-1.34-3.39-4-3.39a13.61,13.61,0,0,0-5.11,1l-1.31-4a16.27,16.27,0,0,1,7.18-1.49c2.86,0,4.93.77,6.24,2.08a8.12,8.12,0,0,1,2,5.92V68.44h-5.07v-2a7.11,7.11,0,0,1-5.59,2.36C102.8,68.79,99.94,66.78,99.94,63.11Zm12-1.21V61a8.16,8.16,0,0,0-3.34-.69c-2.25,0-3.63.9-3.63,2.56v.07c0,1.42,1.18,2.25,2.87,2.25C110.33,65.15,112,63.8,112,61.9Z" transform="translate(107.22 -17.77)"/>
      <path class="cls-3" d="M121.71,43.16H127V68.44h-5.25Z" transform="translate(107.22 -17.77)"/>
      <path class="cls-3" d="M132.45,44.2h5.72l6.35,10.25,6.35-10.25h5.73V68.44h-5.28V52.62L144.52,63h-.13l-6.73-10.25V68.44h-5.21V44.2Z" transform="translate(107.22 -17.77)"/>
      <path class="cls-3" d="M162.4,44.2h18.22V49H167.68v4.91h11.39v4.75H167.68V63.7h13.11v4.74H162.4Z" transform="translate(107.22 -17.77)"/>
      <path class="cls-3" d="M185.52,44.2h9.42c7.59,0,12.84,5.23,12.84,12v.07c0,6.83-5.25,12.12-12.84,12.12h-9.42Zm9.42,19.43a6.89,6.89,0,0,0,7.28-7.24v-.07a6.94,6.94,0,0,0-7.28-7.3h-4.11V63.63Z" transform="translate(107.22 -17.77)"/>
    </g>
    <g>
      <polygon class="cls-4" points="50.91 21.59 38.18 43.19 25.38 21.59 25.42 21.52 38.14 0 50.91 21.59"/>
      <polygon class="cls-5" points="63.64 43.12 38.14 43.12 38.02 42.92 50.75 21.33 63.64 43.12"/>
      <polygon class="cls-6" points="76.29 64.52 50.82 64.52 50.78 64.45 37.98 42.85 63.48 42.85 63.52 42.92 76.29 64.52"/>
      <polygon class="cls-7" points="51.14 64.52 25.3 64.52 38.06 42.85 38.29 42.85 38.33 42.92 51.14 64.52"/>
      <polygon class="cls-8" points="38.38 42.85 25.61 64.52 0 64.52 12.81 42.85 38.38 42.85"/>
      <polygon class="cls-9" points="38.34 42.92 38.22 43.12 12.65 43.12 25.54 21.33 38.34 42.92"/>
    </g>
  </g>
</svg>
