<?xml version="1.0" encoding="UTF-8"?>
<svg id="Layer_1" xmlns="http://www.w3.org/2000/svg" version="1.1" viewBox="0 0 792 355.1">
  <!-- Generator: Adobe Illustrator 29.1.0, SVG Export Plug-In . SVG Version: 2.1.0 Build 142)  -->
  <defs>
    <style>
      .st0 {
        fill: #13908f;
      }

      .st1 {
        fill: #373a46;
      }
    </style>
  </defs>
  <g>
    <polygon class="st1" points="34.2 29 34.2 251.4 186.1 251.4 186.1 202.1 89.2 202.1 89.2 156.1 176.4 156.1 176.4 112.7 89.2 112.7 89.2 74.9 184 74.9 184 29 34.2 29"/>
    <polygon class="st1" points="219.8 29 219.8 251.4 362.7 251.4 362.7 199 274.8 199 274.5 29 219.8 29"/>
    <polygon class="st1" points="394 29 394 251.4 448.9 251.4 448.6 29 394 29"/>
    <polygon class="st1" points="702.9 29 702.9 251.4 757.9 251.4 757.5 29 702.9 29"/>
    <polygon class="st1" points="678.1 251.4 615.6 135.5 673.3 29 613.3 29 582.3 100.5 548.3 29 488.1 29 499.8 48.5 516.9 48.5 565.7 137.2 513.7 230.9 494.2 230.9 482.6 251.4 545.1 251.4 580.6 176.5 617.4 251.4 678.1 251.4"/>
  </g>
  <polygon class="st0" points="542.2 137.4 519.8 177.9 514.5 187.4 501 211.8 471.4 211.8 512.8 137.2 472.9 64.7 502.2 64.7 514.3 86.8 519.7 96.4 542.2 137.4"/>
  <g>
    <path class="st0" d="M63.5,283.6l-11.7,22.6v12.9h-5.8v-12.9l-11.8-22.6h6.5l8.2,17.3,8.2-17.3h6.5,0Z"/>
    <path class="st0" d="M76.8,317.7c-2.1-1.2-3.8-2.9-5.1-5.1s-1.8-4.7-1.8-7.6.6-5.4,1.9-7.6,3-3.9,5.2-5.1,4.6-1.8,7.3-1.8,5.1.6,7.3,1.8c2.2,1.2,3.9,2.9,5.2,5.1s1.9,4.7,1.9,7.6-.7,5.4-1.9,7.6-3.1,3.9-5.3,5.1c-2.2,1.2-4.7,1.8-7.4,1.8s-5.1-.6-7.2-1.8h0ZM88.2,313.5c1.3-.8,2.4-1.8,3.2-3.3.8-1.4,1.2-3.2,1.2-5.2s-.4-3.8-1.2-5.2c-.8-1.4-1.8-2.5-3.1-3.3s-2.7-1.1-4.2-1.1-2.9.4-4.1,1.1c-1.3.7-2.3,1.8-3,3.3-.8,1.5-1.2,3.2-1.2,5.2s.4,3.8,1.1,5.2c.7,1.5,1.7,2.6,3,3.3s2.6,1.1,4.1,1.1,2.9-.4,4.2-1.1h0Z"/>
    <path class="st0" d="M133.5,290.9v28.1h-5.8v-3.3c-.9,1.2-2.1,2.1-3.6,2.7-1.5.7-3.1,1-4.7,1s-4.2-.5-5.9-1.4-3.1-2.3-4.1-4.1-1.5-4-1.5-6.5v-16.5h5.8v15.7c0,2.5.6,4.5,1.9,5.8s3,2,5.2,2,3.9-.7,5.2-2c1.3-1.3,1.9-3.3,1.9-5.8v-15.7h5.8,0Z"/>
    <path class="st0" d="M154.1,291.9c1.4-.9,3.1-1.4,5-1.4v6h-1.5c-2.3,0-4,.6-5.2,1.7s-1.8,3.2-1.8,6v14.8h-5.8v-28.1h5.8v4.9c.9-1.7,2-3,3.4-4h0Z"/>
    <path class="st0" d="M215.5,283.6v35.5h-5.8v-15.7h-16.7v15.7h-5.8v-35.5h5.8v15.3h16.7v-15.3h5.8Z"/>
    <path class="st0" d="M252.4,306.9h-21.5c.2,2.4,1,4.2,2.5,5.6,1.5,1.4,3.4,2.1,5.6,2.1,3.1,0,5.3-1.3,6.6-3.9h6.3c-.9,2.6-2.4,4.7-4.6,6.4s-5,2.5-8.3,2.5-5.1-.6-7.2-1.8c-2.1-1.2-3.8-2.9-5-5.1s-1.8-4.7-1.8-7.6.6-5.4,1.8-7.6,2.8-3.9,4.9-5.1c2.1-1.2,4.6-1.8,7.3-1.8s5,.6,7.1,1.7c2.1,1.2,3.7,2.8,4.9,4.8,1.2,2.1,1.7,4.5,1.7,7.1s0,1.9-.2,2.8h0ZM246.6,302.7c0-2.3-.8-4.1-2.3-5.4s-3.3-2-5.6-2-3.8.7-5.2,2-2.3,3.1-2.5,5.4h15.6,0Z"/>
    <path class="st0" d="M261.9,297.3c1.2-2.2,2.8-3.9,4.8-5.1,2-1.2,4.3-1.8,6.7-1.8s4.1.4,5.8,1.3,3,2,4,3.2v-4.1h5.9v28.1h-5.9v-4.2c-1,1.3-2.3,2.4-4,3.3s-3.6,1.3-5.8,1.3-4.6-.6-6.6-1.9-3.6-3-4.8-5.2c-1.2-2.2-1.8-4.8-1.8-7.6s.6-5.3,1.8-7.5h0ZM281.9,299.9c-.8-1.4-1.8-2.5-3.1-3.3-1.3-.8-2.7-1.1-4.2-1.1s-2.9.4-4.2,1.1c-1.3.7-2.3,1.8-3.1,3.2-.8,1.4-1.2,3.1-1.2,5s.4,3.6,1.2,5.1c.8,1.5,1.9,2.6,3.2,3.3s2.7,1.1,4.2,1.1,2.9-.4,4.2-1.1c1.3-.8,2.3-1.8,3.1-3.3.8-1.4,1.2-3.1,1.2-5.1s-.4-3.6-1.2-5h0Z"/>
    <path class="st0" d="M306.2,281.3v37.7h-5.8v-37.7h5.8Z"/>
    <path class="st0" d="M324.3,295.6v15.6c0,1,.2,1.8.7,2.3s1.3.7,2.5.7h3.6v4.8h-4.6c-2.6,0-4.6-.6-6-1.8-1.4-1.2-2.1-3.2-2.1-6v-15.6h-3.3v-4.7h3.3v-7h5.9v7h6.8v4.7h-6.8,0Z"/>
    <path class="st0" d="M360.5,291.8c1.7.9,3,2.3,4,4.1s1.5,4,1.5,6.5v16.6h-5.8v-15.7c0-2.5-.6-4.5-1.9-5.8s-3-2-5.1-2-3.9.7-5.2,2c-1.3,1.3-1.9,3.3-1.9,5.8v15.7h-5.8v-37.7h5.8v12.9c1-1.2,2.2-2.1,3.8-2.8,1.5-.6,3.2-1,5-1s4,.5,5.7,1.4h0Z"/>
    <path class="st0" d="M383.4,312l-6.2,14.1h-3.8l3.6-14.1h6.3Z"/>
    <path class="st0" d="M437.5,283.6l-11.7,22.6v12.9h-5.8v-12.9l-11.8-22.6h6.5l8.2,17.3,8.2-17.3h6.5,0Z"/>
    <path class="st0" d="M450.9,317.7c-2.1-1.2-3.8-2.9-5-5.1s-1.8-4.7-1.8-7.6.6-5.4,1.9-7.6,3-3.9,5.1-5.1,4.6-1.8,7.3-1.8,5.1.6,7.3,1.8c2.2,1.2,3.9,2.9,5.1,5.1,1.3,2.2,1.9,4.7,1.9,7.6s-.6,5.4-1.9,7.6-3,3.9-5.3,5.1c-2.2,1.2-4.7,1.8-7.4,1.8s-5-.6-7.2-1.8h0ZM462.2,313.5c1.3-.8,2.4-1.8,3.2-3.3.8-1.4,1.2-3.2,1.2-5.2s-.4-3.8-1.2-5.2c-.8-1.4-1.8-2.5-3.1-3.3-1.3-.7-2.7-1.1-4.2-1.1s-2.9.4-4.1,1.1-2.3,1.8-3,3.3c-.8,1.5-1.1,3.2-1.1,5.2s.4,3.8,1.1,5.2c.7,1.5,1.7,2.6,3,3.3s2.6,1.1,4.1,1.1,2.9-.4,4.2-1.1h0Z"/>
    <path class="st0" d="M507.6,290.9v28.1h-5.8v-3.3c-.9,1.2-2.1,2.1-3.6,2.7s-3,1-4.7,1-4.2-.5-5.9-1.4-3.1-2.3-4.1-4.1-1.5-4-1.5-6.5v-16.5h5.8v15.7c0,2.5.6,4.5,1.9,5.8s3,2,5.1,2,3.9-.7,5.2-2c1.3-1.3,1.9-3.3,1.9-5.8v-15.7h5.8Z"/>
    <path class="st0" d="M528.1,291.9c1.4-.9,3.1-1.4,5-1.4v6h-1.5c-2.3,0-4,.6-5.2,1.7s-1.8,3.2-1.8,6v14.8h-5.8v-28.1h5.8v4.9c.8-1.7,2-3,3.4-4h0Z"/>
    <path class="st0" d="M561.8,291.9c1.6-2.8,3.8-4.9,6.6-6.5,2.8-1.5,5.8-2.3,9.1-2.3s7.1.9,10.1,2.8,5.1,4.5,6.4,7.9h-7c-.9-1.8-2.2-3.1-3.8-4s-3.5-1.4-5.7-1.4-4.4.5-6.3,1.6-3.3,2.5-4.3,4.5-1.6,4.2-1.6,6.7.5,4.8,1.6,6.8,2.5,3.5,4.3,4.5c1.8,1,3.9,1.6,6.3,1.6s4-.5,5.7-1.4c1.6-.9,2.9-2.2,3.8-4h7c-1.3,3.4-3.5,6-6.4,7.9-2.9,1.8-6.3,2.8-10.1,2.8s-6.4-.8-9.1-2.3c-2.8-1.5-4.9-3.7-6.5-6.5-1.6-2.8-2.4-5.9-2.4-9.3s.8-6.6,2.4-9.3h0Z"/>
    <path class="st0" d="M624.7,291.8c1.7.9,3,2.3,4,4.1s1.5,4,1.5,6.5v16.6h-5.8v-15.7c0-2.5-.6-4.5-1.9-5.8s-3-2-5.2-2-3.9.7-5.2,2c-1.3,1.3-1.9,3.3-1.9,5.8v15.7h-5.8v-37.7h5.8v12.9c1-1.2,2.2-2.1,3.8-2.8,1.5-.6,3.2-1,5-1s4,.5,5.7,1.4h0Z"/>
    <path class="st0" d="M646.2,317.7c-2.1-1.2-3.8-2.9-5-5.1s-1.8-4.7-1.8-7.6.6-5.4,1.9-7.6,3-3.9,5.2-5.1c2.2-1.2,4.6-1.8,7.3-1.8s5.1.6,7.3,1.8c2.2,1.2,3.9,2.9,5.2,5.1s1.9,4.7,1.9,7.6-.7,5.4-1.9,7.6-3,3.9-5.3,5.1c-2.2,1.2-4.7,1.8-7.4,1.8s-5-.6-7.2-1.8h0ZM657.6,313.5c1.3-.8,2.4-1.8,3.2-3.3.8-1.4,1.2-3.2,1.2-5.2s-.4-3.8-1.2-5.2c-.8-1.4-1.8-2.5-3.1-3.3s-2.7-1.1-4.2-1.1-2.9.4-4.1,1.1-2.3,1.8-3,3.3c-.8,1.5-1.2,3.2-1.2,5.2s.4,3.8,1.1,5.2,1.7,2.6,3,3.3,2.6,1.1,4.1,1.1,2.9-.4,4.2-1.1h0Z"/>
    <path class="st0" d="M677.8,286.1c-.7-.7-1.1-1.6-1.1-2.6s.4-1.9,1.1-2.6,1.6-1.1,2.7-1.1,1.9.4,2.6,1.1,1.1,1.6,1.1,2.6-.4,1.9-1.1,2.6-1.6,1.1-2.6,1.1-1.9-.4-2.7-1.1ZM683.3,290.9v28.1h-5.8v-28.1h5.8Z"/>
    <path class="st0" d="M694.5,297.3c1.2-2.2,2.8-3.9,4.9-5.1,2.1-1.2,4.5-1.8,7.1-1.8s6.2.8,8.4,2.4c2.2,1.6,3.7,3.9,4.5,6.9h-6.3c-.5-1.4-1.3-2.5-2.5-3.3s-2.5-1.2-4.2-1.2-4.3.8-5.7,2.5-2.1,4-2.1,7.1.7,5.4,2.1,7.1c1.4,1.7,3.3,2.5,5.7,2.5,3.4,0,5.6-1.5,6.7-4.4h6.3c-.8,2.9-2.3,5.1-4.6,6.8-2.2,1.7-5,2.5-8.4,2.5s-5.1-.6-7.1-1.8-3.7-2.9-4.9-5.1-1.8-4.7-1.8-7.6.6-5.4,1.8-7.6h0Z"/>
    <path class="st0" d="M754.5,306.9h-21.5c.2,2.4,1,4.2,2.5,5.6s3.3,2.1,5.6,2.1c3.1,0,5.3-1.3,6.6-3.9h6.3c-.8,2.6-2.4,4.7-4.6,6.4s-5,2.5-8.3,2.5-5.1-.6-7.2-1.8c-2.1-1.2-3.8-2.9-5-5.1s-1.8-4.7-1.8-7.6.6-5.4,1.8-7.6,2.8-3.9,5-5.1c2.1-1.2,4.6-1.8,7.3-1.8s5,.6,7.1,1.7c2.1,1.2,3.7,2.8,4.8,4.8,1.2,2.1,1.7,4.5,1.7,7.1s0,1.9-.2,2.8h0ZM748.7,302.7c0-2.3-.8-4.1-2.3-5.4-1.5-1.3-3.3-2-5.6-2s-3.8.7-5.2,2c-1.5,1.3-2.3,3.1-2.5,5.4h15.6,0Z"/>
  </g>
</svg>