<?xml version="1.0" encoding="UTF-8"?>
<svg id="Layer_1" xmlns="http://www.w3.org/2000/svg" version="1.1" viewBox="0 0 664.9 136.6">
  <!-- Generator: Adobe Illustrator 29.1.0, SVG Export Plug-In . SVG Version: 2.1.0 Build 142)  -->
  <defs>
    <style>
      .st0 {
        fill: #d51668;
      }

      .st1 {
        fill: #2b2e83;
      }
    </style>
  </defs>
  <g>
    <path class="st0" d="M114.6,65.1L63.9,14.4c-4.2-4.2-11.1-4.2-15.3,0l-4.6,4.6,49.1,48.8-49.1,49,4.9,4.8c4.2,4.2,11,4.2,15.3,0l50.6-50c1.8-1.8,1.8-4.7,0-6.5h0Z"/>
    <path class="st0" d="M26.9,100l4.2,4.2,36.5-36.3L31.2,31.7l-4.3,4.3c-4.3,4.2-4.2,11.2,0,15.4l16.6,16.4-16.8,16.7c-4.3,4.3-4.2,11.2,0,15.4h0Z"/>
  </g>
  <g>
    <rect class="st1" x="184.9" y="46.5" width="14.9" height="66.8"/>
    <path class="st1" d="M241.6,46.8h0c-17.1,0-30.9,13.8-30.9,30.9v35.9h14.9v-36.7c0-8.9,7.2-16.1,16.1-16.1h0c8.9,0,16.1,7.2,16.1,16.1v36.7h14.9v-35.9c0-17.1-13.9-30.9-30.9-30.9h0Z"/>
    <path class="st1" d="M376,46.8h0c-5.9,0-11.4,1.6-16,4.5v-28.6h-14.9v55.1h0v35.9h14.9v-36.7c0-8.9,7.2-16.1,16-16.1h0c8.9,0,16,7.2,16,16.1v36.7h14.9v-35.9c0-17.1-13.9-30.9-30.9-30.9Z"/>
    <path class="st1" d="M448.7,46.7c-18.4,0-33.4,15-33.4,33.4s15,33.4,33.4,33.4,33.4-15,33.4-33.4-15-33.4-33.4-33.4ZM448.7,99c-10.4,0-18.8-8.4-18.8-18.8s8.4-18.8,18.8-18.8,18.8,8.4,18.8,18.8-8.4,18.8-18.8,18.8Z"/>
    <path class="st1" d="M139,42h0v4.7h-10.1v12.6h10.1v54h14.9v-54h19.1v-12.6h-19.1v-4.7c0-9.8,10.4-12.1,19.5-7.5l4.3-11.4c-17.1-10-38.7-2.8-38.7,18.8h0Z"/>
    <circle class="st1" cx="192.3" cy="31.3" r="8.6"/>
    <rect class="st1" x="491.3" y="46.5" width="14.9" height="66.8"/>
    <circle class="st1" cx="498.7" cy="31.3" r="8.6" transform="translate(124 361.8) rotate(-45)"/>
    <path class="st1" d="M548.8,61.3c5.2,0,9.9,2.1,13.3,5.5l10.3-10.3c-6-6-14.4-9.8-23.6-9.8-18.4,0-33.4,15-33.4,33.4s15,33.4,33.4,33.4,17.6-3.8,23.6-9.8l-10.3-10.3c-3.4,3.4-8.1,5.5-13.3,5.5-10.4,0-18.8-8.4-18.8-18.8s8.4-18.8,18.8-18.8h0Z"/>
    <path class="st1" d="M313.7,61.3c5.2,0,9.9,2.1,13.3,5.5l10.3-10.3c-6-6-14.4-9.8-23.6-9.8-18.4,0-33.4,15-33.4,33.4s15,33.4,33.4,33.4,17.6-3.8,23.6-9.8l-10.3-10.3c-3.4,3.4-8.1,5.5-13.3,5.5-10.4,0-18.8-8.4-18.8-18.8s8.4-18.8,18.8-18.8h0Z"/>
    <path class="st1" d="M625.3,87.4h15.2c.5-2.3.8-4.8.8-7.2s-.3-4.8-.8-7.1c-1.3-6.2-4.4-11.7-8.6-16.1-6.1-6.3-14.6-10.2-24-10.2-18.4,0-33.4,15-33.4,33.4s15,33.4,33.4,33.4,17.5-3.7,23.5-9.7l-10.3-10.3c-3.4,3.3-8,5.4-13.2,5.4-7.8,0-14.6-4.8-17.4-11.6h34.8,0ZM590.4,73.1c2.8-6.9,9.5-11.8,17.5-11.8s10.3,2.3,13.7,6c1.6,1.7,2.9,3.7,3.7,5.8h-34.9Z"/>
  </g>
</svg>