<?xml version="1.0" encoding="UTF-8"?>
<svg id="Layer_1" xmlns="http://www.w3.org/2000/svg" version="1.1" viewBox="0 0 297.7 86.1">
  <!-- Generator: Adobe Illustrator 29.2.1, SVG Export Plug-In . SVG Version: 2.1.0 Build 116)  -->
  <defs>
    <style>
      .st0 {
        fill: #ee9bac;
      }

      .st1 {
        fill: #fff;
      }

      .st2 {
        stroke: #210000;
        stroke-miterlimit: 10;
        stroke-width: .5px;
      }
    </style>
  </defs>
  <g>
    <path class="st2" d="M98.1,34.3c-1.1.5-3,.9-4.6,1.3v1.2l4.6-.4v17.4h2.4v-19.6s-2.4,0-2.4,0Z"/>
    <path class="st2" d="M112.8,43.5c0-1.2,1.1-2.1,3.1-2.1s3.1.6,4.5,1.9l1.7-1.2c-1.2-1.4-3.7-2.4-5.9-2.4-3.3,0-5.6,1.3-5.7,3.8-.2,5.1,10,3.2,10,6.7s-1.1,2.3-3.7,2.3-3.8-.8-5-2.1l-1.9,1.2c1.6,1.7,4.2,2.7,6.9,2.7s6-1.4,6-4.1c0-5.2-10-3.6-10-6.7Z"/>
    <path class="st2" d="M131.6,52.5c-1.4,0-2-.3-2-1v-9.9h4v-1.7h-4v-4.6h-2.4v4.6h-2.8v1.7h2.8v10.2c0,1.8,1.1,2.3,3.7,2.3s2.4-.1,2.8-.2v-1.6c-.6,0-1.3.1-2.1.1Z"/>
    <path class="st2" d="M153.5,36c.5,0,1.2.1,1.7.2v-1.7c-.7,0-1.4-.1-2.1-.1-2.8,0-4.2.8-4.2,4.1v1.6h-2.9v1.7h2.9v12.2h2.4v-12.2h3.8v-1.7h-3.8v-2c0-1.6.6-2,2.2-2Z"/>
    <path class="st2" d="M164.5,39.7c-4.7,0-7.1,3.2-7.1,7.2s2.4,7.2,7.1,7.2,7.1-3.2,7.1-7.2-2.4-7.2-7.1-7.2ZM164.5,52.5c-2.9,0-4.7-2-4.7-5.6s1.8-5.6,4.7-5.6,4.7,2,4.7,5.6-1.8,5.6-4.7,5.6Z"/>
    <path class="st2" d="M177.6,42.8h0v-2.8h-2.4v13.9h2.4v-7.7c1.1-2.9,2.7-4.4,5.7-4.5v-1.9c-2.9,0-4.3,1.1-5.6,3Z"/>
    <path class="st2" d="M213.2,40l-3.4,10.8h0l-3.5-10.8h-2.4l-3.4,10.7h0l-3.5-10.7h-2.4l4.7,13.9h2.4l3.4-10.8h0l3.5,10.8h2.4l4.6-13.9h-2.4Z"/>
    <path class="st2" d="M224.5,39.7c-4.7,0-7.1,3.2-7.1,7.2s2.4,7.2,7.1,7.2,7.1-3.2,7.1-7.2-2.4-7.2-7.1-7.2ZM224.5,52.5c-2.9,0-4.7-2-4.7-5.6s1.8-5.6,4.7-5.6,4.7,2,4.7,5.6-1.8,5.6-4.7,5.6Z"/>
    <path class="st2" d="M253,39.7c-2,0-4,.9-5.5,2.2-.6-1.3-2.2-2.2-4.4-2.2s-3.6.7-5,2h-.1c0,.1,0-1.7,0-1.7h-2.4v13.9h2.4v-10.4c1.3-1,2.7-2.1,4.8-2.1s2.7.7,2.7,2.6v9.9h2.4v-10.4c1.3-1,2.7-2.1,4.8-2.1s2.7.7,2.7,2.6v9.9h2.4v-9.9c0-3.4-2.5-4.2-4.8-4.2Z"/>
    <path class="st2" d="M274.1,50.2c-1,1.4-2.7,2.4-4.8,2.4s-5.1-2.1-5.1-5.2h11.2v-1.3c0-4.4-3-6.3-6.6-6.3s-7.1,2.7-7.1,7.2,3.7,7.2,7.5,7.2,5.5-1.7,6.6-3.2l-1.9-.8h0ZM268.9,41.4c2.6,0,4.1,1.7,4.1,4.3h-8.8c.2-2.6,1.8-4.3,4.7-4.3Z"/>
    <path class="st2" d="M287.7,39.7c-2,0-3.8.9-5.1,2.1h0v-1.9h-2.4v13.9h2.4v-10.4c1.1-.9,3.2-2.1,5-2.1s2.8.6,2.8,2.5v10.1h2.4v-10.1c0-3-2.4-4.1-5-4.1h0Z"/>
  </g>
  <g>
    <path d="M77.6,63c-.3-1-1.3-1.8-2.5-1.8-1.1,0-2.2.7-2.9,1.8-.3.5-.6,1.2-.9,1.8,0,0,0,.2-.1.2,0-.5-.2-1-.4-1.5-.4-.9-1.3-1.6-2.3-1.9-.8-.2-1.5-.1-2,0,0,0,0,0,0-.1,1.2-2.8,2.4-7.2,2.1-10.8-.2-2.5-.8-4.3-1.5-6.6-.2-.8-.5-1.6-.8-2.5-2.5-8.6,3.5-13.8,3.8-14l.6-.5-10.1-8.1c.6,0,1-.2,1.4-.4.9-.5,1.4-1.5,1.2-2.3-.2-.9-1.1-1.7-2.1-1.8-.8-.1-1.4.2-1.8.8-.2.4-.2.8,0,1.1.2.3.7.4,1.1.2.4-.2.5-.6.4-1,0-.1,0-.2-.1-.4.1,0,.2,0,.3,0,.5,0,1.2.5,1.3,1.1,0,.4-.2,1-.8,1.3-.8.5-1.9.3-2.9-.5-.6-.5-1.2-1.4-1.8-2.3-1.4-1.9-3.1-4.3-5.3-4.9-2.3-.7-4.5,0-6.3.4-.6.2-1.2.3-1.7.4-.8.2-1.7,0-2.1-.6-.4-.5-.5-1.2-.2-1.7.3-.5.7-.6,1-.7.4,0,.8.1,1,.3-.2.2-.4.4-.5.7,0,.2,0,.4.2.6.2.2.4.3.7.3.3,0,.6-.3.7-.6.1-.4,0-1.1-.4-1.5-.4-.5-1.1-.7-1.7-.7-.7,0-1.3.4-1.7,1.1-.5.8-.4,2,.2,2.8.6.7,1.8,1.1,3,.9.6,0,1.2-.3,1.8-.4,0,0,.2,0,.2,0-.3.3-.6.7-.8,1.1-.4.9-.3,1.8.1,2.7.5,1.1,1.3,1.4,1.9,1.6.2,0,.4,0,.5,0,.8,0,1.4-.3,1.8-.6.8-.7.8-2.1,0-3-.5-.5-1.1-.6-1.4-.4-.3.2-.5.5-.4.9,0,.4.3.5.4.6.3.2.7.1,1,0,.2.4,0,.9-.2,1.2-.2.2-.9.5-1.5.4-.6-.1-1-.5-1.3-1.1-.3-.7-.4-1.3,0-1.9.4-.9,1.3-1.6,2.7-2.1.9,0,1.8,0,2.8.2,1.9.6,3.5,2.8,4.8,4.6.6.9,1.2,1.6,1.7,2.1v.2c0,0-1.1,3.2-2.9,3.3-1.4,0-2.6-.8-4.2-1.8-2.4-1.6-5.4-3.6-10.5-3.8v.3-.3h0c-5.2.1-8.2,2.1-10.5,3.8-1.6,1.1-2.8,1.9-4.2,1.8-1.6,0-2.6-2.4-2.9-3.3v-.3c.4-.5.9-1.3,1.5-2.1,1.3-1.8,2.9-4,4.8-4.6,1-.3,1.9-.3,2.8-.2,1.4.4,2.3,1.2,2.7,2.1.3.6.2,1.3,0,1.9-.3.6-.7,1-1.3,1.1-.7.1-1.3-.1-1.5-.4-.2-.2-.3-.5-.3-.8s0-.3,0-.4c.2,0,.6.1,1,0,.2,0,.4-.3.4-.6,0-.4,0-.7-.4-.9-.3-.2-.9-.1-1.4.4-.4.4-.6,1-.6,1.5,0,.6.2,1.1.6,1.5.4.3,1,.6,1.8.6s.4,0,.5,0c.6-.1,1.4-.5,1.9-1.6.4-.9.5-1.8.1-2.7-.2-.4-.4-.8-.8-1.1,0,0,.2,0,.2,0,.6.2,1.2.3,1.8.4,1.2.2,2.4-.1,3-.9.7-.8.8-1.9.2-2.8-.4-.6-1-1-1.7-1.1-.7,0-1.3.2-1.7.7-.4.4-.6,1.1-.4,1.5.1.3.4.6.7.6.3,0,.5,0,.7-.3.2-.2.2-.4.2-.6,0-.3-.3-.5-.5-.7.2-.2.6-.4,1-.3.3,0,.7.2,1,.7.3.5.2,1.2-.2,1.7-.4.5-1.3.7-2.1.6-.5,0-1.1-.2-1.7-.4-1.8-.5-4-1.1-6.3-.4-2.2.7-3.9,3-5.3,4.9-.7.9-1.3,1.8-1.8,2.3-.9.8-2,1-2.9.5-.5-.3-.8-.9-.8-1.3.2-.6.8-1.1,1.3-1.1,0,0,.2,0,.3,0,0,.1,0,.2-.1.4-.1.4,0,.8.4,1,.4.2.9,0,1.1-.2.2-.3.2-.7,0-1.1-.3-.6-1-.9-1.8-.8-1,.1-1.8.9-2.1,1.8-.2.8.3,1.8,1.2,2.3.4.2.9.4,1.5.4h0l-10.1,8.1.7.5c.3.2,6.3,5.4,3.8,14-.3.9-.5,1.7-.8,2.5-.7,2.3-1.3,4.2-1.5,6.6-.3,3.6.8,8,2.1,10.8,0,0,0,.1,0,.2-.5-.2-1.2-.4-2.1-.1-1.1.3-1.9.9-2.3,1.9-.2.4-.3.9-.4,1.5,0,0,0-.2-.1-.2-.3-.6-.6-1.2-.9-1.8-.7-1.1-1.8-1.8-2.9-1.8-1.2,0-2.2.8-2.5,1.8-.2.8-.1,1.6.3,2.2.4.6,1.1,1,1.8,1,.6,0,1.3-.3,1.5-.8.2-.3.2-.7,0-1-.2-.3-.4-.4-.7-.4s-.5.1-.6.3c-.2.3-.2.6-.2.9-.3,0-.7-.2-1-.6-.2-.2-.4-.7-.2-1.3.2-.6.8-1.1,1.6-1.1.7,0,1.5.5,2,1.3.3.5.6,1.1.9,1.7.9,1.8,2,4.2,4.3,5.6,2.2,1.4,5.4,1.1,8,.8,1.3-.1,2.5-.2,3.3-.1,1.4.2,2.3,1,2.5,2,.1.7-.1,1.4-.6,1.6-.7.3-1.4.1-1.9-.3,0,0-.2-.2-.2-.2.1,0,.2,0,.4-.2.4-.2.6-.6.5-1-.1-.5-.6-.8-1-.7-.4,0-.7.3-.9.8-.3.7,0,1.5.6,2.1.5.4,1.2.7,1.8.7s.8,0,1.2-.3c.8-.4,1.3-1.5,1.1-2.7,0-.5-.3-1-.7-1.4.4,0,.8.2,1.3.3.9.2,1.9.4,2.9.7,6.6,1.6,9,6.9,9,7l.7,1.6.6-1.7c0,0,2-5.5,9-6.9l1.6-.3c.8-.2,1.6-.3,2.4-.5-.3.4-.5.9-.6,1.3-.2,1.1.2,2.2,1.1,2.7.4.2.8.3,1.2.3.7,0,1.3-.2,1.8-.7.7-.6.9-1.4.6-2.1-.2-.5-.5-.8-.9-.8-.5,0-.9.3-1,.7-.1.4,0,.8.5,1,.2,0,.3.1.4.2,0,0-.2.2-.2.2-.4.4-1.2.6-1.9.3-.4-.2-.7-.9-.6-1.6.2-1.1,1.1-1.8,2.5-2,.8-.1,2,0,3.3.1,2.6.2,5.8.6,8-.8,2.3-1.4,3.4-3.7,4.3-5.6.3-.6.6-1.2.9-1.7.5-.8,1.3-1.3,2-1.3h0c.7,0,1.4.5,1.6,1.1.2.6,0,1.1-.2,1.3-.3.4-.7.5-1,.6,0-.3,0-.6-.2-.9-.2-.2-.4-.3-.6-.3s-.6.2-.7.4c-.2.3-.2.7,0,1,.3.4.9.8,1.5.8.7,0,1.4-.4,1.8-1,.4-.6.6-1.4.3-2.2h0ZM20.2,70.6c-2.4.2-5.5.5-7.3-.6-.9-.6-1.7-1.3-2.2-2.2-.6-1.5-.7-2.8-.3-3.8.3-.7.9-1.1,1.7-1.3.7-.2,1.3,0,1.8.3.6.5.8,1.2.8,1.5,0,.3-.2.6-.4.8-.1,0-.3.2-.4.2-.1-.2-.3-.6-.7-.8-.2,0-.5-.1-.8,0s-.5.6-.4,1c.1.4.6.9,1.4.9s1.2-.2,1.7-.6c.3-.3.6-.6.7-1,1.3,2.1,2.7,3.5,4.3,4.5.6.3,1.1.6,1.7.9-.4,0-.9,0-1.4.1ZM51.1,71.1l-1.6.3c-5.6,1.2-8.3,4.7-9.4,6.6-1.2-1.9-4-5.2-9.3-6.6-1-.2-2-.5-2.9-.7-2.8-.6-5.3-1.2-7.3-2.4-2.2-1.3-3.9-3.6-5.6-7.3-1.2-2.6-2.2-6.7-2-10.1.2-2.3.7-4.1,1.4-6.3.2-.8.5-1.6.8-2.5,2.3-7.8-1.9-13.2-3.6-14.9l9.9-7.9c.6,1.2,1.8,3.3,3.8,3.4,1.8,0,3.3-.9,5-2.1,2.2-1.5,5-3.4,9.8-3.5,4.8.1,7.5,2,9.8,3.5,1.7,1.2,3.2,2.1,5,2.1,2-.1,3.2-2.1,3.8-3.4l9.9,7.9c-1.6,1.7-5.9,7.1-3.6,14.9.3.9.5,1.8.8,2.5.7,2.2,1.3,4,1.4,6.3.2,3.4-.8,7.5-2,10.1-1.7,3.7-3.4,6-5.6,7.3-2.3,1.4-5.2,2-8.6,2.7h0ZM69.6,67.8c-.6.8-1.3,1.6-2.2,2.2-1.9,1.2-4.9.9-7.3.6-.5,0-.9,0-1.3-.1.6-.3,1.2-.6,1.7-.9,1.6-1,3-2.4,4.2-4.4.1.3.3.6.5.8.5.5,1.1.7,1.8.7.8,0,1.2-.4,1.4-.9.1-.4,0-.8-.4-1s-.6-.2-.9,0c-.4.2-.6.5-.7.8-.2,0-.3-.2-.5-.3-.2-.2-.3-.4-.4-.8,0-.4.2-1.1.8-1.5.5-.4,1.1-.5,1.8-.3.8.2,1.4.7,1.7,1.3.5,1,.4,2.3-.3,3.8h0Z"/>
    <g>
      <path class="st0" d="M40.1,75.3c-1.7-2-4.5-4.3-8.8-5.4-1-.2-1.9-.4-2.8-.7h-.1c-2.7-.6-5.1-1.1-6.8-2.2-1.9-1.2-3.4-3.2-4.9-6.6-1-2.3-2.1-6.2-1.8-9.3.2-2.1.7-3.7,1.4-5.9.2-.8.5-1.6.8-2.6,2.1-7.1-.8-12.5-2.8-15.1l7.1-5.7c1.1,1.6,2.6,2.5,4.2,2.5h.3c2.2,0,4-1.2,5.7-2.4,2.2-1.5,4.6-3.1,8.9-3.2,4.2.1,6.7,1.8,8.8,3.2,1.7,1.2,3.5,2.4,5.7,2.4h.3c1.6,0,3.1-1,4.2-2.5l7.1,5.7c-2,2.6-4.9,8-2.9,15.1.3.9.6,1.8.8,2.6.7,2.2,1.2,3.8,1.4,5.9.2,3.1-.8,7-1.8,9.3-1.5,3.4-3.1,5.5-4.9,6.6-2.1,1.3-4.9,1.9-8.1,2.5l-1.6.3c-4.6,1-7.4,3.3-9.1,5.4h0Z"/>
      <path class="st1" d="M40.1,25.5c8.2,3.7,8.4,13.6,1.9,20.6,2.6-1.8,4.8-4.1,6-7.6,0,0,1.7-1.5,4.3-1.2s4.3,3,8.2,2.8c-3.8,5.5-6.3,8.6-8.8,9.3-2.8.8-5.5.3-10.3-1.6,2.3,2.7,5.4,3.2,9.5,2.9,0,0,1,.5,1.7,3.8s.2,4.2,1.9,7.1c-9.3,1.3-15.5-3.1-14.7-13.9-2,2.3-1.9,6.8.2,11.1,0,0-1.4,3-4.2,3.3s-5.2-1.2-8.1.7c-.9-9.7,1.2-13.7,11.5-16.5-3.7-.4-7.1.7-10.2,3,0,0-3-.7-4.7-3.7s-2-4-4.5-5.5c6.4-4.7,17.5-4,20.8,5.4-.3-3.6-2.6-6.6-6.2-9.2,0,0-.3-3,1.8-5.5,1.7-1.9,3-3,3.9-5.3h0Z"/>
    </g>
  </g>
</svg>