<?xml version="1.0" encoding="UTF-8"?>
<svg xmlns="http://www.w3.org/2000/svg" version="1.1" viewBox="0 0 714.3 153.2">
  <defs>
    <style>
      .cls-1, .cls-2 {
        fill: #0090ff;
      }

      .cls-2 {
        font-family: Metropolis-SemiBold, Metropolis;
        font-size: 28.3px;
        font-weight: 600;
      }

      .cls-2, .cls-3, .cls-4 {
        isolation: isolate;
      }

      .cls-3, .cls-5 {
        display: none;
      }

      .cls-6 {
        fill: #002e6a;
      }

      .cls-7 {
        fill: #666;
      }

      .cls-8 {
        fill: #999;
      }

      .cls-9 {
        fill: gray;
      }
    </style>
  </defs>
  <!-- Generator: Adobe Illustrator 28.7.4, SVG Export Plug-In . SVG Version: 1.2.0 Build 166)  -->
  <g>
    <g id="Layer_1">
      <g id="Debt" class="cls-5">
        <g>
          <path class="cls-6" d="M373.8,123.1l4,6.6h-4.6l-3.7-6.2h-3.1l-1.3,6.2h-4.1l4-19.1h8.4c3.6,0,6.1,2.2,6.1,5.4s-2.3,6-5.7,7h0ZM367.2,119.8h4.1c2.1,0,4.1-1.7,4.1-3.4s-1.1-1.9-2.8-1.9h-4.2l-1.1,5.4h0Z"/>
          <path class="cls-6" d="M379.7,123.7c0-4.8,4.5-8.7,9.2-8.7s6.5,2.8,6.5,6.3-4.5,8.7-9.2,8.7-6.5-2.8-6.5-6.3h0ZM391.6,121.5c0-1.7-1.3-3-3.1-3-2.7,0-5.1,2.5-5.1,5.2s1.3,3,3,3c2.7,0,5.2-2.5,5.2-5.2h0Z"/>
          <path class="cls-6" d="M396.1,123.7c0-4.7,4.5-8.7,9.2-8.7s4.2,1.1,5.2,2.6l-3,2.1c-.5-.7-1.6-1.2-2.6-1.2-2.7,0-5.1,2.5-5.1,5.2s1.3,3,3,3,2.5-.6,3.4-1.5l2.4,2.5c-1.7,1.6-3.8,2.4-6.2,2.4-3.7,0-6.5-2.8-6.5-6.3h.2Z"/>
          <path class="cls-6" d="M419.7,121.7l3.8,8h-4.5l-2.4-5.4-2.2,1.9-.7,3.5h-4.1l4-19.4h4.1l-2.3,11.2,6.5-6.1h4.7l-6.9,6.3h0Z"/>
          <path class="cls-6" d="M428.7,123.9h0c0,1.8.9,2.6,2.6,2.6s2.8-.5,3.9-1.4l2.2,2.9c-1.5,1.3-3.8,2.1-6.2,2.1-3.8,0-6.3-2.4-6.3-6s4.1-9,8.8-9,5.4,1.6,5.4,3.9-2.6,5-7,4.9h-3.5.1ZM429.5,120.9h3.2c1.6,0,2.5-.5,2.5-1.2s-.7-1.1-1.6-1.1c-1.8,0-3.3.9-4.1,2.3h0Z"/>
          <path class="cls-6" d="M446,118.6c-1.4,6.6-1.4,6.7-1.4,7,0,.6.3.9.9.9s1.3-.3,1.6-.6l.6,2.9c-1,.7-2.2,1.1-3.4,1.1-2.2,0-3.7-1.5-3.7-3.6s.1-1.3,1.5-7.8h-2l.7-3.3h2l.8-3.9h3.9l-.8,3.9h3.1l-.7,3.3h-3.1Z"/>
        </g>
        <g>
          <rect class="cls-6" x="270.5" y="117.1" width="19" height="2.2" rx="1" ry="1"/>
          <rect class="cls-6" x="264.8" y="121.9" width="24.9" height="2.2" rx="1" ry="1"/>
          <rect class="cls-6" x="255" y="122.1" width="7.6" height="2.2" rx="1" ry="1"/>
          <rect class="cls-6" x="265.9" y="126.8" width="7.6" height="2.2" rx="1" ry="1"/>
          <rect class="cls-6" x="276.3" y="126.8" width="13.7" height="2.2" rx="1" ry="1"/>
        </g>
        <g>
          <path class="cls-1" d="M295.1,110.7h6.7c6.3,0,10.7,3.9,10.7,9.5s-4.4,9.5-10.7,9.5h-6.7v-19h0ZM302.2,126.6c4,0,6.8-2.7,6.8-6.4s-2.8-6.4-6.8-6.4h-3.6v12.7h3.6Z"/>
          <path class="cls-1" d="M326.2,125.6l2.1,2.2c-1.2,1.3-3.7,2.2-5.8,2.2-4.1,0-7.5-3.1-7.5-7.5s3.2-7.4,7.3-7.4,7,3.4,7,8.6h-10.8c.4,2,1.9,3.4,3.9,3.4s2.9-.6,3.7-1.4h.1ZM318.5,121.1h7.5c-.4-1.8-1.6-3.1-3.6-3.1s-3.4,1.2-3.9,3.1Z"/>
          <path class="cls-1" d="M347.2,122.5c0,4.4-2.8,7.5-6.6,7.5s-3.8-1-5-2.6v2.3h-3.4v-19.3h3.4v7.3c1.1-1.6,2.9-2.6,5-2.6,3.8,0,6.6,3.1,6.6,7.5h0ZM343.9,122.5c0-2.7-1.7-4.6-4.1-4.6s-4,1.9-4,4.6,1.7,4.6,4,4.6,4.1-1.9,4.1-4.6Z"/>
          <path class="cls-1" d="M358.4,128.9c-.8.7-2,1.1-3.1,1.1-2.4,0-4-1.7-4-4.1v-7.7h-2.1v-2.8h2.1v-3.9h3.3v3.9h3.2v2.8h-3.2v7.3c0,1,.6,1.7,1.4,1.7s1.1-.2,1.4-.5l1,2.3h0Z"/>
        </g>
      </g>
      <g id="health" class="cls-5">
        <g>
          <path class="cls-6" d="M385.3,122.6l4,6.6h-4.6l-3.7-6.2h-3.1l-1.3,6.2h-4.1l4-19.1h8.4c3.6,0,6.1,2.2,6.1,5.4s-2.3,6-5.7,7h0ZM378.6,119.3h4.1c2.1,0,4.1-1.7,4.1-3.4s-1.1-1.9-2.8-1.9h-4.2l-1.1,5.4h-.1Z"/>
          <path class="cls-6" d="M391.1,123.3c0-4.8,4.5-8.7,9.2-8.7s6.5,2.8,6.5,6.3-4.5,8.7-9.2,8.7-6.5-2.8-6.5-6.3h0ZM403.1,121c0-1.7-1.3-3-3.1-3-2.7,0-5.1,2.5-5.1,5.2s1.3,3,3,3c2.7,0,5.2-2.5,5.2-5.2h0Z"/>
          <path class="cls-6" d="M407.6,123.3c0-4.7,4.5-8.7,9.2-8.7s4.2,1.1,5.2,2.6l-3,2.1c-.5-.7-1.6-1.2-2.6-1.2-2.7,0-5.1,2.5-5.1,5.2s1.3,3,3,3,2.5-.6,3.4-1.5l2.4,2.5c-1.7,1.6-3.8,2.4-6.2,2.4-3.7,0-6.5-2.8-6.5-6.3h.2Z"/>
          <path class="cls-6" d="M431.1,121.3l3.8,8h-4.5l-2.4-5.4-2.2,1.9-.7,3.5h-4.1l4-19.4h4.1l-2.3,11.2,6.5-6.1h4.7l-6.9,6.3h0Z"/>
          <path class="cls-6" d="M440.2,123.4h0c0,1.8.9,2.6,2.6,2.6s2.8-.5,3.9-1.4l2.2,2.9c-1.5,1.3-3.8,2.1-6.2,2.1-3.8,0-6.3-2.4-6.3-6s4.1-9,8.8-9,5.4,1.6,5.4,3.9-2.6,5-7,4.9h-3.5.1ZM440.9,120.5h3.2c1.6,0,2.5-.5,2.5-1.2s-.7-1.1-1.6-1.1c-1.8,0-3.3.9-4.1,2.3h0Z"/>
          <path class="cls-6" d="M457.4,118.2c-1.4,6.6-1.4,6.7-1.4,7,0,.6.3.9.9.9s1.3-.3,1.6-.6l.6,2.9c-1,.7-2.2,1.1-3.4,1.1-2.2,0-3.7-1.5-3.7-3.6s.1-1.3,1.5-7.8h-2l.7-3.3h2l.8-3.9h3.9l-.8,3.9h3.1l-.7,3.3h-3.1Z"/>
        </g>
        <g>
          <rect class="cls-6" x="259.8" y="116.5" width="19" height="2.2" rx="1" ry="1"/>
          <rect class="cls-6" x="254" y="121.3" width="24.9" height="2.2" rx="1" ry="1"/>
          <rect class="cls-6" x="244.3" y="121.5" width="7.6" height="2.2" rx="1" ry="1"/>
          <rect class="cls-6" x="255.2" y="126.2" width="7.6" height="2.2" rx="1" ry="1"/>
          <rect class="cls-6" x="265.5" y="126.2" width="13.7" height="2.2" rx="1" ry="1"/>
        </g>
        <g class="cls-3">
          <text class="cls-2" transform="translate(281.8 129.7)"><tspan x="0" y="0">Health</tspan></text>
        </g>
      </g>
      <g id="Loan" class="cls-5">
        <g>
          <path class="cls-1" d="M308.2,126.5v3.2h-13.4v-19.2h3.5v16h9.9Z"/>
          <path class="cls-1" d="M310.2,122.5c0-4.1,3.6-7.5,7.7-7.5s7.7,3.5,7.7,7.5-3.6,7.6-7.7,7.6-7.7-3.5-7.7-7.6ZM322.3,122.5c0-2.5-2-4.7-4.4-4.7s-4.4,2.1-4.4,4.7,2,4.7,4.4,4.7,4.4-2.1,4.4-4.7Z"/>
          <path class="cls-1" d="M341.1,121v8.7h-3.3v-1.7c-1.1,1.3-2.9,2.1-4.6,2.1-3.1,0-5.4-1.8-5.4-4.6s2.7-4.8,5.9-4.8,2.7.3,4.1.8v-.4c0-1.7-.9-3.3-3.6-3.3s-2.7.5-3.9,1.1l-1.2-2.4c2-1,4-1.5,5.8-1.5,3.8,0,6.2,2.4,6.2,6.1h0ZM337.8,125.2v-1.6c-1.1-.4-2.3-.6-3.6-.6s-3.1,1-3.1,2.3,1.2,2.2,2.8,2.2,3.4-.8,3.8-2.4h0Z"/>
          <path class="cls-1" d="M358.1,120.5v9.2h-3.3v-8.5c0-2-1.3-3.4-3.1-3.4s-3.3,1.2-3.5,2.7v9.1h-3.4v-14.4h3.4v1.9c.9-1.3,2.6-2.3,4.5-2.3,3.2,0,5.4,2.3,5.4,5.6h0Z"/>
        </g>
        <g>
          <path class="cls-6" d="M374.4,122.7l4,6.6h-4.6l-3.7-6.2h-3.1l-1.3,6.2h-4.1l4-19.1h8.4c3.6,0,6.1,2.2,6.1,5.4s-2.3,6-5.7,7h0ZM367.7,119.4h4.1c2.1,0,4.1-1.7,4.1-3.4s-1.1-1.9-2.8-1.9h-4.2l-1.1,5.4h0Z"/>
          <path class="cls-6" d="M380.2,123.3c0-4.8,4.5-8.7,9.2-8.7s6.5,2.8,6.5,6.3-4.5,8.7-9.2,8.7-6.5-2.8-6.5-6.3h0ZM392.2,121.1c0-1.7-1.3-3-3.1-3-2.7,0-5.1,2.5-5.1,5.2s1.3,3,3,3c2.7,0,5.2-2.5,5.2-5.2h0Z"/>
          <path class="cls-6" d="M396.7,123.3c0-4.7,4.5-8.7,9.2-8.7s4.2,1.1,5.2,2.6l-3,2.1c-.5-.7-1.6-1.2-2.6-1.2-2.7,0-5.1,2.5-5.1,5.2s1.3,3,3,3,2.5-.6,3.4-1.5l2.4,2.5c-1.7,1.6-3.8,2.4-6.2,2.4-3.7,0-6.5-2.8-6.5-6.3h.2Z"/>
          <path class="cls-6" d="M420.2,121.3l3.8,8h-4.5l-2.4-5.4-2.2,1.9-.7,3.5h-4.1l4-19.4h4.1l-2.3,11.2,6.5-6.1h4.7l-6.9,6.3h0Z"/>
          <path class="cls-6" d="M429.3,123.4h0c0,1.8.9,2.6,2.6,2.6s2.8-.5,3.9-1.4l2.2,2.9c-1.5,1.3-3.8,2.1-6.2,2.1-3.8,0-6.3-2.4-6.3-6s4.1-9,8.8-9,5.4,1.6,5.4,3.9-2.6,5-7,4.9h-3.5.1ZM430,120.5h3.2c1.6,0,2.5-.5,2.5-1.2s-.7-1.1-1.6-1.1c-1.8,0-3.3.9-4.1,2.3h0Z"/>
          <path class="cls-6" d="M446.5,118.2c-1.4,6.6-1.4,6.7-1.4,7,0,.6.3.9.9.9s1.3-.3,1.6-.6l.6,2.9c-1,.7-2.2,1.1-3.4,1.1-2.2,0-3.7-1.5-3.7-3.6s.1-1.3,1.5-7.8h-2l.7-3.3h2l.8-3.9h3.9l-.8,3.9h3.1l-.7,3.3h-3.1Z"/>
        </g>
        <g>
          <rect class="cls-6" x="270.7" y="116.6" width="19" height="2.2" rx="1" ry="1"/>
          <rect class="cls-6" x="264.9" y="121.4" width="24.9" height="2.2" rx="1" ry="1"/>
          <rect class="cls-6" x="255.1" y="121.6" width="7.6" height="2.2" rx="1" ry="1"/>
          <rect class="cls-6" x="266.1" y="126.3" width="7.6" height="2.2" rx="1" ry="1"/>
          <rect class="cls-6" x="276.4" y="126.3" width="13.7" height="2.2" rx="1" ry="1"/>
        </g>
      </g>
      <g id="Quote" class="cls-5">
        <g>
          <path class="cls-6" d="M385.3,122.6l4,6.6h-4.6l-3.7-6.2h-3.1l-1.3,6.2h-4.1l4-19.1h8.4c3.6,0,6.1,2.2,6.1,5.4s-2.3,6-5.7,7h0ZM378.6,119.3h4.1c2.1,0,4.1-1.7,4.1-3.4s-1.1-1.9-2.8-1.9h-4.2l-1.1,5.4h-.1Z"/>
          <path class="cls-6" d="M391.1,123.3c0-4.8,4.5-8.7,9.2-8.7s6.5,2.8,6.5,6.3-4.5,8.7-9.2,8.7-6.5-2.8-6.5-6.3h0ZM403.1,121c0-1.7-1.3-3-3.1-3-2.7,0-5.1,2.5-5.1,5.2s1.3,3,3,3c2.7,0,5.2-2.5,5.2-5.2h0Z"/>
          <path class="cls-6" d="M407.6,123.3c0-4.7,4.5-8.7,9.2-8.7s4.2,1.1,5.2,2.6l-3,2.1c-.5-.7-1.6-1.2-2.6-1.2-2.7,0-5.1,2.5-5.1,5.2s1.3,3,3,3,2.5-.6,3.4-1.5l2.4,2.5c-1.7,1.6-3.8,2.4-6.2,2.4-3.7,0-6.5-2.8-6.5-6.3h.2Z"/>
          <path class="cls-6" d="M431.1,121.3l3.8,8h-4.5l-2.4-5.4-2.2,1.9-.7,3.5h-4.1l4-19.4h4.1l-2.3,11.2,6.5-6.1h4.7l-6.9,6.3h0Z"/>
          <path class="cls-6" d="M440.2,123.4h0c0,1.8.9,2.6,2.6,2.6s2.8-.5,3.9-1.4l2.2,2.9c-1.5,1.3-3.8,2.1-6.2,2.1-3.8,0-6.3-2.4-6.3-6s4.1-9,8.8-9,5.4,1.6,5.4,3.9-2.6,5-7,4.9h-3.5.1ZM440.9,120.5h3.2c1.6,0,2.5-.5,2.5-1.2s-.7-1.1-1.6-1.1c-1.8,0-3.3.9-4.1,2.3h0Z"/>
          <path class="cls-6" d="M457.4,118.2c-1.4,6.6-1.4,6.7-1.4,7,0,.6.3.9.9.9s1.3-.3,1.6-.6l.6,2.9c-1,.7-2.2,1.1-3.4,1.1-2.2,0-3.7-1.5-3.7-3.6s.1-1.3,1.5-7.8h-2l.7-3.3h2l.8-3.9h3.9l-.8,3.9h3.1l-.7,3.3h-3.1Z"/>
        </g>
        <g>
          <rect class="cls-6" x="261.8" y="116.5" width="19" height="2.2" rx="1" ry="1"/>
          <rect class="cls-6" x="256" y="121.3" width="24.9" height="2.2" rx="1" ry="1"/>
          <rect class="cls-6" x="246.3" y="121.5" width="7.6" height="2.2" rx="1" ry="1"/>
          <rect class="cls-6" x="257.2" y="126.2" width="7.6" height="2.2" rx="1" ry="1"/>
          <rect class="cls-6" x="267.5" y="126.2" width="13.7" height="2.2" rx="1" ry="1"/>
        </g>
        <g class="cls-3">
          <text class="cls-2" transform="translate(283.8 129.7)"><tspan x="0" y="0">Quote</tspan></text>
        </g>
      </g>
      <g>
        <g>
          <g>
            <rect class="cls-7" x="520.6" y="52" width="19" height="2.2" rx="1" ry="1"/>
            <rect class="cls-7" x="514.8" y="56.8" width="24.9" height="2.2" rx="1" ry="1"/>
            <rect class="cls-7" x="505" y="57.1" width="7.6" height="2.2" rx="1" ry="1"/>
            <rect class="cls-7" x="516" y="61.7" width="7.6" height="2.2" rx="1" ry="1"/>
            <rect class="cls-7" x="526.3" y="61.7" width="13.7" height="2.2" rx="1" ry="1"/>
          </g>
          <g>
            <g>
              <path class="cls-7" d="M629.3,56.9l4,6.6h-4.6l-3.7-6.2h-3.1l-1.3,6.2h-4.1l4-19.1h8.4c3.6,0,6.1,2.2,6.1,5.4s-2.3,6-5.7,7h0ZM622.7,53.5h4.1c2.1,0,4.1-1.7,4.1-3.4s-1.1-1.9-2.8-1.9h-4.2l-1.1,5.4h0Z"/>
              <path class="cls-7" d="M635.1,57.5c0-4.8,4.5-8.7,9.2-8.7s6.5,2.8,6.5,6.3-4.5,8.7-9.2,8.7-6.5-2.8-6.5-6.3h0ZM647.1,55.2c0-1.7-1.3-3-3.1-3-2.7,0-5.1,2.5-5.1,5.2s1.3,3,3,3c2.7,0,5.2-2.5,5.2-5.2h0Z"/>
              <path class="cls-7" d="M651.6,57.5c0-4.7,4.5-8.7,9.2-8.7s4.2,1.1,5.2,2.6l-3,2.1c-.5-.7-1.6-1.2-2.6-1.2-2.7,0-5.1,2.5-5.1,5.2s1.3,3,3,3,2.5-.6,3.4-1.5l2.4,2.5c-1.7,1.6-3.8,2.4-6.2,2.4-3.7,0-6.5-2.8-6.5-6.3h.2Z"/>
              <path class="cls-7" d="M675.2,55.5l3.8,8h-4.5l-2.4-5.4-2.2,1.9-.7,3.5h-4.1l4-19.4h4.1l-2.3,11.2,6.5-6.1h4.7l-6.9,6.3h0Z"/>
              <path class="cls-7" d="M684.2,57.6h0c0,1.8.9,2.6,2.6,2.6s2.8-.5,3.9-1.4l2.2,2.9c-1.5,1.3-3.8,2.1-6.2,2.1-3.8,0-6.3-2.4-6.3-6s4.1-9,8.8-9,5.4,1.6,5.4,3.9-2.6,5-7,4.9h-3.5.1ZM685,54.7h3.2c1.6,0,2.5-.5,2.5-1.2s-.7-1.1-1.6-1.1c-1.8,0-3.3.9-4.1,2.3h0Z"/>
              <path class="cls-7" d="M701.4,52.4c-1.4,6.6-1.4,6.7-1.4,7,0,.6.3.9.9.9s1.3-.3,1.6-.6l.6,2.9c-1,.7-2.2,1.1-3.4,1.1-2.2,0-3.7-1.5-3.7-3.6s.1-1.3,1.5-7.8h-2l.7-3.3h2l.8-3.9h3.9l-.8,3.9h3.1l-.7,3.3h-3.1Z"/>
            </g>
            <g class="cls-4">
              <g class="cls-4">
                <path class="cls-8" d="M562.6,59.7h-10l-1.7,3.9h-3.1l8.3-19.2h3.1l8.3,19.2h-3.1l-1.7-3.9ZM561.5,57.1l-3.9-9.1-3.9,9.1h7.8Z"/>
                <path class="cls-8" d="M582.9,49.1v14.5h-2.8v-2.1c-.9,1.4-2.6,2.4-4.6,2.4-3.2,0-5.4-2.3-5.4-5.6v-9.2h2.7v8.7c0,2.2,1.4,3.7,3.3,3.7s3.8-1.3,4-3v-9.4h2.8Z"/>
                <path class="cls-8" d="M594.7,62.9c-.8.6-1.8,1-2.9,1-2.2,0-3.8-1.6-3.8-3.9v-8.5h-2.2v-2.4h2.2v-4h2.7v4h3.4v2.4h-3.4v8.3c0,1,.7,1.7,1.5,1.7s1.2-.2,1.5-.5l1,1.9Z"/>
                <path class="cls-8" d="M596.8,56.3c0-4.1,3.5-7.6,7.6-7.6s7.6,3.4,7.6,7.6-3.5,7.6-7.6,7.6-7.6-3.5-7.6-7.6ZM609.2,56.3c0-2.8-2.2-5.2-4.8-5.2s-4.9,2.4-4.9,5.2,2.2,5.2,4.9,5.2,4.8-2.4,4.8-5.2Z"/>
              </g>
            </g>
          </g>
        </g>
        <g>
          <g>
            <rect class="cls-7" x="21.3" y="52" width="19" height="2.2" rx="1" ry="1"/>
            <rect class="cls-7" x="15.5" y="56.8" width="24.9" height="2.2" rx="1" ry="1"/>
            <rect class="cls-7" x="5.7" y="57.1" width="7.6" height="2.2" rx="1" ry="1"/>
            <rect class="cls-7" x="16.7" y="61.7" width="7.6" height="2.2" rx="1" ry="1"/>
            <rect class="cls-7" x="27" y="61.7" width="13.7" height="2.2" rx="1" ry="1"/>
          </g>
          <g>
            <g>
              <path class="cls-7" d="M128.7,56.9l4,6.6h-4.6l-3.7-6.2h-3.1l-1.3,6.2h-4.1l4-19.1h8.4c3.6,0,6.1,2.2,6.1,5.4s-2.3,6-5.7,7h0ZM122.1,53.5h4.1c2.1,0,4.1-1.7,4.1-3.4s-1.1-1.9-2.8-1.9h-4.2l-1.1,5.4h0Z"/>
              <path class="cls-7" d="M134.5,57.5c0-4.8,4.5-8.7,9.2-8.7s6.5,2.8,6.5,6.3-4.5,8.7-9.2,8.7-6.5-2.8-6.5-6.3h0ZM146.5,55.2c0-1.7-1.3-3-3.1-3-2.7,0-5.1,2.5-5.1,5.2s1.3,3,3,3c2.7,0,5.2-2.5,5.2-5.2h0Z"/>
              <path class="cls-7" d="M151,57.5c0-4.7,4.5-8.7,9.2-8.7s4.2,1.1,5.2,2.6l-3,2.1c-.5-.7-1.6-1.2-2.6-1.2-2.7,0-5.1,2.5-5.1,5.2s1.3,3,3,3,2.5-.6,3.4-1.5l2.4,2.5c-1.7,1.6-3.8,2.4-6.2,2.4-3.7,0-6.5-2.8-6.5-6.3h.2Z"/>
              <path class="cls-7" d="M174.6,55.5l3.8,8h-4.5l-2.4-5.4-2.2,1.9-.7,3.5h-4.1l4-19.4h4.1l-2.3,11.2,6.5-6.1h4.7l-6.9,6.3h0Z"/>
              <path class="cls-7" d="M183.6,57.6h0c0,1.8.9,2.6,2.6,2.6s2.8-.5,3.9-1.4l2.2,2.9c-1.5,1.3-3.8,2.1-6.2,2.1-3.8,0-6.3-2.4-6.3-6s4.1-9,8.8-9,5.4,1.6,5.4,3.9-2.6,5-7,4.9h-3.5.1ZM184.4,54.7h3.2c1.6,0,2.5-.5,2.5-1.2s-.7-1.1-1.6-1.1c-1.8,0-3.3.9-4.1,2.3h0Z"/>
              <path class="cls-7" d="M200.8,52.4c-1.4,6.6-1.4,6.7-1.4,7,0,.6.3.9.9.9s1.3-.3,1.6-.6l.6,2.9c-1,.7-2.2,1.1-3.4,1.1-2.2,0-3.7-1.5-3.7-3.6s.1-1.3,1.5-7.8h-2l.7-3.3h2l.8-3.9h3.9l-.8,3.9h3.1l-.7,3.3h-3.1Z"/>
            </g>
            <g class="cls-4">
              <g class="cls-4">
                <path class="cls-8" d="M48.4,44.4h6.6c6.2,0,10.6,4,10.6,9.6s-4.4,9.6-10.6,9.6h-6.6v-19.2ZM55.2,61c4.5,0,7.6-2.9,7.6-7.1s-3.1-7-7.6-7h-4v14.1h4Z"/>
                <path class="cls-8" d="M80.1,59.9l1.7,1.8c-1.3,1.4-3.8,2.2-5.9,2.2-4,0-7.4-3.2-7.4-7.6s3.2-7.5,7.2-7.5,7,3.4,7,8.5h-11.4c.4,2.4,2.1,4.1,4.6,4.1s3.3-.7,4.1-1.6ZM71.4,55.1h8.7c-.3-2.2-1.7-3.9-4.2-3.9s-4.1,1.5-4.5,3.9Z"/>
                <path class="cls-8" d="M100.6,56.3c0,4.5-2.9,7.6-6.7,7.6s-4-1.1-5.2-2.9v2.5h-2.7v-19.6h2.7v7.6c1.1-1.8,2.9-2.8,5.2-2.8,3.8,0,6.7,3.1,6.7,7.6ZM97.8,56.3c0-3-1.9-5.2-4.5-5.2s-4.5,2.1-4.5,5.2,1.9,5.2,4.5,5.2,4.5-2.2,4.5-5.2Z"/>
                <path class="cls-8" d="M111.8,62.9c-.8.6-1.8,1-2.9,1-2.2,0-3.8-1.6-3.8-3.9v-8.5h-2.2v-2.4h2.2v-4h2.7v4h3.4v2.4h-3.4v8.3c0,1,.7,1.7,1.5,1.7s1.2-.2,1.5-.5l1,1.9Z"/>
              </g>
            </g>
          </g>
        </g>
        <g>
          <g>
            <rect class="cls-7" x="261.2" y="52" width="19" height="2.2" rx="1" ry="1"/>
            <rect class="cls-7" x="255.4" y="56.8" width="24.9" height="2.2" rx="1" ry="1"/>
            <rect class="cls-7" x="245.6" y="57.1" width="7.6" height="2.2" rx="1" ry="1"/>
            <rect class="cls-7" x="256.6" y="61.7" width="7.6" height="2.2" rx="1" ry="1"/>
            <rect class="cls-7" x="266.9" y="61.7" width="13.7" height="2.2" rx="1" ry="1"/>
          </g>
          <g>
            <g>
              <path class="cls-7" d="M378.8,56.9l4,6.6h-4.6l-3.7-6.2h-3.1l-1.3,6.2h-4.1l4-19.1h8.4c3.6,0,6.1,2.2,6.1,5.4s-2.3,6-5.7,7h0ZM372.2,53.5h4.1c2.1,0,4.1-1.7,4.1-3.4s-1.1-1.9-2.8-1.9h-4.2l-1.1,5.4h0Z"/>
              <path class="cls-7" d="M384.6,57.5c0-4.8,4.5-8.7,9.2-8.7s6.5,2.8,6.5,6.3-4.5,8.7-9.2,8.7-6.5-2.8-6.5-6.3h0ZM396.6,55.2c0-1.7-1.3-3-3.1-3-2.7,0-5.1,2.5-5.1,5.2s1.3,3,3,3c2.7,0,5.2-2.5,5.2-5.2h0Z"/>
              <path class="cls-7" d="M401.1,57.5c0-4.7,4.5-8.7,9.2-8.7s4.2,1.1,5.2,2.6l-3,2.1c-.5-.7-1.6-1.2-2.6-1.2-2.7,0-5.1,2.5-5.1,5.2s1.3,3,3,3,2.5-.6,3.4-1.5l2.4,2.5c-1.7,1.6-3.8,2.4-6.2,2.4-3.7,0-6.5-2.8-6.5-6.3h.2Z"/>
              <path class="cls-7" d="M424.7,55.5l3.8,8h-4.5l-2.4-5.4-2.2,1.9-.7,3.5h-4.1l4-19.4h4.1l-2.3,11.2,6.5-6.1h4.7l-6.9,6.3h0Z"/>
              <path class="cls-7" d="M433.7,57.6h0c0,1.8.9,2.6,2.6,2.6s2.8-.5,3.9-1.4l2.2,2.9c-1.5,1.3-3.8,2.1-6.2,2.1-3.8,0-6.3-2.4-6.3-6s4.1-9,8.8-9,5.4,1.6,5.4,3.9-2.6,5-7,4.9h-3.5.1ZM434.5,54.7h3.2c1.6,0,2.5-.5,2.5-1.2s-.7-1.1-1.6-1.1c-1.8,0-3.3.9-4.1,2.3h0Z"/>
              <path class="cls-7" d="M450.9,52.4c-1.4,6.6-1.4,6.7-1.4,7,0,.6.3.9.9.9s1.3-.3,1.6-.6l.6,2.9c-1,.7-2.2,1.1-3.4,1.1-2.2,0-3.7-1.5-3.7-3.6s.1-1.3,1.5-7.8h-2l.7-3.3h2l.8-3.9h3.9l-.8,3.9h3.1l-.7,3.3h-3.1Z"/>
            </g>
            <g class="cls-4">
              <g class="cls-4">
                <path class="cls-8" d="M294.6,47h-6.3v-2.6h15.5v2.6h-6.3v16.6h-2.8v-16.6Z"/>
                <path class="cls-8" d="M315.2,48.8v2.4c-3,0-5.1,1.7-5.4,4.2v8.2h-2.8v-14.5h2.8v2.8c.9-1.9,2.9-3.1,5.4-3.1Z"/>
                <path class="cls-8" d="M330,54.8v8.8h-2.7v-2c-1.1,1.5-3.1,2.3-4.8,2.3-3.1,0-5.3-1.8-5.3-4.6s2.6-4.8,5.8-4.8,3,.3,4.4.8v-.4c0-1.8-.8-3.8-3.7-3.8s-2.8.6-4.1,1.2l-1-2c2.1-1,3.9-1.5,5.5-1.5,3.9,0,6,2.5,6,6ZM327.3,59.1v-1.9c-1.2-.4-2.5-.6-3.9-.6s-3.6,1.1-3.6,2.7,1.4,2.5,3.2,2.5,3.8-.9,4.3-2.7Z"/>
                <path class="cls-8" d="M333.2,56.3c0-4.1,3.5-7.6,7.6-7.6s3.9.9,5.3,2.2l-1.9,1.7c-.9-1-2.1-1.6-3.5-1.6-2.6,0-4.8,2.4-4.8,5.2s2.2,5.2,4.8,5.2,2.6-.6,3.5-1.6l1.9,1.7c-1.4,1.4-3.3,2.3-5.4,2.3-4.1,0-7.6-3.5-7.6-7.6Z"/>
                <path class="cls-8" d="M356.2,55.7l6,7.9h-3.3l-4.5-6.1-2.3,2.4v3.7h-2.7v-19.6h2.7v12.5l7.1-7.4h3.4l-6.2,6.6Z"/>
              </g>
            </g>
          </g>
        </g>
      </g>
      <g>
        <g>
          <g>
            <rect class="cls-7" x="21.1" y="90.9" width="19" height="2.2" rx="1" ry="1"/>
            <rect class="cls-7" x="15.3" y="95.7" width="24.9" height="2.2" rx="1" ry="1"/>
            <rect class="cls-7" x="5.5" y="96" width="7.6" height="2.2" rx="1" ry="1"/>
            <rect class="cls-7" x="16.5" y="100.6" width="7.6" height="2.2" rx="1" ry="1"/>
            <rect class="cls-7" x="26.8" y="100.6" width="13.7" height="2.2" rx="1" ry="1"/>
          </g>
          <g>
            <g>
              <path class="cls-7" d="M128.8,95.8l4,6.6h-4.6l-3.7-6.2h-3.1l-1.3,6.2h-4.1l4-19.1h8.4c3.6,0,6.1,2.2,6.1,5.4s-2.3,6-5.7,7h0ZM122.2,92.4h4.1c2.1,0,4.1-1.7,4.1-3.4s-1.1-1.9-2.8-1.9h-4.2l-1.1,5.4h0Z"/>
              <path class="cls-7" d="M134.6,96.4c0-4.8,4.5-8.7,9.2-8.7s6.5,2.8,6.5,6.3-4.5,8.7-9.2,8.7-6.5-2.8-6.5-6.3h0ZM146.6,94.1c0-1.7-1.3-3-3.1-3-2.7,0-5.1,2.5-5.1,5.2s1.3,3,3,3c2.7,0,5.2-2.5,5.2-5.2h0Z"/>
              <path class="cls-7" d="M151.1,96.4c0-4.7,4.5-8.7,9.2-8.7s4.2,1.1,5.2,2.6l-3,2.1c-.5-.7-1.6-1.2-2.6-1.2-2.7,0-5.1,2.5-5.1,5.2s1.3,3,3,3,2.5-.6,3.4-1.5l2.4,2.5c-1.7,1.6-3.8,2.4-6.2,2.4-3.7,0-6.5-2.8-6.5-6.3h.2Z"/>
              <path class="cls-7" d="M174.7,94.4l3.8,8h-4.5l-2.4-5.4-2.2,1.9-.7,3.5h-4.1l4-19.4h4.1l-2.3,11.2,6.5-6.1h4.7l-6.9,6.3h0Z"/>
              <path class="cls-7" d="M183.7,96.5h0c0,1.8.9,2.6,2.6,2.6s2.8-.5,3.9-1.4l2.2,2.9c-1.5,1.3-3.8,2.1-6.2,2.1-3.8,0-6.3-2.4-6.3-6s4.1-9,8.8-9,5.4,1.6,5.4,3.9-2.6,5-7,4.9h-3.5.1ZM184.5,93.6h3.2c1.6,0,2.5-.5,2.5-1.2s-.7-1.1-1.6-1.1c-1.8,0-3.3.9-4.1,2.3h0Z"/>
              <path class="cls-7" d="M200.9,91.3c-1.4,6.6-1.4,6.7-1.4,7,0,.6.3.9.9.9s1.3-.3,1.6-.6l.6,2.9c-1,.7-2.2,1.1-3.4,1.1-2.2,0-3.7-1.5-3.7-3.6s.1-1.3,1.5-7.8h-2l.7-3.3h2l.8-3.9h3.9l-.8,3.9h3.1l-.7,3.3h-3.1Z"/>
            </g>
            <g class="cls-4">
              <path class="cls-9" d="M61.3,99.8v2.6h-13v-19.2h2.9v16.6h10.2Z"/>
              <path class="cls-9" d="M63.4,95.2c0-4.1,3.5-7.6,7.6-7.6s7.6,3.4,7.6,7.6-3.5,7.6-7.6,7.6-7.6-3.5-7.6-7.6ZM75.9,95.2c0-2.8-2.2-5.2-4.8-5.2s-4.9,2.4-4.9,5.2,2.2,5.2,4.9,5.2,4.8-2.4,4.8-5.2Z"/>
              <path class="cls-9" d="M94,93.7v8.8h-2.7v-2c-1.1,1.5-3.1,2.3-4.8,2.3-3.1,0-5.3-1.8-5.3-4.6s2.6-4.8,5.8-4.8,3,.3,4.4.8v-.4c0-1.8-.8-3.8-3.7-3.8s-2.8.6-4.1,1.2l-1-2c2.1-1,3.9-1.5,5.5-1.5,3.9,0,6,2.5,6,6ZM91.3,97.9v-1.9c-1.2-.4-2.5-.6-3.9-.6s-3.6,1.1-3.6,2.7,1.4,2.5,3.2,2.5,3.8-.9,4.3-2.7Z"/>
              <path class="cls-9" d="M110.8,93.2v9.2h-2.7v-8.7c0-2.2-1.4-3.7-3.3-3.7s-3.8,1.3-4,3v9.4h-2.8v-14.5h2.8v2.1c.9-1.4,2.6-2.4,4.6-2.4,3.2,0,5.4,2.3,5.4,5.6Z"/>
            </g>
          </g>
        </g>
        <g>
          <g>
            <rect class="cls-7" x="518" y="89.9" width="19" height="2.2" rx="1" ry="1"/>
            <rect class="cls-7" x="512.2" y="94.7" width="24.9" height="2.2" rx="1" ry="1"/>
            <rect class="cls-7" x="502.4" y="95" width="7.6" height="2.2" rx="1" ry="1"/>
            <rect class="cls-7" x="513.4" y="99.6" width="7.6" height="2.2" rx="1" ry="1"/>
            <rect class="cls-7" x="523.7" y="99.6" width="13.7" height="2.2" rx="1" ry="1"/>
          </g>
          <g>
            <g>
              <path class="cls-7" d="M631.7,95.6l4,6.6h-4.6l-3.7-6.2h-3.1l-1.3,6.2h-4.1l4-19.1h8.4c3.6,0,6.1,2.2,6.1,5.4s-2.3,6-5.7,7h0ZM625.1,92.2h4.1c2.1,0,4.1-1.7,4.1-3.4s-1.1-1.9-2.8-1.9h-4.2l-1.1,5.4h-.1Z"/>
              <path class="cls-7" d="M637.6,96.2c0-4.8,4.5-8.7,9.2-8.7s6.5,2.8,6.5,6.3-4.5,8.7-9.2,8.7-6.5-2.8-6.5-6.3h0ZM649.6,93.9c0-1.7-1.3-3-3.1-3-2.7,0-5.1,2.5-5.1,5.2s1.3,3,3,3c2.7,0,5.2-2.5,5.2-5.2h0Z"/>
              <path class="cls-7" d="M654.1,96.2c0-4.7,4.5-8.7,9.2-8.7s4.2,1.1,5.2,2.6l-3,2.1c-.5-.7-1.6-1.2-2.6-1.2-2.7,0-5.1,2.5-5.1,5.2s1.3,3,3,3,2.5-.6,3.4-1.5l2.4,2.5c-1.7,1.6-3.8,2.4-6.2,2.4-3.7,0-6.5-2.8-6.5-6.3h.2Z"/>
              <path class="cls-7" d="M677.8,94.2l3.8,8h-4.5l-2.4-5.4-2.2,1.9-.7,3.5h-4.1l4-19.4h4.1l-2.3,11.2,6.5-6.1h4.7l-6.9,6.3h0Z"/>
              <path class="cls-7" d="M686.8,96.3h0c0,1.8.9,2.6,2.6,2.6s2.8-.5,3.9-1.4l2.2,2.9c-1.5,1.3-3.8,2.1-6.2,2.1-3.8,0-6.3-2.4-6.3-6s4.1-9,8.8-9,5.4,1.6,5.4,3.9-2.6,5-7,4.9h-3.5.1ZM687.6,93.4h3.2c1.6,0,2.5-.5,2.5-1.2s-.7-1.1-1.6-1.1c-1.8,0-3.3.9-4.1,2.3h0Z"/>
              <path class="cls-7" d="M704.1,91.1c-1.4,6.6-1.4,6.7-1.4,7,0,.6.3.9.9.9s1.3-.3,1.6-.6l.6,2.9c-1,.7-2.2,1.1-3.4,1.1-2.2,0-3.7-1.5-3.7-3.6s.1-1.3,1.5-7.8h-2l.7-3.3h2l.8-3.9h3.9l-.8,3.9h3.1l-.7,3.3h-3.1Z"/>
            </g>
            <g class="cls-4">
              <g class="cls-4">
                <path class="cls-8" d="M558.1,99.3v2.6h-13v-19.2h2.9v16.6h10.2Z"/>
                <path class="cls-8" d="M571.8,98.3l1.7,1.8c-1.3,1.4-3.8,2.2-5.9,2.2-4,0-7.4-3.2-7.4-7.6s3.2-7.5,7.2-7.5,7,3.4,7,8.5h-11.4c.4,2.4,2.1,4.1,4.6,4.1s3.3-.7,4.1-1.6ZM563.1,93.5h8.7c-.3-2.2-1.7-3.9-4.2-3.9s-4.1,1.5-4.5,3.9Z"/>
                <path class="cls-8" d="M591.4,87.5v12.9c0,3.7-3.1,6.4-7.3,6.4s-4.7-.8-6-1.9l1.1-2.1c1.1,1,2.8,1.6,4.5,1.6,3.1,0,5-1.5,5-4v-2.1c-1.1,1.7-2.9,2.6-5.1,2.6-3.8,0-6.6-2.9-6.6-6.9s2.8-6.9,6.6-6.9,4,1,5.1,2.7v-2.3h2.8ZM588.7,94c0-2.6-1.8-4.5-4.4-4.5s-4.4,1.8-4.4,4.5,1.8,4.5,4.4,4.5,4.4-1.8,4.4-4.5Z"/>
                <path class="cls-8" d="M607.7,93.2v8.8h-2.7v-2c-1.1,1.5-3.1,2.3-4.8,2.3-3.1,0-5.3-1.8-5.3-4.6s2.6-4.8,5.8-4.8,3,.3,4.4.8v-.4c0-1.8-.8-3.8-3.7-3.8s-2.8.6-4.1,1.2l-1-2c2.1-1,3.9-1.5,5.5-1.5,3.9,0,6,2.5,6,6ZM605,97.4v-1.9c-1.2-.4-2.5-.6-3.9-.6s-3.6,1.1-3.6,2.7,1.4,2.5,3.2,2.5,3.8-.9,4.3-2.7Z"/>
                <path class="cls-8" d="M611.7,82.4h2.7v19.6h-2.7v-19.6Z"/>
              </g>
            </g>
          </g>
        </g>
        <g>
          <g>
            <rect class="cls-7" x="259.1" y="89.7" width="19" height="2.2" rx="1" ry="1"/>
            <rect class="cls-7" x="253.3" y="94.5" width="24.9" height="2.2" rx="1" ry="1"/>
            <rect class="cls-7" x="243.5" y="94.8" width="7.6" height="2.2" rx="1" ry="1"/>
            <rect class="cls-7" x="254.5" y="99.4" width="7.6" height="2.2" rx="1" ry="1"/>
            <rect class="cls-7" x="264.8" y="99.4" width="13.7" height="2.2" rx="1" ry="1"/>
          </g>
          <g>
            <g>
              <path class="cls-7" d="M380.9,95.8l4,6.6h-4.6l-3.7-6.2h-3.1l-1.3,6.2h-4.1l4-19.1h8.4c3.6,0,6.1,2.2,6.1,5.4s-2.3,6-5.7,7h0ZM374.3,92.4h4.1c2.1,0,4.1-1.7,4.1-3.4s-1.1-1.9-2.8-1.9h-4.2l-1.1,5.4h0Z"/>
              <path class="cls-7" d="M386.7,96.4c0-4.8,4.5-8.7,9.2-8.7s6.5,2.8,6.5,6.3-4.5,8.7-9.2,8.7-6.5-2.8-6.5-6.3h0ZM398.7,94.1c0-1.7-1.3-3-3.1-3-2.7,0-5.1,2.5-5.1,5.2s1.3,3,3,3c2.7,0,5.2-2.5,5.2-5.2h0Z"/>
              <path class="cls-7" d="M403.2,96.4c0-4.7,4.5-8.7,9.2-8.7s4.2,1.1,5.2,2.6l-3,2.1c-.5-.7-1.6-1.2-2.6-1.2-2.7,0-5.1,2.5-5.1,5.2s1.3,3,3,3,2.5-.6,3.4-1.5l2.4,2.5c-1.7,1.6-3.8,2.4-6.2,2.4-3.7,0-6.5-2.8-6.5-6.3h.2Z"/>
              <path class="cls-7" d="M426.8,94.4l3.8,8h-4.5l-2.4-5.4-2.2,1.9-.7,3.5h-4.1l4-19.4h4.1l-2.3,11.2,6.5-6.1h4.7l-6.9,6.3h0Z"/>
              <path class="cls-7" d="M435.8,96.5h0c0,1.8.9,2.6,2.6,2.6s2.8-.5,3.9-1.4l2.2,2.9c-1.5,1.3-3.8,2.1-6.2,2.1-3.8,0-6.3-2.4-6.3-6s4.1-9,8.8-9,5.4,1.6,5.4,3.9-2.6,5-7,4.9h-3.5.1ZM436.6,93.6h3.2c1.6,0,2.5-.5,2.5-1.2s-.7-1.1-1.6-1.1c-1.8,0-3.3.9-4.1,2.3h0Z"/>
              <path class="cls-7" d="M453,91.3c-1.4,6.6-1.4,6.7-1.4,7,0,.6.3.9.9.9s1.3-.3,1.6-.6l.6,2.9c-1,.7-2.2,1.1-3.4,1.1-2.2,0-3.7-1.5-3.7-3.6s.1-1.3,1.5-7.8h-2l.7-3.3h2l.8-3.9h3.9l-.8,3.9h3.1l-.7,3.3h-3.1Z"/>
            </g>
            <g class="cls-4">
              <g class="cls-4">
                <path class="cls-8" d="M286.2,83.2h2.8l6.7,12.6,6.7-12.6h2.8v19.2h-2.8v-13.7l-6.7,12.6-6.7-12.6v13.7h-2.8v-19.2Z"/>
                <path class="cls-8" d="M309,95.2c0-4.1,3.5-7.6,7.6-7.6s7.6,3.4,7.6,7.6-3.5,7.6-7.6,7.6-7.6-3.5-7.6-7.6ZM321.5,95.2c0-2.8-2.2-5.2-4.8-5.2s-4.9,2.4-4.9,5.2,2.2,5.2,4.9,5.2,4.8-2.4,4.8-5.2Z"/>
                <path class="cls-8" d="M335.3,101.8c-.8.6-1.8,1-2.9,1-2.2,0-3.8-1.6-3.8-3.9v-8.5h-2.2v-2.4h2.2v-4h2.7v4h3.4v2.4h-3.4v8.3c0,1,.7,1.7,1.5,1.7s1.2-.2,1.5-.5l1,1.9Z"/>
                <path class="cls-8" d="M337.3,95.2c0-4.1,3.5-7.6,7.6-7.6s7.6,3.4,7.6,7.6-3.5,7.6-7.6,7.6-7.6-3.5-7.6-7.6ZM349.8,95.2c0-2.8-2.2-5.2-4.8-5.2s-4.9,2.4-4.9,5.2,2.2,5.2,4.9,5.2,4.8-2.4,4.8-5.2Z"/>
                <path class="cls-8" d="M364.1,87.6v2.4c-3,0-5.1,1.7-5.4,4.2v8.2h-2.8v-14.5h2.8v2.8c.9-1.9,2.9-3.1,5.4-3.1Z"/>
              </g>
            </g>
          </g>
        </g>
      </g>
      <g>
        <g>
          <g>
            <rect class="cls-7" x="31.7" y="13.7" width="19" height="2.2" rx="1" ry="1"/>
            <rect class="cls-7" x="25.9" y="18.5" width="24.9" height="2.2" rx="1" ry="1"/>
            <rect class="cls-7" x="16.1" y="18.8" width="7.6" height="2.2" rx="1" ry="1"/>
            <rect class="cls-7" x="27.1" y="23.4" width="7.6" height="2.2" rx="1" ry="1"/>
            <rect class="cls-7" x="37.4" y="23.4" width="13.7" height="2.2" rx="1" ry="1"/>
          </g>
          <g>
            <g>
              <path class="cls-7" d="M118.2,18.6l4,6.6h-4.6l-3.7-6.2h-3.1l-1.3,6.2h-4.1l4-19.1h8.4c3.6,0,6.1,2.2,6.1,5.4s-2.3,6-5.7,7h0ZM111.6,15.2h4.1c2.1,0,4.1-1.7,4.1-3.4s-1.1-1.9-2.8-1.9h-4.2l-1.1,5.4h0Z"/>
              <path class="cls-7" d="M124,19.2c0-4.8,4.5-8.7,9.2-8.7s6.5,2.8,6.5,6.3-4.5,8.7-9.2,8.7-6.5-2.8-6.5-6.3h0ZM136,16.9c0-1.7-1.3-3-3.1-3-2.7,0-5.1,2.5-5.1,5.2s1.3,3,3,3c2.7,0,5.2-2.5,5.2-5.2h0Z"/>
              <path class="cls-7" d="M140.5,19.2c0-4.7,4.5-8.7,9.2-8.7s4.2,1.1,5.2,2.6l-3,2.1c-.5-.7-1.6-1.2-2.6-1.2-2.7,0-5.1,2.5-5.1,5.2s1.3,3,3,3,2.5-.6,3.4-1.5l2.4,2.5c-1.7,1.6-3.8,2.4-6.2,2.4-3.7,0-6.5-2.8-6.5-6.3h.2Z"/>
              <path class="cls-7" d="M164.1,17.2l3.8,8h-4.5l-2.4-5.4-2.2,1.9-.7,3.5h-4.1l4-19.4h4.1l-2.3,11.2,6.5-6.1h4.7l-6.9,6.3h0Z"/>
              <path class="cls-7" d="M173.1,19.3h0c0,1.8.9,2.6,2.6,2.6s2.8-.5,3.9-1.4l2.2,2.9c-1.5,1.3-3.8,2.1-6.2,2.1-3.8,0-6.3-2.4-6.3-6s4.1-9,8.8-9,5.4,1.6,5.4,3.9-2.6,5-7,4.9h-3.5.1ZM173.9,16.4h3.2c1.6,0,2.5-.5,2.5-1.2s-.7-1.1-1.6-1.1c-1.8,0-3.3.9-4.1,2.3h0Z"/>
              <path class="cls-7" d="M190.3,14.1c-1.4,6.6-1.4,6.7-1.4,7,0,.6.3.9.9.9s1.3-.3,1.6-.6l.6,2.9c-1,.7-2.2,1.1-3.4,1.1-2.2,0-3.7-1.5-3.7-3.6s.1-1.3,1.5-7.8h-2l.7-3.3h2l.8-3.9h3.9l-.8,3.9h3.1l-.7,3.3h-3.1Z"/>
            </g>
            <g class="cls-4">
              <g class="cls-4">
                <path class="cls-8" d="M58.8,6h8.1c4.1,0,7.1,2.6,7.1,6.3s-3.1,6.3-7.1,6.3h-5.3v6.7h-2.8V6ZM66.5,15.9c2.8,0,4.6-1.4,4.6-3.6s-1.9-3.6-4.6-3.6h-4.9v7.3h4.9Z"/>
                <path class="cls-8" d="M87.7,21.5l1.7,1.8c-1.3,1.4-3.8,2.2-5.9,2.2-4,0-7.4-3.2-7.4-7.6s3.2-7.5,7.2-7.5,7,3.4,7,8.5h-11.4c.4,2.4,2.1,4.1,4.6,4.1s3.3-.7,4.1-1.6ZM79,16.7h8.7c-.3-2.2-1.7-3.9-4.2-3.9s-4.1,1.5-4.5,3.9Z"/>
                <path class="cls-8" d="M101.3,24.5c-.8.6-1.8,1-2.9,1-2.2,0-3.8-1.6-3.8-3.9v-8.5h-2.2v-2.4h2.2v-4h2.7v4h3.4v2.4h-3.4v8.3c0,1,.7,1.7,1.5,1.7s1.2-.2,1.5-.5l1,1.9Z"/>
              </g>
            </g>
          </g>
        </g>
        <g>
          <g>
            <rect class="cls-7" x="529.7" y="13.7" width="19" height="2.2" rx="1" ry="1"/>
            <rect class="cls-7" x="523.9" y="18.5" width="24.9" height="2.2" rx="1" ry="1"/>
            <rect class="cls-7" x="514.1" y="18.8" width="7.6" height="2.2" rx="1" ry="1"/>
            <rect class="cls-7" x="525.1" y="23.4" width="7.6" height="2.2" rx="1" ry="1"/>
            <rect class="cls-7" x="535.4" y="23.4" width="13.7" height="2.2" rx="1" ry="1"/>
          </g>
          <g>
            <g>
              <path class="cls-7" d="M620.3,18.6l4,6.6h-4.6l-3.7-6.2h-3.1l-1.3,6.2h-4.1l4-19.1h8.4c3.6,0,6.1,2.2,6.1,5.4s-2.3,6-5.7,7h0ZM613.7,15.2h4.1c2.1,0,4.1-1.7,4.1-3.4s-1.1-1.9-2.8-1.9h-4.2l-1.1,5.4h0Z"/>
              <path class="cls-7" d="M626.1,19.2c0-4.8,4.5-8.7,9.2-8.7s6.5,2.8,6.5,6.3-4.5,8.7-9.2,8.7-6.5-2.8-6.5-6.3h0ZM638.1,16.9c0-1.7-1.3-3-3.1-3-2.7,0-5.1,2.5-5.1,5.2s1.3,3,3,3c2.7,0,5.2-2.5,5.2-5.2h0Z"/>
              <path class="cls-7" d="M642.6,19.2c0-4.7,4.5-8.7,9.2-8.7s4.2,1.1,5.2,2.6l-3,2.1c-.5-.7-1.6-1.2-2.6-1.2-2.7,0-5.1,2.5-5.1,5.2s1.3,3,3,3,2.5-.6,3.4-1.5l2.4,2.5c-1.7,1.6-3.8,2.4-6.2,2.4-3.7,0-6.5-2.8-6.5-6.3h.2Z"/>
              <path class="cls-7" d="M666.2,17.2l3.8,8h-4.5l-2.4-5.4-2.2,1.9-.7,3.5h-4.1l4-19.4h4.1l-2.3,11.2,6.5-6.1h4.7l-6.9,6.3h0Z"/>
              <path class="cls-7" d="M675.2,19.3h0c0,1.8.9,2.6,2.6,2.6s2.8-.5,3.9-1.4l2.2,2.9c-1.5,1.3-3.8,2.1-6.2,2.1-3.8,0-6.3-2.4-6.3-6s4.1-9,8.8-9,5.4,1.6,5.4,3.9-2.6,5-7,4.9h-3.5.1ZM676,16.4h3.2c1.6,0,2.5-.5,2.5-1.2s-.7-1.1-1.6-1.1c-1.8,0-3.3.9-4.1,2.3h0Z"/>
              <path class="cls-7" d="M692.4,14.1c-1.4,6.6-1.4,6.7-1.4,7,0,.6.3.9.9.9s1.3-.3,1.6-.6l.6,2.9c-1,.7-2.2,1.1-3.4,1.1-2.2,0-3.7-1.5-3.7-3.6s.1-1.3,1.5-7.8h-2l.7-3.3h2l.8-3.9h3.9l-.8,3.9h3.1l-.7,3.3h-3.1Z"/>
            </g>
            <g class="cls-4">
              <g class="cls-4">
                <path class="cls-8" d="M569.9,22.6v2.6h-13V6h2.9v16.6h10.2Z"/>
                <path class="cls-8" d="M572.4,6.7c0-.9.7-1.7,1.7-1.7s1.7.8,1.7,1.7-.8,1.7-1.7,1.7-1.7-.8-1.7-1.7ZM572.7,10.7h2.8v14.5h-2.8v-14.5Z"/>
                <path class="cls-8" d="M583.3,10.7h3.4v2.4h-3.4v12.1h-2.7v-12.1h-2.2v-2.4h2.2v-1.7c0-2.3,1.6-3.9,3.8-3.9s2.1.4,2.9,1l-1,1.8c-.3-.3-.9-.5-1.5-.5s-1.5.7-1.5,1.7v1.6Z"/>
                <path class="cls-8" d="M600.4,21.5l1.7,1.8c-1.3,1.4-3.8,2.2-5.9,2.2-4,0-7.4-3.2-7.4-7.6s3.2-7.5,7.2-7.5,7,3.4,7,8.5h-11.4c.4,2.4,2.1,4.1,4.6,4.1s3.3-.7,4.1-1.6ZM591.6,16.7h8.7c-.3-2.2-1.7-3.9-4.2-3.9s-4.1,1.5-4.5,3.9Z"/>
              </g>
            </g>
          </g>
        </g>
        <g>
          <g>
            <rect class="cls-7" x="240.6" y="13.7" width="19" height="2.2" rx="1" ry="1"/>
            <rect class="cls-7" x="234.8" y="18.5" width="24.9" height="2.2" rx="1" ry="1"/>
            <rect class="cls-7" x="225" y="18.8" width="7.6" height="2.2" rx="1" ry="1"/>
            <rect class="cls-7" x="236" y="23.4" width="7.6" height="2.2" rx="1" ry="1"/>
            <rect class="cls-7" x="246.3" y="23.4" width="13.7" height="2.2" rx="1" ry="1"/>
          </g>
          <g>
            <g>
              <path class="cls-7" d="M399.4,18.6l4,6.6h-4.6l-3.7-6.2h-3.1l-1.3,6.2h-4.1l4-19.1h8.4c3.6,0,6.1,2.2,6.1,5.4s-2.3,6-5.7,7h0ZM392.8,15.2h4.1c2.1,0,4.1-1.7,4.1-3.4s-1.1-1.9-2.8-1.9h-4.2l-1.1,5.4h0Z"/>
              <path class="cls-7" d="M405.2,19.2c0-4.8,4.5-8.7,9.2-8.7s6.5,2.8,6.5,6.3-4.5,8.7-9.2,8.7-6.5-2.8-6.5-6.3h0ZM417.2,16.9c0-1.7-1.3-3-3.1-3-2.7,0-5.1,2.5-5.1,5.2s1.3,3,3,3c2.7,0,5.2-2.5,5.2-5.2h0Z"/>
              <path class="cls-7" d="M421.7,19.2c0-4.7,4.5-8.7,9.2-8.7s4.2,1.1,5.2,2.6l-3,2.1c-.5-.7-1.6-1.2-2.6-1.2-2.7,0-5.1,2.5-5.1,5.2s1.3,3,3,3,2.5-.6,3.4-1.5l2.4,2.5c-1.7,1.6-3.8,2.4-6.2,2.4-3.7,0-6.5-2.8-6.5-6.3h.2Z"/>
              <path class="cls-7" d="M445.3,17.2l3.8,8h-4.5l-2.4-5.4-2.2,1.9-.7,3.5h-4.1l4-19.4h4.1l-2.3,11.2,6.5-6.1h4.7l-6.9,6.3h0Z"/>
              <path class="cls-7" d="M454.3,19.3h0c0,1.8.9,2.6,2.6,2.6s2.8-.5,3.9-1.4l2.2,2.9c-1.5,1.3-3.8,2.1-6.2,2.1-3.8,0-6.3-2.4-6.3-6s4.1-9,8.8-9,5.4,1.6,5.4,3.9-2.6,5-7,4.9h-3.5.1ZM455.1,16.4h3.2c1.6,0,2.5-.5,2.5-1.2s-.7-1.1-1.6-1.1c-1.8,0-3.3.9-4.1,2.3h0Z"/>
              <path class="cls-7" d="M471.5,14.1c-1.4,6.6-1.4,6.7-1.4,7,0,.6.3.9.9.9s1.3-.3,1.6-.6l.6,2.9c-1,.7-2.2,1.1-3.4,1.1-2.2,0-3.7-1.5-3.7-3.6s.1-1.3,1.5-7.8h-2l.7-3.3h2l.8-3.9h3.9l-.8,3.9h3.1l-.7,3.3h-3.1Z"/>
            </g>
            <g class="cls-4">
              <g class="cls-4">
                <path class="cls-8" d="M267.7,6h9.1c3.2,0,5.5,2,5.5,4.8s-1,3.3-2.7,4.3c2.2,1.1,3.5,2.8,3.5,5,0,3.1-2.5,5.2-5.9,5.2h-9.5V6ZM276.1,14c1.9,0,3.3-1.1,3.3-2.7s-1.4-2.8-3.3-2.8h-5.6v5.5h5.6ZM276.6,22.7c2.2,0,3.7-1.3,3.7-3.2s-1.5-3.2-3.7-3.2h-6v6.3h6Z"/>
                <path class="cls-8" d="M299.3,10.7v14.5h-2.8v-2.1c-.9,1.4-2.6,2.4-4.6,2.4-3.2,0-5.4-2.3-5.4-5.6v-9.2h2.7v8.7c0,2.2,1.4,3.7,3.3,3.7s3.8-1.3,4-3v-9.4h2.8Z"/>
                <path class="cls-8" d="M302.4,23.4l1.3-2c1.5,1.1,3.2,1.8,4.9,1.8s2.7-.8,2.7-1.9-1.5-1.8-3.3-2.3c-3.3-.9-5-1.9-5-4.2,0-2.7,2.2-4.4,5.3-4.4s3.8.6,5.3,1.7l-1.2,2c-1.4-.9-2.9-1.3-4.1-1.3s-2.5.6-2.5,1.7.9,1.5,3.3,2.2c2.4.7,4.9,1.5,4.9,4.4s-2.3,4.5-5.5,4.5-4.5-.8-6.2-2.2Z"/>
                <path class="cls-8" d="M317,6.7c0-.9.7-1.7,1.7-1.7s1.7.8,1.7,1.7-.8,1.7-1.7,1.7-1.7-.8-1.7-1.7ZM317.2,10.7h2.8v14.5h-2.8v-14.5Z"/>
                <path class="cls-8" d="M336.8,16v9.2h-2.7v-8.7c0-2.2-1.4-3.7-3.3-3.7s-3.8,1.3-4,3v9.4h-2.8v-14.5h2.8v2.1c.9-1.4,2.6-2.4,4.6-2.4,3.2,0,5.4,2.3,5.4,5.6Z"/>
                <path class="cls-8" d="M351.6,21.5l1.7,1.8c-1.3,1.4-3.8,2.2-5.9,2.2-4,0-7.4-3.2-7.4-7.6s3.2-7.5,7.2-7.5,7,3.4,7,8.5h-11.4c.4,2.4,2.1,4.1,4.6,4.1s3.3-.7,4.1-1.6ZM342.8,16.7h8.7c-.3-2.2-1.7-3.9-4.2-3.9s-4.1,1.5-4.5,3.9Z"/>
                <path class="cls-8" d="M356.5,23.4l1.3-2c1.5,1.1,3.2,1.8,4.9,1.8s2.7-.8,2.7-1.9-1.5-1.8-3.3-2.3c-3.3-.9-5-1.9-5-4.2,0-2.7,2.2-4.4,5.3-4.4s3.8.6,5.3,1.7l-1.2,2c-1.4-.9-2.9-1.3-4.1-1.3s-2.5.6-2.5,1.7.9,1.5,3.3,2.2c2.4.7,4.9,1.5,4.9,4.4s-2.3,4.5-5.5,4.5-4.5-.8-6.2-2.2Z"/>
                <path class="cls-8" d="M370.4,23.4l1.3-2c1.5,1.1,3.2,1.8,4.9,1.8s2.7-.8,2.7-1.9-1.5-1.8-3.3-2.3c-3.3-.9-5-1.9-5-4.2,0-2.7,2.2-4.4,5.3-4.4s3.8.6,5.3,1.7l-1.2,2c-1.4-.9-2.9-1.3-4.1-1.3s-2.5.6-2.5,1.7.9,1.5,3.3,2.2c2.4.7,4.9,1.5,4.9,4.4s-2.3,4.5-5.5,4.5-4.5-.8-6.2-2.2Z"/>
              </g>
            </g>
          </g>
        </g>
      </g>
      <g>
        <g>
          <g>
            <rect class="cls-7" x="127.2" y="133.3" width="19" height="2.2" rx="1" ry="1"/>
            <rect class="cls-7" x="121.4" y="138.1" width="24.9" height="2.2" rx="1" ry="1"/>
            <rect class="cls-7" x="111.6" y="138.4" width="7.6" height="2.2" rx="1" ry="1"/>
            <rect class="cls-7" x="122.6" y="143" width="7.6" height="2.2" rx="1" ry="1"/>
            <rect class="cls-7" x="132.9" y="143" width="13.7" height="2.2" rx="1" ry="1"/>
          </g>
          <g>
            <g>
              <path class="cls-7" d="M255.6,138.2l4,6.6h-4.6l-3.7-6.2h-3.1l-1.3,6.2h-4.1l4-19.1h8.4c3.6,0,6.1,2.2,6.1,5.4s-2.3,6-5.7,7h0ZM249,134.8h4.1c2.1,0,4.1-1.7,4.1-3.4s-1.1-1.9-2.8-1.9h-4.2l-1.1,5.4h0Z"/>
              <path class="cls-7" d="M261.4,138.8c0-4.8,4.5-8.7,9.2-8.7s6.5,2.8,6.5,6.3-4.5,8.7-9.2,8.7-6.5-2.8-6.5-6.3h0ZM273.4,136.5c0-1.7-1.3-3-3.1-3-2.7,0-5.1,2.5-5.1,5.2s1.3,3,3,3c2.7,0,5.2-2.5,5.2-5.2h0Z"/>
              <path class="cls-7" d="M277.9,138.8c0-4.7,4.5-8.7,9.2-8.7s4.2,1.1,5.2,2.6l-3,2.1c-.5-.7-1.6-1.2-2.6-1.2-2.7,0-5.1,2.5-5.1,5.2s1.3,3,3,3,2.5-.6,3.4-1.5l2.4,2.5c-1.7,1.6-3.8,2.4-6.2,2.4-3.7,0-6.5-2.8-6.5-6.3h.2Z"/>
              <path class="cls-7" d="M301.5,136.8l3.8,8h-4.5l-2.4-5.4-2.2,1.9-.7,3.5h-4.1l4-19.4h4.1l-2.3,11.2,6.5-6.1h4.7l-6.9,6.3h0Z"/>
              <path class="cls-7" d="M310.5,138.9h0c0,1.8.9,2.6,2.6,2.6s2.8-.5,3.9-1.4l2.2,2.9c-1.5,1.3-3.8,2.1-6.2,2.1-3.8,0-6.3-2.4-6.3-6s4.1-9,8.8-9,5.4,1.6,5.4,3.9-2.6,5-7,4.9h-3.5.1ZM311.3,136h3.2c1.6,0,2.5-.5,2.5-1.2s-.7-1.1-1.6-1.1c-1.8,0-3.3.9-4.1,2.3h0Z"/>
              <path class="cls-7" d="M327.7,133.7c-1.4,6.6-1.4,6.7-1.4,7,0,.6.3.9.9.9s1.3-.3,1.6-.6l.6,2.9c-1,.7-2.2,1.1-3.4,1.1-2.2,0-3.7-1.5-3.7-3.6s.1-1.3,1.5-7.8h-2l.7-3.3h2l.8-3.9h3.9l-.8,3.9h3.1l-.7,3.3h-3.1Z"/>
            </g>
            <g class="cls-4">
              <g class="cls-4">
                <path class="cls-8" d="M170.4,125.6v19.2h-2.8v-8.5h-10.5v8.5h-2.8v-19.2h2.8v8.1h10.5v-8.1h2.8Z"/>
                <path class="cls-8" d="M185.3,141.1l1.7,1.8c-1.3,1.4-3.8,2.2-5.9,2.2-4,0-7.4-3.2-7.4-7.6s3.2-7.5,7.2-7.5,7,3.4,7,8.5h-11.4c.4,2.4,2.1,4.1,4.6,4.1s3.3-.7,4.1-1.6ZM176.6,136.4h8.7c-.3-2.2-1.7-3.9-4.2-3.9s-4.1,1.5-4.5,3.9Z"/>
                <path class="cls-8" d="M203.3,136.1v8.8h-2.7v-2c-1.1,1.5-3.1,2.3-4.8,2.3-3.1,0-5.3-1.8-5.3-4.6s2.6-4.8,5.8-4.8,3,.3,4.4.8v-.4c0-1.8-.8-3.8-3.7-3.8s-2.8.6-4.1,1.2l-1-2c2.1-1,3.9-1.5,5.5-1.5,3.9,0,6,2.5,6,6ZM200.6,140.3v-1.9c-1.2-.4-2.5-.6-3.9-.6s-3.6,1.1-3.6,2.7,1.4,2.5,3.2,2.5,3.8-.9,4.3-2.7Z"/>
                <path class="cls-8" d="M207.3,125.3h2.7v19.6h-2.7v-19.6Z"/>
                <path class="cls-8" d="M221.9,144.1c-.8.6-1.8,1-2.9,1-2.2,0-3.8-1.6-3.8-3.9v-8.5h-2.2v-2.4h2.2v-4h2.7v4h3.4v2.4h-3.4v8.3c0,1,.7,1.7,1.5,1.7s1.2-.2,1.5-.5l1,1.9Z"/>
                <path class="cls-8" d="M237.5,135.6v9.2h-2.7v-8.7c0-2.2-1.4-3.7-3.3-3.7s-4,1.5-4,3.4v9h-2.7v-19.6h2.7v7.3c.9-1.5,2.6-2.5,4.6-2.5,3.2,0,5.4,2.3,5.4,5.6Z"/>
              </g>
            </g>
          </g>
        </g>
        <g>
          <g>
            <rect class="cls-7" x="377.4" y="133.3" width="19" height="2.2" rx="1" ry="1"/>
            <rect class="cls-7" x="371.6" y="138.1" width="24.9" height="2.2" rx="1" ry="1"/>
            <rect class="cls-7" x="361.8" y="138.4" width="7.6" height="2.2" rx="1" ry="1"/>
            <rect class="cls-7" x="372.8" y="143" width="7.6" height="2.2" rx="1" ry="1"/>
            <rect class="cls-7" x="383.1" y="143" width="13.7" height="2.2" rx="1" ry="1"/>
          </g>
          <g>
            <g>
              <path class="cls-7" d="M519.9,138.2l4,6.6h-4.6l-3.7-6.2h-3.1l-1.3,6.2h-4.1l4-19.1h8.4c3.6,0,6.1,2.2,6.1,5.4s-2.3,6-5.7,7h0ZM513.3,134.8h4.1c2.1,0,4.1-1.7,4.1-3.4s-1.1-1.9-2.8-1.9h-4.2l-1.1,5.4h0Z"/>
              <path class="cls-7" d="M525.7,138.8c0-4.8,4.5-8.7,9.2-8.7s6.5,2.8,6.5,6.3-4.5,8.7-9.2,8.7-6.5-2.8-6.5-6.3h0ZM537.7,136.5c0-1.7-1.3-3-3.1-3-2.7,0-5.1,2.5-5.1,5.2s1.3,3,3,3c2.7,0,5.2-2.5,5.2-5.2h0Z"/>
              <path class="cls-7" d="M542.2,138.8c0-4.7,4.5-8.7,9.2-8.7s4.2,1.1,5.2,2.6l-3,2.1c-.5-.7-1.6-1.2-2.6-1.2-2.7,0-5.1,2.5-5.1,5.2s1.3,3,3,3,2.5-.6,3.4-1.5l2.4,2.5c-1.7,1.6-3.8,2.4-6.2,2.4-3.7,0-6.5-2.8-6.5-6.3h.2Z"/>
              <path class="cls-7" d="M565.8,136.8l3.8,8h-4.5l-2.4-5.4-2.2,1.9-.7,3.5h-4.1l4-19.4h4.1l-2.3,11.2,6.5-6.1h4.7l-6.9,6.3h0Z"/>
              <path class="cls-7" d="M574.8,138.9h0c0,1.8.9,2.6,2.6,2.6s2.8-.5,3.9-1.4l2.2,2.9c-1.5,1.3-3.8,2.1-6.2,2.1-3.8,0-6.3-2.4-6.3-6s4.1-9,8.8-9,5.4,1.6,5.4,3.9-2.6,5-7,4.9h-3.5.1ZM575.6,136h3.2c1.6,0,2.5-.5,2.5-1.2s-.7-1.1-1.6-1.1c-1.8,0-3.3.9-4.1,2.3h0Z"/>
              <path class="cls-7" d="M592,133.7c-1.4,6.6-1.4,6.7-1.4,7,0,.6.3.9.9.9s1.3-.3,1.6-.6l.6,2.9c-1,.7-2.2,1.1-3.4,1.1-2.2,0-3.7-1.5-3.7-3.6s.1-1.3,1.5-7.8h-2l.7-3.3h2l.8-3.9h3.9l-.8,3.9h3.1l-.7,3.3h-3.1Z"/>
            </g>
            <g class="cls-4">
              <path class="cls-8" d="M407.4,128.2v5.6h10.2v2.6h-10.2v8.4h-2.9v-19.2h14.1v2.6h-11.3Z"/>
              <path class="cls-8" d="M434.4,130.4v14.5h-2.8v-2.1c-.9,1.4-2.6,2.4-4.6,2.4-3.2,0-5.4-2.3-5.4-5.6v-9.2h2.7v8.7c0,2.2,1.4,3.7,3.3,3.7s3.8-1.3,4-3v-9.4h2.8Z"/>
              <path class="cls-8" d="M451.3,135.6v9.2h-2.7v-8.7c0-2.2-1.4-3.7-3.3-3.7s-3.8,1.3-4,3v9.4h-2.8v-14.5h2.8v2.1c.9-1.4,2.6-2.4,4.6-2.4,3.2,0,5.4,2.3,5.4,5.6Z"/>
              <path class="cls-8" d="M466,141.1l1.7,1.8c-1.3,1.4-3.8,2.2-5.9,2.2-4,0-7.4-3.2-7.4-7.6s3.2-7.5,7.2-7.5,7,3.4,7,8.5h-11.4c.4,2.4,2.1,4.1,4.6,4.1s3.3-.7,4.1-1.6ZM457.3,136.4h8.7c-.3-2.2-1.7-3.9-4.2-3.9s-4.1,1.5-4.5,3.9Z"/>
              <path class="cls-8" d="M480.2,130v2.4c-3,0-5.1,1.7-5.4,4.2v8.2h-2.8v-14.5h2.8v2.8c.9-1.9,2.9-3.1,5.4-3.1Z"/>
              <path class="cls-8" d="M495,136.1v8.8h-2.7v-2c-1.1,1.5-3.1,2.3-4.8,2.3-3.1,0-5.3-1.8-5.3-4.6s2.6-4.8,5.8-4.8,3,.3,4.4.8v-.4c0-1.8-.8-3.8-3.7-3.8s-2.8.6-4.1,1.2l-1-2c2.1-1,3.9-1.5,5.5-1.5,3.9,0,6,2.5,6,6ZM492.3,140.3v-1.9c-1.2-.4-2.5-.6-3.9-.6s-3.6,1.1-3.6,2.7,1.4,2.5,3.2,2.5,3.8-.9,4.3-2.7Z"/>
              <path class="cls-8" d="M499,125.3h2.7v19.6h-2.7v-19.6Z"/>
            </g>
          </g>
        </g>
      </g>
    </g>
  </g>
</svg>