<?xml version="1.0" encoding="UTF-8"?>
<svg xmlns="http://www.w3.org/2000/svg" version="1.1" viewBox="0 0 1353.6 96.8">
  <defs>
    <style>
      .cls-1, .cls-2 {
        fill: #0090ff;
      }

      .cls-2 {
        font-family: Metropolis-SemiBold, Metropolis;
        font-size: 28.3px;
        font-weight: 600;
      }

      .cls-2, .cls-3, .cls-4 {
        isolation: isolate;
      }

      .cls-3, .cls-5 {
        display: none;
      }

      .cls-6 {
        fill: #002e6a;
      }

      .cls-7 {
        fill: #666;
      }

      .cls-8 {
        fill: #999;
      }

      .cls-9 {
        fill: gray;
      }
    </style>
  </defs>
  <!-- Generator: Adobe Illustrator 28.7.4, SVG Export Plug-In . SVG Version: 1.2.0 Build 166)  -->
  <g>
    <g id="Layer_1">
      <g id="Debt" class="cls-5">
        <g>
          <path class="cls-6" d="M692.4,76.4l4,6.6h-4.6l-3.7-6.2h-3.1l-1.3,6.2h-4.1l4-19.1h8.4c3.6,0,6.1,2.2,6.1,5.4s-2.3,6-5.7,7h0ZM685.8,73.1h4.1c2.1,0,4.1-1.7,4.1-3.4s-1.1-1.9-2.8-1.9h-4.2l-1.1,5.4h0Z"/>
          <path class="cls-6" d="M698.3,77c0-4.8,4.5-8.7,9.2-8.7s6.5,2.8,6.5,6.3-4.5,8.7-9.2,8.7-6.5-2.8-6.5-6.3h0ZM710.2,74.8c0-1.7-1.3-3-3.1-3-2.7,0-5.1,2.5-5.1,5.2s1.3,3,3,3c2.7,0,5.2-2.5,5.2-5.2h0Z"/>
          <path class="cls-6" d="M714.7,77c0-4.7,4.5-8.7,9.2-8.7s4.2,1.1,5.2,2.6l-3,2.1c-.5-.7-1.6-1.2-2.6-1.2-2.7,0-5.1,2.5-5.1,5.2s1.3,3,3,3,2.5-.6,3.4-1.5l2.4,2.5c-1.7,1.6-3.8,2.4-6.2,2.4-3.7,0-6.5-2.8-6.5-6.3h.2Z"/>
          <path class="cls-6" d="M738.3,75l3.8,8h-4.5l-2.4-5.4-2.2,1.9-.7,3.5h-4.1l4-19.4h4.1l-2.3,11.2,6.5-6.1h4.7l-6.9,6.3h0Z"/>
          <path class="cls-6" d="M747.3,77.2h0c0,1.8.9,2.6,2.6,2.6s2.8-.5,3.9-1.4l2.2,2.9c-1.5,1.3-3.8,2.1-6.2,2.1-3.8,0-6.3-2.4-6.3-6s4.1-9,8.8-9,5.4,1.6,5.4,3.9-2.6,5-7,4.9h-3.5.1ZM748.1,74.2h3.2c1.6,0,2.5-.5,2.5-1.2s-.7-1.1-1.6-1.1c-1.8,0-3.3.9-4.1,2.3h0Z"/>
          <path class="cls-6" d="M764.6,71.9c-1.4,6.6-1.4,6.7-1.4,7,0,.6.3.9.9.9s1.3-.3,1.6-.6l.6,2.9c-1,.7-2.2,1.1-3.4,1.1-2.2,0-3.7-1.5-3.7-3.6s.1-1.3,1.5-7.8h-2l.7-3.3h2l.8-3.9h3.9l-.8,3.9h3.1l-.7,3.3h-3.1Z"/>
        </g>
        <g>
          <rect class="cls-6" x="589.1" y="70.4" width="19" height="2.2" rx="1" ry="1"/>
          <rect class="cls-6" x="583.4" y="75.2" width="24.9" height="2.2" rx="1" ry="1"/>
          <rect class="cls-6" x="573.6" y="75.4" width="7.6" height="2.2" rx="1" ry="1"/>
          <rect class="cls-6" x="584.5" y="80.1" width="7.6" height="2.2" rx="1" ry="1"/>
          <rect class="cls-6" x="594.9" y="80.1" width="13.7" height="2.2" rx="1" ry="1"/>
        </g>
        <g>
          <path class="cls-1" d="M613.7,64h6.7c6.3,0,10.7,3.9,10.7,9.5s-4.4,9.5-10.7,9.5h-6.7v-19h0ZM620.8,79.9c4,0,6.8-2.7,6.8-6.4s-2.8-6.4-6.8-6.4h-3.6v12.7h3.6Z"/>
          <path class="cls-1" d="M644.8,78.9l2.1,2.2c-1.2,1.3-3.7,2.2-5.8,2.2-4.1,0-7.5-3.1-7.5-7.5s3.2-7.4,7.3-7.4,7,3.4,7,8.6h-10.8c.4,2,1.9,3.4,3.9,3.4s2.9-.6,3.7-1.4h.1ZM637.1,74.4h7.5c-.4-1.8-1.6-3.1-3.6-3.1s-3.4,1.2-3.9,3.1Z"/>
          <path class="cls-1" d="M665.8,75.8c0,4.4-2.8,7.5-6.6,7.5s-3.8-1-5-2.6v2.3h-3.4v-19.3h3.4v7.3c1.1-1.6,2.9-2.6,5-2.6,3.8,0,6.6,3.1,6.6,7.5h0ZM662.5,75.8c0-2.7-1.7-4.6-4.1-4.6s-4,1.9-4,4.6,1.7,4.6,4,4.6,4.1-1.9,4.1-4.6Z"/>
          <path class="cls-1" d="M677,82.2c-.8.7-2,1.1-3.1,1.1-2.4,0-4-1.7-4-4.1v-7.7h-2.1v-2.8h2.1v-3.9h3.3v3.9h3.2v2.8h-3.2v7.3c0,1,.6,1.7,1.4,1.7s1.1-.2,1.4-.5l1,2.3h0Z"/>
        </g>
      </g>
      <g id="health" class="cls-5">
        <g>
          <path class="cls-6" d="M703.9,75.9l4,6.6h-4.6l-3.7-6.2h-3.1l-1.3,6.2h-4.1l4-19.1h8.4c3.6,0,6.1,2.2,6.1,5.4s-2.3,6-5.7,7h0ZM697.2,72.6h4.1c2.1,0,4.1-1.7,4.1-3.4s-1.1-1.9-2.8-1.9h-4.2l-1.1,5.4h-.1Z"/>
          <path class="cls-6" d="M709.7,76.6c0-4.8,4.5-8.7,9.2-8.7s6.5,2.8,6.5,6.3-4.5,8.7-9.2,8.7-6.5-2.8-6.5-6.3h0ZM721.7,74.3c0-1.7-1.3-3-3.1-3-2.7,0-5.1,2.5-5.1,5.2s1.3,3,3,3c2.7,0,5.2-2.5,5.2-5.2h0Z"/>
          <path class="cls-6" d="M726.2,76.6c0-4.7,4.5-8.7,9.2-8.7s4.2,1.1,5.2,2.6l-3,2.1c-.5-.7-1.6-1.2-2.6-1.2-2.7,0-5.1,2.5-5.1,5.2s1.3,3,3,3,2.5-.6,3.4-1.5l2.4,2.5c-1.7,1.6-3.8,2.4-6.2,2.4-3.7,0-6.5-2.8-6.5-6.3h.2Z"/>
          <path class="cls-6" d="M749.7,74.6l3.8,8h-4.5l-2.4-5.4-2.2,1.9-.7,3.5h-4.1l4-19.4h4.1l-2.3,11.2,6.5-6.1h4.7l-6.9,6.3h0Z"/>
          <path class="cls-6" d="M758.8,76.7h0c0,1.8.9,2.6,2.6,2.6s2.8-.5,3.9-1.4l2.2,2.9c-1.5,1.3-3.8,2.1-6.2,2.1-3.8,0-6.3-2.4-6.3-6s4.1-9,8.8-9,5.4,1.6,5.4,3.9-2.6,5-7,4.9h-3.5.1ZM759.5,73.8h3.2c1.6,0,2.5-.5,2.5-1.2s-.7-1.1-1.6-1.1c-1.8,0-3.3.9-4.1,2.3h0Z"/>
          <path class="cls-6" d="M776,71.5c-1.4,6.6-1.4,6.7-1.4,7,0,.6.3.9.9.9s1.3-.3,1.6-.6l.6,2.9c-1,.7-2.2,1.1-3.4,1.1-2.2,0-3.7-1.5-3.7-3.6s.1-1.3,1.5-7.8h-2l.7-3.3h2l.8-3.9h3.9l-.8,3.9h3.1l-.7,3.3h-3.1Z"/>
        </g>
        <g>
          <rect class="cls-6" x="578.4" y="69.8" width="19" height="2.2" rx="1" ry="1"/>
          <rect class="cls-6" x="572.6" y="74.6" width="24.9" height="2.2" rx="1" ry="1"/>
          <rect class="cls-6" x="562.9" y="74.8" width="7.6" height="2.2" rx="1" ry="1"/>
          <rect class="cls-6" x="573.8" y="79.5" width="7.6" height="2.2" rx="1" ry="1"/>
          <rect class="cls-6" x="584.1" y="79.5" width="13.7" height="2.2" rx="1" ry="1"/>
        </g>
        <g class="cls-3">
          <text class="cls-2" transform="translate(600.4 83)"><tspan x="0" y="0">Health</tspan></text>
        </g>
      </g>
      <g id="Loan" class="cls-5">
        <g>
          <path class="cls-1" d="M626.8,79.8v3.2h-13.4v-19.2h3.5v16h9.9Z"/>
          <path class="cls-1" d="M628.8,75.8c0-4.1,3.6-7.5,7.7-7.5s7.7,3.5,7.7,7.5-3.6,7.6-7.7,7.6-7.7-3.5-7.7-7.6ZM640.9,75.8c0-2.5-2-4.7-4.4-4.7s-4.4,2.1-4.4,4.7,2,4.7,4.4,4.7,4.4-2.1,4.4-4.7Z"/>
          <path class="cls-1" d="M659.7,74.3v8.7h-3.3v-1.7c-1.1,1.3-2.9,2.1-4.6,2.1-3.1,0-5.4-1.8-5.4-4.6s2.7-4.8,5.9-4.8,2.7.3,4.1.8v-.4c0-1.7-.9-3.3-3.6-3.3s-2.7.5-3.9,1.1l-1.2-2.4c2-1,4-1.5,5.8-1.5,3.8,0,6.2,2.4,6.2,6.1h0ZM656.4,78.5v-1.6c-1.1-.4-2.3-.6-3.6-.6s-3.1,1-3.1,2.3,1.2,2.2,2.8,2.2,3.4-.8,3.8-2.4h0Z"/>
          <path class="cls-1" d="M676.7,73.8v9.2h-3.3v-8.5c0-2-1.3-3.4-3.1-3.4s-3.3,1.2-3.5,2.7v9.1h-3.4v-14.4h3.4v1.9c.9-1.3,2.6-2.3,4.5-2.3,3.2,0,5.4,2.3,5.4,5.6h0Z"/>
        </g>
        <g>
          <path class="cls-6" d="M693,76l4,6.6h-4.6l-3.7-6.2h-3.1l-1.3,6.2h-4.1l4-19.1h8.4c3.6,0,6.1,2.2,6.1,5.4s-2.3,6-5.7,7h0ZM686.3,72.7h4.1c2.1,0,4.1-1.7,4.1-3.4s-1.1-1.9-2.8-1.9h-4.2l-1.1,5.4h0Z"/>
          <path class="cls-6" d="M698.8,76.6c0-4.8,4.5-8.7,9.2-8.7s6.5,2.8,6.5,6.3-4.5,8.7-9.2,8.7-6.5-2.8-6.5-6.3h0ZM710.8,74.4c0-1.7-1.3-3-3.1-3-2.7,0-5.1,2.5-5.1,5.2s1.3,3,3,3c2.7,0,5.2-2.5,5.2-5.2h0Z"/>
          <path class="cls-6" d="M715.3,76.6c0-4.7,4.5-8.7,9.2-8.7s4.2,1.1,5.2,2.6l-3,2.1c-.5-.7-1.6-1.2-2.6-1.2-2.7,0-5.1,2.5-5.1,5.2s1.3,3,3,3,2.5-.6,3.4-1.5l2.4,2.5c-1.7,1.6-3.8,2.4-6.2,2.4-3.7,0-6.5-2.8-6.5-6.3h.2Z"/>
          <path class="cls-6" d="M738.8,74.6l3.8,8h-4.5l-2.4-5.4-2.2,1.9-.7,3.5h-4.1l4-19.4h4.1l-2.3,11.2,6.5-6.1h4.7l-6.9,6.3h0Z"/>
          <path class="cls-6" d="M747.9,76.7h0c0,1.8.9,2.6,2.6,2.6s2.8-.5,3.9-1.4l2.2,2.9c-1.5,1.3-3.8,2.1-6.2,2.1-3.8,0-6.3-2.4-6.3-6s4.1-9,8.8-9,5.4,1.6,5.4,3.9-2.6,5-7,4.9h-3.5.1ZM748.6,73.8h3.2c1.6,0,2.5-.5,2.5-1.2s-.7-1.1-1.6-1.1c-1.8,0-3.3.9-4.1,2.3h0Z"/>
          <path class="cls-6" d="M765.1,71.5c-1.4,6.6-1.4,6.7-1.4,7,0,.6.3.9.9.9s1.3-.3,1.6-.6l.6,2.9c-1,.7-2.2,1.1-3.4,1.1-2.2,0-3.7-1.5-3.7-3.6s.1-1.3,1.5-7.8h-2l.7-3.3h2l.8-3.9h3.9l-.8,3.9h3.1l-.7,3.3h-3.1Z"/>
        </g>
        <g>
          <rect class="cls-6" x="589.3" y="69.9" width="19" height="2.2" rx="1" ry="1"/>
          <rect class="cls-6" x="583.5" y="74.7" width="24.9" height="2.2" rx="1" ry="1"/>
          <rect class="cls-6" x="573.7" y="74.9" width="7.6" height="2.2" rx="1" ry="1"/>
          <rect class="cls-6" x="584.7" y="79.6" width="7.6" height="2.2" rx="1" ry="1"/>
          <rect class="cls-6" x="595" y="79.6" width="13.7" height="2.2" rx="1" ry="1"/>
        </g>
      </g>
      <g id="Quote" class="cls-5">
        <g>
          <path class="cls-6" d="M703.9,75.9l4,6.6h-4.6l-3.7-6.2h-3.1l-1.3,6.2h-4.1l4-19.1h8.4c3.6,0,6.1,2.2,6.1,5.4s-2.3,6-5.7,7h0ZM697.2,72.6h4.1c2.1,0,4.1-1.7,4.1-3.4s-1.1-1.9-2.8-1.9h-4.2l-1.1,5.4h-.1Z"/>
          <path class="cls-6" d="M709.7,76.6c0-4.8,4.5-8.7,9.2-8.7s6.5,2.8,6.5,6.3-4.5,8.7-9.2,8.7-6.5-2.8-6.5-6.3h0ZM721.7,74.3c0-1.7-1.3-3-3.1-3-2.7,0-5.1,2.5-5.1,5.2s1.3,3,3,3c2.7,0,5.2-2.5,5.2-5.2h0Z"/>
          <path class="cls-6" d="M726.2,76.6c0-4.7,4.5-8.7,9.2-8.7s4.2,1.1,5.2,2.6l-3,2.1c-.5-.7-1.6-1.2-2.6-1.2-2.7,0-5.1,2.5-5.1,5.2s1.3,3,3,3,2.5-.6,3.4-1.5l2.4,2.5c-1.7,1.6-3.8,2.4-6.2,2.4-3.7,0-6.5-2.8-6.5-6.3h.2Z"/>
          <path class="cls-6" d="M749.7,74.6l3.8,8h-4.5l-2.4-5.4-2.2,1.9-.7,3.5h-4.1l4-19.4h4.1l-2.3,11.2,6.5-6.1h4.7l-6.9,6.3h0Z"/>
          <path class="cls-6" d="M758.8,76.7h0c0,1.8.9,2.6,2.6,2.6s2.8-.5,3.9-1.4l2.2,2.9c-1.5,1.3-3.8,2.1-6.2,2.1-3.8,0-6.3-2.4-6.3-6s4.1-9,8.8-9,5.4,1.6,5.4,3.9-2.6,5-7,4.9h-3.5.1ZM759.5,73.8h3.2c1.6,0,2.5-.5,2.5-1.2s-.7-1.1-1.6-1.1c-1.8,0-3.3.9-4.1,2.3h0Z"/>
          <path class="cls-6" d="M776,71.5c-1.4,6.6-1.4,6.7-1.4,7,0,.6.3.9.9.9s1.3-.3,1.6-.6l.6,2.9c-1,.7-2.2,1.1-3.4,1.1-2.2,0-3.7-1.5-3.7-3.6s.1-1.3,1.5-7.8h-2l.7-3.3h2l.8-3.9h3.9l-.8,3.9h3.1l-.7,3.3h-3.1Z"/>
        </g>
        <g>
          <rect class="cls-6" x="580.4" y="69.8" width="19" height="2.2" rx="1" ry="1"/>
          <rect class="cls-6" x="574.6" y="74.6" width="24.9" height="2.2" rx="1" ry="1"/>
          <rect class="cls-6" x="564.9" y="74.8" width="7.6" height="2.2" rx="1" ry="1"/>
          <rect class="cls-6" x="575.8" y="79.5" width="7.6" height="2.2" rx="1" ry="1"/>
          <rect class="cls-6" x="586.1" y="79.5" width="13.7" height="2.2" rx="1" ry="1"/>
        </g>
        <g class="cls-3">
          <text class="cls-2" transform="translate(602.4 83)"><tspan x="0" y="0">Quote</tspan></text>
        </g>
      </g>
      <g>
        <g>
          <g>
            <rect class="cls-7" x="260.7" y="23" width="19" height="2.2" rx="1" ry="1"/>
            <rect class="cls-7" x="254.9" y="27.8" width="24.9" height="2.2" rx="1" ry="1"/>
            <rect class="cls-7" x="245.1" y="28.1" width="7.6" height="2.2" rx="1" ry="1"/>
            <rect class="cls-7" x="256.1" y="32.7" width="7.6" height="2.2" rx="1" ry="1"/>
            <rect class="cls-7" x="266.4" y="32.7" width="13.7" height="2.2" rx="1" ry="1"/>
          </g>
          <g>
            <g>
              <path class="cls-7" d="M369.4,27.9l4,6.6h-4.6l-3.7-6.2h-3.1l-1.3,6.2h-4.1l4-19.1h8.4c3.6,0,6.1,2.2,6.1,5.4s-2.3,6-5.7,7h0ZM362.8,24.5h4.1c2.1,0,4.1-1.7,4.1-3.4s-1.1-1.9-2.8-1.9h-4.2l-1.1,5.4h0Z"/>
              <path class="cls-7" d="M375.2,28.5c0-4.8,4.5-8.7,9.2-8.7s6.5,2.8,6.5,6.3-4.5,8.7-9.2,8.7-6.5-2.8-6.5-6.3h0ZM387.2,26.2c0-1.7-1.3-3-3.1-3-2.7,0-5.1,2.5-5.1,5.2s1.3,3,3,3c2.7,0,5.2-2.5,5.2-5.2h0Z"/>
              <path class="cls-7" d="M391.7,28.5c0-4.7,4.5-8.7,9.2-8.7s4.2,1.1,5.2,2.6l-3,2.1c-.5-.7-1.6-1.2-2.6-1.2-2.7,0-5.1,2.5-5.1,5.2s1.3,3,3,3,2.5-.6,3.4-1.5l2.4,2.5c-1.7,1.6-3.8,2.4-6.2,2.4-3.7,0-6.5-2.8-6.5-6.3h.2Z"/>
              <path class="cls-7" d="M415.3,26.5l3.8,8h-4.5l-2.4-5.4-2.2,1.9-.7,3.5h-4.1l4-19.4h4.1l-2.3,11.2,6.5-6.1h4.7l-6.9,6.3h0Z"/>
              <path class="cls-7" d="M424.3,28.6h0c0,1.8.9,2.6,2.6,2.6s2.8-.5,3.9-1.4l2.2,2.9c-1.5,1.3-3.8,2.1-6.2,2.1-3.8,0-6.3-2.4-6.3-6s4.1-9,8.8-9,5.4,1.6,5.4,3.9-2.6,5-7,4.9h-3.5.1ZM425.1,25.7h3.2c1.6,0,2.5-.5,2.5-1.2s-.7-1.1-1.6-1.1c-1.8,0-3.3.9-4.1,2.3h0Z"/>
              <path class="cls-7" d="M441.5,23.4c-1.4,6.6-1.4,6.7-1.4,7,0,.6.3.9.9.9s1.3-.3,1.6-.6l.6,2.9c-1,.7-2.2,1.1-3.4,1.1-2.2,0-3.7-1.5-3.7-3.6s.1-1.3,1.5-7.8h-2l.7-3.3h2l.8-3.9h3.9l-.8,3.9h3.1l-.7,3.3h-3.1Z"/>
            </g>
            <g class="cls-4">
              <g class="cls-4">
                <path class="cls-8" d="M302.6,30.6h-10l-1.7,3.9h-3.1l8.3-19.2h3.1l8.3,19.2h-3.1l-1.7-3.9ZM301.6,28.1l-3.9-9.1-3.9,9.1h7.8Z"/>
                <path class="cls-8" d="M322.9,20.1v14.5h-2.8v-2.1c-.9,1.4-2.6,2.4-4.6,2.4-3.2,0-5.4-2.3-5.4-5.6v-9.2h2.7v8.7c0,2.2,1.4,3.7,3.3,3.7s3.8-1.3,4-3v-9.4h2.8Z"/>
                <path class="cls-8" d="M334.8,33.8c-.8.6-1.8,1-2.9,1-2.2,0-3.8-1.6-3.8-3.9v-8.5h-2.2v-2.4h2.2v-4h2.7v4h3.4v2.4h-3.4v8.3c0,1,.7,1.7,1.5,1.7s1.2-.2,1.5-.5l1,1.9Z"/>
                <path class="cls-8" d="M336.8,27.3c0-4.1,3.5-7.6,7.6-7.6s7.6,3.4,7.6,7.6-3.5,7.6-7.6,7.6-7.6-3.5-7.6-7.6ZM349.3,27.3c0-2.8-2.2-5.2-4.8-5.2s-4.9,2.4-4.9,5.2,2.2,5.2,4.9,5.2,4.8-2.4,4.8-5.2Z"/>
              </g>
            </g>
          </g>
        </g>
        <g>
          <g>
            <rect class="cls-7" x="30.9" y="23" width="19" height="2.2" rx="1" ry="1"/>
            <rect class="cls-7" x="25.1" y="27.8" width="24.9" height="2.2" rx="1" ry="1"/>
            <rect class="cls-7" x="15.3" y="28.1" width="7.6" height="2.2" rx="1" ry="1"/>
            <rect class="cls-7" x="26.3" y="32.7" width="7.6" height="2.2" rx="1" ry="1"/>
            <rect class="cls-7" x="36.6" y="32.7" width="13.7" height="2.2" rx="1" ry="1"/>
          </g>
          <g>
            <g>
              <path class="cls-7" d="M138.4,27.9l4,6.6h-4.6l-3.7-6.2h-3.1l-1.3,6.2h-4.1l4-19.1h8.4c3.6,0,6.1,2.2,6.1,5.4s-2.3,6-5.7,7h0ZM131.8,24.5h4.1c2.1,0,4.1-1.7,4.1-3.4s-1.1-1.9-2.8-1.9h-4.2l-1.1,5.4h0Z"/>
              <path class="cls-7" d="M144.2,28.5c0-4.8,4.5-8.7,9.2-8.7s6.5,2.8,6.5,6.3-4.5,8.7-9.2,8.7-6.5-2.8-6.5-6.3h0ZM156.2,26.2c0-1.7-1.3-3-3.1-3-2.7,0-5.1,2.5-5.1,5.2s1.3,3,3,3c2.7,0,5.2-2.5,5.2-5.2h0Z"/>
              <path class="cls-7" d="M160.7,28.5c0-4.7,4.5-8.7,9.2-8.7s4.2,1.1,5.2,2.6l-3,2.1c-.5-.7-1.6-1.2-2.6-1.2-2.7,0-5.1,2.5-5.1,5.2s1.3,3,3,3,2.5-.6,3.4-1.5l2.4,2.5c-1.7,1.6-3.8,2.4-6.2,2.4-3.7,0-6.5-2.8-6.5-6.3h.2Z"/>
              <path class="cls-7" d="M184.3,26.5l3.8,8h-4.5l-2.4-5.4-2.2,1.9-.7,3.5h-4.1l4-19.4h4.1l-2.3,11.2,6.5-6.1h4.7l-6.9,6.3h0Z"/>
              <path class="cls-7" d="M193.3,28.6h0c0,1.8.9,2.6,2.6,2.6s2.8-.5,3.9-1.4l2.2,2.9c-1.5,1.3-3.8,2.1-6.2,2.1-3.8,0-6.3-2.4-6.3-6s4.1-9,8.8-9,5.4,1.6,5.4,3.9-2.6,5-7,4.9h-3.5.1ZM194.1,25.7h3.2c1.6,0,2.5-.5,2.5-1.2s-.7-1.1-1.6-1.1c-1.8,0-3.3.9-4.1,2.3h0Z"/>
              <path class="cls-7" d="M210.5,23.4c-1.4,6.6-1.4,6.7-1.4,7,0,.6.3.9.9.9s1.3-.3,1.6-.6l.6,2.9c-1,.7-2.2,1.1-3.4,1.1-2.2,0-3.7-1.5-3.7-3.6s.1-1.3,1.5-7.8h-2l.7-3.3h2l.8-3.9h3.9l-.8,3.9h3.1l-.7,3.3h-3.1Z"/>
            </g>
            <g class="cls-4">
              <g class="cls-4">
                <path class="cls-8" d="M58.1,15.3h6.6c6.2,0,10.6,4,10.6,9.6s-4.4,9.6-10.6,9.6h-6.6V15.3ZM64.9,32c4.5,0,7.6-2.9,7.6-7.1s-3.1-7-7.6-7h-4v14.1h4Z"/>
                <path class="cls-8" d="M89.8,30.8l1.7,1.8c-1.3,1.4-3.8,2.2-5.9,2.2-4,0-7.4-3.2-7.4-7.6s3.2-7.5,7.2-7.5,7,3.4,7,8.5h-11.4c.4,2.4,2.1,4.1,4.6,4.1s3.3-.7,4.1-1.6ZM81,26.1h8.7c-.3-2.2-1.7-3.9-4.2-3.9s-4.1,1.5-4.5,3.9Z"/>
                <path class="cls-8" d="M110.3,27.3c0,4.5-2.9,7.6-6.7,7.6s-4-1.1-5.2-2.9v2.5h-2.7V15h2.7v7.6c1.1-1.8,2.9-2.8,5.2-2.8,3.8,0,6.7,3.1,6.7,7.6ZM107.5,27.3c0-3-1.9-5.2-4.5-5.2s-4.5,2.1-4.5,5.2,1.9,5.2,4.5,5.2,4.5-2.2,4.5-5.2Z"/>
                <path class="cls-8" d="M121.5,33.8c-.8.6-1.8,1-2.9,1-2.2,0-3.8-1.6-3.8-3.9v-8.5h-2.2v-2.4h2.2v-4h2.7v4h3.4v2.4h-3.4v8.3c0,1,.7,1.7,1.5,1.7s1.2-.2,1.5-.5l1,1.9Z"/>
              </g>
            </g>
          </g>
        </g>
        <g>
          <g>
            <rect class="cls-7" x="492.4" y="23" width="19" height="2.2" rx="1" ry="1"/>
            <rect class="cls-7" x="486.6" y="27.8" width="24.9" height="2.2" rx="1" ry="1"/>
            <rect class="cls-7" x="476.8" y="28.1" width="7.6" height="2.2" rx="1" ry="1"/>
            <rect class="cls-7" x="487.8" y="32.7" width="7.6" height="2.2" rx="1" ry="1"/>
            <rect class="cls-7" x="498.1" y="32.7" width="13.7" height="2.2" rx="1" ry="1"/>
          </g>
          <g>
            <g>
              <path class="cls-7" d="M600.2,27.9l4,6.6h-4.6l-3.7-6.2h-3.1l-1.3,6.2h-4.1l4-19.1h8.4c3.6,0,6.1,2.2,6.1,5.4s-2.3,6-5.7,7h0ZM593.6,24.5h4.1c2.1,0,4.1-1.7,4.1-3.4s-1.1-1.9-2.8-1.9h-4.2l-1.1,5.4h0Z"/>
              <path class="cls-7" d="M606,28.5c0-4.8,4.5-8.7,9.2-8.7s6.5,2.8,6.5,6.3-4.5,8.7-9.2,8.7-6.5-2.8-6.5-6.3h0ZM618,26.2c0-1.7-1.3-3-3.1-3-2.7,0-5.1,2.5-5.1,5.2s1.3,3,3,3c2.7,0,5.2-2.5,5.2-5.2h0Z"/>
              <path class="cls-7" d="M622.5,28.5c0-4.7,4.5-8.7,9.2-8.7s4.2,1.1,5.2,2.6l-3,2.1c-.5-.7-1.6-1.2-2.6-1.2-2.7,0-5.1,2.5-5.1,5.2s1.3,3,3,3,2.5-.6,3.4-1.5l2.4,2.5c-1.7,1.6-3.8,2.4-6.2,2.4-3.7,0-6.5-2.8-6.5-6.3h.2Z"/>
              <path class="cls-7" d="M646.1,26.5l3.8,8h-4.5l-2.4-5.4-2.2,1.9-.7,3.5h-4.1l4-19.4h4.1l-2.3,11.2,6.5-6.1h4.7l-6.9,6.3h0Z"/>
              <path class="cls-7" d="M655.1,28.6h0c0,1.8.9,2.6,2.6,2.6s2.8-.5,3.9-1.4l2.2,2.9c-1.5,1.3-3.8,2.1-6.2,2.1-3.8,0-6.3-2.4-6.3-6s4.1-9,8.8-9,5.4,1.6,5.4,3.9-2.6,5-7,4.9h-3.5.1ZM655.9,25.7h3.2c1.6,0,2.5-.5,2.5-1.2s-.7-1.1-1.6-1.1c-1.8,0-3.3.9-4.1,2.3h0Z"/>
              <path class="cls-7" d="M672.3,23.4c-1.4,6.6-1.4,6.7-1.4,7,0,.6.3.9.9.9s1.3-.3,1.6-.6l.6,2.9c-1,.7-2.2,1.1-3.4,1.1-2.2,0-3.7-1.5-3.7-3.6s.1-1.3,1.5-7.8h-2l.7-3.3h2l.8-3.9h3.9l-.8,3.9h3.1l-.7,3.3h-3.1Z"/>
            </g>
            <g class="cls-4">
              <path class="cls-9" d="M532.6,31.9v2.6h-13V15.3h2.9v16.6h10.2Z"/>
              <path class="cls-9" d="M534.7,27.3c0-4.1,3.5-7.6,7.6-7.6s7.6,3.4,7.6,7.6-3.5,7.6-7.6,7.6-7.6-3.5-7.6-7.6ZM547.2,27.3c0-2.8-2.2-5.2-4.8-5.2s-4.9,2.4-4.9,5.2,2.2,5.2,4.9,5.2,4.8-2.4,4.8-5.2Z"/>
              <path class="cls-9" d="M565.3,25.8v8.8h-2.7v-2c-1.1,1.5-3.1,2.3-4.8,2.3-3.1,0-5.3-1.8-5.3-4.6s2.6-4.8,5.8-4.8,3,.3,4.4.8v-.4c0-1.8-.8-3.8-3.7-3.8s-2.8.6-4.1,1.2l-1-2c2.1-1,3.9-1.5,5.5-1.5,3.9,0,6,2.5,6,6ZM562.6,30v-1.9c-1.2-.4-2.5-.6-3.9-.6s-3.6,1.1-3.6,2.7,1.4,2.5,3.2,2.5,3.8-.9,4.3-2.7Z"/>
              <path class="cls-9" d="M582.1,25.3v9.2h-2.7v-8.7c0-2.2-1.4-3.7-3.3-3.7s-3.8,1.3-4,3v9.4h-2.8v-14.5h2.8v2.1c.9-1.4,2.6-2.4,4.6-2.4,3.2,0,5.4,2.3,5.4,5.6Z"/>
            </g>
          </g>
        </g>
        <g>
          <g>
            <rect class="cls-7" x="721.9" y="23" width="19" height="2.2" rx="1" ry="1"/>
            <rect class="cls-7" x="716.1" y="27.8" width="24.9" height="2.2" rx="1" ry="1"/>
            <rect class="cls-7" x="706.3" y="28.1" width="7.6" height="2.2" rx="1" ry="1"/>
            <rect class="cls-7" x="717.3" y="32.7" width="7.6" height="2.2" rx="1" ry="1"/>
            <rect class="cls-7" x="727.6" y="32.7" width="13.7" height="2.2" rx="1" ry="1"/>
          </g>
          <g>
            <g>
              <path class="cls-7" d="M808.5,27.9l4,6.6h-4.6l-3.7-6.2h-3.1l-1.3,6.2h-4.1l4-19.1h8.4c3.6,0,6.1,2.2,6.1,5.4s-2.3,6-5.7,7h0ZM801.9,24.5h4.1c2.1,0,4.1-1.7,4.1-3.4s-1.1-1.9-2.8-1.9h-4.2l-1.1,5.4h0Z"/>
              <path class="cls-7" d="M814.3,28.5c0-4.8,4.5-8.7,9.2-8.7s6.5,2.8,6.5,6.3-4.5,8.7-9.2,8.7-6.5-2.8-6.5-6.3h0ZM826.3,26.2c0-1.7-1.3-3-3.1-3-2.7,0-5.1,2.5-5.1,5.2s1.3,3,3,3c2.7,0,5.2-2.5,5.2-5.2h0Z"/>
              <path class="cls-7" d="M830.8,28.5c0-4.7,4.5-8.7,9.2-8.7s4.2,1.1,5.2,2.6l-3,2.1c-.5-.7-1.6-1.2-2.6-1.2-2.7,0-5.1,2.5-5.1,5.2s1.3,3,3,3,2.5-.6,3.4-1.5l2.4,2.5c-1.7,1.6-3.8,2.4-6.2,2.4-3.7,0-6.5-2.8-6.5-6.3h.2Z"/>
              <path class="cls-7" d="M854.4,26.5l3.8,8h-4.5l-2.4-5.4-2.2,1.9-.7,3.5h-4.1l4-19.4h4.1l-2.3,11.2,6.5-6.1h4.7l-6.9,6.3h0Z"/>
              <path class="cls-7" d="M863.4,28.6h0c0,1.8.9,2.6,2.6,2.6s2.8-.5,3.9-1.4l2.2,2.9c-1.5,1.3-3.8,2.1-6.2,2.1-3.8,0-6.3-2.4-6.3-6s4.1-9,8.8-9,5.4,1.6,5.4,3.9-2.6,5-7,4.9h-3.5.1ZM864.2,25.7h3.2c1.6,0,2.5-.5,2.5-1.2s-.7-1.1-1.6-1.1c-1.8,0-3.3.9-4.1,2.3h0Z"/>
              <path class="cls-7" d="M880.6,23.4c-1.4,6.6-1.4,6.7-1.4,7,0,.6.3.9.9.9s1.3-.3,1.6-.6l.6,2.9c-1,.7-2.2,1.1-3.4,1.1-2.2,0-3.7-1.5-3.7-3.6s.1-1.3,1.5-7.8h-2l.7-3.3h2l.8-3.9h3.9l-.8,3.9h3.1l-.7,3.3h-3.1Z"/>
            </g>
            <g class="cls-4">
              <g class="cls-4">
                <path class="cls-8" d="M749.1,15.3h8.1c4.1,0,7.1,2.6,7.1,6.3s-3.1,6.3-7.1,6.3h-5.3v6.7h-2.8V15.3ZM756.8,25.2c2.8,0,4.6-1.4,4.6-3.6s-1.9-3.6-4.6-3.6h-4.9v7.3h4.9Z"/>
                <path class="cls-8" d="M777.9,30.8l1.7,1.8c-1.3,1.4-3.8,2.2-5.9,2.2-4,0-7.4-3.2-7.4-7.6s3.2-7.5,7.2-7.5,7,3.4,7,8.5h-11.4c.4,2.4,2.1,4.1,4.6,4.1s3.3-.7,4.1-1.6ZM769.2,26.1h8.7c-.3-2.2-1.7-3.9-4.2-3.9s-4.1,1.5-4.5,3.9Z"/>
                <path class="cls-8" d="M791.6,33.8c-.8.6-1.8,1-2.9,1-2.2,0-3.8-1.6-3.8-3.9v-8.5h-2.2v-2.4h2.2v-4h2.7v4h3.4v2.4h-3.4v8.3c0,1,.7,1.7,1.5,1.7s1.2-.2,1.5-.5l1,1.9Z"/>
              </g>
            </g>
          </g>
        </g>
        <g>
          <g>
            <rect class="cls-7" x="1167.5" y="23" width="19" height="2.2" rx="1" ry="1"/>
            <rect class="cls-7" x="1161.7" y="27.8" width="24.9" height="2.2" rx="1" ry="1"/>
            <rect class="cls-7" x="1151.9" y="28.1" width="7.6" height="2.2" rx="1" ry="1"/>
            <rect class="cls-7" x="1162.9" y="32.7" width="7.6" height="2.2" rx="1" ry="1"/>
            <rect class="cls-7" x="1173.2" y="32.7" width="13.7" height="2.2" rx="1" ry="1"/>
          </g>
          <g>
            <g>
              <path class="cls-7" d="M1258.1,27.9l4,6.6h-4.6l-3.7-6.2h-3.1l-1.3,6.2h-4.1l4-19.1h8.4c3.6,0,6.1,2.2,6.1,5.4s-2.3,6-5.7,7h0ZM1251.5,24.5h4.1c2.1,0,4.1-1.7,4.1-3.4s-1.1-1.9-2.8-1.9h-4.2l-1.1,5.4h0Z"/>
              <path class="cls-7" d="M1263.9,28.5c0-4.8,4.5-8.7,9.2-8.7s6.5,2.8,6.5,6.3-4.5,8.7-9.2,8.7-6.5-2.8-6.5-6.3h0ZM1275.9,26.2c0-1.7-1.3-3-3.1-3-2.7,0-5.1,2.5-5.1,5.2s1.3,3,3,3c2.7,0,5.2-2.5,5.2-5.2h0Z"/>
              <path class="cls-7" d="M1280.4,28.5c0-4.7,4.5-8.7,9.2-8.7s4.2,1.1,5.2,2.6l-3,2.1c-.5-.7-1.6-1.2-2.6-1.2-2.7,0-5.1,2.5-5.1,5.2s1.3,3,3,3,2.5-.6,3.4-1.5l2.4,2.5c-1.7,1.6-3.8,2.4-6.2,2.4-3.7,0-6.5-2.8-6.5-6.3h.2Z"/>
              <path class="cls-7" d="M1304,26.5l3.8,8h-4.5l-2.4-5.4-2.2,1.9-.7,3.5h-4.1l4-19.4h4.1l-2.3,11.2,6.5-6.1h4.7l-6.9,6.3h0Z"/>
              <path class="cls-7" d="M1313,28.6h0c0,1.8.9,2.6,2.6,2.6s2.8-.5,3.9-1.4l2.2,2.9c-1.5,1.3-3.8,2.1-6.2,2.1-3.8,0-6.3-2.4-6.3-6s4.1-9,8.8-9,5.4,1.6,5.4,3.9-2.6,5-7,4.9h-3.5.1ZM1313.8,25.7h3.2c1.6,0,2.5-.5,2.5-1.2s-.7-1.1-1.6-1.1c-1.8,0-3.3.9-4.1,2.3h0Z"/>
              <path class="cls-7" d="M1330.2,23.4c-1.4,6.6-1.4,6.7-1.4,7,0,.6.3.9.9.9s1.3-.3,1.6-.6l.6,2.9c-1,.7-2.2,1.1-3.4,1.1-2.2,0-3.7-1.5-3.7-3.6s.1-1.3,1.5-7.8h-2l.7-3.3h2l.8-3.9h3.9l-.8,3.9h3.1l-.7,3.3h-3.1Z"/>
            </g>
            <g class="cls-4">
              <g class="cls-4">
                <path class="cls-8" d="M1207.7,31.9v2.6h-13V15.3h2.9v16.6h10.2Z"/>
                <path class="cls-8" d="M1210.3,16c0-.9.7-1.7,1.7-1.7s1.7.8,1.7,1.7-.8,1.7-1.7,1.7-1.7-.8-1.7-1.7ZM1210.6,20.1h2.8v14.5h-2.8v-14.5Z"/>
                <path class="cls-8" d="M1221.2,20.1h3.4v2.4h-3.4v12.1h-2.7v-12.1h-2.2v-2.4h2.2v-1.7c0-2.3,1.6-3.9,3.8-3.9s2.1.4,2.9,1l-1,1.8c-.3-.3-.9-.5-1.5-.5s-1.5.7-1.5,1.7v1.6Z"/>
                <path class="cls-8" d="M1238.2,30.8l1.7,1.8c-1.3,1.4-3.8,2.2-5.9,2.2-4,0-7.4-3.2-7.4-7.6s3.2-7.5,7.2-7.5,7,3.4,7,8.5h-11.4c.4,2.4,2.1,4.1,4.6,4.1s3.3-.7,4.1-1.6ZM1229.5,26.1h8.7c-.3-2.2-1.7-3.9-4.2-3.9s-4.1,1.5-4.5,3.9Z"/>
              </g>
            </g>
          </g>
        </g>
        <g>
          <g>
            <rect class="cls-7" x="930.8" y="22.9" width="19" height="2.2" rx="1" ry="1"/>
            <rect class="cls-7" x="925" y="27.7" width="24.9" height="2.2" rx="1" ry="1"/>
            <rect class="cls-7" x="915.2" y="28" width="7.6" height="2.2" rx="1" ry="1"/>
            <rect class="cls-7" x="926.2" y="32.6" width="7.6" height="2.2" rx="1" ry="1"/>
            <rect class="cls-7" x="936.5" y="32.6" width="13.7" height="2.2" rx="1" ry="1"/>
          </g>
          <g>
            <g>
              <path class="cls-7" d="M1044.6,28.6l4,6.6h-4.6l-3.7-6.2h-3.1l-1.3,6.2h-4.1l4-19.1h8.4c3.6,0,6.1,2.2,6.1,5.4s-2.3,6-5.7,7h0ZM1038,25.2h4.1c2.1,0,4.1-1.7,4.1-3.4s-1.1-1.9-2.8-1.9h-4.2l-1.1,5.4h-.1Z"/>
              <path class="cls-7" d="M1050.4,29.2c0-4.8,4.5-8.7,9.2-8.7s6.5,2.8,6.5,6.3-4.5,8.7-9.2,8.7-6.5-2.8-6.5-6.3h0ZM1062.4,26.9c0-1.7-1.3-3-3.1-3-2.7,0-5.1,2.5-5.1,5.2s1.3,3,3,3c2.7,0,5.2-2.5,5.2-5.2h0Z"/>
              <path class="cls-7" d="M1067,29.2c0-4.7,4.5-8.7,9.2-8.7s4.2,1.1,5.2,2.6l-3,2.1c-.5-.7-1.6-1.2-2.6-1.2-2.7,0-5.1,2.5-5.1,5.2s1.3,3,3,3,2.5-.6,3.4-1.5l2.4,2.5c-1.7,1.6-3.8,2.4-6.2,2.4-3.7,0-6.5-2.8-6.5-6.3h.2Z"/>
              <path class="cls-7" d="M1090.6,27.2l3.8,8h-4.5l-2.4-5.4-2.2,1.9-.7,3.5h-4.1l4-19.4h4.1l-2.3,11.2,6.5-6.1h4.7l-6.9,6.3h0Z"/>
              <path class="cls-7" d="M1099.7,29.3h0c0,1.8.9,2.6,2.6,2.6s2.8-.5,3.9-1.4l2.2,2.9c-1.5,1.3-3.8,2.1-6.2,2.1-3.8,0-6.3-2.4-6.3-6s4.1-9,8.8-9,5.4,1.6,5.4,3.9-2.6,5-7,4.9h-3.5.1ZM1100.5,26.4h3.2c1.6,0,2.5-.5,2.5-1.2s-.7-1.1-1.6-1.1c-1.8,0-3.3.9-4.1,2.3h0Z"/>
              <path class="cls-7" d="M1116.9,24.1c-1.4,6.6-1.4,6.7-1.4,7,0,.6.3.9.9.9s1.3-.3,1.6-.6l.6,2.9c-1,.7-2.2,1.1-3.4,1.1-2.2,0-3.7-1.5-3.7-3.6s.1-1.3,1.5-7.8h-2l.7-3.3h2l.8-3.9h3.9l-.8,3.9h3.1l-.7,3.3h-3.1Z"/>
            </g>
            <g class="cls-4">
              <g class="cls-4">
                <path class="cls-8" d="M971,32.4v2.6h-13V15.8h2.9v16.6h10.2Z"/>
                <path class="cls-8" d="M984.7,31.3l1.7,1.8c-1.3,1.4-3.8,2.2-5.9,2.2-4,0-7.4-3.2-7.4-7.6s3.2-7.5,7.2-7.5,7,3.4,7,8.5h-11.4c.4,2.4,2.1,4.1,4.6,4.1s3.3-.7,4.1-1.6ZM975.9,26.5h8.7c-.3-2.2-1.7-3.9-4.2-3.9s-4.1,1.5-4.5,3.9Z"/>
                <path class="cls-8" d="M1004.3,20.5v12.9c0,3.7-3.1,6.4-7.3,6.4s-4.7-.8-6-1.9l1.1-2.1c1.1,1,2.8,1.6,4.5,1.6,3.1,0,5-1.5,5-4v-2.1c-1.1,1.7-2.9,2.6-5.1,2.6-3.8,0-6.6-2.9-6.6-6.9s2.8-6.9,6.6-6.9,4,1,5.1,2.7v-2.3h2.8ZM1001.5,27c0-2.6-1.8-4.5-4.4-4.5s-4.4,1.8-4.4,4.5,1.8,4.5,4.4,4.5,4.4-1.8,4.4-4.5Z"/>
                <path class="cls-8" d="M1020.6,26.2v8.8h-2.7v-2c-1.1,1.5-3.1,2.3-4.8,2.3-3.1,0-5.3-1.8-5.3-4.6s2.6-4.8,5.8-4.8,3,.3,4.4.8v-.4c0-1.8-.8-3.8-3.7-3.8s-2.8.6-4.1,1.2l-1-2c2.1-1,3.9-1.5,5.5-1.5,3.9,0,6,2.5,6,6ZM1017.8,30.5v-1.9c-1.2-.4-2.5-.6-3.9-.6s-3.6,1.1-3.6,2.7,1.4,2.5,3.2,2.5,3.8-.9,4.3-2.7Z"/>
                <path class="cls-8" d="M1024.6,15.4h2.7v19.6h-2.7V15.4Z"/>
              </g>
            </g>
          </g>
        </g>
      </g>
      <g>
        <g>
          <g>
            <rect class="cls-7" x="69.7" y="67.9" width="19" height="2.2" rx="1" ry="1"/>
            <rect class="cls-7" x="63.9" y="72.7" width="24.9" height="2.2" rx="1" ry="1"/>
            <rect class="cls-7" x="54.1" y="73" width="7.6" height="2.2" rx="1" ry="1"/>
            <rect class="cls-7" x="65.1" y="77.6" width="7.6" height="2.2" rx="1" ry="1"/>
            <rect class="cls-7" x="75.4" y="77.6" width="13.7" height="2.2" rx="1" ry="1"/>
          </g>
          <g>
            <g>
              <path class="cls-7" d="M187.3,72.8l4,6.6h-4.6l-3.7-6.2h-3.1l-1.3,6.2h-4.1l4-19.1h8.4c3.6,0,6.1,2.2,6.1,5.4s-2.3,6-5.7,7h0ZM180.7,69.4h4.1c2.1,0,4.1-1.7,4.1-3.4s-1.1-1.9-2.8-1.9h-4.2l-1.1,5.4h0Z"/>
              <path class="cls-7" d="M193.1,73.4c0-4.8,4.5-8.7,9.2-8.7s6.5,2.8,6.5,6.3-4.5,8.7-9.2,8.7-6.5-2.8-6.5-6.3h0ZM205.1,71.1c0-1.7-1.3-3-3.1-3-2.7,0-5.1,2.5-5.1,5.2s1.3,3,3,3c2.7,0,5.2-2.5,5.2-5.2h0Z"/>
              <path class="cls-7" d="M209.6,73.4c0-4.7,4.5-8.7,9.2-8.7s4.2,1.1,5.2,2.6l-3,2.1c-.5-.7-1.6-1.2-2.6-1.2-2.7,0-5.1,2.5-5.1,5.2s1.3,3,3,3,2.5-.6,3.4-1.5l2.4,2.5c-1.7,1.6-3.8,2.4-6.2,2.4-3.7,0-6.5-2.8-6.5-6.3h.2Z"/>
              <path class="cls-7" d="M233.2,71.4l3.8,8h-4.5l-2.4-5.4-2.2,1.9-.7,3.5h-4.1l4-19.4h4.1l-2.3,11.2,6.5-6.1h4.7l-6.9,6.3h0Z"/>
              <path class="cls-7" d="M242.2,73.5h0c0,1.8.9,2.6,2.6,2.6s2.8-.5,3.9-1.4l2.2,2.9c-1.5,1.3-3.8,2.1-6.2,2.1-3.8,0-6.3-2.4-6.3-6s4.1-9,8.8-9,5.4,1.6,5.4,3.9-2.6,5-7,4.9h-3.5.1ZM243,70.6h3.2c1.6,0,2.5-.5,2.5-1.2s-.7-1.1-1.6-1.1c-1.8,0-3.3.9-4.1,2.3h0Z"/>
              <path class="cls-7" d="M259.4,68.3c-1.4,6.6-1.4,6.7-1.4,7,0,.6.3.9.9.9s1.3-.3,1.6-.6l.6,2.9c-1,.7-2.2,1.1-3.4,1.1-2.2,0-3.7-1.5-3.7-3.6s.1-1.3,1.5-7.8h-2l.7-3.3h2l.8-3.9h3.9l-.8,3.9h3.1l-.7,3.3h-3.1Z"/>
            </g>
            <g class="cls-4">
              <g class="cls-4">
                <path class="cls-8" d="M103.1,62.9h-6.3v-2.6h15.5v2.6h-6.3v16.6h-2.8v-16.6Z"/>
                <path class="cls-8" d="M123.7,64.7v2.4c-3,0-5.1,1.7-5.4,4.2v8.2h-2.8v-14.5h2.8v2.8c.9-1.9,2.9-3.1,5.4-3.1Z"/>
                <path class="cls-8" d="M138.5,70.7v8.8h-2.7v-2c-1.1,1.5-3.1,2.3-4.8,2.3-3.1,0-5.3-1.8-5.3-4.6s2.6-4.8,5.8-4.8,3,.3,4.4.8v-.4c0-1.8-.8-3.8-3.7-3.8s-2.8.6-4.1,1.2l-1-2c2.1-1,3.9-1.5,5.5-1.5,3.9,0,6,2.5,6,6ZM135.8,75v-1.9c-1.2-.4-2.5-.6-3.9-.6s-3.6,1.1-3.6,2.7,1.4,2.5,3.2,2.5,3.8-.9,4.3-2.7Z"/>
                <path class="cls-8" d="M141.7,72.2c0-4.1,3.5-7.6,7.6-7.6s3.9.9,5.3,2.2l-1.9,1.7c-.9-1-2.1-1.6-3.5-1.6-2.6,0-4.8,2.4-4.8,5.2s2.2,5.2,4.8,5.2,2.6-.6,3.5-1.6l1.9,1.7c-1.4,1.4-3.3,2.3-5.4,2.3-4.1,0-7.6-3.5-7.6-7.6Z"/>
                <path class="cls-8" d="M164.7,71.6l6,7.9h-3.3l-4.5-6.1-2.3,2.4v3.7h-2.7v-19.6h2.7v12.5l7.1-7.4h3.4l-6.2,6.6Z"/>
              </g>
            </g>
          </g>
        </g>
        <g>
          <g>
            <rect class="cls-7" x="300.8" y="66.7" width="19" height="2.2" rx="1" ry="1"/>
            <rect class="cls-7" x="295" y="71.5" width="24.9" height="2.2" rx="1" ry="1"/>
            <rect class="cls-7" x="285.2" y="71.8" width="7.6" height="2.2" rx="1" ry="1"/>
            <rect class="cls-7" x="296.2" y="76.4" width="7.6" height="2.2" rx="1" ry="1"/>
            <rect class="cls-7" x="306.5" y="76.4" width="13.7" height="2.2" rx="1" ry="1"/>
          </g>
          <g>
            <g>
              <path class="cls-7" d="M422.6,72.8l4,6.6h-4.6l-3.7-6.2h-3.1l-1.3,6.2h-4.1l4-19.1h8.4c3.6,0,6.1,2.2,6.1,5.4s-2.3,6-5.7,7h0ZM416,69.4h4.1c2.1,0,4.1-1.7,4.1-3.4s-1.1-1.9-2.8-1.9h-4.2l-1.1,5.4h0Z"/>
              <path class="cls-7" d="M428.4,73.4c0-4.8,4.5-8.7,9.2-8.7s6.5,2.8,6.5,6.3-4.5,8.7-9.2,8.7-6.5-2.8-6.5-6.3h0ZM440.4,71.1c0-1.7-1.3-3-3.1-3-2.7,0-5.1,2.5-5.1,5.2s1.3,3,3,3c2.7,0,5.2-2.5,5.2-5.2h0Z"/>
              <path class="cls-7" d="M444.9,73.4c0-4.7,4.5-8.7,9.2-8.7s4.2,1.1,5.2,2.6l-3,2.1c-.5-.7-1.6-1.2-2.6-1.2-2.7,0-5.1,2.5-5.1,5.2s1.3,3,3,3,2.5-.6,3.4-1.5l2.4,2.5c-1.7,1.6-3.8,2.4-6.2,2.4-3.7,0-6.5-2.8-6.5-6.3h.2Z"/>
              <path class="cls-7" d="M468.5,71.4l3.8,8h-4.5l-2.4-5.4-2.2,1.9-.7,3.5h-4.1l4-19.4h4.1l-2.3,11.2,6.5-6.1h4.7l-6.9,6.3h0Z"/>
              <path class="cls-7" d="M477.5,73.5h0c0,1.8.9,2.6,2.6,2.6s2.8-.5,3.9-1.4l2.2,2.9c-1.5,1.3-3.8,2.1-6.2,2.1-3.8,0-6.3-2.4-6.3-6s4.1-9,8.8-9,5.4,1.6,5.4,3.9-2.6,5-7,4.9h-3.5.1ZM478.3,70.6h3.2c1.6,0,2.5-.5,2.5-1.2s-.7-1.1-1.6-1.1c-1.8,0-3.3.9-4.1,2.3h0Z"/>
              <path class="cls-7" d="M494.7,68.3c-1.4,6.6-1.4,6.7-1.4,7,0,.6.3.9.9.9s1.3-.3,1.6-.6l.6,2.9c-1,.7-2.2,1.1-3.4,1.1-2.2,0-3.7-1.5-3.7-3.6s.1-1.3,1.5-7.8h-2l.7-3.3h2l.8-3.9h3.9l-.8,3.9h3.1l-.7,3.3h-3.1Z"/>
            </g>
            <g class="cls-4">
              <g class="cls-4">
                <path class="cls-8" d="M327.9,60.2h2.8l6.7,12.6,6.7-12.6h2.8v19.2h-2.8v-13.7l-6.7,12.6-6.7-12.6v13.7h-2.8v-19.2Z"/>
                <path class="cls-8" d="M350.8,72.2c0-4.1,3.5-7.6,7.6-7.6s7.6,3.4,7.6,7.6-3.5,7.6-7.6,7.6-7.6-3.5-7.6-7.6ZM363.2,72.2c0-2.8-2.2-5.2-4.8-5.2s-4.9,2.4-4.9,5.2,2.2,5.2,4.9,5.2,4.8-2.4,4.8-5.2Z"/>
                <path class="cls-8" d="M377,78.7c-.8.6-1.8,1-2.9,1-2.2,0-3.8-1.6-3.8-3.9v-8.5h-2.2v-2.4h2.2v-4h2.7v4h3.4v2.4h-3.4v8.3c0,1,.7,1.7,1.5,1.7s1.2-.2,1.5-.5l1,1.9Z"/>
                <path class="cls-8" d="M379.1,72.2c0-4.1,3.5-7.6,7.6-7.6s7.6,3.4,7.6,7.6-3.5,7.6-7.6,7.6-7.6-3.5-7.6-7.6ZM391.5,72.2c0-2.8-2.2-5.2-4.8-5.2s-4.9,2.4-4.9,5.2,2.2,5.2,4.9,5.2,4.8-2.4,4.8-5.2Z"/>
                <path class="cls-8" d="M405.8,64.6v2.4c-3,0-5.1,1.7-5.4,4.2v8.2h-2.8v-14.5h2.8v2.8c.9-1.9,2.9-3.1,5.4-3.1Z"/>
              </g>
            </g>
          </g>
        </g>
        <g>
          <g>
            <rect class="cls-7" x="826.7" y="67.9" width="19" height="2.2" rx="1" ry="1"/>
            <rect class="cls-7" x="820.9" y="72.7" width="24.9" height="2.2" rx="1" ry="1"/>
            <rect class="cls-7" x="811.1" y="73" width="7.6" height="2.2" rx="1" ry="1"/>
            <rect class="cls-7" x="822.1" y="77.6" width="7.6" height="2.2" rx="1" ry="1"/>
            <rect class="cls-7" x="832.4" y="77.6" width="13.7" height="2.2" rx="1" ry="1"/>
          </g>
          <g>
            <g>
              <path class="cls-7" d="M955.1,72.8l4,6.6h-4.6l-3.7-6.2h-3.1l-1.3,6.2h-4.1l4-19.1h8.4c3.6,0,6.1,2.2,6.1,5.4s-2.3,6-5.7,7h0ZM948.5,69.4h4.1c2.1,0,4.1-1.7,4.1-3.4s-1.1-1.9-2.8-1.9h-4.2l-1.1,5.4h0Z"/>
              <path class="cls-7" d="M960.9,73.4c0-4.8,4.5-8.7,9.2-8.7s6.5,2.8,6.5,6.3-4.5,8.7-9.2,8.7-6.5-2.8-6.5-6.3h0ZM972.9,71.1c0-1.7-1.3-3-3.1-3-2.7,0-5.1,2.5-5.1,5.2s1.3,3,3,3c2.7,0,5.2-2.5,5.2-5.2h0Z"/>
              <path class="cls-7" d="M977.4,73.4c0-4.7,4.5-8.7,9.2-8.7s4.2,1.1,5.2,2.6l-3,2.1c-.5-.7-1.6-1.2-2.6-1.2-2.7,0-5.1,2.5-5.1,5.2s1.3,3,3,3,2.5-.6,3.4-1.5l2.4,2.5c-1.7,1.6-3.8,2.4-6.2,2.4-3.7,0-6.5-2.8-6.5-6.3h.2Z"/>
              <path class="cls-7" d="M1001,71.4l3.8,8h-4.5l-2.4-5.4-2.2,1.9-.7,3.5h-4.1l4-19.4h4.1l-2.3,11.2,6.5-6.1h4.7l-6.9,6.3h0Z"/>
              <path class="cls-7" d="M1010,73.5h0c0,1.8.9,2.6,2.6,2.6s2.8-.5,3.9-1.4l2.2,2.9c-1.5,1.3-3.8,2.1-6.2,2.1-3.8,0-6.3-2.4-6.3-6s4.1-9,8.8-9,5.4,1.6,5.4,3.9-2.6,5-7,4.9h-3.5.1ZM1010.8,70.6h3.2c1.6,0,2.5-.5,2.5-1.2s-.7-1.1-1.6-1.1c-1.8,0-3.3.9-4.1,2.3h0Z"/>
              <path class="cls-7" d="M1027.2,68.3c-1.4,6.6-1.4,6.7-1.4,7,0,.6.3.9.9.9s1.3-.3,1.6-.6l.6,2.9c-1,.7-2.2,1.1-3.4,1.1-2.2,0-3.7-1.5-3.7-3.6s.1-1.3,1.5-7.8h-2l.7-3.3h2l.8-3.9h3.9l-.8,3.9h3.1l-.7,3.3h-3.1Z"/>
            </g>
            <g class="cls-4">
              <g class="cls-4">
                <path class="cls-8" d="M870,60.3v19.2h-2.8v-8.5h-10.5v8.5h-2.8v-19.2h2.8v8.1h10.5v-8.1h2.8Z"/>
                <path class="cls-8" d="M884.9,75.8l1.7,1.8c-1.3,1.4-3.8,2.2-5.9,2.2-4,0-7.4-3.2-7.4-7.6s3.2-7.5,7.2-7.5,7,3.4,7,8.5h-11.4c.4,2.4,2.1,4.1,4.6,4.1s3.3-.7,4.1-1.6ZM876.2,71h8.7c-.3-2.2-1.7-3.9-4.2-3.9s-4.1,1.5-4.5,3.9Z"/>
                <path class="cls-8" d="M902.9,70.7v8.8h-2.7v-2c-1.1,1.5-3.1,2.3-4.8,2.3-3.1,0-5.3-1.8-5.3-4.6s2.6-4.8,5.8-4.8,3,.3,4.4.8v-.4c0-1.8-.8-3.8-3.7-3.8s-2.8.6-4.1,1.2l-1-2c2.1-1,3.9-1.5,5.5-1.5,3.9,0,6,2.5,6,6ZM900.1,75v-1.9c-1.2-.4-2.5-.6-3.9-.6s-3.6,1.1-3.6,2.7,1.4,2.5,3.2,2.5,3.8-.9,4.3-2.7Z"/>
                <path class="cls-8" d="M906.9,59.9h2.7v19.6h-2.7v-19.6Z"/>
                <path class="cls-8" d="M921.4,78.8c-.8.6-1.8,1-2.9,1-2.2,0-3.8-1.6-3.8-3.9v-8.5h-2.2v-2.4h2.2v-4h2.7v4h3.4v2.4h-3.4v8.3c0,1,.7,1.7,1.5,1.7s1.2-.2,1.5-.5l1,1.9Z"/>
                <path class="cls-8" d="M937.1,70.3v9.2h-2.7v-8.7c0-2.2-1.4-3.7-3.3-3.7s-4,1.5-4,3.4v9h-2.7v-19.6h2.7v7.3c.9-1.5,2.6-2.5,4.6-2.5,3.2,0,5.4,2.3,5.4,5.6Z"/>
              </g>
            </g>
          </g>
        </g>
        <g>
          <g>
            <rect class="cls-7" x="545.9" y="68.2" width="19" height="2.2" rx="1" ry="1"/>
            <rect class="cls-7" x="540.1" y="73" width="24.9" height="2.2" rx="1" ry="1"/>
            <rect class="cls-7" x="530.3" y="73.3" width="7.6" height="2.2" rx="1" ry="1"/>
            <rect class="cls-7" x="541.3" y="77.9" width="7.6" height="2.2" rx="1" ry="1"/>
            <rect class="cls-7" x="551.6" y="77.9" width="13.7" height="2.2" rx="1" ry="1"/>
          </g>
          <g>
            <g>
              <path class="cls-7" d="M704.7,73.1l4,6.6h-4.6l-3.7-6.2h-3.1l-1.3,6.2h-4.1l4-19.1h8.4c3.6,0,6.1,2.2,6.1,5.4s-2.3,6-5.7,7h0ZM698.1,69.7h4.1c2.1,0,4.1-1.7,4.1-3.4s-1.1-1.9-2.8-1.9h-4.2l-1.1,5.4h0Z"/>
              <path class="cls-7" d="M710.5,73.7c0-4.8,4.5-8.7,9.2-8.7s6.5,2.8,6.5,6.3-4.5,8.7-9.2,8.7-6.5-2.8-6.5-6.3h0ZM722.5,71.4c0-1.7-1.3-3-3.1-3-2.7,0-5.1,2.5-5.1,5.2s1.3,3,3,3c2.7,0,5.2-2.5,5.2-5.2h0Z"/>
              <path class="cls-7" d="M727,73.7c0-4.7,4.5-8.7,9.2-8.7s4.2,1.1,5.2,2.6l-3,2.1c-.5-.7-1.6-1.2-2.6-1.2-2.7,0-5.1,2.5-5.1,5.2s1.3,3,3,3,2.5-.6,3.4-1.5l2.4,2.5c-1.7,1.6-3.8,2.4-6.2,2.4-3.7,0-6.5-2.8-6.5-6.3h.2Z"/>
              <path class="cls-7" d="M750.6,71.7l3.8,8h-4.5l-2.4-5.4-2.2,1.9-.7,3.5h-4.1l4-19.4h4.1l-2.3,11.2,6.5-6.1h4.7l-6.9,6.3h0Z"/>
              <path class="cls-7" d="M759.6,73.8h0c0,1.8.9,2.6,2.6,2.6s2.8-.5,3.9-1.4l2.2,2.9c-1.5,1.3-3.8,2.1-6.2,2.1-3.8,0-6.3-2.4-6.3-6s4.1-9,8.8-9,5.4,1.6,5.4,3.9-2.6,5-7,4.9h-3.5.1ZM760.4,70.9h3.2c1.6,0,2.5-.5,2.5-1.2s-.7-1.1-1.6-1.1c-1.8,0-3.3.9-4.1,2.3h0Z"/>
              <path class="cls-7" d="M776.8,68.6c-1.4,6.6-1.4,6.7-1.4,7,0,.6.3.9.9.9s1.3-.3,1.6-.6l.6,2.9c-1,.7-2.2,1.1-3.4,1.1-2.2,0-3.7-1.5-3.7-3.6s.1-1.3,1.5-7.8h-2l.7-3.3h2l.8-3.9h3.9l-.8,3.9h3.1l-.7,3.3h-3.1Z"/>
            </g>
            <g class="cls-4">
              <g class="cls-4">
                <path class="cls-8" d="M573,60.6h9.1c3.2,0,5.5,2,5.5,4.8s-1,3.3-2.7,4.3c2.2,1.1,3.5,2.8,3.5,5,0,3.1-2.5,5.2-5.9,5.2h-9.5v-19.2ZM581.4,68.6c1.9,0,3.3-1.1,3.3-2.7s-1.4-2.8-3.3-2.8h-5.6v5.5h5.6ZM581.8,77.3c2.2,0,3.7-1.3,3.7-3.2s-1.5-3.2-3.7-3.2h-6v6.3h6Z"/>
                <path class="cls-8" d="M604.6,65.3v14.5h-2.8v-2.1c-.9,1.4-2.6,2.4-4.6,2.4-3.2,0-5.4-2.3-5.4-5.6v-9.2h2.7v8.7c0,2.2,1.4,3.7,3.3,3.7s3.8-1.3,4-3v-9.4h2.8Z"/>
                <path class="cls-8" d="M607.7,78l1.3-2c1.5,1.1,3.2,1.8,4.9,1.8s2.7-.8,2.7-1.9-1.5-1.8-3.3-2.3c-3.3-.9-5-1.9-5-4.2,0-2.7,2.2-4.4,5.3-4.4s3.8.6,5.3,1.7l-1.2,2c-1.4-.9-2.9-1.3-4.1-1.3s-2.5.6-2.5,1.7.9,1.5,3.3,2.2c2.4.7,4.9,1.5,4.9,4.4s-2.3,4.5-5.5,4.5-4.5-.8-6.2-2.2Z"/>
                <path class="cls-8" d="M622.3,61.2c0-.9.7-1.7,1.7-1.7s1.7.8,1.7,1.7-.8,1.7-1.7,1.7-1.7-.8-1.7-1.7ZM622.5,65.3h2.8v14.5h-2.8v-14.5Z"/>
                <path class="cls-8" d="M642.1,70.6v9.2h-2.7v-8.7c0-2.2-1.4-3.7-3.3-3.7s-3.8,1.3-4,3v9.4h-2.8v-14.5h2.8v2.1c.9-1.4,2.6-2.4,4.6-2.4,3.2,0,5.4,2.3,5.4,5.6Z"/>
                <path class="cls-8" d="M656.9,76.1l1.7,1.8c-1.3,1.4-3.8,2.2-5.9,2.2-4,0-7.4-3.2-7.4-7.6s3.2-7.5,7.2-7.5,7,3.4,7,8.5h-11.4c.4,2.4,2.1,4.1,4.6,4.1s3.3-.7,4.1-1.6ZM648.1,71.3h8.7c-.3-2.2-1.7-3.9-4.2-3.9s-4.1,1.5-4.5,3.9Z"/>
                <path class="cls-8" d="M661.8,78l1.3-2c1.5,1.1,3.2,1.8,4.9,1.8s2.7-.8,2.7-1.9-1.5-1.8-3.3-2.3c-3.3-.9-5-1.9-5-4.2,0-2.7,2.2-4.4,5.3-4.4s3.8.6,5.3,1.7l-1.2,2c-1.4-.9-2.9-1.3-4.1-1.3s-2.5.6-2.5,1.7.9,1.5,3.3,2.2c2.4.7,4.9,1.5,4.9,4.4s-2.3,4.5-5.5,4.5-4.5-.8-6.2-2.2Z"/>
                <path class="cls-8" d="M675.7,78l1.3-2c1.5,1.1,3.2,1.8,4.9,1.8s2.7-.8,2.7-1.9-1.5-1.8-3.3-2.3c-3.3-.9-5-1.9-5-4.2,0-2.7,2.2-4.4,5.3-4.4s3.8.6,5.3,1.7l-1.2,2c-1.4-.9-2.9-1.3-4.1-1.3s-2.5.6-2.5,1.7.9,1.5,3.3,2.2c2.4.7,4.9,1.5,4.9,4.4s-2.3,4.5-5.5,4.5-4.5-.8-6.2-2.2Z"/>
              </g>
            </g>
          </g>
        </g>
        <g>
          <g>
            <rect class="cls-7" x="1076.9" y="67.9" width="19" height="2.2" rx="1" ry="1"/>
            <rect class="cls-7" x="1071.1" y="72.7" width="24.9" height="2.2" rx="1" ry="1"/>
            <rect class="cls-7" x="1061.3" y="73" width="7.6" height="2.2" rx="1" ry="1"/>
            <rect class="cls-7" x="1072.3" y="77.6" width="7.6" height="2.2" rx="1" ry="1"/>
            <rect class="cls-7" x="1082.6" y="77.6" width="13.7" height="2.2" rx="1" ry="1"/>
          </g>
          <g>
            <g>
              <path class="cls-7" d="M1219.4,72.8l4,6.6h-4.6l-3.7-6.2h-3.1l-1.3,6.2h-4.1l4-19.1h8.4c3.6,0,6.1,2.2,6.1,5.4s-2.3,6-5.7,7h0ZM1212.8,69.4h4.1c2.1,0,4.1-1.7,4.1-3.4s-1.1-1.9-2.8-1.9h-4.2l-1.1,5.4h0Z"/>
              <path class="cls-7" d="M1225.2,73.4c0-4.8,4.5-8.7,9.2-8.7s6.5,2.8,6.5,6.3-4.5,8.7-9.2,8.7-6.5-2.8-6.5-6.3h0ZM1237.2,71.1c0-1.7-1.3-3-3.1-3-2.7,0-5.1,2.5-5.1,5.2s1.3,3,3,3c2.7,0,5.2-2.5,5.2-5.2h0Z"/>
              <path class="cls-7" d="M1241.7,73.4c0-4.7,4.5-8.7,9.2-8.7s4.2,1.1,5.2,2.6l-3,2.1c-.5-.7-1.6-1.2-2.6-1.2-2.7,0-5.1,2.5-5.1,5.2s1.3,3,3,3,2.5-.6,3.4-1.5l2.4,2.5c-1.7,1.6-3.8,2.4-6.2,2.4-3.7,0-6.5-2.8-6.5-6.3h.2Z"/>
              <path class="cls-7" d="M1265.3,71.4l3.8,8h-4.5l-2.4-5.4-2.2,1.9-.7,3.5h-4.1l4-19.4h4.1l-2.3,11.2,6.5-6.1h4.7l-6.9,6.3h0Z"/>
              <path class="cls-7" d="M1274.3,73.5h0c0,1.8.9,2.6,2.6,2.6s2.8-.5,3.9-1.4l2.2,2.9c-1.5,1.3-3.8,2.1-6.2,2.1-3.8,0-6.3-2.4-6.3-6s4.1-9,8.8-9,5.4,1.6,5.4,3.9-2.6,5-7,4.9h-3.5.1ZM1275.1,70.6h3.2c1.6,0,2.5-.5,2.5-1.2s-.7-1.1-1.6-1.1c-1.8,0-3.3.9-4.1,2.3h0Z"/>
              <path class="cls-7" d="M1291.5,68.3c-1.4,6.6-1.4,6.7-1.4,7,0,.6.3.9.9.9s1.3-.3,1.6-.6l.6,2.9c-1,.7-2.2,1.1-3.4,1.1-2.2,0-3.7-1.5-3.7-3.6s.1-1.3,1.5-7.8h-2l.7-3.3h2l.8-3.9h3.9l-.8,3.9h3.1l-.7,3.3h-3.1Z"/>
            </g>
            <g class="cls-4">
              <path class="cls-8" d="M1106.9,62.9v5.6h10.2v2.6h-10.2v8.4h-2.9v-19.2h14.1v2.6h-11.3Z"/>
              <path class="cls-8" d="M1134,65v14.5h-2.8v-2.1c-.9,1.4-2.6,2.4-4.6,2.4-3.2,0-5.4-2.3-5.4-5.6v-9.2h2.7v8.7c0,2.2,1.4,3.7,3.3,3.7s3.8-1.3,4-3v-9.4h2.8Z"/>
              <path class="cls-8" d="M1150.8,70.3v9.2h-2.7v-8.7c0-2.2-1.4-3.7-3.3-3.7s-3.8,1.3-4,3v9.4h-2.8v-14.5h2.8v2.1c.9-1.4,2.6-2.4,4.6-2.4,3.2,0,5.4,2.3,5.4,5.6Z"/>
              <path class="cls-8" d="M1165.6,75.8l1.7,1.8c-1.3,1.4-3.8,2.2-5.9,2.2-4,0-7.4-3.2-7.4-7.6s3.2-7.5,7.2-7.5,7,3.4,7,8.5h-11.4c.4,2.4,2.1,4.1,4.6,4.1s3.3-.7,4.1-1.6ZM1156.8,71h8.7c-.3-2.2-1.7-3.9-4.2-3.9s-4.1,1.5-4.5,3.9Z"/>
              <path class="cls-8" d="M1179.7,64.7v2.4c-3,0-5.1,1.7-5.4,4.2v8.2h-2.8v-14.5h2.8v2.8c.9-1.9,2.9-3.1,5.4-3.1Z"/>
              <path class="cls-8" d="M1194.6,70.7v8.8h-2.7v-2c-1.1,1.5-3.1,2.3-4.8,2.3-3.1,0-5.3-1.8-5.3-4.6s2.6-4.8,5.8-4.8,3,.3,4.4.8v-.4c0-1.8-.8-3.8-3.7-3.8s-2.8.6-4.1,1.2l-1-2c2.1-1,3.9-1.5,5.5-1.5,3.9,0,6,2.5,6,6ZM1191.8,75v-1.9c-1.2-.4-2.5-.6-3.9-.6s-3.6,1.1-3.6,2.7,1.4,2.5,3.2,2.5,3.8-.9,4.3-2.7Z"/>
              <path class="cls-8" d="M1198.6,59.9h2.7v19.6h-2.7v-19.6Z"/>
            </g>
          </g>
        </g>
      </g>
    </g>
  </g>
</svg>