<svg xmlns="http://www.w3.org/2000/svg" xmlns:xlink="http://www.w3.org/1999/xlink" version="1.1" id="Layer_1" x="0px" y="0px" style="enable-background:new 0 0 83 25;" xml:space="preserve" viewBox="15.4 5.98 52.1 13.12">
<style type="text/css">
	.st0{fill:none;}
	.st1{fill:#29357F;}
	.st2{fill:#FFD25A;}
</style>
<rect id="Rectangle_1529" class="st0" width="83" height="25"/>
<g>
	<g>
		<path class="st1" d="M19.4,14.8V11c0-0.4-0.1-0.7-0.4-0.9c-0.2-0.2-0.6-0.3-0.9-0.3c-0.2,0-0.5,0.1-0.7,0.2    c-0.2,0.1-0.4,0.3-0.5,0.4v4.5h-1.5V6.3l1.5-0.3V9c0.4-0.3,0.9-0.5,1.6-0.5c0.8,0,1.4,0.2,1.8,0.6c0.4,0.4,0.6,1.1,0.6,1.9v3.8    H19.4z"/>
		<path class="st1" d="M26.8,14.3c-0.5,0.4-1.2,0.7-2.2,0.7c-0.9,0-1.7-0.3-2.2-0.9c-0.5-0.6-0.8-1.3-0.8-2.3c0-1,0.3-1.8,0.9-2.4    c0.6-0.6,1.3-0.9,2.1-0.9c0.9,0,1.6,0.3,2.1,0.8c0.5,0.5,0.8,1.2,0.8,2.1c0,0.2,0,0.6-0.1,0.9l-4.4,0c0,0.5,0.3,0.9,0.6,1.2    c0.3,0.3,0.7,0.4,1.2,0.4c0.6,0,1.1-0.3,1.5-0.6l0.1-0.1l0.9,0.7C27.2,13.9,27,14.1,26.8,14.3z M22.9,11.3h3.2    c-0.1-1.1-0.6-1.6-1.6-1.6C23.7,9.7,23.1,10.3,22.9,11.3z"/>
		<path class="st1" d="M62,14.3c-0.5,0.4-1.2,0.7-2.2,0.7c-0.9,0-1.7-0.3-2.2-0.9c-0.5-0.6-0.8-1.3-0.8-2.3c0-1,0.3-1.8,0.9-2.4    c0.6-0.6,1.3-0.9,2.1-0.9c0.9,0,1.6,0.3,2.1,0.8c0.5,0.5,0.8,1.2,0.8,2.1c0,0.2,0,0.6-0.1,0.9l-4.4,0c0,0.5,0.3,0.9,0.6,1.2    c0.3,0.3,0.7,0.4,1.2,0.4c0.6,0,1.1-0.3,1.5-0.6l0.1-0.1l0.9,0.7C62.5,13.9,62.3,14.1,62,14.3z M58.1,11.3h3.2    c-0.1-1.1-0.6-1.6-1.6-1.6C58.9,9.7,58.4,10.3,58.1,11.3z"/>
		<path class="st1" d="M51.7,14.3c-0.5,0.4-1.2,0.7-2.2,0.7c-0.9,0-1.7-0.3-2.2-0.9c-0.5-0.6-0.8-1.3-0.8-2.3c0-1,0.3-1.8,0.9-2.4    c0.6-0.6,1.3-0.9,2.1-0.9c0.9,0,1.6,0.3,2.1,0.8c0.5,0.5,0.8,1.2,0.8,2.1c0,0.2,0,0.6-0.1,0.9l-4.4,0c0,0.5,0.3,0.9,0.6,1.2    c0.3,0.3,0.7,0.4,1.2,0.4c0.6,0,1.1-0.3,1.5-0.6l0.1-0.1l0.9,0.7C52.1,13.9,51.9,14.1,51.7,14.3z M47.8,11.3H51    c-0.1-1.1-0.6-1.6-1.6-1.6C48.5,9.7,48,10.3,47.8,11.3z"/>
		<path class="st2" d="M28.7,6L28.7,6c0.5-0.1,0.9,0.2,0.9,0.7v6.3c0,0.4,0.1,0.7,0.2,0.9c0.3,0.5-0.1,1.1-0.6,1.1c0,0,0,0,0,0    c-0.7,0-1-0.5-1-1.4V6.7C28.1,6.3,28.3,6,28.7,6z"/>
		<path class="st2" d="M31.7,6L31.7,6c0.5-0.1,0.9,0.2,0.9,0.7v6.3c0,0.4,0.1,0.7,0.2,0.9c0.3,0.5-0.1,1.1-0.6,1.1c0,0,0,0,0,0    c-0.7,0-1-0.5-1-1.4V6.7C31.1,6.3,31.4,6,31.7,6z"/>
		<path class="st1" d="M33.4,11.7c0-0.9,0.3-1.7,0.8-2.3c0.5-0.6,1.3-0.9,2.2-0.9c0.9,0,1.7,0.3,2.2,0.9c0.5,0.6,0.8,1.4,0.8,2.4    c0,1-0.3,1.8-0.8,2.4C38,14.7,37.3,15,36.4,15c-0.9,0-1.7-0.3-2.2-0.9C33.6,13.5,33.4,12.7,33.4,11.7z M34.9,11.7    c0,1.4,0.5,2.1,1.5,2.1c0.5,0,0.8-0.2,1.1-0.5c0.3-0.4,0.4-0.9,0.4-1.5c0-1.4-0.5-2-1.5-2c-0.5,0-0.8,0.2-1.1,0.5    C35,10.6,34.9,11.1,34.9,11.7z"/>
		<path class="st1" d="M41.6,14.7v2.6h-1.5V8.6h1.5V9c0.4-0.4,0.8-0.5,1.3-0.5c2,0,3,1.1,3,3.3c0,1-0.3,1.8-0.8,2.4    c-0.5,0.5-1.3,0.8-2.2,0.8C42.3,15,41.9,14.9,41.6,14.7z M41.6,10.1v3.3c0.3,0.2,0.6,0.3,0.9,0.3c0.7,0,1.2-0.2,1.4-0.5    c0.3-0.3,0.4-0.8,0.4-1.5c0-0.7-0.1-1.3-0.4-1.6c-0.3-0.3-0.8-0.5-1.4-0.5C42.1,9.7,41.8,9.9,41.6,10.1z"/>
		<path class="st1" d="M53.2,9.8h-0.7V8.6h0.7V7.3l1.5-0.5v1.8h1.7v1.2h-1.7v2.7c0,0.4,0.1,0.8,0.2,0.9c0.1,0.2,0.4,0.3,0.7,0.3    s0.7-0.1,1-0.3v1.3c-0.3,0.1-0.8,0.2-1.4,0.2c-0.6,0-1.1-0.2-1.4-0.5c-0.3-0.4-0.5-0.8-0.5-1.5V9.8z"/>
		<path class="st1" d="M67,10c-0.3-0.2-0.5-0.3-0.9-0.3c-0.3,0-0.6,0.2-0.9,0.5c-0.3,0.3-0.4,0.7-0.4,1.1v3.5h-1.5V8.6h1.5v0.6    c0.4-0.5,0.9-0.7,1.6-0.7c0.5,0,0.9,0.1,1.1,0.2L67,10z"/>
		<g>
			<path class="st2" d="M34.8,16.1c-0.3-0.2-0.7-0.2-0.9,0.1c-0.8,0.9-1.9,1.5-3.2,1.5c-1.3,0-2.4-0.6-3.2-1.5     c-0.2-0.3-0.6-0.3-0.9-0.1h0c-0.3,0.2-0.4,0.7-0.1,1c1,1.2,2.5,2,4.2,2c1.7,0,3.2-0.8,4.3-2C35.1,16.7,35.1,16.3,34.8,16.1     L34.8,16.1z"/>
		</g>
	</g>
</g>
</svg>