<?xml version="1.0" encoding="UTF-8"?>
<svg id="Layer_1" xmlns="http://www.w3.org/2000/svg" version="1.1" viewBox="0 0 383.3 175">
  <!-- Generator: Adobe Illustrator 29.1.0, SVG Export Plug-In . SVG Version: 2.1.0 Build 142)  -->
  <defs>
    <style>
      .st0 {
        fill: #8dc63f;
      }

      .st1 {
        fill: #009677;
      }

      .st2 {
        fill: none;
      }

      .st3 {
        fill: #58595b;
      }
    </style>
  </defs>
  <g>
    <path class="st0" d="M27.8,95.6v-55.9h17.8v55.9h-17.8Z"/>
    <path class="st1" d="M120.4,95.6l-11-35.5-11,35.5h-17.8l-20.4-55.9h18.3l11.5,38.7,11.2-38.7h17.1l11.5,38.7,11.3-38.7h17.5l-20.4,55.9h-17.8Z"/>
    <path class="st1" d="M203.4,101.5c-4.1,10.2-11.2,15.2-21.6,15.2s-11.3-1.8-16.3-5.7l7.5-12.3c2.6,2.1,4.8,3,7.4,3s5.5-1.5,6.9-4.4l1.3-2.8-23.2-54.6h18.5l13.7,37.1,12.1-37.1h17.8l-24.2,61.7h0Z"/>
    <path class="st1" d="M260.7,82.2h28.3v13.5h-50.8v-10.8l27.5-31.6h-26.5v-13.5h48.9v10.8l-27.4,31.6h0Z"/>
    <path class="st1" d="M359.4,72.6h-39.3c1.8,6.7,6.5,10.4,13.2,10.4s9.6-2,13.4-5.7l9.5,9.2c-5.7,6.2-14.1,9.8-24.4,9.8-18.3,0-29.6-11.4-29.6-28.4s11.8-28.8,29.1-28.8,29.4,12.9,28.2,33.4h0ZM342.1,62.9c0-6.9-4.4-11.3-10.8-11.3s-10.5,4.6-11.6,11.3h22.4Z"/>
  </g>
  <circle class="st0" cx="36.8" cy="22.8" r="8.9"/>
  <g>
    <path class="st2" d="M247.4,146.6c0-.6-.2-1.1-.5-1.6-.4-.7-.9-1.2-1.6-1.6s-1.4-.6-2.3-.6-1.6.2-2.3.6-1.2.9-1.6,1.6c-.2.4-.4,1-.5,1.6h8.7Z"/>
    <path class="st2" d="M318.6,143.6c-.7-.4-1.5-.6-2.3-.6s-1.6.2-2.3.6-1.2,1-1.6,1.6c-.4.7-.6,1.6-.6,2.5s.2,1.8.6,2.5c.4.7,1,1.3,1.6,1.6.7.4,1.4.6,2.3.6s1.6-.2,2.4-.6c.7-.4,1.2-1,1.6-1.6.4-.7.6-1.6.6-2.5s-.2-1.8-.6-2.5c-.4-.7-1-1.3-1.6-1.6h0Z"/>
    <path class="st2" d="M177.7,146.6c0-.6-.2-1.1-.5-1.6-.4-.7-.9-1.2-1.6-1.6-.7-.4-1.4-.6-2.3-.6s-1.6.2-2.3.6c-.7.4-1.2.9-1.6,1.6-.2.4-.4,1-.5,1.6h8.7Z"/>
    <path class="st2" d="M53.6,148.9h-3.7c-1.2,0-2,.2-2.4.6s-.6.9-.6,1.4.2,1.2.7,1.6,1.3.6,2.1.6,1.6-.2,2.4-.6c.7-.4,1.2-1,1.5-1.8v-1.8h0Z"/>
    <path class="st2" d="M127.6,143.6c-.7-.4-1.5-.6-2.3-.6s-1.6.2-2.3.6c-.7.4-1.2,1-1.6,1.6-.4.7-.6,1.6-.6,2.5s.2,1.8.6,2.5c.4.7,1,1.3,1.6,1.6s1.4.6,2.3.6,1.6-.2,2.4-.6c.7-.4,1.2-1,1.6-1.6.4-.7.6-1.6.6-2.5s-.2-1.8-.6-2.5c-.4-.7-1-1.3-1.6-1.6h0Z"/>
    <path class="st2" d="M350.4,146.6c0-.6-.2-1.1-.5-1.6-.4-.7-.9-1.2-1.6-1.6s-1.4-.6-2.3-.6-1.6.2-2.3.6-1.2.9-1.6,1.6c-.2.4-.4,1-.5,1.6h8.7Z"/>
    <path class="st3" d="M32.5,143.6c.7-.4,1.5-.6,2.4-.6s1.5.1,2.1.5,1.2.9,1.7,1.6l2.7-1.6c-.6-1.2-1.5-2.1-2.6-2.7s-2.4-.9-3.9-.9-3,.3-4.3,1c-1.3.7-2.2,1.6-2.9,2.7-.7,1.2-1,2.5-1,4s.4,2.8,1,4c.7,1.2,1.7,2.1,2.9,2.8,1.3.7,2.7,1,4.3,1s2.8-.3,3.9-1c1.1-.6,2-1.5,2.6-2.7l-2.7-1.6c-.4.7-1,1.3-1.7,1.6s-1.3.5-2.1.5-1.6-.2-2.4-.6-1.3-1-1.6-1.6c-.4-.7-.6-1.6-.6-2.5s.2-1.8.6-2.5c.4-.7,1-1.3,1.6-1.6h0Z"/>
    <path class="st3" d="M55.4,141.6c-1.2-1-2.9-1.6-5.1-1.6s-2.4.1-3.5.4-2.1.8-2.9,1.4l1.4,2.6c.6-.4,1.3-.8,2.1-1.1s1.7-.4,2.5-.4c1.3,0,2.2.3,2.8.9s1,1.4,1,2.4v.2h-3.9c-1.6,0-2.7.2-3.7.6s-1.6,1-2,1.6c-.4.7-.6,1.5-.6,2.3s.2,1.6.7,2.4c.4.7,1.1,1.3,2,1.6s1.8.6,3,.6,2.4-.2,3.3-.7c.6-.4,1.1-.8,1.4-1.3v1.8h3.3v-8.9c0-2.2-.6-3.8-1.8-4.9h0ZM52.1,152.4c-.7.4-1.5.6-2.4.6s-1.6-.2-2.1-.6-.7-.9-.7-1.6.2-1,.6-1.4c.4-.4,1.3-.6,2.4-.6h3.7v1.8c-.3.8-.8,1.3-1.5,1.8h0Z"/>
    <path class="st3" d="M65.1,142.4v-2.2h-3.4v15.2h3.5v-7.4c0-1.6.4-2.7,1.2-3.5s1.8-1.2,3.3-1.2.3,0,.4,0h.4v-3.4c-1.5,0-2.7.3-3.6.8-.7.4-1.3,1-1.8,1.6h0Z"/>
    <path class="st3" d="M85.5,144.8c-.4-.3-1-.4-1.6-.4s-1,.1-1.5.4-.8.7-1.1,1.1-.4,1-.4,1.6.1,1.1.4,1.6c.3.4.7.8,1.1,1.1s1,.4,1.5.4,1.1-.1,1.6-.4c.4-.3.8-.7,1.1-1.1s.4-1,.4-1.6-.1-1.1-.4-1.6-.7-.8-1.1-1.1Z"/>
    <path class="st3" d="M110.8,140.7c-1-.4-2.1-.7-3.3-.7s-2.5.3-3.5.8c-.6.3-1.1.7-1.6,1.2v-7.7h-3.5v21.1h3.5v-7.7c0-1,.1-1.8.5-2.5s.8-1.2,1.5-1.6,1.4-.5,2.2-.5,2,.3,2.7,1,1,1.7,1,3v8.3h3.5v-8.7c0-1.6-.3-2.8-.8-3.8-.5-1-1.3-1.7-2.3-2.1h0Z"/>
    <path class="st3" d="M129.5,141c-1.3-.7-2.6-1-4.2-1s-3,.3-4.1,1-2.1,1.6-2.9,2.7c-.7,1.2-1,2.5-1,4s.4,2.8,1,4c.7,1.2,1.6,2.1,2.9,2.8,1.2.7,2.6,1,4.1,1s3-.4,4.2-1,2.2-1.6,2.9-2.8,1-2.5,1-4-.4-2.9-1-4.1-1.6-2.1-2.9-2.7h0ZM129.2,150.3c-.4.7-1,1.3-1.6,1.6s-1.5.6-2.4.6-1.6-.2-2.3-.6c-.7-.4-1.2-1-1.6-1.6-.4-.7-.6-1.6-.6-2.5s.2-1.8.6-2.5c.4-.7,1-1.3,1.6-1.6s1.5-.6,2.3-.6,1.6.2,2.3.6c.7.4,1.2,1,1.6,1.6.4.7.6,1.6.6,2.5s-.2,1.8-.6,2.5h0Z"/>
    <path class="st3" d="M159.2,140.7c-1-.4-2-.7-3.3-.7s-2.8.4-4,1c-.7.4-1.3,1-1.7,1.6-.4-.6-.8-1.1-1.4-1.6-1-.7-2.3-1-3.7-1s-2.4.2-3.3.7c-.7.4-1.2.8-1.6,1.3v-1.9h-3.4v15.2h3.5v-7.7c0-1,.1-1.8.5-2.5s.8-1.2,1.4-1.5,1.3-.5,2.1-.5,1.9.3,2.5,1c.6.7.9,1.7.9,3v8.3h3.5v-7.7c0-1,.1-1.8.5-2.5.3-.7.8-1.2,1.4-1.5.6-.4,1.3-.5,2.1-.5s1.9.3,2.5,1c.6.7.9,1.7.9,3v8.3h3.5v-8.7c0-1.6-.3-2.8-.8-3.8-.5-1-1.3-1.7-2.2-2.1h0Z"/>
    <path class="st3" d="M177.3,141c-1.2-.7-2.4-1-4-1s-2.9.3-4.1,1-2.1,1.6-2.8,2.7c-.7,1.2-1,2.5-1,4s.4,2.8,1,4c.7,1.2,1.7,2.1,3,2.8,1.3.7,2.7,1,4.4,1s2.5-.2,3.5-.7,1.9-1,2.6-1.8l-1.9-2.2c-.5.6-1.1,1-1.8,1.3-.7.3-1.5.4-2.3.4s-1.8-.2-2.6-.6-1.3-.9-1.8-1.6c-.3-.4-.4-1-.5-1.5h11.9v-1c0-1.6-.3-3-1-4.1-.7-1.2-1.6-2.1-2.7-2.7h0ZM169.6,145c.4-.7.9-1.2,1.6-1.6.7-.4,1.4-.6,2.3-.6s1.6.2,2.3.6c.7.4,1.2.9,1.6,1.6.3.4.4,1,.5,1.6h-8.6c0-.6.2-1.1.5-1.6h0Z"/>
    <path class="st3" d="M196.3,144.8c-.4-.3-1-.4-1.6-.4s-1,.1-1.5.4-.8.7-1.1,1.1-.4,1-.4,1.6.1,1.1.4,1.6c.3.4.7.8,1.1,1.1s1,.4,1.5.4,1.1-.1,1.6-.4c.4-.3.8-.7,1.1-1.1s.4-1,.4-1.6-.1-1.1-.4-1.6c-.3-.4-.7-.8-1.1-1.1Z"/>
    <rect class="st3" x="209.8" y="134.3" width="3.5" height="21.1"/>
    <rect class="st3" x="218" y="140.2" width="3.5" height="15.2"/>
    <path class="st3" d="M219.8,133.4c-.7,0-1.2.2-1.6.6-.4.4-.7.9-.7,1.6s.2,1.1.7,1.5c.4.4,1,.6,1.6.6s1.3-.2,1.6-.7c.4-.4.6-1,.6-1.6s-.2-1.1-.7-1.5-1-.6-1.6-.6h0Z"/>
    <path class="st3" d="M230.7,137.5c.4-.4,1-.6,1.7-.6s.7,0,1,.1c.4,0,.7.3.9.4l1-2.7c-.4-.3-.8-.5-1.4-.6-.6-.1-1.2-.2-1.8-.2-1.8,0-3.1.4-4,1.4-1,1-1.4,2.2-1.4,3.8v1h-2.5v2.8h2.5v12.3h3.5v-12.3h4.1v-2.8h-4.2v-.9c0-.8.2-1.4.6-1.8h0Z"/>
    <path class="st3" d="M247.1,141c-1.2-.7-2.4-1-4-1s-2.9.3-4.1,1-2.1,1.6-2.8,2.7c-.7,1.2-1,2.5-1,4s.4,2.8,1,4c.7,1.2,1.7,2.1,3,2.8,1.3.7,2.7,1,4.4,1s2.5-.2,3.5-.7c1-.4,1.9-1,2.6-1.8l-1.9-2.2c-.5.6-1.1,1-1.8,1.3-.7.3-1.5.4-2.3.4s-1.8-.2-2.6-.6-1.3-.9-1.8-1.6c-.3-.4-.4-1-.5-1.5h11.9v-1c0-1.6-.3-3-1-4.1s-1.6-2.1-2.7-2.7h0ZM239.3,145c.4-.7.9-1.2,1.6-1.6s1.4-.6,2.3-.6,1.6.2,2.3.6,1.2.9,1.6,1.6c.3.4.4,1,.5,1.6h-8.6c0-.6.2-1.1.5-1.6h0Z"/>
    <path class="st3" d="M266,144.8c-.4-.3-1-.4-1.6-.4s-1,.1-1.5.4c-.4.3-.8.7-1.1,1.1s-.4,1-.4,1.6.1,1.1.4,1.6c.3.4.7.8,1.1,1.1s1,.4,1.5.4,1.1-.1,1.6-.4c.4-.3.8-.7,1.1-1.1s.4-1,.4-1.6-.1-1.1-.4-1.6-.7-.8-1.1-1.1Z"/>
    <path class="st3" d="M301.8,140.7c-1-.4-2-.7-3.3-.7s-2.8.4-4,1c-.7.4-1.3,1-1.7,1.6-.4-.6-.8-1.1-1.4-1.6-1-.7-2.3-1-3.7-1s-2.4.2-3.3.7c-.7.4-1.2.8-1.6,1.3v-1.9h-3.4v15.2h3.5v-7.7c0-1,.1-1.8.5-2.5s.8-1.2,1.4-1.5,1.3-.5,2.1-.5,1.9.3,2.5,1c.6.7.9,1.7.9,3v8.3h3.5v-7.7c0-1,.1-1.8.5-2.5.3-.7.8-1.2,1.4-1.5.6-.4,1.3-.5,2.1-.5s1.9.3,2.5,1c.6.7.9,1.7.9,3v8.3h3.5v-8.7c0-1.6-.3-2.8-.8-3.8s-1.3-1.7-2.2-2.1h0Z"/>
    <path class="st3" d="M320.5,141c-1.3-.7-2.6-1-4.2-1s-3,.3-4.1,1-2.1,1.6-2.9,2.7c-.7,1.2-1,2.5-1,4s.4,2.8,1,4c.7,1.2,1.6,2.1,2.9,2.8,1.2.7,2.6,1,4.1,1s3-.4,4.2-1,2.2-1.6,2.9-2.8,1-2.5,1-4-.4-2.9-1-4.1-1.6-2.1-2.9-2.7h0ZM320.2,150.3c-.4.7-1,1.3-1.6,1.6-.7.4-1.5.6-2.4.6s-1.6-.2-2.3-.6-1.2-1-1.6-1.6c-.4-.7-.6-1.6-.6-2.5s.2-1.8.6-2.5c.4-.7,1-1.3,1.6-1.6.7-.4,1.5-.6,2.3-.6s1.6.2,2.3.6,1.2,1,1.6,1.6c.4.7.6,1.6.6,2.5s-.2,1.8-.6,2.5h0Z"/>
    <path class="st3" d="M331.2,142.4v-2.2h-3.4v15.2h3.5v-7.4c0-1.6.4-2.7,1.2-3.5s1.8-1.2,3.3-1.2.3,0,.4,0h.4v-3.4c-1.5,0-2.7.3-3.6.8-.7.4-1.3,1-1.8,1.6h0Z"/>
    <path class="st3" d="M352.8,143.7c-.7-1.2-1.6-2.1-2.7-2.7s-2.4-1-4-1-2.9.3-4.1,1-2.1,1.6-2.8,2.7c-.7,1.2-1,2.5-1,4s.4,2.8,1,4c.7,1.2,1.7,2.1,3,2.8,1.3.7,2.7,1,4.4,1s2.5-.2,3.5-.7,1.9-1,2.6-1.8l-1.9-2.2c-.5.6-1.1,1-1.8,1.3-.7.3-1.5.4-2.3.4s-1.8-.2-2.6-.6-1.3-.9-1.8-1.6c-.3-.4-.4-1-.5-1.5h11.9v-1c0-1.6-.3-3-1-4.1h0ZM342.2,145c.4-.7.9-1.2,1.6-1.6s1.4-.6,2.3-.6,1.6.2,2.3.6,1.2.9,1.6,1.6c.3.4.4,1,.5,1.6h-8.6c0-.6.2-1.1.5-1.6h0Z"/>
  </g>
</svg>