<?xml version="1.0" encoding="UTF-8"?>
<svg id="Layer_1" data-name="Layer 1" xmlns="http://www.w3.org/2000/svg" viewBox="0 0 150 60">
  <defs>
    <style>
      .cls-1, .cls-2 {
        fill: #a9121c;
      }

      .cls-2 {
        fill-rule: evenodd;
      }
    </style>
  </defs>
  <g>
    <path class="cls-2" d="m41.04,20.5c-.76.9-.76,1.26-.03,1.99.88.88,2.55.71,3.36-.34.81-1.05-.17-2.37-1.75-2.37-.79,0-1.08.13-1.57.72Z"/>
    <path class="cls-2" d="m110.42,23.08c1.88,0,2.96-1.68,1.82-2.83-.64-.64-2.09-.63-2.91.02-1.27,1-.57,2.81,1.09,2.81Z"/>
    <path class="cls-2" d="m137.31,29.9c-.3-.25-.55-.09-1.59.99-2.32,2.41-5.31,3.96-7.67,3.96-1.56,0-2.39-.64-2.39-1.84,0-.48.08-.98.18-1.13.1-.15,1.16-.31,2.41-.38,3.39-.17,5.15-1.1,6.53-3.45,1.67-2.83.04-4.98-3.57-4.69-3.43.28-6.98,3.35-8.42,7.29-.42,1.16-.68,1.48-1.74,2.19-3.52,2.33-7.29,2.66-7.78.68-.44-1.76,2.38-6.49,4.47-7.48,1.68-.8,2.24-.28,1.43,1.29-.67,1.3,0,1.99,1.8,1.82.66-.06.89-.25,1.37-1.12,1.48-2.69.12-4.76-3.09-4.71-.68.01-1.51.1-1.83.2-3.2.98-6.79,4.95-7.45,8.23-.25,1.26-3.03,3.36-3.98,3-.72-.28-.24-1.61,2.01-5.58,1.29-2.27,2.1-3.94,2.01-4.16-.23-.59-2.5-.25-3.51.51-1.51,1.15-4.48,1.03-4.74-.2-.06-.27-.14-.76-.17-1.09-.06-.52-.19-.6-1.18-.66-.61-.04-1.32.04-1.57.17-.25.13-.85.96-1.34,1.84-.49.88-2.04,3.59-3.46,6.04-2.79,4.81-2.8,4.85-1,4.85,1.65,0,2.17-.53,4.59-4.8l2.24-3.93.82.19c.45.1,1.54.19,2.41.19s1.59.08,1.59.18c0,.1-.52,1.19-1.16,2.42-1.36,2.64-1.62,3.77-1.1,4.77.84,1.63,3.33,1.61,6.08-.04l1.33-.8.86.78c1.06.97,2.88,1.4,4.98,1.19,1.78-.18,3.01-.6,5.02-1.7.85-.47,1.56-.73,1.61-.59.18.54,1.07,1.48,1.74,1.82.39.2,1.41.42,2.27.49,3.22.26,6.78-1.16,9.7-3.86,1.69-1.56,2.01-2.29,1.29-2.89Zm-9.57-1.55c.84-1.14,1.59-1.84,2.5-2.31.89-.46,1.39-.47,1.77-.01.38.45.1,1.12-.98,2.35-.89,1.02-1.94,1.52-3.13,1.52-1.03,0-1.06-.32-.16-1.55Z"/>
    <path class="cls-2" d="m96.22,25.08c.4-.69.58-1.43.66-2.76.1-1.63.04-1.96-.53-3.12-.75-1.52-2.12-2.68-4.1-3.44-1.88-.73-6.36-.86-8.43-.24-4.85,1.43-8.09,4.91-8.09,8.7,0,1.55.48,3.11.96,3.11.55,0,1.81-.96,1.95-1.47.08-.29.08-.9,0-1.36-.24-1.52,1.1-3.91,2.95-5.27,1.62-1.19,3.63-1.78,5.96-1.76,2.67.02,4.29.71,5.34,2.24,1.68,2.44.3,6.06-2.91,7.64-1.39.69-1.67.74-3.4.66-1.04-.05-2.01-.21-2.16-.35-.44-.44,2.78-5.7,4-6.54,1.1-.76,1.22-1.36.38-1.91-1.17-.77-3.62.49-4.92,2.54-2.41,3.78-8.18,14.16-8.05,14.48.21.54,2.6.26,3.29-.39.28-.27,1.24-1.76,2.13-3.31.98-1.72,1.76-2.82,1.98-2.82.2,0,1.16.17,2.13.37,4.43.93,8.45-.91,10.82-4.96Z"/>
    <path class="cls-2" d="m72.88,31.28c-1.68,1.69-3.35,2.94-4.97,3.71-.48.23-.93.36-1,.28-.12-.12,5.56-10.15,6.04-10.66.12-.12.21-.41.21-.65,0-.35-.2-.42-1.19-.42-1.28,0-2.41.45-2.79,1.12-.22.38-.26.37-.61-.12-.97-1.36-3.23-1.63-5.25-.63-1.78.89-3.58,3-5.02,5.9-1.27,2.55-2.48,3.95-4.1,4.72-.64.3-.93.34-1.24.14-.61-.4-.4-1.15,1.06-3.72,2.36-4.16,2.66-4.82,2.66-5.77,0-.71-.14-1.02-.65-1.42-.55-.44-.86-.5-2.07-.4-.78.06-1.86.34-2.4.61-1.21.62-1.24.62-1.24.03,0-.41-.16-.47-1.19-.47-2.02,0-2.31.29-4.83,4.72-1.66,2.92-2.58,4.28-3.37,4.97-1.96,1.73-3.32,2.05-3.32.79,0-.71.57-1.88,2.81-5.73.91-1.57,1.66-3.02,1.66-3.21,0-.27-.26-.36-1.02-.36-2.21,0-2.25.04-5.12,5.14-1.55,2.76-3.31,4.75-4.19,4.75-1.22,0-1.47-1.22-.83-4.05.43-1.9.32-3.06-.38-4.01-.46-.62-.46-.67-.07-.8,2.85-.97,4.41-2.24,6.32-5.17,1.36-2.09,2.23-2.92,3.07-2.92.92,0,1.71-.5,1.97-1.25.14-.39.19-.77.13-.83-.21-.21-2.56-.25-3.41-.07-2.07.45-3.35,1.56-4.82,4.15-1.6,2.83-3.34,4.26-5.51,4.51-.94.11-1.23.07-1.33-.22-.08-.21.67-1.62,1.86-3.5,1.14-1.79,1.91-3.24,1.8-3.36-.43-.44-6.9.71-11.01,1.95-4.57,1.38-6.76,5-4.59,7.59.74.88,2.22,1.61,3.29,1.62.62,0,.79-.1.91-.6.21-.83-.21-1.65-1.07-2.09-1.39-.72-1.16-2.41.47-3.46.52-.33,2.02-.9,3.35-1.25s2.59-.69,2.82-.75c.23-.06.41-.01.41.11,0,.46-6.35,11.16-7.28,12.27-1.74,2.08-4.73,2.99-6.61,2.02-2.49-1.29-1.56-4.38,1.47-4.93.77-.14.88-.24.88-.82,0-2.07-3.18-1.83-5.35.41-2.43,2.5-1.71,6.17,1.49,7.6,2.42,1.08,5.99.68,8.5-.94,2-1.29,3.26-2.84,5.36-6.59,1.03-1.83,2.02-3.33,2.2-3.33.54,0,1.64,1.27,1.9,2.19.17.63.15,1.29-.1,2.45-.61,2.92-.31,4.49,1.03,5.44,1.2.85,2.64.91,4.15.17l1.29-.63.74.54c1.01.75,3.21.74,4.65,0l1.01-.53.61.48c.67.53,1.29.61,1.96.25.24-.13,1.58-2.2,2.97-4.61,2.38-4.11,2.6-4.42,3.72-5.06,1.51-.86,2.44-1.08,2.85-.66.26.26.24.46-.11,1.14-.23.45-1.07,2.08-1.87,3.62-1.65,3.19-1.82,4.17-.88,5.26.52.61.7.66,2.18.65,1.6-.01,2.84-.47,4.46-1.65.47-.34.53-.32.98.46.7,1.19,2.05,1.57,3.55,1,2.06-.78,2.08-.79,1.65-.14-.25.38-1.12.85-2.65,1.42-2.67,1.01-4,1.83-4.63,2.87-1.09,1.79-.1,3.67,2.05,3.87,2.29.22,4.53-1.37,6.83-4.81,1.2-1.81,1.48-2.07,2.65-2.58,3.3-1.42,5.05-2.56,7.05-4.56,1.47-1.47,1.71-2.05,1.07-2.58-.31-.26-.61-.05-2.03,1.38Zm-12.61,9.18c-.73.91-2.06,1.92-2.52,1.92-.54,0-1.1-.59-.94-1,.29-.76,3.89-2.54,4.08-2.02.05.13-.23.62-.61,1.1Zm3.68-7.41c-1.44,1.24-3.1,1.55-3.39.64-.29-.91,1.58-4.76,3.14-6.46.53-.58,2.17-1.54,2.66-1.55.08,0,.38.18.66.41.28.23.52.62.54.88.06.75-2.6,5.22-3.61,6.08Z"/>
    <path class="cls-2" d="m32.05,15.4l2.8-4.52c-1.53.33-2.97.81-4.37,1.39-.56-1.16-1.51-2.29-2.74-3.4-1.18,1.22-2.12,2.53-2.87,3.9-1.42-.46-2.95-.73-4.57-.84l3.04,4.5c2.88-.75,5.78-1.09,8.69-1.04Z"/>
  </g>
  <g>
    <path class="cls-1" d="m79.12,44.72h1.39v6.3h-1.39v-6.3Z"/>
    <path class="cls-1" d="m83.71,47.02v4h-1.37v-6.3h1.28l2.95,3.88v-3.88h1.37v6.3h-1.18l-3.05-4Z"/>
    <path class="cls-1" d="m93.65,50.6c-.42.35-.98.52-1.68.52-.49,0-.96-.09-1.42-.26s-.88-.42-1.25-.75l.82-.98c.3.25.6.44.91.57.31.13.63.2.97.2.28,0,.5-.05.67-.16.16-.1.24-.25.24-.44v-.02c0-.13-.03-.23-.1-.31s-.19-.16-.37-.24c-.18-.08-.45-.16-.8-.25-.48-.13-.87-.26-1.16-.39-.29-.14-.52-.32-.68-.57-.17-.24-.25-.57-.25-.97v-.02c0-.38.09-.71.28-.99.19-.29.45-.51.78-.67.33-.16.71-.24,1.14-.24.89,0,1.67.27,2.34.8l-.72,1.04c-.59-.41-1.14-.62-1.64-.62-.26,0-.46.05-.6.15-.14.1-.21.23-.21.4v.02c0,.14.04.25.11.34.08.09.21.17.39.24.19.07.47.16.85.25.68.18,1.19.41,1.51.69s.49.68.49,1.2v.02c0,.61-.21,1.09-.63,1.44Z"/>
    <path class="cls-1" d="m100.41,50.4c-.49.48-1.17.72-2.03.72s-1.53-.24-2.01-.72c-.48-.48-.72-1.17-.72-2.08v-3.6h1.39v3.56c0,.5.12.89.36,1.16.24.27.57.4,1,.4s.77-.13,1-.39.36-.63.36-1.12v-3.61h1.39v3.55c0,.94-.25,1.64-.73,2.12Z"/>
    <path class="cls-1" d="m105.31,49.01h-1.09v2.02h-1.39v-6.3h2.88c.74,0,1.33.18,1.75.55s.63.88.63,1.53v.02c0,.49-.12.9-.36,1.23-.24.33-.57.57-.99.72l1.54,2.25h-1.62l-1.35-2.02Zm1.09-2.8c-.19-.15-.46-.23-.8-.23h-1.38v1.81h1.4c.33,0,.59-.08.78-.24.19-.16.28-.38.28-.65v-.02c0-.29-.1-.52-.29-.67Z"/>
    <path class="cls-1" d="m113.72,49.61h-2.66l-.58,1.41h-1.41l2.7-6.35h1.28l2.7,6.35h-1.45l-.58-1.41Zm-2.17-1.22h1.67l-.84-2.04-.84,2.04Z"/>
    <path class="cls-1" d="m118.35,47.02v4h-1.37v-6.3h1.28l2.95,3.88v-3.88h1.37v6.3h-1.18l-3.05-4Z"/>
    <path class="cls-1" d="m128.78,50.85c-.4.19-.89.28-1.46.28-.61,0-1.16-.14-1.65-.43-.49-.29-.88-.68-1.16-1.17-.28-.5-.42-1.04-.42-1.63v-.02c0-.59.14-1.14.42-1.64s.67-.89,1.17-1.18c.5-.29,1.07-.44,1.7-.44.56,0,1.03.08,1.42.25.39.17.74.41,1.06.72l-.88,1.02c-.26-.23-.52-.41-.77-.53-.26-.12-.54-.18-.84-.18-.35,0-.66.09-.94.27-.28.18-.5.41-.65.71-.16.3-.23.63-.23.99v.02c0,.36.08.69.23.99.16.3.37.54.65.72.28.18.59.27.95.27.34,0,.63-.06.87-.18.25-.12.51-.31.78-.56l.88.89c-.35.37-.72.65-1.12.84Z"/>
    <path class="cls-1" d="m131.28,44.72h4.75v1.23h-3.38v1.28h2.97v1.23h-2.97v1.32h3.42v1.23h-4.8v-6.3Z"/>
  </g>
  <g>
    <path class="cls-1" d="m139.9,26.22h-.48v-1.74h-.66v-.44h1.81v.44h-.66v1.74Z"/>
    <path class="cls-1" d="m142.73,24.8l-.61.93h-.01l-.61-.92v1.42h-.47v-2.18h.52l.57.92.57-.92h.52v2.18h-.48v-1.42Z"/>
  </g>
</svg>