<?xml version="1.0" encoding="UTF-8"?>
<svg id="Layer_1" xmlns="http://www.w3.org/2000/svg" version="1.1" xmlns:xlink="http://www.w3.org/1999/xlink" viewBox="0 0 134 50">
  <!-- Generator: Adobe Illustrator 29.1.0, SVG Export Plug-In . SVG Version: 2.1.0 Build 142)  -->
  <defs>
    <style>
      .st0 {
        fill: #638014;
      }

      .st0, .st1, .st2, .st3, .st4, .st5, .st6 {
        fill-rule: evenodd;
      }

      .st1 {
        fill: #5c7812;
      }

      .st2 {
        fill: #80a51a;
      }

      .st3 {
        fill: #8bb31e;
      }

      .st7 {
        fill: none;
      }

      .st4, .st8 {
        fill: #97c11f;
      }

      .st5 {
        fill: #749717;
      }

      .st6 {
        fill: #678815;
      }

      .st9 {
        clip-path: url(#clippath);
      }
    </style>
    <clipPath id="clippath">
      <rect class="st7" width="134" height="50"/>
    </clipPath>
  </defs>
  <g class="st9">
    <g>
      <path class="st4" d="M25.2,0c13.9,0,25.2,11.2,25.2,25s-11.3,25-25.2,25S0,38.8,0,25,11.3,0,25.2,0ZM25.2,3.4c12,0,21.8,9.7,21.8,21.6s-9.8,21.6-21.8,21.6S3.4,36.9,3.4,25,13.2,3.4,25.2,3.4Z"/>
      <path class="st1" d="M12.1,12c3.6-3.6,8.4-5.4,13.1-5.4v18.4l-13.1-13Z"/>
      <path class="st0" d="M6.6,25c0-5.1,2.1-9.7,5.4-13l13.1,13H6.6Z"/>
      <path class="st6" d="M12.1,38c-3.6-3.6-5.4-8.3-5.4-13h18.6l-13.1,13Z"/>
      <path class="st5" d="M25.2,43.4c-5.1,0-9.8-2.1-13.1-5.4l13.1-13v18.4Z"/>
      <path class="st4" d="M43.8,25c0-5.1-2.1-9.7-5.4-13l-13.1,13h18.6Z"/>
      <path class="st3" d="M38.3,38c3.6-3.6,5.4-8.3,5.4-13h-18.6l13.1,13Z"/>
      <path class="st2" d="M25.2,43.4c5.1,0,9.8-2.1,13.1-5.4l-13.1-13v18.4Z"/>
      <path class="st8" d="M60.7,36.2c0,.3.3.6.6.6h12.1c.4,0,.6-.3.6-.6v-1.9c0-.3-.3-.6-.6-.6h-9.2V13.8c0-.3-.3-.6-.6-.6h-2.2c-.4,0-.6.3-.6.6v22.3h0ZM78.5,36.2c0,.3.3.6.6.6h2.2c.3,0,.6-.3.6-.6V13.8c0-.3-.3-.6-.6-.6h-2.2c-.3,0-.6.3-.6.6v22.3ZM87.4,36c0,.5.2.8.6.8h2.2c.3,0,.6-.2.6-.5l2.4-15.1h.1l6.2,15.5c0,.2.3.4.6.4h.6c.3,0,.5-.2.6-.4l6.1-15.5h.1l2.5,15.1c0,.2.3.5.6.5h2.2c.5,0,.7-.3.6-.8l-4.2-22.7c0-.3-.3-.5-.6-.5h-.5c-.2,0-.5.2-.6.4l-7.1,17.2h-.1l-7.1-17.2c0-.2-.4-.4-.6-.4h-.5c-.3,0-.5.2-.6.5l-4.2,22.7ZM119.1,36.2c0,.3.3.6.6.6h13.6c.4,0,.6-.3.6-.6v-1.9c0-.3-.3-.6-.6-.6h-10.7v-7.3h9.1c.3,0,.6-.3.6-.6v-1.9c0-.3-.3-.6-.6-.6h-9.1v-6.9h10.7c.4,0,.6-.3.6-.6v-1.9c0-.3-.3-.6-.6-.6h-13.6c-.4,0-.6.3-.6.6v22.3h0Z"/>
    </g>
  </g>
</svg>