<?xml version="1.0" encoding="UTF-8"?>
<svg id="Layer_1" xmlns="http://www.w3.org/2000/svg" version="1.1" xmlns:xlink="http://www.w3.org/1999/xlink" viewBox="0 0 194 104.4">
  <!-- Generator: Adobe Illustrator 29.1.0, SVG Export Plug-In . SVG Version: 2.1.0 Build 142)  -->
  <defs>
    <style>
      .st0 {
        fill: #8999a8;
      }

      .st1 {
        fill: #3b5669;
      }

      .st2 {
        fill: #d22027;
      }

      .st3 {
        fill: #6bc7c8;
      }

      .st4 {
        fill: url(#radial-gradient);
      }

      .st5 {
        fill: #38465a;
      }

      .st6 {
        fill: #5d442b;
      }

      .st7 {
        fill: #716056;
      }

      .st8 {
        fill: #123458;
      }

      .st9 {
        fill: #a87a5d;
      }

      .st10 {
        display: none;
      }

      .st11 {
        fill: #8dc744;
      }

      .st12 {
        fill: #8a8e8a;
      }

      .st13 {
        fill: #263974;
      }
    </style>
    <radialGradient id="radial-gradient" cx="136.5" cy="28.2" fx="136.5" fy="28.2" r="3.9" gradientUnits="userSpaceOnUse">
      <stop offset="0" stop-color="#fff"/>
      <stop offset=".2" stop-color="#fff" stop-opacity=".8"/>
      <stop offset=".4" stop-color="#fff" stop-opacity=".5"/>
      <stop offset=".6" stop-color="#fff" stop-opacity=".3"/>
      <stop offset=".8" stop-color="#fff" stop-opacity=".1"/>
      <stop offset=".9" stop-color="#fff" stop-opacity="0"/>
      <stop offset="1" stop-color="#fff" stop-opacity="0"/>
    </radialGradient>
  </defs>
  <g class="st10">
    <polygon class="st3" points="29.8 59 36.3 41.3 44.5 41.3 34.1 67 29.8 67 25.5 67 15.1 41.3 23.2 41.3 29.8 59"/>
    <rect class="st3" x="45.1" y="41.3" width="7.4" height="25.7"/>
    <rect class="st6" x="115.9" y="27.1" width="7.4" height="39.9"/>
    <path class="st3" d="M61.1,49v-2.5c0-2.9-2.3-5.2-5.2-5.2h-2.2v25.7h7.4v-12.3c.3-2.2,1.6-6.7,6.9-7.1,0,0,0-4.1,5-6.4,0,0-9.2-2.9-11.9,7.7Z"/>
    <path class="st6" d="M170.3,49.1v-2.5c0-2.9-2.3-5.2-5.2-5.2h-2.2v25.7h7.4v-12.3c.3-2.2,1.6-6.7,6.9-7.1,0,0,2-.2,4,.6v-7.3s-8.2-2.6-10.9,8.1Z"/>
    <circle class="st6" cx="48.8" cy="35.9" r="4.8"/>
    <path class="st6" d="M88.9,44.1l-4.7,4.7s-1.6-2.4-4.6-2.4-1.4.2-1.8.4c-1.5.8-1.4,2.9,0,3.8s1.1.5,2.1.7c3.3.4,9.7,1.4,10.3,6.8s-2.8,9.7-11.5,9.7c0,0-7.2.4-10.2-3.5l4.4-5s2.3,2.6,5,2.6,2.6-.2,3.4-.5,1.4-1.8.6-2.6-1.3-.9-2.6-1.2c-3.6-.8-10-1.5-10.2-7.2-.3-5.6,2.3-8.2,7.5-9.4s10.4.9,12.6,3.1Z"/>
    <path class="st6" d="M106.5,41.1c-2-.5-4-.6-6-.1-6,1.3-8.8,4.9-10.2,8.3-2.1,5.5-.5,11.9,4.1,15.6s4.7,2.8,8.4,2.8c9.4,0,11.9-5,11.9-5l-5.6-4.1s-1.3,3.1-6.1,3.1-5.7-5.3-5.7-5.3h18.7c.6-11.4-5-14.2-9.3-15.4ZM97.3,51.3s.7-5,5.5-5,5.5,5,5.5,5h-11Z"/>
    <path class="st6" d="M153.5,41.1c-2-.5-4-.6-6-.1-6,1.3-8.8,4.9-10.2,8.3-2.1,5.5-.5,11.9,4.1,15.6,2,1.6,4.7,2.8,8.4,2.8,9.4,0,11.9-5,11.9-5l-5.6-4.1s-1.3,3.1-6.1,3.1-5.7-5.3-5.7-5.3h18.7c.6-11.4-5-14.2-9.3-15.4ZM144.3,51.3s.7-5,5.5-5,5.5,5,5.5,5h-11Z"/>
    <polygon class="st6" points="132.2 52.8 142.7 67 133.2 67 122.3 52.8 134.1 41.5 143.6 41.5 132.2 52.8"/>
    <g>
      <path class="st7" d="M34.2,80c0,.3,0,.5-.2.6-.1.2-.4.3-.6.3s-.5,0-.6-.3c-.1-.2-.2-.4-.2-.6h-.5c0,.4.1.7.4.9.2.2.6.4,1,.4s.7-.1,1-.4c.2-.2.4-.6.4-1v-3.8h-.5v3.8Z"/>
      <path class="st7" d="M38.9,77.5c-.3-.2-.6-.2-1-.2s-.7,0-1,.2c-.3.2-.5.4-.7.7-.2.3-.3.7-.3,1.1s0,.8.3,1.1c.2.3.4.5.7.7.3.2.6.3,1,.3s.7,0,1-.3c.3-.2.5-.4.7-.7.2-.3.3-.7.3-1.1s0-.8-.3-1.1c-.2-.3-.4-.5-.7-.7ZM39.2,80.2c-.1.2-.3.4-.5.5-.2.1-.5.2-.7.2s-.5,0-.7-.2c-.2-.1-.4-.3-.5-.5-.1-.2-.2-.5-.2-.9s0-.6.2-.9c.1-.2.3-.4.5-.5.2-.1.5-.2.7-.2s.5,0,.7.2c.2.1.4.3.5.5.1.2.2.5.2.9s0,.6-.2.9Z"/>
      <path class="st7" d="M43.9,79.5c0,.4-.1.8-.3,1-.2.2-.5.4-.9.4s-.7-.1-.9-.3c-.2-.2-.3-.6-.3-1v-2.2h-.5v2.3c0,.4,0,.7.2.9.1.2.3.4.6.6.2.1.5.2.8.2s.5,0,.7-.2c.2-.1.4-.3.5-.5v-.2c.1,0,.1.8.1.8h.5v-3.9h-.5v2.2Z"/>
      <polygon class="st7" points="49.2 80.9 47.8 77.3 47.3 77.3 48.8 81.3 49.5 81.3 51.1 77.3 50.5 77.3 49.2 80.9"/>
      <path class="st7" d="M54.6,77.5c-.3-.2-.6-.2-1-.2s-.7,0-1,.2c-.3.2-.5.4-.7.7-.2.3-.2.7-.2,1.1s0,.8.3,1.1c.2.3.4.5.7.7.3.2.6.3,1,.3s.9-.1,1.2-.4c.3-.2.5-.5.6-.8h-.6c0,.2-.2.4-.4.5-.2.1-.5.2-.8.2s-.7-.1-1-.4c-.3-.2-.4-.6-.4-1h0c0,0,3.3,0,3.3,0,0-.1,0-.2,0-.3,0-.4,0-.7-.2-1-.2-.3-.4-.5-.7-.7ZM54.9,79.1h-2.7,0c0-.5.2-.8.4-1,.3-.2.6-.3.9-.3s.5,0,.7.2c.2.1.4.3.5.5.1.2.2.4.2.7h0Z"/>
      <path class="st7" d="M57.2,78h-.1v-.6h-.5v3.9h.5v-2.1c0-.9.4-1.3,1.2-1.3h.1v-.5c-.3,0-.5,0-.7.2-.2.1-.4.3-.5.5Z"/>
      <path class="st7" d="M61.5,79.4c-.2,0-.4-.2-.7-.2-.2,0-.4-.1-.6-.2-.1,0-.3-.1-.4-.2-.1-.1-.2-.2-.2-.4s0-.4.2-.5c.2-.1.4-.2.6-.2s.5,0,.7.2c.2.1.2.3.3.5h.5c0-.3-.2-.6-.4-.8-.3-.2-.6-.3-1-.3s-.5,0-.8.1c-.2,0-.4.2-.5.4-.1.2-.2.3-.2.5s0,.4.2.6c.1.2.3.3.5.3.2,0,.4.2.7.2.3,0,.6.2.8.3.2.1.3.3.3.5s0,.4-.3.5c-.2.1-.4.2-.7.2s-.5,0-.7-.2c-.2-.1-.3-.3-.3-.5h-.5c0,.2,0,.4.2.5.1.2.3.3.6.4.2.1.5.2.8.2s.5,0,.7-.1c.2,0,.4-.2.5-.4.1-.2.2-.4.2-.6,0-.2,0-.4-.2-.6-.1-.1-.3-.3-.4-.3Z"/>
      <path class="st7" d="M65.9,77.5c-.3-.2-.6-.2-1-.2s-.7,0-1,.2c-.3.2-.5.4-.7.7-.2.3-.2.7-.2,1.1s0,.8.3,1.1c.2.3.4.5.7.7.3.2.6.3,1,.3s.9-.1,1.2-.4c.3-.2.5-.5.6-.8h-.6c0,.2-.2.4-.4.5-.2.1-.5.2-.8.2s-.7-.1-1-.4c-.3-.2-.4-.6-.4-1h0c0,0,3.3,0,3.3,0,0-.1,0-.2,0-.3,0-.4,0-.7-.2-1-.2-.3-.4-.5-.7-.7ZM66.2,79.1h-2.7,0c0-.5.2-.8.4-1,.3-.2.6-.3.9-.3s.5,0,.7.2c.2.1.4.3.5.5.1.2.2.4.2.7h0Z"/>
      <polygon class="st7" points="70.8 77.3 70.1 77.3 68.4 79.3 68.4 75.9 67.8 75.9 67.8 81.3 68.4 81.3 68.4 79.3 70.1 81.3 70.8 81.3 68.9 79.3 70.8 77.3"/>
      <path class="st7" d="M74.4,77.5c-.3-.2-.6-.2-1-.2s-.7,0-1,.2c-.3.2-.5.4-.7.7-.2.3-.2.7-.2,1.1s0,.8.3,1.1c.2.3.4.5.7.7.3.2.6.3,1,.3s.9-.1,1.2-.4c.3-.2.5-.5.6-.8h-.6c0,.2-.2.4-.4.5-.2.1-.5.2-.8.2s-.7-.1-1-.4c-.3-.2-.4-.6-.4-1h0c0,0,3.3,0,3.3,0,0-.1,0-.2,0-.3,0-.4,0-.7-.2-1-.2-.3-.4-.5-.7-.7ZM74.7,79.1h-2.7,0c0-.5.2-.8.4-1,.3-.2.6-.3.9-.3s.5,0,.7.2c.2.1.4.3.5.5.1.2.2.4.2.7h0Z"/>
      <path class="st7" d="M77,78h-.1v-.6h-.5v3.9h.5v-2.1c0-.9.4-1.3,1.2-1.3h.1v-.5c-.3,0-.5,0-.7.2-.2.1-.4.3-.5.5Z"/>
      <rect class="st7" x="79.1" y="77.3" width=".5" height="3.9"/>
      <path class="st7" d="M79.4,75.8c-.1,0-.2,0-.3.1,0,0-.1.2-.1.3s0,.2.1.3c0,0,.2.1.3.1s.2,0,.3-.1c0,0,.1-.2.1-.3s0-.2-.1-.3c0,0-.2-.1-.3-.1Z"/>
      <path class="st7" d="M82.8,77.3c-.3,0-.5,0-.7.2-.2.1-.4.3-.5.5v.2c-.1,0-.1-.8-.1-.8h-.5v3.9h.5v-2.2c0-.4.1-.8.3-1,.2-.2.5-.4.9-.4s.7.1.9.3c.2.2.3.6.3,1v2.2h.5v-2.3c0-.5-.1-1-.4-1.2-.3-.3-.7-.4-1.2-.4Z"/>
      <path class="st7" d="M88.9,78.3v-.3c-.3-.2-.5-.4-.7-.6-.3-.1-.6-.2-.9-.2s-.7,0-.9.3c-.3.2-.5.4-.7.7-.2.3-.2.7-.2,1.1s0,.8.2,1.1c.2.3.4.6.7.7.3.2.6.3.9.3s.6,0,.9-.2c.3-.2.4-.3.6-.6v-.3c.1,0,.1,1.2.1,1.2,0,.4-.1.8-.4,1-.3.2-.6.4-1,.4s-.6,0-.9-.2c-.2-.1-.4-.3-.5-.6h-.5c0,.4.3.7.6.9.3.2.8.4,1.3.4s.7,0,1-.2c.3-.2.5-.4.7-.7.2-.3.2-.6.2-1v-4.1h-.5v1ZM88.7,80.1c-.1.2-.3.4-.5.6-.2.1-.5.2-.7.2s-.5,0-.7-.2c-.2-.1-.4-.3-.5-.6-.1-.2-.2-.5-.2-.9s0-.6.2-.8c.1-.2.3-.4.5-.6.2-.1.5-.2.7-.2s.5,0,.7.2c.2.1.4.3.5.6.1.2.2.5.2.8s0,.6-.2.8Z"/>
      <polygon class="st7" points="90.2 82.3 90.5 82.3 91.3 80.5 90.7 80.5 90.2 82.3"/>
      <path class="st7" d="M94.2,82.2c0,.2,0,.3-.1.4,0,0-.2.1-.5.1h-.2v.4h.3c.3,0,.6,0,.8-.2.2-.2.3-.4.3-.7v-4.9h-.5v4.9Z"/>
      <path class="st7" d="M94.5,75.8c-.1,0-.2,0-.3.1,0,0-.1.2-.1.3s0,.2.1.3c0,0,.2.1.3.1s.2,0,.3-.1c0,0,.1-.2.1-.3s0-.2-.1-.3c0,0-.2-.1-.3-.1Z"/>
      <path class="st7" d="M98.8,77.5c-.3-.2-.6-.2-1-.2s-.7,0-1,.2c-.3.2-.5.4-.7.7-.2.3-.3.7-.3,1.1s0,.8.3,1.1c.2.3.4.5.7.7.3.2.6.3,1,.3s.7,0,1-.3c.3-.2.5-.4.7-.7.2-.3.3-.7.3-1.1s0-.8-.3-1.1c-.2-.3-.4-.5-.7-.7ZM99,80.2c-.1.2-.3.4-.5.5-.2.1-.5.2-.7.2s-.5,0-.7-.2c-.2-.1-.4-.3-.5-.5-.1-.2-.2-.5-.2-.9s0-.6.2-.9c.1-.2.3-.4.5-.5.2-.1.5-.2.7-.2s.5,0,.7.2c.2.1.4.3.5.5.1.2.2.5.2.9s0,.6-.2.9Z"/>
      <path class="st7" d="M103.8,79.5c0,.4-.1.8-.3,1-.2.2-.5.4-.9.4s-.7-.1-.9-.3c-.2-.2-.3-.6-.3-1v-2.2h-.5v2.3c0,.4,0,.7.2.9.1.2.3.4.6.6.2.1.5.2.8.2s.5,0,.7-.2c.2-.1.4-.3.5-.5v-.2c.1,0,.1.8.1.8h.5v-3.9h-.5v2.2Z"/>
      <path class="st7" d="M113.3,77.5c-.2-.1-.5-.2-.8-.2s-.6,0-.8.2c-.2.1-.4.4-.5.6v.2c0,0-.1-.2-.1-.2-.1-.3-.3-.5-.6-.6-.3-.1-.5-.2-.9-.2s-.5,0-.7.2c-.2.1-.4.3-.5.5v.2c-.1,0-.1-.8-.1-.8h-.5v3.9h.5v-2.2c0-.4.1-.8.3-1,.2-.2.5-.4.9-.4s.7.1.9.3c.2.2.3.6.3,1v2.2h.5v-2.2c0-.4.1-.8.3-1,.2-.2.5-.4.9-.4s.7.1.9.3c.2.2.3.6.3,1v2.2h.5v-2.3c0-.4,0-.7-.2-.9-.1-.2-.3-.4-.6-.6Z"/>
      <path class="st7" d="M118,77.5c-.3-.2-.6-.2-1-.2s-.7,0-1,.2c-.3.2-.5.4-.7.7-.2.3-.2.7-.2,1.1s0,.8.3,1.1c.2.3.4.5.7.7.3.2.6.3,1,.3s.9-.1,1.2-.4c.3-.2.5-.5.6-.8h-.6c0,.2-.2.4-.4.5-.2.1-.5.2-.8.2s-.7-.1-1-.4c-.3-.2-.4-.6-.4-1h0c0,0,3.3,0,3.3,0,0-.1,0-.2,0-.3,0-.4,0-.7-.2-1-.2-.3-.4-.5-.7-.7ZM118.3,79.1h-2.7,0c0-.5.2-.8.4-1,.3-.2.6-.3.9-.3s.5,0,.7.2c.2.1.4.3.5.5.1.2.2.4.2.7h0Z"/>
      <path class="st7" d="M121.8,77.3c-.3,0-.5,0-.7.2-.2.1-.4.3-.5.5v.2c-.1,0-.1-.8-.1-.8h-.5v3.9h.5v-2.2c0-.4.1-.8.3-1,.2-.2.5-.4.9-.4s.7.1.9.3c.2.2.3.6.3,1v2.2h.5v-2.3c0-.5-.1-1-.4-1.2-.3-.3-.7-.4-1.2-.4Z"/>
      <path class="st7" d="M126.8,79.4c-.2,0-.4-.2-.7-.2-.2,0-.4-.1-.6-.2-.1,0-.3-.1-.4-.2-.1-.1-.2-.2-.2-.4s0-.4.2-.5c.2-.1.4-.2.6-.2s.5,0,.7.2c.2.1.2.3.3.5h.5c0-.3-.2-.6-.4-.8-.3-.2-.6-.3-1-.3s-.5,0-.8.1c-.2,0-.4.2-.5.4-.1.2-.2.3-.2.5s0,.4.2.6c.1.2.3.3.5.3.2,0,.4.2.7.2.3,0,.6.2.8.3.2.1.3.3.3.5s0,.4-.3.5c-.2.1-.4.2-.7.2s-.5,0-.7-.2c-.2-.1-.3-.3-.3-.5h-.5c0,.2,0,.4.2.5.1.2.3.3.6.4.2.1.5.2.8.2s.5,0,.7-.1c.2,0,.4-.2.5-.4.1-.2.2-.4.2-.6,0-.2,0-.4-.2-.6-.1-.1-.3-.3-.4-.3Z"/>
      <path class="st7" d="M131.3,77.5c-.3-.2-.6-.2-1-.2s-.7,0-1,.2c-.3.2-.5.4-.7.7-.2.3-.2.7-.2,1.1s0,.8.3,1.1c.2.3.4.5.7.7.3.2.6.3,1,.3s.9-.1,1.2-.4c.3-.2.5-.5.6-.8h-.6c0,.2-.2.4-.4.5-.2.1-.5.2-.8.2s-.7-.1-1-.4c-.3-.2-.4-.6-.4-1h0c0,0,3.3,0,3.3,0,0-.1,0-.2,0-.3,0-.4,0-.7-.2-1-.2-.3-.4-.5-.7-.7ZM131.6,79.1h-2.7,0c0-.5.2-.8.4-1,.3-.2.6-.3.9-.3s.5,0,.7.2c.2.1.4.3.5.5.1.2.2.4.2.7h0Z"/>
      <polygon class="st7" points="132.6 82.3 132.9 82.3 133.7 80.5 133.1 80.5 132.6 82.3"/>
      <path class="st7" d="M137,75.8c-.1,0-.2,0-.3.1,0,0-.1.2-.1.3s0,.2.1.3c0,0,.2.1.3.1s.2,0,.3-.1c0,0,.1-.2.1-.3s0-.2-.1-.3c0,0-.2-.1-.3-.1Z"/>
      <path class="st7" d="M136.7,82.2c0,.2,0,.3-.1.4,0,0-.2.1-.5.1h-.2v.4h.3c.3,0,.6,0,.8-.2.2-.2.3-.4.3-.7v-4.9h-.5v4.9Z"/>
      <path class="st7" d="M141.3,77.5c-.3-.2-.6-.2-1-.2s-.7,0-1,.2c-.3.2-.5.4-.7.7-.2.3-.3.7-.3,1.1s0,.8.3,1.1c.2.3.4.5.7.7.3.2.6.3,1,.3s.7,0,1-.3c.3-.2.5-.4.7-.7.2-.3.3-.7.3-1.1s0-.8-.3-1.1c-.2-.3-.4-.5-.7-.7ZM141.5,80.2c-.1.2-.3.4-.5.5-.2.1-.5.2-.7.2s-.5,0-.7-.2c-.2-.1-.4-.3-.5-.5-.1-.2-.2-.5-.2-.9s0-.6.2-.9c.1-.2.3-.4.5-.5.2-.1.5-.2.7-.2s.5,0,.7.2c.2.1.4.3.5.5.1.2.2.5.2.9s0,.6-.2.9Z"/>
      <path class="st7" d="M146.3,79.5c0,.4-.1.8-.3,1-.2.2-.5.4-.9.4s-.7-.1-.9-.3c-.2-.2-.3-.6-.3-1v-2.2h-.5v2.3c0,.4,0,.7.2.9.1.2.3.4.6.6.2.1.5.2.8.2s.5,0,.7-.2c.2-.1.4-.3.5-.5v-.2c.1,0,.1.8.1.8h.5v-3.9h-.5v2.2Z"/>
      <path class="st7" d="M150.7,76.3h-.5v1h-.5v.4h.5v2.5c0,.4,0,.6.3.8.2.2.4.2.8.2h.5v-.4h-.4c-.2,0-.4,0-.5-.1-.1,0-.2-.3-.2-.5v-2.5h1.1v-.4h-1.1v-1Z"/>
      <path class="st7" d="M155.5,78.9c0-1-.5-1.6-1.4-1.6s-.9.1-1.2.3v.3c.4-.2.8-.3,1.1-.3.6,0,1,.4,1,1h0c0,0,0,.2,0,.2h0c-1.5,0-2.3.5-2.3,1.4s.4,1.1,1.1,1.1.9-.2,1.2-.6h0s.1,0,.1,0v.5h.5c0-.2,0-.5,0-.9v-1.5ZM154.9,80c0,0,0,.2,0,.3-.1.3-.5.7-1.1.7s-.8-.3-.8-.8.3-1,1.7-1h.2v.8Z"/>
      <path class="st7" d="M159.1,78.9c0-1-.5-1.6-1.4-1.6s-.9.1-1.2.3v.3c.4-.2.8-.3,1.1-.3.6,0,1,.4,1,1h0c0,0,0,.2,0,.2h0c-1.5,0-2.3.5-2.3,1.4s.4,1.1,1.1,1.1.9-.2,1.2-.6h0s.1,0,.1,0v.5h.5c0-.2,0-.5,0-.9v-1.5ZM158.5,80c0,0,0,.2,0,.3-.1.3-.5.7-1.1.7s-.8-.3-.8-.8.3-1,1.7-1h.2v.8Z"/>
      <rect class="st7" x="160" y="75.9" width=".5" height="5.4"/>
      <path class="st7" d="M162.2,80.7c0,0-.2-.1-.3-.1s-.2,0-.3.1c0,0-.1.2-.1.3s0,.2.1.3.2.1.3.1.2,0,.3-.1c0,0,.1-.2.1-.3s0-.2-.1-.3Z"/>
    </g>
  </g>
  <g class="st10">
    <polygon class="st11" points="18.5 24.6 18.5 27.4 35.1 27.4 17.4 52 17.4 54.2 43.4 54.2 43.4 51.9 24.5 51.9 42.5 26.7 42.5 24.6 18.5 24.6"/>
    <path class="st11" d="M60.4,24.6h-.4c-14.3,0-14.2,13.9-14.2,14.9,0,1-.2,14.9,14.2,14.9h.7c8.2,0,11.5-4.5,12.9-8.6h-2.9s-1.2,7.2-10.1,7.2-8.9-13.1-8.9-13.1h22.4v-.4s1.1-15-13.7-15ZM51.9,37.9c.4-12.3,8.2-11.6,8.2-11.6,0,0,7.8-.7,8.2,11.6h-16.3Z"/>
    <path class="st11" d="M60.4,24.6h-.4c-14.3,0-14.2,13.9-14.2,14.9,0,1-.2,14.9,14.2,14.9h.7c8.2,0,11.5-4.5,12.9-8.6h-2.9s-1.2,7.2-10.1,7.2-8.9-13.1-8.9-13.1h22.4v-.4s1.1-15-13.7-15ZM51.9,37.9c.4-12.3,8.2-11.6,8.2-11.6,0,0,7.8-.7,8.2,11.6h-16.3Z"/>
    <path class="st8" d="M174.4,23.8h-.3c-10.4,0-10.3,10.1-10.3,10.8,0,.7-.1,10.8,10.3,10.8h.5c5.9,0,8.4-3.3,9.4-6.2h-2.1s-.9,5.2-7.3,5.2-6.4-9.5-6.4-9.5h16.3v-.3s.8-10.9-10-10.9ZM168.1,33.5c.3-8.9,5.9-8.5,5.9-8.5,0,0,5.7-.5,5.9,8.5h-11.9Z"/>
    <path class="st11" d="M96,38.3c-4.2-1-7.5-1.7-9.6-3.1-3.2-2-3-6.9.5-8.5.9-.4,1.9-.6,3.3-.6,6.2,0,5.6,6.7,5.6,6.7h5.4s.5-8.3-10.5-8.3-9.2,2.6-10.4,5c-1.4,2.7-1,6.1,1,8.4,1,1.1,2.5,2.2,4.6,2.8.3,0,.7.1,1,.2,1.6.2,6.9.8,9.5,3.5,1.9,1.9,1.7,5-.3,6.8-.9.9-2.4,1.6-4.5,1.6-6.2.1-7.8-3.2-7.5-7.6h-5.8s-.3,9.1,11.5,9.1c0,0,12,.9,12.5-8.3,0,0,.7-6-6.2-7.7Z"/>
    <path class="st11" d="M114.8,27.1h9.2v-2.5h-9.2v-9.2l-5.5,1.3v7.9h-5.5v2.5h5.5v18s-.5,9.3,7.1,9.6c4.8.2,7.6-.9,7.6-.9v-2.1c-1.9.6-3.8.7-5.1.7s-2.8-.9-3.3-2.3c-.9-2.2-.8-5.3-.8-5.3v-17.6Z"/>
    <circle class="st11" cx="132" cy="51.7" r="3.1"/>
    <circle class="st8" cx="142.8" cy="16.9" r="2.8"/>
    <rect class="st8" x="129.6" y="13.4" width="4.8" height="32.1"/>
    <rect class="st8" x="140.4" y="24.6" width="4.8" height="20.9"/>
    <path class="st8" d="M152.8,24.6h-3.7v2.7h3.7v18.2h4.8v-18.2h5v-2.7h-5.4c-.5-2.1-1.8-8.5,3.1-9.8,4.1-1.1,5.2,1.3,5.2,1.3v-5c-13.8,0-12.7,13.5-12.7,13.5Z"/>
    <g>
      <path class="st12" d="M17.4,67.7c.4-.6.9-1.1,1.5-1.5.6-.4,1.3-.5,2.1-.5s1.7.2,2.4.7,1.2,1.1,1.5,1.9h-1.3c-.2-.5-.6-.9-1-1.2-.4-.3-.9-.4-1.5-.4s-1.1.1-1.6.4c-.5.3-.8.7-1.1,1.1-.3.5-.4,1.1-.4,1.7s.1,1.2.4,1.7.6.9,1.1,1.1c.5.3,1,.4,1.6.4s1.1-.1,1.5-.4c.4-.3.8-.6,1-1.1h1.3c-.3.8-.8,1.4-1.5,1.8-.7.4-1.5.6-2.4.6s-1.5-.2-2.1-.5c-.6-.4-1.1-.9-1.5-1.5-.4-.6-.5-1.4-.5-2.2s.2-1.5.5-2.2Z"/>
      <path class="st12" d="M27.6,73.7c-.5-.3-.9-.7-1.2-1.2-.3-.5-.4-1.1-.4-1.8s.1-1.3.4-1.8c.3-.5.7-.9,1.2-1.2.5-.3,1.1-.4,1.7-.4s1.2.1,1.7.4c.5.3.9.7,1.2,1.2.3.5.4,1.1.4,1.8s-.1,1.3-.4,1.8c-.3.5-.7.9-1.2,1.2-.5.3-1.1.4-1.7.4s-1.2-.1-1.7-.4ZM30.3,72.9c.3-.2.6-.5.8-.8.2-.4.3-.8.3-1.3s-.1-1-.3-1.3c-.2-.4-.5-.6-.8-.8s-.7-.3-1.1-.3-.8,0-1.1.3c-.3.2-.6.4-.8.8-.2.4-.3.8-.3,1.3s0,1,.3,1.3c.2.4.5.6.8.8s.7.3,1.1.3.8,0,1.1-.3Z"/>
      <path class="st12" d="M36.4,73l2-5.5h1.2l-2.6,6.5h-1.3l-2.6-6.5h1.2l2,5.5Z"/>
      <path class="st12" d="M46.6,71.1h-5.2c0,.6.3,1.1.7,1.5.4.4.9.5,1.5.5s.9-.1,1.2-.3c.3-.2.5-.5.7-.9h1.2c-.2.6-.5,1.1-1,1.5-.5.4-1.2.6-1.9.6s-1.2-.1-1.7-.4c-.5-.3-.9-.7-1.1-1.2s-.4-1.1-.4-1.8.1-1.3.4-1.8c.3-.5.6-.9,1.1-1.2s1-.4,1.7-.4,1.2.1,1.6.4c.5.3.8.6,1.1,1.1.3.5.4,1,.4,1.6s0,.4,0,.7ZM45.2,69.2c-.2-.3-.4-.5-.7-.7-.3-.2-.7-.2-1-.2-.5,0-1,.2-1.4.5-.4.3-.6.8-.7,1.4h4.1c0-.4,0-.8-.3-1.1Z"/>
      <path class="st12" d="M49.9,67.7c.4-.2.8-.3,1.3-.3v1.1h-.3c-1.2,0-1.8.7-1.8,2v3.5h-1.1v-6.5h1.1v1.1c.2-.4.5-.7.8-.9Z"/>
      <path class="st12" d="M61.2,67.5l-3.9,9.6h-1.1l1.3-3.1-2.6-6.4h1.2l2,5.3,2-5.3h1.1Z"/>
      <path class="st12" d="M63.5,73.7c-.5-.3-.9-.7-1.2-1.2-.3-.5-.4-1.1-.4-1.8s.1-1.3.4-1.8c.3-.5.7-.9,1.2-1.2.5-.3,1.1-.4,1.7-.4s1.2.1,1.7.4c.5.3.9.7,1.2,1.2.3.5.4,1.1.4,1.8s-.1,1.3-.4,1.8c-.3.5-.7.9-1.2,1.2-.5.3-1.1.4-1.7.4s-1.2-.1-1.7-.4ZM66.2,72.9c.3-.2.6-.5.8-.8.2-.4.3-.8.3-1.3s-.1-1-.3-1.3c-.2-.4-.5-.6-.8-.8s-.7-.3-1.1-.3-.8,0-1.1.3c-.3.2-.6.4-.8.8-.2.4-.3.8-.3,1.3s0,1,.3,1.3c.2.4.5.6.8.8s.7.3,1.1.3.8,0,1.1-.3Z"/>
      <path class="st12" d="M75.7,67.5v6.5h-1.1v-1c-.2.3-.5.6-.9.8-.4.2-.8.3-1.2.3s-1-.1-1.4-.3c-.4-.2-.7-.5-1-.9-.2-.4-.4-.9-.4-1.5v-3.8h1.1v3.7c0,.6.2,1.1.5,1.5.3.3.8.5,1.3.5s1-.2,1.4-.5c.3-.4.5-.9.5-1.6v-3.6h1.1Z"/>
      <path class="st12" d="M80.7,68.9c.3-.5.6-.9,1.1-1.2s1-.4,1.6-.4,1.5.2,2,.6c.5.4.9.9,1,1.6h-1.2c-.1-.4-.3-.7-.6-.9-.3-.2-.7-.3-1.2-.3s-1.1.2-1.5.6-.6,1-.6,1.8.2,1.4.6,1.8.9.6,1.5.6.9-.1,1.2-.3c.3-.2.5-.5.7-.9h1.2c-.2.7-.5,1.2-1,1.6-.5.4-1.2.6-2,.6s-1.2-.1-1.6-.4c-.5-.3-.9-.7-1.1-1.2-.3-.5-.4-1.1-.4-1.8s.1-1.3.4-1.8Z"/>
      <path class="st12" d="M87.9,68.9c.3-.5.6-.9,1.1-1.2s1-.4,1.6-.4,1.1.1,1.5.4c.4.2.7.6.9.9v-1.2h1.1v6.5h-1.1v-1.2c-.2.4-.5.7-1,.9s-.9.4-1.5.4-1.1-.1-1.6-.4c-.5-.3-.8-.7-1.1-1.2-.3-.5-.4-1.1-.4-1.8s.1-1.2.4-1.8ZM92.7,69.4c-.2-.4-.5-.6-.8-.8-.3-.2-.7-.3-1.1-.3s-.8,0-1.1.3c-.3.2-.6.5-.8.8-.2.4-.3.8-.3,1.3s0,.9.3,1.3c.2.4.5.6.8.8.3.2.7.3,1.1.3s.8,0,1.1-.3c.3-.2.6-.5.8-.8.2-.4.3-.8.3-1.3s0-.9-.3-1.3Z"/>
      <path class="st12" d="M101,68.1c.5.5.7,1.2.7,2.1v3.8h-1.1v-3.7c0-.6-.2-1.1-.5-1.5-.3-.3-.8-.5-1.3-.5s-1,.2-1.4.5c-.3.4-.5.9-.5,1.6v3.6h-1.1v-6.5h1.1v.9c.2-.3.5-.6.9-.8.4-.2.8-.3,1.2-.3.8,0,1.4.2,1.9.7Z"/>
      <polygon class="st12" points="106.9 74 108 74 108 68.4 109.7 68.4 109.7 67.5 108 67.5 108 65.8 106.9 65.8 106.9 67.5 105.6 67.5 105.6 68.4 106.9 68.4 106.9 74"/>
      <path class="st12" d="M112.9,67.7c.4-.2.8-.3,1.3-.3v1.1h-.3c-1.2,0-1.8.7-1.8,2v3.5h-1.1v-6.5h1.1v1.1c.2-.4.5-.7.8-.9Z"/>
      <path class="st12" d="M121.2,67.5v6.5h-1.1v-1c-.2.3-.5.6-.9.8-.4.2-.8.3-1.2.3s-1-.1-1.4-.3c-.4-.2-.7-.5-1-.9-.2-.4-.4-.9-.4-1.5v-3.8h1.1v3.7c0,.6.2,1.1.5,1.5.3.3.8.5,1.3.5s1-.2,1.4-.5c.3-.4.5-.9.5-1.6v-3.6h1.1Z"/>
      <path class="st12" d="M124,73.8c-.4-.2-.7-.4-.9-.7-.2-.3-.4-.7-.4-1.1h1.1c0,.3.2.6.5.8.3.2.6.3,1.1.3s.7,0,1-.3.4-.4.4-.7-.1-.5-.4-.6c-.3-.1-.6-.3-1.2-.4-.5-.1-.9-.3-1.2-.4-.3-.1-.6-.3-.8-.6-.2-.3-.3-.6-.3-1s0-.6.3-.9c.2-.3.5-.5.8-.7.4-.2.8-.2,1.2-.2.7,0,1.3.2,1.7.5s.7.9.7,1.5h-1.1c0-.3-.2-.6-.4-.8-.2-.2-.6-.3-1-.3s-.7,0-.9.2c-.2.2-.3.4-.3.7s0,.4.2.5.3.2.5.3c.2,0,.5.2.9.3.5.1.8.3,1.1.4s.5.3.8.6.3.6.3,1c0,.4,0,.7-.3,1-.2.3-.5.5-.8.7-.4.2-.8.2-1.2.2s-.9,0-1.3-.3Z"/>
      <polygon class="st12" points="129.4 74 130.5 74 130.5 68.4 132.2 68.4 132.2 67.5 130.5 67.5 130.5 65.8 129.4 65.8 129.4 67.5 128.2 67.5 128.2 68.4 129.4 68.4 129.4 74"/>
      <path class="st12" d="M133.4,73.8c-.1-.1-.2-.3-.2-.5s0-.4.2-.5.3-.2.5-.2.4,0,.5.2c.1.1.2.3.2.5s0,.4-.2.5c-.1.1-.3.2-.5.2s-.4,0-.5-.2Z"/>
    </g>
    <g>
      <path class="st12" d="M73.9,83.5c-.3.3-.8.5-1.5.5h-1.1v2.5h-.8v-5.9h1.9c.7,0,1.2.2,1.5.5s.5.7.5,1.2-.2.9-.5,1.2ZM73.3,83c.2-.2.3-.5.3-.8,0-.7-.4-1.1-1.2-1.1h-1.1v2.2h1.1c.4,0,.7,0,.9-.3Z"/>
      <path class="st12" d="M79.6,84.4h-3.7c0,.5.2.8.5,1.1.3.3.6.4,1,.4s.6,0,.8-.2c.2-.2.4-.4.5-.6h.8c-.1.4-.4.8-.7,1.1s-.8.4-1.4.4-.8,0-1.2-.3c-.3-.2-.6-.5-.8-.8-.2-.4-.3-.8-.3-1.3s0-.9.3-1.3c.2-.4.5-.6.8-.8s.7-.3,1.2-.3.8,0,1.2.3c.3.2.6.5.8.8.2.3.3.7.3,1.1s0,.3,0,.5ZM78.6,83c-.1-.2-.3-.4-.5-.5-.2-.1-.5-.2-.7-.2-.4,0-.7.1-1,.4-.3.2-.4.6-.5,1h2.9c0-.3,0-.5-.2-.8Z"/>
      <path class="st12" d="M81.4,86.2c-.4-.2-.6-.5-.8-.8-.2-.4-.3-.8-.3-1.3s.1-.9.3-1.3c.2-.4.5-.6.8-.8s.8-.3,1.2-.3.8,0,1.2.3.6.5.8.8c.2.4.3.8.3,1.3s-.1.9-.3,1.3c-.2.4-.5.6-.9.8s-.8.3-1.2.3-.8,0-1.2-.3ZM83.4,85.6c.2-.1.4-.3.6-.6.1-.3.2-.6.2-.9s0-.7-.2-.9c-.1-.3-.3-.5-.6-.6-.2-.1-.5-.2-.8-.2s-.5,0-.8.2c-.2.1-.4.3-.6.6-.1.3-.2.6-.2.9s0,.7.2,1c.1.3.3.5.6.6.2.1.5.2.8.2s.5,0,.8-.2Z"/>
      <path class="st12" d="M87.5,82c.3-.2.7-.3,1.1-.3s.8,0,1.1.3.6.5.8.8c.2.4.3.8.3,1.2s0,.9-.3,1.2-.5.6-.8.9c-.3.2-.7.3-1.1.3s-.7,0-1-.3c-.3-.2-.5-.4-.7-.7v3h-.8v-6.8h.8v.9c.2-.3.4-.5.7-.7ZM89.7,83.2c-.1-.3-.3-.5-.6-.6s-.5-.2-.8-.2-.5,0-.8.2-.4.3-.6.6c-.1.3-.2.6-.2.9s0,.7.2.9c.1.3.3.5.6.6.2.1.5.2.8.2s.5,0,.8-.2c.2-.1.4-.3.6-.6.1-.3.2-.6.2-.9s0-.7-.2-.9Z"/>
      <path class="st12" d="M92.5,80.2v6.2h-.8v-6.2h.8Z"/>
      <path class="st12" d="M98,84.4h-3.7c0,.5.2.8.5,1.1.3.3.6.4,1,.4s.6,0,.8-.2c.2-.2.4-.4.5-.6h.8c-.1.4-.4.8-.7,1.1s-.8.4-1.4.4-.8,0-1.2-.3c-.3-.2-.6-.5-.8-.8-.2-.4-.3-.8-.3-1.3s0-.9.3-1.3c.2-.4.5-.6.8-.8s.7-.3,1.2-.3.8,0,1.2.3c.3.2.6.5.8.8.2.3.3.7.3,1.1s0,.3,0,.5ZM97,83c-.1-.2-.3-.4-.5-.5-.2-.1-.5-.2-.7-.2-.4,0-.7.1-1,.4-.3.2-.4.6-.5,1h2.9c0-.3,0-.5-.2-.8Z"/>
      <path class="st12" d="M105.3,81.8l-2.8,6.8h-.8l.9-2.2-1.9-4.6h.9l1.5,3.7,1.4-3.7h.8Z"/>
      <path class="st12" d="M106.9,86.2c-.4-.2-.6-.5-.8-.8-.2-.4-.3-.8-.3-1.3s.1-.9.3-1.3c.2-.4.5-.6.8-.8s.8-.3,1.2-.3.8,0,1.2.3.6.5.8.8c.2.4.3.8.3,1.3s-.1.9-.3,1.3c-.2.4-.5.6-.9.8s-.8.3-1.2.3-.8,0-1.2-.3ZM108.8,85.6c.2-.1.4-.3.6-.6.1-.3.2-.6.2-.9s0-.7-.2-.9c-.1-.3-.3-.5-.6-.6-.2-.1-.5-.2-.8-.2s-.5,0-.8.2c-.2.1-.4.3-.6.6-.1.3-.2.6-.2.9s0,.7.2,1c.1.3.3.5.6.6.2.1.5.2.8.2s.5,0,.8-.2Z"/>
      <path class="st12" d="M115.5,81.8v4.6h-.8v-.7c-.1.2-.4.4-.6.6-.3.1-.6.2-.9.2s-.7,0-1-.2c-.3-.1-.5-.4-.7-.7s-.2-.7-.2-1.1v-2.7h.8v2.6c0,.5.1.8.3,1.1.2.2.5.4.9.4s.7-.1,1-.4.4-.6.4-1.1v-2.5h.8Z"/>
      <path class="st12" d="M119.1,82.8c.2-.4.5-.6.8-.8.3-.2.7-.3,1.2-.3s1,.1,1.4.4c.4.3.6.7.7,1.1h-.8c0-.3-.2-.5-.5-.7-.2-.2-.5-.2-.8-.2s-.8.2-1.1.5c-.3.3-.4.7-.4,1.3s.1,1,.4,1.3c.3.3.6.5,1.1.5s.6,0,.8-.2c.2-.2.4-.4.5-.7h.8c-.1.5-.4.9-.7,1.1s-.8.4-1.4.4-.8,0-1.2-.3c-.3-.2-.6-.5-.8-.8-.2-.4-.3-.8-.3-1.3s0-.9.3-1.3Z"/>
      <path class="st12" d="M124.2,82.8c.2-.4.5-.6.8-.8s.7-.3,1.1-.3.8,0,1.1.3c.3.2.5.4.7.7v-.8h.8v4.6h-.8v-.9c-.2.3-.4.5-.7.7s-.7.3-1.1.3-.8-.1-1.1-.3c-.3-.2-.6-.5-.8-.9s-.3-.8-.3-1.2,0-.9.3-1.2ZM127.6,83.2c-.1-.3-.3-.5-.6-.6s-.5-.2-.8-.2-.5,0-.8.2-.4.3-.6.6c-.1.3-.2.6-.2.9s0,.7.2.9c.1.3.3.5.6.6.2.1.5.2.8.2s.6,0,.8-.2c.2-.1.4-.3.6-.6.1-.3.2-.6.2-.9s0-.7-.2-.9Z"/>
      <path class="st12" d="M133.5,82.2c.3.3.5.8.5,1.5v2.7h-.8v-2.6c0-.5-.1-.8-.3-1.1-.2-.2-.5-.4-.9-.4s-.7.1-1,.4-.4.6-.4,1.1v2.6h-.8v-4.6h.8v.7c.2-.2.4-.4.6-.5.3-.1.5-.2.9-.2.6,0,1,.2,1.4.5Z"/>
      <path class="st12" d="M137.6,82.8c.2-.4.5-.6.8-.8s.7-.3,1.1-.3.7,0,1,.2c.3.2.5.4.7.7v-2.4h.8v6.2h-.8v-.9c-.2.3-.4.5-.7.7-.3.2-.6.3-1,.3s-.8-.1-1.1-.3c-.3-.2-.6-.5-.8-.9s-.3-.8-.3-1.2,0-.9.3-1.2ZM141,83.2c-.1-.3-.3-.5-.6-.6s-.5-.2-.8-.2-.5,0-.8.2-.4.3-.6.6c-.1.3-.2.6-.2.9s0,.7.2.9c.1.3.3.5.6.6.2.1.5.2.8.2s.6,0,.8-.2c.2-.1.4-.3.6-.6.1-.3.2-.6.2-.9s0-.7-.2-.9Z"/>
      <path class="st12" d="M147.5,84.4h-3.7c0,.5.2.8.5,1.1.3.3.6.4,1,.4s.6,0,.8-.2c.2-.2.4-.4.5-.6h.8c-.1.4-.4.8-.7,1.1s-.8.4-1.4.4-.8,0-1.2-.3c-.3-.2-.6-.5-.8-.8-.2-.4-.3-.8-.3-1.3s0-.9.3-1.3c.2-.4.5-.6.8-.8s.7-.3,1.2-.3.8,0,1.2.3c.3.2.6.5.8.8.2.3.3.7.3,1.1s0,.3,0,.5ZM146.5,83c-.1-.2-.3-.4-.5-.5-.2-.1-.5-.2-.7-.2-.4,0-.7.1-1,.4-.3.2-.4.6-.5,1h2.9c0-.3,0-.5-.2-.8Z"/>
      <path class="st12" d="M150,82c.3-.2.7-.3,1.1-.3s.8,0,1.1.3.6.5.8.8c.2.4.3.8.3,1.2s0,.9-.3,1.2-.5.6-.8.9c-.3.2-.7.3-1.1.3s-.7,0-1-.3c-.3-.2-.5-.4-.7-.7v3h-.8v-6.8h.8v.9c.2-.3.4-.5.7-.7ZM152.2,83.2c-.1-.3-.3-.5-.6-.6s-.5-.2-.8-.2-.5,0-.8.2-.4.3-.6.6c-.1.3-.2.6-.2.9s0,.7.2.9c.1.3.3.5.6.6.2.1.5.2.8.2s.5,0,.8-.2c.2-.1.4-.3.6-.6.1-.3.2-.6.2-.9s0-.7-.2-.9Z"/>
      <path class="st12" d="M158.4,84.4h-3.7c0,.5.2.8.5,1.1.3.3.6.4,1,.4s.6,0,.8-.2c.2-.2.4-.4.5-.6h.8c-.1.4-.4.8-.7,1.1s-.8.4-1.4.4-.8,0-1.2-.3c-.3-.2-.6-.5-.8-.8-.2-.4-.3-.8-.3-1.3s0-.9.3-1.3c.2-.4.5-.6.8-.8s.7-.3,1.2-.3.8,0,1.2.3c.3.2.6.5.8.8.2.3.3.7.3,1.1s0,.3,0,.5ZM157.4,83c-.1-.2-.3-.4-.5-.5-.2-.1-.5-.2-.7-.2-.4,0-.7.1-1,.4-.3.2-.4.6-.5,1h2.9c0-.3,0-.5-.2-.8Z"/>
      <path class="st12" d="M163.1,82.2c.3.3.5.8.5,1.5v2.7h-.8v-2.6c0-.5-.1-.8-.3-1.1-.2-.2-.5-.4-.9-.4s-.7.1-1,.4-.4.6-.4,1.1v2.6h-.8v-4.6h.8v.7c.2-.2.4-.4.6-.5.3-.1.5-.2.9-.2.6,0,1,.2,1.4.5Z"/>
      <path class="st12" d="M164.8,82.8c.2-.4.5-.6.8-.8s.7-.3,1.1-.3.7,0,1,.2c.3.2.5.4.7.7v-2.4h.8v6.2h-.8v-.9c-.2.3-.4.5-.7.7-.3.2-.6.3-1,.3s-.8-.1-1.1-.3c-.3-.2-.6-.5-.8-.9s-.3-.8-.3-1.2,0-.9.3-1.2ZM168.3,83.2c-.1-.3-.3-.5-.6-.6s-.5-.2-.8-.2-.5,0-.8.2-.4.3-.6.6c-.1.3-.2.6-.2.9s0,.7.2.9c.1.3.3.5.6.6.2.1.5.2.8.2s.6,0,.8-.2c.2-.1.4-.3.6-.6.1-.3.2-.6.2-.9s0-.7-.2-.9Z"/>
      <path class="st12" d="M173.6,86.2c-.4-.2-.6-.5-.8-.8-.2-.4-.3-.8-.3-1.3s.1-.9.3-1.3c.2-.4.5-.6.8-.8s.8-.3,1.2-.3.8,0,1.2.3.6.5.8.8c.2.4.3.8.3,1.3s-.1.9-.3,1.3c-.2.4-.5.6-.9.8s-.8.3-1.2.3-.8,0-1.2-.3ZM175.6,85.6c.2-.1.4-.3.6-.6.1-.3.2-.6.2-.9s0-.7-.2-.9c-.1-.3-.3-.5-.6-.6-.2-.1-.5-.2-.8-.2s-.5,0-.8.2c-.2.1-.4.3-.6.6-.1.3-.2.6-.2.9s0,.7.2,1c.1.3.3.5.6.6.2.1.5.2.8.2s.5,0,.8-.2Z"/>
      <path class="st12" d="M181.8,82.2c.3.3.5.8.5,1.5v2.7h-.8v-2.6c0-.5-.1-.8-.3-1.1-.2-.2-.5-.4-.9-.4s-.7.1-1,.4-.4.6-.4,1.1v2.6h-.8v-4.6h.8v.7c.2-.2.4-.4.6-.5.3-.1.5-.2.9-.2.6,0,1,.2,1.4.5Z"/>
    </g>
  </g>
  <g class="st10">
    <path class="st9" d="M24.9,36.1c-6.8,0-12.3,5.2-12.3,11.5s5.5,11.5,12.3,11.5,12.3-5.2,12.3-11.5-5.5-11.5-12.3-11.5ZM24.9,58.1c-4.4,0-8-4.7-8-10.5s3.6-10.5,8-10.5,8,4.7,8,10.5-3.6,10.5-8,10.5Z"/>
    <path class="st9" d="M50.7,44c-1.9,0-3.6.8-4.8,2v-2.3s-2.2,1.1-5.3,1.1v.7h1.1c.6,0,1.1.5,1.1,1.2v19.2c0,.4-.2.7-.5.9-.3.2-.8.4-1.6.4v.7h7.1v-.7c-.8,0-1.3-.2-1.6-.4-.3-.2-.5-.6-.5-.9v-8.9c1.3,1.2,3,2,4.8,2,3.9,0,7.1-3.4,7.1-7.5s-3.2-7.5-7.1-7.5ZM49.8,58.1c-1.7,0-3.2-1.2-4-3.1v-7.1c.8-1.8,2.3-3.1,4-3.1,2.6,0,4.7,3,4.7,6.6s-2.1,6.6-4.7,6.6Z"/>
    <path class="st9" d="M81.4,58.1c-.3-.2-.5-.6-.5-.9v-13.8s-2.2,1.1-5.3,1.1v.7h1.1c.6,0,1.1.5,1.1,1.2v10.8c0,.4-.2.7-.5.9-.3.2-.8.4-1.6.4v.7h7.1v-.7c-.8,0-1.3-.2-1.6-.4Z"/>
    <path class="st9" d="M70.2,56.6s-.3,1.5-2.4,1.5-2-2.6-2-3.7v-9.1h3.8v-.9h-3.7v-4s-.4,0-.4,0c0,0-1.5,3.2-4.2,4.3v.5h1.8v10.7c0,.9.4,1.8,1.1,2.3.6.4,1.7.8,3.1.8,0,0,3,.2,3.5-2.3l-.7-.2Z"/>
    <path class="st9" d="M145.6,56.6s-.3,1.5-2.4,1.5-2-2.6-2-3.7v-9.1h3.8v-.9h-3.7v-4s-.4,0-.4,0c0,0-1.5,3.2-4.2,4.3v.5h1.8v10.7c0,.9.4,1.8,1.1,2.3.6.4,1.7.8,3.1.8,0,0,3,.2,3.5-2.3l-.7-.2Z"/>
    <circle class="st9" cx="78.9" cy="37.9" r="1.8"/>
    <path class="st9" d="M85.8,44.1v.8s1.2-.2,2,1.6,5.4,12.7,5.4,12.7h.7l5.4-13.1s.3-1.1,1.6-1.1v-.8h-4.6v.7s1.7.2,1.8,1.4l-3.5,9.3-3.6-8.6c-.1-.3-.2-.6-.2-.9s.2-1,.9-1.1h.8v-.8h-6.8Z"/>
    <path class="st9" d="M117.5,49.6h0c0-.1.1-5.5-6.4-5.5s-7.4,6.2-7.4,7.8,1,7.2,7.5,7.2,5.9-2.9,5.9-2.9l-.7-.5s-1.2,2.4-4.7,2.4-5.8-5.3-4.7-8.6h10.4ZM111.2,44.7c3.6,0,3.4,4.1,3.4,4.1h-7.5s.5-4.1,4-4.1Z"/>
    <path class="st9" d="M127.8,49.5c-3.4-1.4-3.2-2.8-3.2-2.8,0,0,0-2,2.6-2s3.4,3.4,3.4,3.4h.5v-4.1h-.4c-.2.7-.8,1-.8,1-1.1-1-2.9-1-2.9-1-4.8,0-4.3,4.3-4.3,4.3,0,1.8,2.8,3.9,5.5,4.9,1.3.5,1.6,1.6,1.6,1.6,0,0,1.4,3.4-2.6,3.7-3.8.3-4.2-4.4-4.2-4.4h-.5v5h.5c0-.9.8-1.2.8-1.2,1.1,1.3,3.4,1.2,3.4,1.2,3.9,0,5.1-3.2,5.1-4.4s-1-3.8-4.5-5.2Z"/>
    <g>
      <polygon class="st5" points="67 65.5 64 65.5 64 62.9 63.3 62.9 63.3 68.7 64 68.7 64 66.1 67 66.1 67 68.7 67.7 68.7 67.7 62.9 67 62.9 67 65.5"/>
      <polygon class="st5" points="69.7 68.7 72.8 68.7 72.8 68.1 70.5 68.1 70.5 66.1 72.6 66.1 72.6 65.5 70.5 65.5 70.5 63.5 72.8 63.5 72.8 62.9 69.7 62.9 69.7 68.7"/>
      <path class="st5" d="M76.5,63l-2.1,5.7h.8l.5-1.3h2.5l.5,1.3h.8l-2.1-5.7h-.9ZM75.9,66.8l1-2.9,1,2.9h-2.1Z"/>
      <polygon class="st5" points="81.8 62.9 81.1 62.9 81.1 68.7 83.9 68.7 83.9 68.1 81.8 68.1 81.8 62.9"/>
      <polygon class="st5" points="85.1 63.5 86.6 63.5 86.6 68.7 87.4 68.7 87.4 63.5 89 63.5 89 62.9 85.1 62.9 85.1 63.5"/>
      <polygon class="st5" points="94.3 65.5 91.4 65.5 91.4 62.9 90.6 62.9 90.6 68.7 91.4 68.7 91.4 66.1 94.3 66.1 94.3 68.7 95.1 68.7 95.1 62.9 94.3 62.9 94.3 65.5"/>
      <path class="st5" d="M102.2,65.8c-.2-.1-.5-.2-.9-.3-.3,0-.6-.2-.7-.2-.2,0-.3-.2-.4-.3s-.2-.3-.2-.5,0-.5.3-.7c.2-.2.5-.2.8-.2s.6,0,.8.3c.2.2.3.4.3.6h.8c0-.4-.2-.8-.6-1.1-.3-.3-.8-.4-1.3-.4s-.7,0-1,.2c-.3.1-.5.3-.7.6-.2.2-.2.5-.2.8s0,.6.2.9c.2.2.4.4.6.5s.5.2.9.3c.3,0,.6.2.7.2.2,0,.3.2.5.3.1.1.2.3.2.5s-.1.5-.3.7c-.2.2-.5.3-.8.3s-.7,0-.9-.3c-.2-.2-.3-.4-.3-.7h-.8c0,.3,0,.6.3.8.2.2.4.4.7.6s.6.2,1,.2.7,0,1-.2c.3-.2.5-.4.7-.6s.2-.5.2-.8,0-.7-.2-.9-.4-.4-.6-.5Z"/>
      <polygon class="st5" points="104.9 68.7 108.1 68.7 108.1 68.1 105.7 68.1 105.7 66.1 107.8 66.1 107.8 65.5 105.7 65.5 105.7 63.5 108.1 63.5 108.1 62.9 104.9 62.9 104.9 68.7"/>
      <path class="st5" d="M113.5,65.7c.2-.3.3-.7.3-1.1s0-.6-.2-.9c-.1-.3-.4-.5-.7-.6s-.7-.2-1.1-.2h-1.9v5.8h.8v-2.4h.9l1.4,2.4h.9l-1.4-2.4c.5,0,.8-.3,1-.6ZM110.7,65.7v-2.2h1.1c.4,0,.7,0,.9.3.2.2.3.5.3.8s-.1.6-.3.8c-.2.2-.5.3-.9.3h-1.1Z"/>
      <polygon class="st5" points="117.9 67.9 116.1 62.9 115.3 62.9 117.5 68.7 118.3 68.7 120.5 62.9 119.7 62.9 117.9 67.9"/>
      <rect class="st5" x="122.1" y="62.9" width=".8" height="5.8"/>
      <path class="st5" d="M126.4,63.8c.3-.2.7-.3,1.1-.3s.8,0,1.1.3c.3.2.5.5.7.8h.9c-.2-.6-.6-1-1-1.3-.5-.3-1-.5-1.6-.5s-1,.1-1.5.4c-.4.3-.8.6-1,1.1-.3.4-.4,1-.4,1.5s.1,1.1.4,1.5c.3.4.6.8,1,1,.4.3.9.4,1.5.4s1.2-.2,1.6-.5c.5-.3.8-.7,1-1.3h-.9c-.2.3-.4.6-.7.8-.3.2-.7.3-1.1.3s-.8,0-1.1-.3c-.3-.2-.6-.5-.8-.8-.2-.3-.3-.7-.3-1.2s0-.9.3-1.2c.2-.3.4-.6.8-.8Z"/>
      <polygon class="st5" points="132 68.7 135.1 68.7 135.1 68.1 132.8 68.1 132.8 66.1 134.9 66.1 134.9 65.5 132.8 65.5 132.8 63.5 135.1 63.5 135.1 62.9 132 62.9 132 68.7"/>
      <path class="st5" d="M140.5,66.3c-.2-.2-.4-.4-.6-.5-.2-.1-.5-.2-.9-.3-.3,0-.6-.2-.7-.2-.2,0-.3-.2-.4-.3s-.2-.3-.2-.5,0-.5.3-.7c.2-.2.5-.2.8-.2s.6,0,.8.3c.2.2.3.4.3.6h.8c0-.4-.2-.8-.6-1.1-.3-.3-.8-.4-1.3-.4s-.7,0-1,.2c-.3.1-.5.3-.7.6-.2.2-.2.5-.2.8s0,.6.2.9c.2.2.4.4.6.5s.5.2.9.3c.3,0,.6.2.7.2.2,0,.3.2.5.3.1.1.2.3.2.5s-.1.5-.3.7c-.2.2-.5.3-.8.3s-.7,0-.9-.3c-.2-.2-.3-.4-.3-.7h-.8c0,.3,0,.6.3.8.2.2.4.4.7.6s.6.2,1,.2.7,0,1-.2c.3-.2.5-.4.7-.6s.2-.5.2-.8,0-.7-.2-.9Z"/>
    </g>
    <path class="st9" d="M155.4,27.9h0c-1.1,1.4-.8,3.4.6,4.4l17.1,12.3-17.9,9.5c-.3.2-.5.5-.5.9h0c0,.8.8,1.3,1.5.9l20.2-10.4c1.1-.6,1.8-1.7,1.8-2.9h0c0-1-.5-2-1.3-2.6l-17.1-12.7c-1.3-1-3.2-.7-4.3.6Z"/>
    <path class="st0" d="M155.4,38h0c-1.1,1.4-.8,3.4.6,4.4l17.1,12.3-17.9,9.5c-.3.2-.5.5-.5.9h0c0,.8.8,1.3,1.5.9l20.2-10.4c1.1-.6,1.8-1.7,1.8-2.9h0c0-1-.5-2-1.3-2.6l-17.1-12.7c-1.3-1-3.2-.7-4.3.6Z"/>
    <path class="st1" d="M155.4,48h0c-1.1,1.4-.8,3.4.6,4.4l17.1,12.3-17.9,9.5c-.3.2-.5.5-.5.9h0c0,.8.8,1.3,1.5.9l20.2-10.4c1.1-.6,1.8-1.7,1.8-2.9h0c0-1-.5-2-1.3-2.6l-17.1-12.7c-1.3-1-3.2-.7-4.3.6Z"/>
  </g>
  <g>
    <polygon class="st13" points="37.5 62.7 40.4 62.7 50.3 42.4 50.3 62.7 58.1 62.7 58.1 34.1 47.7 34.1 37.5 53.9 27.3 34.1 16.9 34.1 16.9 62.7 24.7 62.7 24.7 42.4 34.6 62.7 37.5 62.7"/>
    <path class="st13" d="M84.2,40.4v2.6c-2.5-1.6-5.6-2.6-9-2.6-7.8,0-14.2,5.1-14.2,11.4s6.3,11.4,14.2,11.4,6.6-1,9-2.6v2.6h7.8v-22.8h-7.8ZM76.1,58c-4.3,0-7.8-2.8-7.8-6.3s3.5-6.3,7.8-6.3,7.8,2.8,7.8,6.3-3.5,6.3-7.8,6.3Z"/>
    <polygon class="st13" points="111.5 41 107.2 41 107.2 34.1 99.8 34.1 99.8 41 95.5 41 95.5 45.5 99.8 45.5 99.8 62.9 107.2 62.9 107.2 45.5 111.5 45.5 111.5 41"/>
    <rect class="st13" x="133.8" y="41" width="7.3" height="21.9"/>
    <polygon class="st13" points="144 41 172.5 73.9 179.9 73.9 151.3 41 144 41"/>
    <path class="st13" d="M122.7,43.1v-2.2h-7.3v21.9h7.3v-13.9c2-3.8,7.2-3.7,7.2-3.7v-4.3c-4.3,0-6.3,1.3-7.2,2.2Z"/>
    <circle class="st2" cx="137.5" cy="29.5" r="6.3"/>
    <path class="st4" d="M136.5,24.3c-2.2,0-3.9,1.8-3.9,3.9s1.8,3.9,3.9,3.9,3.9-1.8,3.9-3.9-1.8-3.9-3.9-3.9Z"/>
    <path class="st2" d="M172.4,19.5c-3.3-3.3-8.4-3.7-14.4-2.7h0c4.1-.3,7.6.6,9.9,2.9,7.5,7.5.4,26.9-15.9,43.2-16.3,16.3-35.7,23.5-43.2,15.9-3.1-3.1-3.7-8.3-2.2-14.4h0c-3,8-2.1,14.8,1.9,18.9,8.7,8.7,30.1,1.5,47.7-16.2,17.6-17.6,24.9-39,16.2-47.7Z"/>
    <g>
      <path class="st13" d="M17.7,72.5c0-.6,0-1.1,0-1.6h.8v1h0c.2-.7.8-1.1,1.4-1.1s.2,0,.3,0v.9c0,0-.2,0-.3,0-.6,0-1.1.5-1.2,1.2,0,.1,0,.3,0,.4v2.7h-.9v-3.4Z"/>
      <path class="st13" d="M22.1,69.6c0,.3-.2.6-.6.6s-.5-.3-.5-.6c0-.3.2-.6.6-.6s.6.2.6.6ZM21.1,76v-5h.9v5h-.9Z"/>
      <path class="st13" d="M27.8,71c0,.4,0,.8,0,1.4v2.9c0,1.2-.2,1.9-.7,2.3s-1.2.6-1.8.6-1.3-.1-1.7-.4l.2-.7c.3.2.8.4,1.5.4.9,0,1.6-.5,1.6-1.8v-.6h0c-.3.5-.8.8-1.6.8-1.2,0-2.1-1.1-2.1-2.4s1.1-2.7,2.3-2.7,1.3.4,1.6.9h0v-.7h.8ZM26.9,72.9c0-.1,0-.3,0-.4-.2-.5-.6-1-1.3-1s-1.5.7-1.5,1.9.5,1.8,1.5,1.8,1.1-.4,1.3-.9c0-.1,0-.3,0-.5v-.9Z"/>
      <path class="st13" d="M29.3,68.6h.9v3.1h0c.2-.3.4-.5.7-.6.3-.2.6-.3.9-.3.7,0,1.7.4,1.7,2.1v3h-.9v-2.9c0-.8-.3-1.5-1.2-1.5s-1.1.4-1.2.9c0,.1,0,.3,0,.4v3h-.9v-7.3Z"/>
      <path class="st13" d="M36.1,69.5v1.4h1.3v.7h-1.3v2.7c0,.6.2,1,.7,1s.4,0,.5,0v.7c-.1,0-.4.1-.8.1s-.8-.1-1-.4c-.3-.3-.4-.7-.4-1.3v-2.7h-.8v-.7h.8v-1.2l.9-.2Z"/>
      <path class="st13" d="M40.6,76c0-.3,0-.8,0-1.3v-6.1h.9v3.1h0c.3-.6.9-.9,1.7-.9,1.2,0,2.1,1,2.1,2.5,0,1.8-1.1,2.7-2.3,2.7s-1.3-.3-1.7-.9h0v.8h-.8ZM41.5,74c0,.1,0,.2,0,.3.2.6.7,1.1,1.4,1.1,1,0,1.5-.8,1.5-1.9s-.5-1.9-1.5-1.9-1.2.4-1.4,1.1c0,.1,0,.2,0,.4v.9Z"/>
      <path class="st13" d="M46.7,71l1.1,3c.1.3.2.7.3,1h0c0-.3.2-.7.3-1l1-2.9h1l-1.4,3.6c-.6,1.7-1.1,2.6-1.7,3.1-.4.4-.9.5-1.1.6l-.2-.8c.2,0,.5-.2.8-.4.2-.2.5-.6.8-1,0,0,0-.2,0-.2s0-.1,0-.2l-1.8-4.6h1Z"/>
      <path class="st13" d="M53.8,71l1.1,3c.1.3.2.7.3,1h0c0-.3.2-.7.3-1l1-2.9h1l-1.4,3.6c-.6,1.7-1.1,2.6-1.7,3.1-.4.4-.9.5-1.1.6l-.2-.8c.2,0,.5-.2.8-.4.2-.2.5-.6.8-1,0,0,0-.2,0-.2s0-.1,0-.2l-1.8-4.6h1Z"/>
      <path class="st13" d="M62.8,73.4c0,1.9-1.3,2.7-2.5,2.7s-2.4-1-2.4-2.6,1.1-2.7,2.5-2.7,2.4,1,2.4,2.6ZM58.8,73.5c0,1.1.6,1.9,1.5,1.9s1.5-.8,1.5-2-.4-1.9-1.5-1.9-1.5,1-1.5,1.9Z"/>
      <path class="st13" d="M68.1,74.6c0,.5,0,1,0,1.4h-.8v-.8h0c-.2.4-.8.9-1.7.9s-1.7-.4-1.7-2.2v-2.9h.9v2.8c0,1,.3,1.6,1.1,1.6s1-.4,1.2-.8c0-.1,0-.3,0-.5v-3.1h.9v3.6Z"/>
      <path class="st13" d="M69.6,72.5c0-.6,0-1.1,0-1.6h.8v1h0c.2-.7.8-1.1,1.4-1.1s.2,0,.3,0v.9c0,0-.2,0-.3,0-.6,0-1.1.5-1.2,1.2,0,.1,0,.3,0,.4v2.7h-.9v-3.4Z"/>
      <path class="st13" d="M75.1,75.1c.3.2.8.4,1.2.4.7,0,1-.3,1-.7s-.3-.7-.9-.9c-.9-.3-1.3-.8-1.3-1.4,0-.8.7-1.5,1.7-1.5s.9.1,1.2.3l-.2.7c-.2-.1-.6-.3-1-.3s-.8.3-.8.7.3.6,1,.9c.9.3,1.3.8,1.3,1.5,0,.9-.7,1.5-1.9,1.5s-1.1-.1-1.4-.3l.2-.7Z"/>
      <path class="st13" d="M80.3,69.6c0,.3-.2.6-.6.6s-.5-.3-.5-.6c0-.3.2-.6.6-.6s.6.2.6.6ZM79.3,76v-5h.9v5h-.9Z"/>
      <path class="st13" d="M86,68.6v6.1c0,.4,0,.9,0,1.3h-.8v-.9h0c-.3.6-.9,1-1.7,1-1.2,0-2.1-1-2.1-2.5,0-1.7,1-2.7,2.2-2.7s1.3.4,1.5.8h0v-3h.9ZM85.1,73c0-.1,0-.3,0-.4-.1-.6-.6-1-1.3-1s-1.5.8-1.5,1.9.5,1.9,1.5,1.9,1.2-.4,1.3-1.1c0-.1,0-.2,0-.4v-.9Z"/>
      <path class="st13" d="M88.1,73.6c0,1.2.8,1.7,1.7,1.7s1-.1,1.4-.3l.2.6c-.3.1-.9.3-1.7.3-1.5,0-2.5-1-2.5-2.5s.9-2.7,2.4-2.7,2.1,1.4,2.1,2.4,0,.3,0,.4h-3.5ZM90.7,73c0-.6-.2-1.5-1.3-1.5s-1.3.8-1.4,1.5h2.7Z"/>
    </g>
  </g>
</svg>