<?xml version="1.0" encoding="UTF-8"?>
<svg id="Layer_1" data-name="Layer 1" xmlns="http://www.w3.org/2000/svg" viewBox="0 0 150 60">
  <defs>
    <style>
      .cls-1 {
        fill: #e2034e;
      }
    </style>
  </defs>
  <g>
    <path class="cls-1" d="m99.01,13.97c0-.6.1-1.15.29-1.66.19-.51.46-.95.82-1.32.35-.37.77-.66,1.26-.86s1.04-.31,1.63-.31c.85,0,1.59.2,2.22.61s1.09.95,1.4,1.65h-1.41c-.25-.35-.55-.63-.93-.85-.37-.21-.8-.32-1.28-.32-.42,0-.79.08-1.14.25-.34.17-.63.39-.88.67-.25.28-.44.61-.58.98s-.21.76-.21,1.18.07.81.21,1.18.33.69.58.98c.25.28.54.51.88.67s.72.25,1.14.25c.48,0,.91-.11,1.28-.32.37-.21.68-.5.93-.85h1.41c-.31.69-.78,1.24-1.4,1.65s-1.36.61-2.22.61c-.6,0-1.14-.1-1.63-.31s-.91-.5-1.26-.86c-.35-.37-.62-.81-.82-1.32-.19-.51-.29-1.07-.29-1.66Z"/>
    <path class="cls-1" d="m108.07,13.97c0-.6.1-1.15.29-1.66.19-.51.46-.95.82-1.32.35-.37.77-.66,1.26-.86s1.04-.31,1.63-.31,1.14.1,1.63.31c.49.21.91.5,1.26.86.35.37.62.81.82,1.32.19.51.29,1.07.29,1.66s-.1,1.15-.29,1.66c-.19.51-.46.95-.82,1.32-.35.37-.77.66-1.26.86-.49.21-1.04.31-1.63.31s-1.14-.1-1.63-.31-.91-.5-1.26-.86c-.35-.37-.62-.81-.82-1.32-.19-.51-.29-1.07-.29-1.66Zm1.2,0c0,.42.07.81.21,1.18s.33.69.58.98c.25.28.54.51.88.67s.72.25,1.14.25.79-.08,1.14-.25c.34-.17.63-.39.88-.67.25-.28.44-.61.58-.98.14-.37.21-.76.21-1.18s-.07-.81-.21-1.18c-.14-.37-.33-.69-.58-.98-.25-.28-.54-.51-.88-.67-.34-.17-.72-.25-1.14-.25s-.79.08-1.14.25c-.34.17-.63.39-.88.67-.25.28-.44.61-.58.98s-.21.76-.21,1.18Z"/>
  </g>
  <g>
    <path class="cls-1" d="m120.69,17.81v-1.2l5.06-5.6h-4.58v-1.2h6.08v1.2l-5.02,5.6h5.34v1.2h-6.88Z"/>
    <path class="cls-1" d="m134.1,10.85v-1.04h1.2v8h-1.2v-.94c-.25.33-.59.6-1.03.8-.44.2-.96.3-1.54.3s-1.13-.1-1.6-.31c-.47-.21-.87-.5-1.19-.86-.33-.37-.57-.81-.74-1.32-.17-.51-.26-1.07-.26-1.66s.09-1.15.26-1.66c.17-.51.42-.95.74-1.32.33-.37.72-.66,1.19-.86.47-.21,1-.31,1.6-.31.39,0,.73.03,1,.1.27.06.5.15.7.26.19.11.35.24.49.38.13.14.26.3.39.46Zm.08,2.96c0-.42-.04-.81-.14-1.18s-.24-.69-.45-.98c-.21-.28-.48-.51-.82-.67-.34-.17-.76-.25-1.25-.25-.42,0-.78.08-1.1.25-.32.17-.59.39-.81.67-.22.28-.39.61-.5.98s-.18.76-.18,1.18.06.81.18,1.18.29.69.5.98c.22.28.49.51.81.67s.69.25,1.1.25c.49,0,.91-.08,1.25-.25.34-.17.62-.39.82-.67.21-.28.36-.61.45-.98s.14-.76.14-1.18Z"/>
  </g>
  <path class="cls-1" d="m14.82,39.43l-.17-16.4c-.12-7.81,3.54-12.77,9.64-12.77,2.67,0,4.73.92,6.17,2.61,1.48-1.69,3.46-2.61,6.12-2.61,6.15,0,9.84,4.96,9.96,12.77l.21,16.4h-8.51l-.23-17.16c-.05-1.63-.51-3.12-1.63-3.12s-1.57,1.23-1.55,3.12l.23,17.16h-8.51l-.23-17.16c-.05-1.63-.47-3.12-1.63-3.12-1.03,0-1.61,1.23-1.6,3.12l.23,17.16h-8.51Z"/>
  <path class="cls-1" d="m48.82,39.43l-.34-20.59h7.63l.34,20.59h-7.63Zm-.33-25.54c-.01-2.17,1.5-3.62,3.83-3.62s3.93,1.45,3.98,3.62c.05,2.17-1.51,3.58-3.88,3.58s-3.88-1.41-3.93-3.58Z"/>
  <path class="cls-1" d="m89.93,11.31l.16,16.7c.11,7.96-3.47,13.01-9.45,13.01-2.61,0-4.64-.94-6.05-2.65-1.45,1.72-3.39,2.65-6,2.65-6.03,0-9.65-5.05-9.77-13.01l-.2-16.7h8.35l.22,17.48c.05,1.67.5,3.17,1.6,3.17s1.54-1.25,1.52-3.17l-.22-17.48h8.35l.22,17.48c.05,1.67.46,3.17,1.6,3.17,1.01,0,1.58-1.25,1.57-3.17l-.22-17.48h8.35Z"/>
  <path class="cls-1" d="m113.48,26.4v13.38h-7.71v-10.06c0-1.67-1.36-3.03-3.03-3.03s-3.03,1.36-3.03,3.03,1.36,3.03,3.03,3.03c.61,0,1.18-.18,1.66-.49v7.96h-5.67c-4.22-1.61-7.22-5.71-7.22-10.5,0-6.2,5.03-11.23,11.23-11.23,5.05,0,9.32,3.33,10.74,7.91Z"/>
  <path class="cls-1" d="m116.47,18.92h7.81v11.76c0,.91.74,1.65,1.65,1.65h0c.91,0,1.65-.74,1.65-1.65v-11.76h7.76v20.51c0,6-5.9,13.47-15.72,10.06v-6.65s6.53,2.06,7.44-3.41c0,0-4.62,1.24-7.33-.27-1.62-.9-3.28-2.46-3.28-5.29v-14.96Z"/>
  <circle class="cls-1" cx="118.79" cy="13.97" r="1.07"/>
  <circle class="cls-1" cx="96.33" cy="13.97" r="1.07"/>
</svg>