<?xml version="1.0" encoding="UTF-8"?>
<svg id="Layer_1" data-name="Layer 1" xmlns="http://www.w3.org/2000/svg" viewBox="0 0 150 60">
  <defs>
    <style>
      .cls-1 {
        fill: #ba0100;
      }

      .cls-2 {
        fill-rule: evenodd;
      }
    </style>
  </defs>
  <path class="cls-2" d="m42.56,31.53c0-1.06-.24-1.9-.69-2.52-.46-.62-1.11-.94-1.96-.96-.87.02-1.52.35-1.95.98-.43.64-.64,1.47-.64,2.49,0,1.07.24,1.92.7,2.55.46.63,1.11.96,1.96.97.86-.02,1.5-.35,1.94-1,.43-.65.65-1.49.65-2.53m2.81-.02c0,.83-.13,1.6-.39,2.3-.26.7-.64,1.31-1.15,1.82-.97,1.01-2.28,1.53-3.91,1.56-1.53-.01-2.77-.46-3.73-1.35-.54-.51-.95-1.12-1.24-1.84-.29-.72-.43-1.52-.43-2.39,0-.85.14-1.63.41-2.34.27-.71.66-1.32,1.17-1.84.97-.99,2.25-1.5,3.85-1.53,1.68.03,3.01.55,3.98,1.56.95,1.04,1.43,2.4,1.44,4.08Z"/>
  <path d="m66.03,36.95h-2.72v-6.57c.02-.62-.08-1.13-.28-1.54-.21-.41-.64-.62-1.3-.63-.49.01-.96.12-1.41.34-.44.21-.84.47-1.2.76.02.11.03.24.02.39v7.25h-2.75v-6.52c.02-.62-.07-1.14-.28-1.56-.2-.42-.63-.64-1.28-.66-.5.01-.96.12-1.41.34-.44.21-.84.47-1.2.76v7.64h-2.75v-10.82h2.31l.27,1.19c1.19-.94,2.42-1.42,3.68-1.44.68,0,1.26.15,1.74.43.48.29.85.68,1.1,1.19.64-.54,1.29-.94,1.96-1.21.67-.27,1.31-.41,1.91-.41.63,0,1.21.11,1.75.34.54.23.97.62,1.31,1.17.33.55.5,1.29.51,2.23v7.35"/>
  <path class="cls-2" d="m77.29,30.32c-.02-.61-.2-1.15-.53-1.63-.34-.47-.85-.73-1.55-.75-.67.02-1.19.27-1.56.74-.37.47-.56,1.02-.57,1.63h4.21m2.84,1.95h-6.98c.04.81.35,1.47.91,1.96.57.49,1.28.75,2.13.76.51,0,.99-.06,1.44-.19.45-.13.91-.32,1.37-.57l.66,1.76c-.62.42-1.26.72-1.94.91-.68.19-1.35.28-1.99.28-1.26-.01-2.28-.29-3.07-.82-.79-.53-1.38-1.22-1.75-2.08-.37-.85-.56-1.77-.55-2.76,0-1.04.2-1.99.59-2.84.39-.85.95-1.53,1.68-2.04.73-.51,1.62-.77,2.65-.78,1.48.02,2.66.53,3.52,1.53.87,1,1.31,2.35,1.33,4.05v.8Z"/>
  <path d="m94.28,36.95h-2.75v-6.36c.02-.59-.07-1.12-.28-1.6-.2-.48-.65-.73-1.33-.76-.48,0-.95.12-1.41.33-.46.21-.91.48-1.33.81v7.58h-2.75v-10.83h2.33l.3,1.17c.58-.44,1.17-.79,1.79-1.04.61-.25,1.28-.38,2.01-.38.56,0,1.1.12,1.62.36.52.25.94.66,1.28,1.23.34.57.51,1.34.52,2.3v7.19"/>
  <path d="m105.67,36.02c-.58.4-1.19.69-1.84.88-.65.19-1.25.28-1.8.28-.95-.01-1.64-.25-2.06-.72-.42-.47-.63-1.07-.62-1.82v-11.01l2.75-.83v3.32h3.36l-.8,2.06h-2.56v5.45c-.01.83.33,1.25,1.03,1.24.35,0,.69-.07,1.01-.19.32-.12.59-.26.8-.4l.73,1.74"/>
  <path d="m119.18,36.96h-2.27l-.48-1.08c-.38.36-.85.66-1.4.91-.56.25-1.19.38-1.91.39-.49.01-1.02-.09-1.58-.32-.56-.22-1.04-.64-1.45-1.25-.4-.61-.61-1.49-.63-2.64v-6.84h2.75v6.68c0,.68.16,1.22.48,1.6.32.39.81.59,1.47.59.45,0,.85-.11,1.2-.29.35-.18.65-.38.88-.6v-7.99h2.75v7.83c0,.82,0,1.46.04,1.92.02.46.08.82.17,1.08"/>
  <path d="m140.51,36.95h-2.72v-6.57c.02-.62-.08-1.13-.28-1.54-.21-.41-.64-.62-1.3-.63-.49.01-.96.12-1.41.34-.44.21-.84.47-1.2.76.02.11.03.24.02.39v7.25h-2.75v-6.52c.02-.62-.07-1.14-.28-1.56-.2-.42-.63-.64-1.28-.66-.49.01-.96.12-1.41.34-.44.21-.84.47-1.2.76v7.64h-2.75v-10.82h2.31l.27,1.19c1.19-.94,2.42-1.42,3.69-1.44.68,0,1.26.15,1.74.43.48.29.85.68,1.1,1.19.64-.54,1.29-.94,1.96-1.21.67-.27,1.31-.41,1.91-.41.63,0,1.21.11,1.75.34.54.23.97.62,1.31,1.17.33.55.5,1.29.51,2.23v7.35"/>
  <path class="cls-1" d="m16.37,27.37c.66-.44,1.28-.83,1.92-1.09.67-.27,1.31-.41,1.91-.41.63,0,1.21.11,1.75.34.54.23.97.62,1.31,1.17.66-.44,1.27-.83,1.92-1.09.67-.27,1.31-.41,1.91-.41.63,0,1.21.11,1.75.34.54.23.97.62,1.31,1.17.33.55.5,1.29.51,2.23v7.35h-2.72v-6.57c.02-.62-.08-1.13-.28-1.54-.21-.41-.64-.62-1.3-.63-.49.01-.96.12-1.41.34-.44.21-.83.46-1.18.75,0,.1,0,.2,0,.31v7.35h-2.72v-6.57c.02-.62-.08-1.13-.28-1.54-.21-.41-.64-.62-1.3-.63-.5.01-.96.12-1.41.34-.44.21-.83.46-1.18.75,0,.1,0,.2,0,.31v7.35h-2.72v-6.57c.02-.62-.07-1.13-.28-1.54-.21-.41-.64-.62-1.3-.63-.49.01-.96.12-1.41.34-.44.21-.83.46-1.19.75-.04-.79-.21-1.43-.5-1.92.65-.45,1.27-.84,1.92-1.1.67-.27,1.3-.41,1.91-.41.63,0,1.21.11,1.75.34.54.23.97.62,1.31,1.17"/>
</svg>