<?xml version="1.0" encoding="UTF-8"?>
<svg id="Layer_1" xmlns="http://www.w3.org/2000/svg" version="1.1" viewBox="0 0 133.2 40.8">
  <!-- Generator: Adobe Illustrator 29.1.0, SVG Export Plug-In . SVG Version: 2.1.0 Build 142)  -->
  <defs>
    <style>
      .st0 {
        fill: #00a8d1;
      }

      .st1 {
        fill: #2f5760;
      }

      .st2 {
        isolation: isolate;
      }
    </style>
  </defs>
  <path class="st0" d="M45.4,22.1l1.3-16.7c.7-.1,1.6-.2,2.6-.2s1.8,0,2.6.2l1.4,6c.6,2.7.9,4.2.9,4.4h.2c0-.4.4-1.9.9-4.4l1.5-6c.7-.1,1.6-.2,2.6-.2s1.8,0,2.6.2l1.3,16.7c-.5.1-1.1.2-1.9.2s-1.3,0-1.8-.1l-.4-6.8c-.1-2.7-.2-4.6-.2-5.7h-.1l-2.4,10c-.6,0-1.3.1-2,.1s-1.4,0-2-.1l-2.4-10h-.2c0,1.5,0,3.3-.2,5.7l-.4,6.8c-.5,0-1.1.1-1.8.1s-1.4,0-1.9-.2Z"/>
  <path class="st0" d="M71,16.9h-1.9v5.2c-.5,0-1.2.1-1.9.1s-1.4,0-1.9-.1V5.5l.2-.2c1.4,0,2.6,0,3.5,0,.9,0,1.7,0,2.1,0,.9,0,1.7.1,2.5.4.7.2,1.4.6,1.9,1.1.5.5.9,1.1,1.2,1.8.3.7.4,1.6.4,2.5s-.1,1.8-.4,2.5c-.3.7-.7,1.3-1.2,1.8-.5.5-1.2.9-1.9,1.1-.7.3-1.6.4-2.4.4ZM69,8.2v5.7c.5,0,.8,0,1.1,0,.3,0,.5,0,.5,0,.4,0,.8,0,1.1-.2.3-.2.5-.4.7-.6.2-.3.3-.6.4-.9,0-.3.1-.7.1-1.1s0-.7-.1-1.1c0-.3-.2-.6-.4-.9-.2-.3-.4-.5-.7-.6-.3-.2-.6-.2-1-.2h-1c-.3,0-.6,0-.8,0Z"/>
  <path class="st0" d="M82.4,20.9c-1.7-1.4-2.6-3.8-2.6-7.2s.2-2.7.5-3.8c.3-1.1.8-2,1.4-2.7.6-.7,1.4-1.3,2.3-1.7.9-.4,1.9-.6,3-.6s2.1.2,3,.6c.9.4,1.7.9,2.3,1.7.6.7,1.1,1.7,1.4,2.7.3,1.1.5,2.3.5,3.8s-.2,2.7-.5,3.8c-.3,1.1-.8,2-1.4,2.7-.6.7-1.4,1.3-2.3,1.7-.9.4-1.9.6-3,.6-1.9,0-3.4-.5-4.7-1.5ZM84.4,17.5c.4,1.3,1.3,1.9,2.7,1.9s1.2-.2,1.6-.5c.4-.3.8-.8,1-1.3.2-.5.4-1.1.5-1.7,0-.6.1-1.3.1-1.9s0-1.2,0-1.9c0-.7-.2-1.4-.4-2-.2-.6-.5-1.1-.9-1.5-.4-.4-1-.6-1.9-.6s-1.4.2-1.8.6c-.4.4-.7.9-.9,1.5-.2.6-.3,1.2-.4,1.9,0,.7,0,1.2,0,1.8,0,.8,0,1.4.1,2,0,.6.2,1.2.4,1.8Z"/>
  <path class="st0" d="M98.5,20.5l-2.9-14.9c.8-.3,1.5-.4,2.1-.4s1.2.1,1.5.5c.3.3.5.9.7,1.7l1,6.3c.3,1.9.5,3.2.6,4,0,.8.1,1.1.2,1.2,0,0,0,0,.2,0l2-13.1c.6-.1,1.4-.2,2.5-.2s1.9,0,2.5.2l1.9,12.8c0,.1,0,.2,0,.3,0,0,.1,0,.2,0,.1-1.5.4-3.3.7-5.2l1.4-8.2c.5,0,1-.1,1.6-.1s1.4,0,2,.3l.2.2-3.2,16.4c-1.1.1-2.1.2-3,.2s-1.6-.1-2-.3c-.4-.2-.6-.7-.8-1.4l-.8-5.3c-.3-1.9-.5-3.8-.7-5.7h-.2c-.2,1.6-.4,3.5-.8,5.7l-1.1,6.9c-1.1.1-2.1.2-3,.2s-1.6-.1-1.9-.3c-.4-.2-.7-.7-.8-1.4Z"/>
  <path class="st0" d="M122.7,18.6c-.4,0-.8,0-1,0l-1.1,3.6c-.4,0-.9.1-1.6.1s-1.4,0-1.9-.3v-.2c-.1,0,5.3-16.4,5.3-16.4.6,0,1.4-.1,2.2-.1s1.7,0,2.3.2l5.3,16.5c-.6.3-1.2.5-1.9.5s-1.4-.1-1.8-.4c-.3-.3-.6-.9-.9-1.7l-.5-1.6c-.2,0-.5,0-1,0h-3.5ZM122.7,15.5h1s1.8,0,1.8,0c0,0,.2,0,.4,0,.2,0,.4,0,.5,0l-.4-1.5c-.4-1.4-.8-3.1-1.3-5.1h-.1c-.1.7-.5,2.3-1.2,4.7l-.6,1.9Z"/>
  <path class="st0" d="M29.3,22.2c0,4.8-3.9,8.7-8.7,8.7s-8.7-3.9-8.7-8.7,3.9-8.7,8.7-8.7c4.8,0,8.7,3.9,8.7,8.7Z"/>
  <path class="st0" d="M25,5c0,2.5-2,4.5-4.5,4.5s-4.5-2-4.5-4.5S18,.6,20.5.6c2.5,0,4.5,2,4.5,4.5Z"/>
  <path class="st0" d="M40.4,28.4c0,2.5-2,4.5-4.5,4.5s-4.5-2-4.5-4.5,2-4.5,4.5-4.5c2.5,0,4.5,2,4.5,4.5Z"/>
  <circle class="st0" cx="5.5" cy="28.4" r="4.5"/>
  <path class="st0" d="M20.4,39.6c-9.6,0-17.3-7.8-17.3-17.3S10.9,4.9,20.4,4.9s17.3,7.8,17.3,17.3c0,9.6-7.8,17.3-17.3,17.3ZM20.4,7c-8.4,0-15.3,6.8-15.3,15.3s6.8,15.3,15.3,15.3,15.3-6.8,15.3-15.3-6.9-15.3-15.3-15.3Z"/>
  <g class="st2">
    <path class="st1" d="M46.4,30.5h.7s2.7,0,2.7,0c0,.2,0,.3,0,.4s0,.3,0,.4h-2.7c-.3,0-.6,0-.7,0v4.2c-.1,0-.3,0-.5,0s-.4,0-.5,0v-9h0c0,0,5,0,5,0,0,.1,0,.3,0,.4,0,.3-.2.5-.6.5h-2.1c-.7,0-1.2,0-1.4,0v1.9s0,1.3,0,1.3h0Z"/>
    <path class="st1" d="M58.4,35.5v-9c.1,0,.3,0,.5,0s.4,0,.5,0v9c-.2,0-.3,0-.5,0s-.4,0-.5,0Z"/>
    <path class="st1" d="M74.5,26.4h0v9.1c-.2,0-.4,0-.6,0s-.5,0-.6,0l-3.2-6c-.3-.5-.6-1.1-.9-1.8h0c0,1.6,0,2.6,0,2.9v5c-.2,0-.3,0-.5,0s-.3,0-.4,0v-9c.2,0,.4,0,.6,0s.5,0,.6,0l3.2,6c.2.4.5,1,.9,1.9h0c0-1.1,0-2.1,0-3v-4.2c0-.2,0-.4.1-.5,0-.1.2-.2.4-.2h.3Z"/>
    <path class="st1" d="M87.8,33.1h-.9s-1.8,0-1.8,0h-.9s-.8,2.4-.8,2.4c-.1,0-.3,0-.4,0s-.3,0-.5,0h0s3-9,3-9c.2,0,.3,0,.6,0s.4,0,.5,0l3,9c-.1,0-.3.1-.5.1s-.4,0-.4-.1c0,0-.2-.2-.2-.4l-.6-1.9ZM84.4,32.3h.8s1.5,0,1.5,0c0,0,.1,0,.3,0,.2,0,.4,0,.4,0l-.8-2.5c-.3-1-.6-1.8-.7-2.2h0c-.2.7-.3,1.2-.4,1.6l-1,3.2Z"/>
    <path class="st1" d="M103.7,26.4h0v9.1c-.2,0-.4,0-.6,0s-.5,0-.6,0l-3.2-6c-.3-.5-.6-1.1-.9-1.8h0c0,1.6,0,2.6,0,2.9v5c-.2,0-.3,0-.5,0s-.3,0-.4,0v-9c.2,0,.4,0,.6,0s.5,0,.6,0l3.2,6c.2.4.5,1,.9,1.9h0c0-1.1,0-2.1,0-3v-4.2c0-.2,0-.4.1-.5,0-.1.2-.2.4-.2h.3Z"/>
    <path class="st1" d="M117.6,29.3c0-.3,0-.5-.1-.8,0-.3-.2-.5-.4-.7-.2-.2-.4-.4-.7-.5-.3-.1-.6-.2-1-.2-.8,0-1.3.3-1.7,1-.4.7-.6,1.6-.6,2.8s.2,2.2.6,2.8c.4.7,1,1,1.8,1s1.6-.3,2.4-1c.3.2.5.4.6.7-.4.4-.8.7-1.4.9-.5.2-1.1.4-1.7.4s-1.1-.1-1.5-.4c-.4-.2-.8-.6-1-1s-.5-.9-.6-1.5c-.1-.6-.2-1.2-.2-1.8s0-1.5.3-2.1.4-1.1.7-1.5c.3-.4.7-.7,1.1-.9.4-.2.9-.3,1.3-.3s.9,0,1.3.2c.4.1.7.3,1,.6s.5.5.6.8.2.6.2.9-.2.6-.6.6c-.1,0-.3,0-.4,0Z"/>
    <path class="st1" d="M127.7,34.1v.5c.3,0,.6,0,.8,0h3.6c0,.2,0,.3,0,.4,0,.3-.3.5-.6.5h-4.2c-.2,0-.3,0-.4-.2-.1-.1-.2-.3-.2-.5v-8.3h0c0,0,5.1,0,5.1,0,0,.1,0,.2,0,.4s0,.3,0,.5h-4.2v.8s0,2.3,0,2.3h.8s2.7,0,2.7,0c0,.2,0,.3,0,.4s0,.3,0,.4h-2.7c-.3,0-.6,0-.8,0v2.8h0Z"/>
  </g>
</svg>