<?xml version="1.0" encoding="UTF-8"?>
<svg id="Layer_1" xmlns="http://www.w3.org/2000/svg" version="1.1" viewBox="0 0 135 47">
  <!-- Generator: Adobe Illustrator 29.1.0, SVG Export Plug-In . SVG Version: 2.1.0 Build 142)  -->
  <defs>
    <style>
      .st0 {
        fill: #207df1;
      }

      .st1 {
        fill: #140047;
      }
    </style>
  </defs>
  <path class="st0" d="M0,25.8h135v4.9H0v-4.9Z"/>
  <path class="st1" d="M22.8,45.7h-2.5l-.5,1.2h-.7l2.1-5.1h.6l2.2,5.1h-.7l-.6-1.2ZM20.6,45.1h2l-1-2.5-1,2.5h0ZM26.6,45.3h.7c0,.6.5,1,1.3,1s1.2-.4,1.2-.9-.6-.7-1.3-.9c-.8-.2-1.7-.4-1.7-1.4s.7-1.5,1.8-1.5,1.8.6,1.8,1.5h-.7c0-.6-.5-.9-1.1-.9s-1.1.3-1.1.8.6.7,1.3.9c.8.2,1.8.4,1.8,1.5s-.8,1.5-1.9,1.5-2-.6-2-1.6h0ZM31.6,45v-3.2h.7v3.2c0,.9.6,1.4,1.4,1.4s1.4-.6,1.4-1.4v-3.2h.7v3.2c0,1.2-.9,2-2,2s-2-.9-2-2ZM40.9,45.5c0,.8-.7,1.4-1.6,1.4h-2.1v-5.1h2.1c.9,0,1.5.5,1.5,1.3s-.2.9-.7,1.2c.5.1.7.6.7,1.2h0ZM39.3,42.4h-1.4v1.5h1.4c.5,0,.8-.4.8-.8,0-.4-.4-.8-.9-.8h0ZM40.2,45.4c0-.5-.4-.9-.9-.9h-1.4v1.7h1.4c.6,0,.9-.3.9-.8ZM41.9,45.3h.7c0,.6.5,1,1.3,1s1.2-.4,1.2-.9-.6-.7-1.3-.9c-.8-.2-1.7-.4-1.7-1.4s.7-1.5,1.8-1.5,1.8.6,1.8,1.5h-.7c0-.6-.5-.9-1.1-.9s-1.1.3-1.1.8.6.7,1.3.9c.8.2,1.8.4,1.8,1.5s-.8,1.5-1.9,1.5-2-.6-2-1.6h0ZM46.9,41.7h.7v5.1h-.7v-5.1ZM50.9,41.7c1.5,0,2.7,1.1,2.7,2.6s-1.1,2.6-2.7,2.6h-1.8v-5.1h1.8ZM52.9,44.3c0-1.1-.8-2-2-2h-1.1v4h1.1c1.2,0,2-.9,2-2ZM54.8,41.7h.7v5.1h-.7v-5.1ZM60.2,45.7h-2.5l-.5,1.2h-.7l2.1-5.1h.6l2.2,5.1h-.7s-.5-1.2-.5-1.2ZM57.9,45.1h2l-1-2.5-1,2.5ZM64.3,44.9h-1.2v2h-.7v-5.1h2c1,0,1.7.6,1.7,1.6s-.5,1.3-1.2,1.5l1.3,2.1h-.7l-1.2-2h0ZM63.1,44.3h1.3c.7,0,1.1-.4,1.1-.9s-.4-.9-1.1-.9h-1.3s0,1.9,0,1.9ZM69.3,44.9v2h-.7v-2l-2-3.1h.7l1.5,2.5,1.6-2.5h.7l-1.9,3.1h0ZM74,44.3c0-1.5,1.2-2.7,2.7-2.7s2.7,1.1,2.7,2.7-1.2,2.7-2.7,2.7-2.7-1.1-2.7-2.7ZM78.8,44.3c0-1.2-.9-2-2.1-2s-2.1.9-2.1,2,.9,2,2.1,2,2.1-.9,2.1-2h0ZM81.3,42.4v1.7h2.1v.6h-2.1v2.2h-.7v-5.1h3v.6h-2.3s0,0,0,0ZM89.7,45.7h-2.5l-.5,1.2h-.7l2.1-5.1h.6l2.2,5.1h-.7l-.6-1.2h0ZM87.3,45.1h2l-1-2.5s-1,2.5-1,2.5ZM94.9,46.3v.6h-3v-5.1h.7v4.5h2.3ZM98.5,42.4h-1.6v4.5h-.7v-4.5h-1.6v-.6h3.8v.6h0ZM101.4,44.9h-1.2v2h-.7v-5.1h2c1,0,1.7.6,1.7,1.6s-.5,1.3-1.2,1.5l1.3,2.1h-.7l-1.2-2h0ZM100.2,44.3h1.3c.7,0,1.1-.4,1.1-.9s-.4-.9-1.1-.9h-1.3v1.9ZM104.2,44.3c0-1.5,1.2-2.7,2.7-2.7s2.7,1.1,2.7,2.7-1.2,2.7-2.7,2.7-2.7-1.1-2.7-2.7h0ZM109,44.3c0-1.2-.9-2-2.1-2s-2.1.9-2.1,2,.9,2,2.1,2,2.1-.9,2.1-2ZM115.2,41.7v5.1h-.6l-3-4v4h-.7v-5.1h.6l3,4v-4h.6ZM19.1.4v18.8c0,.9-.8,1.7-1.8,1.7h-2.3L4.8,8.1v12.8H0V2.7C0,1.4,1.1.4,2.4.4h2l9.9,12.5V.4h4.8ZM38,16.8v4.1h-13.9V2.9c0-1.4,1.2-2.5,2.6-2.5h10.7v4.1h-8.5v4h7.8v4h-7.8v4.2h9ZM57.3,4.5h-6.3v16.4h-4.9V4.5h-6.3V.4h17.4v4.1h0ZM58.5,14.3h4.9c0,2,1.8,2.9,3.8,2.9s3.6-.9,3.6-2.4-2-2-4.5-2.5c-3.4-.8-7.5-1.7-7.5-6.1,0-4,3.2-6.2,8.2-6.2s8.1,2.5,8.1,6.6h-4.9c0-1.8-1.6-2.6-3.4-2.6s-3.2.6-3.2,2,2,1.9,4.3,2.4c3.4.8,7.8,1.8,7.8,6.3s-3.9,6.6-8.6,6.6c-5.1,0-8.7-2.7-8.7-7.1ZM94.3,4.5h-6.3v16.4h-4.9V4.5h-6.3V.4h17.4v4.1h0ZM108,17h-9l-1.5,3.9h-5.2l7.8-18.2c.6-1.4,2-2.3,3.6-2.3h2l9.1,20.6h-5.3l-1.5-4h0ZM100.5,13.1h5.9l-3-7.4-2.9,7.4h0ZM125.1,13.9h-3.1v7h-4.9V2.7c0-1.3,1.1-2.3,2.4-2.3h6.7c4.5,0,7.9,2.8,7.9,6.8s-1.6,4.9-4.1,6l5,7.8h-5.4s-4.4-7-4.4-7ZM122,9.8h3.9c2,0,3.3-1.1,3.3-2.7s-1.2-2.7-3.3-2.7h-3.9v5.4h0Z"/>
</svg>