<?xml version="1.0" encoding="UTF-8"?>
<svg id="Layer_1" xmlns="http://www.w3.org/2000/svg" version="1.1" xmlns:xlink="http://www.w3.org/1999/xlink" viewBox="0 0 451 103">
  <!-- Generator: Adobe Illustrator 29.1.0, SVG Export Plug-In . SVG Version: 2.1.0 Build 142)  -->
  <defs>
    <style>
      .st0 {
        fill: #006150;
      }

      .st1 {
        fill: url(#linear-gradient);
      }
    </style>
    <linearGradient id="linear-gradient" x1="27.6" y1="54.1" x2="116" y2="54.1" gradientTransform="translate(0 108) scale(1 -1)" gradientUnits="userSpaceOnUse">
      <stop offset=".3" stop-color="#6eab24"/>
      <stop offset=".7" stop-color="#006150"/>
    </linearGradient>
  </defs>
  <path class="st1" d="M54.9,66.8c-.8-1.4-.3-3.2,1.1-4s3.2-.3,4,1.1.3,3.2-1.1,4.1c-.5.3-1,.4-1.5.4-1-.1-2-.6-2.5-1.6M65.1,58c-1.3-2.3-6.1-1.5-4.5,1.7-1.9-1.1-4.3-1.1-6.3,0-3.1,1.8-4.1,5.7-2.4,8.8,1.8,3.1,5.7,4.1,8.8,2.3,2-1.2,3.2-3.3,3.2-5.5,2,3,5.1-.8,3.8-3.1,1.3-.9,3.7-2.5,6-3.9,0-1.7.2-3.3.2-5-2.8,1.8-6.8,3.9-8.8,4.7M59,20.5c-6.3,3.6-11.9,7.8-16.7,12.3-1.5,6.4-2.3,13.4-2.3,20.6s.6,11.8,1.7,17.2c1.8-1.1,3.6-2.8,5.3-5.1-.3-2.9,0-6.3.9-10,.9-3.4,2.2-6.4,3.8-8.7,4.2-1.2,13.5,2.2,22.1,6.6v-5.3c-7.2-4.9-13.6-10.4-14.6-14.3,1.2-2.5,3.2-5.1,5.7-7.6s5.5-4.6,8.2-5.8c1.1-2.6,1.6-5.1,1.7-7.2-5.3,2-10.6,4.3-15.8,7.3M101.2,66.8c-.6,1-1.5,1.5-2.6,1.5s-1-.1-1.5-.4c-1.4-.8-1.9-2.6-1.1-4.1.8-1.4,2.6-1.9,4-1.1,1.5.9,2,2.7,1.2,4.1M91,58c-2-.9-6-2.9-8.7-4.5,0,1.7,0,3.3.2,5,2.3,1.4,4.7,2.9,6,3.9-1.3,2.2,1.7,6,3.8,3.1,0,2.2,1.2,4.3,3.2,5.5,3.1,1.8,7,.7,8.8-2.3,1.8-3.1.7-7-2.4-8.8-2-1.2-4.4-1.1-6.4,0,1.6-3.4-3.3-4.2-4.5-1.9M97,20.5c-5.2-3-10.5-5.3-15.7-7.2,0,2.1.6,4.6,1.7,7.2,2.7,1.2,5.5,3.1,8.2,5.8s4.5,5.1,5.7,7.6c-1,3.9-7.4,9.4-14.6,14.3v5.3c8.6-4.4,17.8-7.8,22.1-6.6,1.6,2.3,2.9,5.3,3.8,8.7,1,3.7,1.3,7.1.9,10,1.7,2.2,3.6,4,5.3,5.1,1-5.4,1.7-11.2,1.7-17.2s-.8-14.2-2.3-20.6c-4.9-4.6-10.5-8.8-16.8-12.4M75.1,29.6c0-1.6,1.3-3,3-3s3,1.3,3,3-1.3,3-3,3-3-1.3-3-3M71.6,29.6c0,2.3,1.3,4.4,3.1,5.5-3.6.3-1.8,4.8.8,4.8.3,2.4.4,7.9.4,10.9,0,11.2-1.5,24.9-5.4,28.6-2.8.2-6-.2-9.4-1.1-3.7-1-6.8-2.5-9.1-4.2-2.8.4-5.2,1.1-7.1,2.1,4.2,3.6,8.9,7.1,14.1,10.1,6.1,3.5,12.8,6.4,19,8.3,6.1-1.9,12.9-4.8,19-8.3,5.2-3,9.9-6.4,14.1-10.1-1.8-1-4.3-1.7-7.1-2.1-2.3,1.7-5.4,3.2-9.1,4.2-3.4.9-6.7,1.3-9.4,1.1-3.9-3.7-5.4-17.4-5.4-28.6s0-8.5.4-10.9c2.6,0,4.4-4.5.8-4.8,1.9-1.1,3.1-3.2,3.1-5.5,0-3.5-2.9-6.4-6.4-6.4s-6.4,2.9-6.4,6.4"/>
  <g>
    <path class="st0" d="M161.9,53.7h0c0-7.3-5.2-13.1-12.4-13.1s-12.3,5.8-12.3,12.9h0c0,7.3,5.2,13.1,12.4,13.1,7.2,0,12.3-5.7,12.3-12.9M133.5,53.7h0c0-8.8,6.5-16.4,16.1-16.4s16,7.5,16,16.2q.1,0,0,.1c0,8.7-6.5,16.3-16.1,16.3s-16-7.5-16-16.2"/>
    <polygon class="st0" points="169.7 37.8 173.2 37.8 173.2 66.1 191 66.1 191 69.4 169.7 69.4 169.7 37.8"/>
    <path class="st0" d="M206.1,66.1c8,0,13.1-5.4,13.1-12.4h0c0-7.1-5.1-12.6-13.1-12.6h-7.4v25h7.4ZM195.2,37.8h10.9c9.9,0,16.8,6.8,16.8,15.7h0c0,9-6.8,15.9-16.8,15.9h-10.9v-31.6Z"/>
    <polygon class="st0" points="227.1 37.8 234.6 37.8 242.9 51.2 251.2 37.8 258.7 37.8 258.7 69.4 251.8 69.4 251.8 48.8 242.9 62.3 242.7 62.3 233.9 48.9 233.9 69.4 227.1 69.4 227.1 37.8"/>
    <path class="st0" d="M262.9,55.9v-18h6.9v17.8c0,5.1,2.6,7.8,6.8,7.8s6.8-2.6,6.8-7.6v-18.1h6.9v17.8c0,9.5-5.4,14.2-13.8,14.2-8.4.1-13.6-4.7-13.6-13.9"/>
    <polygon class="st0" points="303.5 44.2 293.9 44.2 293.9 37.8 320 37.8 320 44.2 310.4 44.2 310.4 69.4 303.5 69.4 303.5 44.2"/>
    <path class="st0" d="M323.6,55.9v-18h6.9v17.8c0,5.1,2.6,7.8,6.8,7.8s6.8-2.6,6.8-7.6v-18.1h6.9v17.8c0,9.5-5.4,14.2-13.8,14.2-8.4.1-13.6-4.7-13.6-13.9"/>
    <path class="st0" d="M371.6,56.2l-4.2-10.2-4.2,10.2h8.4ZM364.3,37.6h6.4l13.5,31.8h-7.2l-2.9-7.1h-13.3l-2.9,7.1h-7.1l13.5-31.8Z"/>
    <polygon class="st0" points="387.3 37.8 394.3 37.8 394.3 63.1 410 63.1 410 69.4 387.3 69.4 387.3 37.8"/>
  </g>
</svg>