<?xml version="1.0" encoding="UTF-8"?>
<svg id="Layer_1" xmlns="http://www.w3.org/2000/svg" version="1.1" xmlns:xlink="http://www.w3.org/1999/xlink" viewBox="0 0 191.6 48.4">
  <!-- Generator: Adobe Illustrator 29.1.0, SVG Export Plug-In . SVG Version: 2.1.0 Build 142)  -->
  <defs>
    <style>
      .st0 {
        fill: url(#linear-gradient2);
      }

      .st1 {
        fill: url(#linear-gradient1);
      }

      .st2 {
        fill: url(#radial-gradient);
      }

      .st3 {
        fill: #1f3e89;
      }

      .st4 {
        fill: url(#radial-gradient1);
      }

      .st5 {
        fill: url(#linear-gradient3);
      }

      .st6 {
        fill: url(#linear-gradient);
      }
    </style>
    <linearGradient id="linear-gradient" x1="-463.2" y1="885.8" x2="-466.5" y2="907.1" gradientTransform="translate(651.8 818.7) rotate(-10) scale(1 -1)" gradientUnits="userSpaceOnUse">
      <stop offset="0" stop-color="#5ea7da"/>
      <stop offset=".5" stop-color="#3082c1"/>
      <stop offset=".7" stop-color="#1069b1"/>
      <stop offset="1" stop-color="#1069b1"/>
    </linearGradient>
    <radialGradient id="radial-gradient" cx="37.5" cy="43.9" fx="37.5" fy="43.9" r="57.5" gradientTransform="translate(0 50) scale(1 -1)" gradientUnits="userSpaceOnUse">
      <stop offset="0" stop-color="#1069b1"/>
      <stop offset=".2" stop-color="#1d4c90"/>
      <stop offset=".4" stop-color="#25397b"/>
      <stop offset=".5" stop-color="#293374"/>
      <stop offset="1" stop-color="#293374"/>
    </radialGradient>
    <radialGradient id="radial-gradient1" cx="51.1" cy="17.3" fx="51.1" fy="17.3" r="24.9" gradientTransform="translate(0 50) scale(1 -1)" gradientUnits="userSpaceOnUse">
      <stop offset="0" stop-color="#5fa8db"/>
      <stop offset=".4" stop-color="#1569b3"/>
      <stop offset=".7" stop-color="#293374"/>
      <stop offset="1" stop-color="#293374"/>
    </radialGradient>
    <linearGradient id="linear-gradient1" x1="36.2" y1="45.4" x2="-3.3" y2="16.4" gradientTransform="translate(0 50) scale(1 -1)" gradientUnits="userSpaceOnUse">
      <stop offset="0" stop-color="#fde7a4"/>
      <stop offset=".3" stop-color="#fff0c3"/>
      <stop offset=".5" stop-color="#ffda7f"/>
      <stop offset=".7" stop-color="#c5a56f"/>
      <stop offset=".7" stop-color="#c5a56f"/>
      <stop offset=".8" stop-color="#c5a984"/>
    </linearGradient>
    <linearGradient id="linear-gradient2" x1="-461.6" y1="886.8" x2="-445.3" y2="901.5" gradientTransform="translate(651.8 818.7) rotate(-10) scale(1 -1)" gradientUnits="userSpaceOnUse">
      <stop offset="0" stop-color="#fde7a4"/>
      <stop offset=".3" stop-color="#fff0c3"/>
      <stop offset=".5" stop-color="#ffda7f"/>
      <stop offset=".7" stop-color="#c5a56f"/>
      <stop offset=".7" stop-color="#c5a56f"/>
      <stop offset=".8" stop-color="#c5a984"/>
    </linearGradient>
    <linearGradient id="linear-gradient3" x1="-461.7" y1="884.4" x2="-447.9" y2="897.3" gradientTransform="translate(651.8 818.7) rotate(-10) scale(1 -1)" gradientUnits="userSpaceOnUse">
      <stop offset="0" stop-color="#fde7a4"/>
      <stop offset=".4" stop-color="#fff0c3"/>
      <stop offset=".5" stop-color="#ffda7f"/>
      <stop offset=".7" stop-color="#c5a56f"/>
      <stop offset=".7" stop-color="#c5a56f"/>
      <stop offset=".8" stop-color="#c5a984"/>
    </linearGradient>
  </defs>
  <g>
    <path class="st3" d="M62.1,5.3c0-.6.5-1.1,1.1-1.1h11.3c3.9,0,6.8,1,8.8,3.1,2,2.1,2.9,4.6,2.9,7.8s-1,5.6-3,7.6-5.1,3-9.2,3h-4.6v10.4c0,.2-.1.3-.3.3h-2.7c-2.3,0-4.2-1.9-4.2-4.2V5.3h0ZM69.3,18.4c0,.5.4.9.9.9h4c1.4,0,2.5-.4,3.4-1.2.8-.8,1.2-1.8,1.2-3s-.4-2.2-1.2-3c-.8-.8-1.8-1.2-3.1-1.2h-4.3c-.5,0-.9.4-.9.9v6.7h0Z"/>
    <path class="st3" d="M95,36.4h-2.3c-2.3,0-4.2-1.9-4.2-4.2V13.4c0-.5.4-.9.9-.9h3.6c1.2,0,2.1.9,2.1,2.1v1c1.5-2.5,3.7-3.7,6.5-3.7s1.9.2,3,.6l-.6,6.5c-1-.3-2-.5-3-.5-1.7,0-3.1.6-4.1,1.8-1,1.2-1.5,2.9-1.5,5.3v10.6c0,.2-.1.3-.3.3h0Z"/>
    <path class="st3" d="M110.5,9.8c-1.1,0-2-.4-2.7-1.1-.7-.7-1.1-1.6-1.1-2.7s.4-2,1.1-2.7c.7-.7,1.7-1.1,2.7-1.1s2,.4,2.7,1.1c.7.7,1.1,1.6,1.1,2.7s-.4,2-1.1,2.7c-.7.7-1.6,1.1-2.7,1.1Z"/>
    <path class="st3" d="M113.9,16.7v19.4c0,.2-.1.3-.3.3h-2.3c-2.3,0-4.2-1.9-4.2-4.2V13.4c0-.5.4-.9.9-.9h1.8c2.3,0,4.2,1.9,4.2,4.2Z"/>
    <path class="st3" d="M146.6,11.9c2.8,0,5.2.9,7,2.6s2.8,4.2,2.8,7.4v14.2c0,.2-.1.3-.3.3h-2.3c-2.3,0-4.2-1.9-4.2-4.2v-9c0-1.6-.4-2.9-1.2-3.7-.8-.9-1.9-1.3-3.2-1.3s-2.6.5-3.5,1.4-1.4,2.2-1.4,3.8v12.7c0,.2-.1.3-.3.3h-2.3c-2.3,0-4.2-1.9-4.2-4.2v-9c0-1.6-.4-2.8-1.2-3.7s-1.9-1.4-3.2-1.4-2.6.5-3.5,1.4c-.9,1-1.4,2.3-1.4,3.9v12.6c0,.2-.1.3-.3.3h-2.3c-2.3,0-4.2-1.9-4.2-4.2V13.4c0-.5.4-.9.9-.9h3.7c1.2,0,2.1.9,2.1,2.1v1.3c.7-1.3,1.7-2.3,3-3,1.3-.7,2.8-1.1,4.4-1,1.5,0,2.9.3,4.1,1s2.1,1.7,2.8,3c.9-1.3,2.1-2.3,3.6-3,1.5-.7,3.1-1.1,4.9-1.1Z"/>
    <path class="st3" d="M183.9,23.9c0,.6,0,1.3-.1,2.2,0,.4-.4.7-.8.7h-16.8c.8,3,3,4.5,6.5,4.5s3.4-.3,5-1,3.2,0,4.1,1.4l.9,1.5c.1.2,0,.6-.2.7-2.8,2-6.2,3-10.1,3s-7.5-1.2-9.7-3.6c-2.2-2.4-3.4-5.4-3.4-8.9s1.2-6.6,3.5-8.9c2.3-2.4,5.3-3.6,9.1-3.6s6.4,1.1,8.7,3.2c2.3,2.2,3.4,5.1,3.4,8.8ZM175.4,18.6c-1-.8-2.2-1.2-3.5-1.2s-2.6.4-3.6,1.2c-.9.7-1.6,1.7-2,2.9,0,.2,0,.4.3.4h10.4c.2,0,.4-.2.3-.4-.3-1.2-1-2.2-1.8-2.9h0Z"/>
  </g>
  <g>
    <path class="st6" d="M44,24.9c3-9.1-5-19.6-5-19.6l-4.9,10.1h0c2.1,4.3,1.9,9.2,1.7,11.2,0,.5.4.9.9.7,4.4-1.1,7.4-2.5,7.4-2.5"/>
    <path class="st2" d="M34.1,15.4l4.9-10.1s-16.2,4.7-27.2,17.7c14.4-5.7,22.4-7.5,22.4-7.5"/>
    <path class="st4" d="M54.9,14.1c-1.1,4-3.5,7-4.6,8.2.4,2,1,6.2.2,10.5,0,.5.5.7.8.3,2.2-3.9,5.7-11.8,3.7-19.1"/>
    <path class="st1" d="M11.8,22.9C22.7,9.9,39,5.2,39,5.2c-14.5,3.6-24.6,12.6-28.8,16.9-.5.5,0,1.4.8,1.1.3-.1.5-.2.8-.3"/>
    <path class="st0" d="M54.9,14c-.4,0-3.8.8-7.8,2.5-.4.2-.6.5-.6.9-.2,2.7-.8,5.2-1.9,7.1,5-2.2,7.8-5.5,10.3-10.5"/>
    <path class="st5" d="M54.9,14h0c-.1.1-.2.2-.3.4,0,.1-.2.2-.3.4-.2.3-.4.5-.6.8-.4.5-.8,1-1.1,1.5-.4.5-.8,1-1.2,1.4s-.8.9-1.2,1.4-.8.9-1.3,1.3c-.4.4-.9.8-1.4,1.2-.5.4-1,.8-1.5,1.1-.1,0-.3.2-.4.3l-.4.3c-.1,0-.3.2-.4.3s-.3.2-.4.3c5-2.2,7.8-5.5,10.3-10.5h0Z"/>
  </g>
  <g>
    <path class="st3" d="M134.3,46.2c-.4,0-.8,0-1.1-.3s-.6-.5-.8-.8l.5-.4c.3.6.7.9,1.3.9s.6,0,.8-.2c.2-.2.3-.4.3-.6s-.2-.6-.6-.8c0,0-.3-.1-.6-.3-.2-.1-.4-.2-.6-.3-.5-.4-.8-.8-.8-1.3s.1-.8.4-1c.3-.3.7-.4,1.2-.4s1.2.3,1.6.8l-.5.4c-.3-.4-.7-.6-1.1-.6s-.5,0-.6.2c-.2.1-.3.3-.3.6s.2.5.5.7c0,0,.3.2.6.3.4.2.6.3.7.4.5.3.8.7.8,1.3s-.2.8-.5,1.1c-.3.3-.8.4-1.3.4h0Z"/>
    <path class="st3" d="M137.4,44.1c0-.6.2-1.1.6-1.5.4-.4.9-.6,1.5-.6s1.1.2,1.5.6c.4.4.6.9.6,1.5s-.2,1.1-.6,1.5-.9.6-1.5.6-1.1-.2-1.5-.6-.6-.9-.6-1.5h0ZM140.9,44.1c0-.4-.1-.7-.4-1-.3-.3-.6-.4-1-.4s-.7.1-1,.4-.4.6-.4,1,.1.8.4,1c.3.3.6.4,1,.4s.7-.1,1-.4c.3-.3.4-.6.4-1Z"/>
    <path class="st3" d="M144.7,46.2c-.5,0-.9-.2-1.2-.5s-.5-.7-.5-1.2v-2.4h.7v2.4c0,.3,0,.6.3.8.2.2.4.3.8.3s.6,0,.8-.3.3-.5.3-.8v-2.4h.7v2.4c0,.5-.1.9-.4,1.2-.3.3-.7.5-1.2.5h0Z"/>
    <path class="st3" d="M150.5,45.3l.3.5c-.3.2-.6.3-1,.3s-.7-.1-.9-.4-.3-.6-.3-1.1v-2h-.7v-.6h.7v-1.4h.7v1.4h1.4v.6h-1.4v2.1c0,.5.2.8.7.8s.5,0,.7-.2h0Z"/>
    <path class="st3" d="M152.7,46.1h-.7v-5.6h.6v2.1c.1-.2.3-.3.5-.4s.5-.2.7-.2c.4,0,.8.1,1.1.4.3.3.5.7.5,1.2v2.4h-.7v-2.2c0-.4,0-.7-.3-.9-.2-.2-.4-.3-.8-.3s-.6.1-.8.3c-.2.2-.3.5-.3.9v2.2h0Z"/>
    <path class="st3" d="M163.8,46.1h-.8l-.6-1.5h-2.1l-.6,1.5h-.8l2.2-5.5h.3l2.2,5.5ZM162.3,43.9l-.8-2.1-.8,2.1h1.6,0Z"/>
    <path class="st3" d="M166.9,41c-.6,0-.9.3-.9.8v.3h1.3v.6h-1.3v3.4h-.7v-3.4h-.7v-.6h.7v-.3c0-.5.1-.8.4-1.1.3-.3.6-.4,1.1-.4s.6,0,.9.2l-.2.6c-.2,0-.4-.1-.6-.1Z"/>
    <path class="st3" d="M169.3,46.1h-.7v-4h.6v.6c.2-.5.6-.7,1.2-.7s.3,0,.5,0v.6c-.2,0-.3,0-.5,0-.3,0-.6.1-.8.3s-.3.5-.3,1v2.1Z"/>
    <path class="st3" d="M172.5,41.5c-.1,0-.3,0-.4-.1,0,0-.1-.2-.1-.3s0-.3.1-.3c0,0,.2-.1.4-.1s.2,0,.3.1c0,0,.1.2.1.3s0,.3-.1.3-.2.1-.3.1ZM172.8,42.1v4h-.7v-4h.7Z"/>
    <path class="st3" d="M176.5,46.2c-.6,0-1.1-.2-1.5-.6-.4-.4-.6-.9-.6-1.5s.2-1.1.6-1.5c.4-.4.9-.6,1.5-.6s.8,0,1.1.3c.3.2.6.4.7.8l-.5.3c-.1-.2-.3-.4-.5-.5-.2-.1-.5-.2-.7-.2-.4,0-.8.1-1,.4-.3.3-.4.6-.4,1.1s.1.8.4,1c.3.3.6.4,1,.4s.5,0,.7-.2c.2-.1.4-.3.5-.5l.5.3c-.2.3-.4.5-.7.7s-.7.3-1.1.3h0Z"/>
    <path class="st3" d="M182.9,42.7v-.6h.6v4h-.6v-.6c-.4.4-.8.7-1.4.7s-1.1-.2-1.4-.6c-.4-.4-.6-.9-.6-1.5s.2-1.1.6-1.5c.4-.4.9-.6,1.4-.6s1.1.2,1.4.7h0ZM182.9,44.1c0-.4-.1-.8-.4-1-.3-.3-.6-.4-1-.4s-.8.1-1,.4-.4.6-.4,1,.1.8.4,1c.3.3.6.4,1,.4s.7-.1,1-.4c.3-.3.4-.6.4-1.1Z"/>
  </g>
  <g>
    <rect class="st3" x="62.1" y="43.8" width="62.1" height=".3"/>
    <path class="st3" d="M124.1,43c.5,0,.9.4.9.9s-.4.9-.9.9-.9-.4-.9-.9.4-.9.9-.9Z"/>
  </g>
</svg>