<?xml version="1.0" encoding="UTF-8"?>
<svg id="Layer_1" data-name="Layer 1" xmlns="http://www.w3.org/2000/svg" viewBox="0 0 150 60">
  <defs>
    <style>
      .cls-1 {
        fill: #fec503;
      }

      .cls-2 {
        fill: #003c74;
      }
    </style>
  </defs>
  <path class="cls-1" d="m78.33,9.59v-1.06h-4.59v1.05c-17.74.43-37.74,5.77-54.54,18.7,13.75-5.5,25.71-5.24,36.12,0,13.95-5.37,27.35-5.38,40.18,0,10.64-4.75,22.15-6,35.5,0-14.88-11.73-34.34-18.2-52.66-18.69Z"/>
  <g>
    <path class="cls-2" d="m25.35,39.52c-3.05-1.32-3.97-3.01-3.07-4.41.94-1.46,4.09-1.96,8.19.7v-3.47s-3.53-1.95-7.72-1.46c-4.19.49-6.22,3.2-5.82,6.26.4,3.07,3.88,4.84,7.29,6.44.93.44,1.61.99,1.84,1.62.23.65.29,1.43-.18,2.06-.94,1.25-4.1,1.63-8.85-.66v3.64s7.88,2.74,12.04,0c1.73-1.14,2.58-2.74,2.48-4.41-.14-2.35-2.22-4.6-6.19-6.32Z"/>
    <path class="cls-2" d="m36.88,35.27c-2.35,1.65-3.34,4.12-3.27,7.1.15,6.74,5.01,9.15,8.01,8.69,1.92-.3,3.4-1.89,4.22-3v2.6h4.74v-16.99c-5.83-1.24-10.75-.48-13.7,1.59Zm8.96,10.39c-.91.91-2.25,1.85-3.98,1.94-3.38.18-4.79-6.32-2.17-9.35,2.62-3.03,6.15-1.65,6.15-1.65v9.05Z"/>
    <path class="cls-2" d="m89.12,35.27c-2.35,1.65-3.34,4.12-3.27,7.1.15,6.74,5.01,9.15,8.01,8.69,1.92-.3,3.4-1.89,4.22-3v2.6h4.74v-16.99c-5.83-1.24-10.75-.48-13.7,1.59Zm8.96,10.39c-.91.91-2.25,1.85-3.98,1.94-3.38.18-4.79-6.32-2.17-9.35,2.62-3.03,6.15-1.65,6.15-1.65v9.05Z"/>
    <path class="cls-2" d="m65.85,33.2c-3.37-.38-6.28,2.45-7.26,3.54v-3.1h-4.56v17.03h4.56v-10.09c1.39-2.47,2.9-3.43,4.17-3.62,2.19-.33,3.09,1.27,3.09,2.7v11h4.62v-11.05c0-2.41-.74-5.98-4.62-6.42Z"/>
    <path class="cls-2" d="m78.82,44.27c0-1.65,0-4.44,0-7.31h3.8v-4.03h-3.81c0-3.42-.01-6.18-.01-6.18h-4.62v17.68c0,3.21,1.91,6.53,5.77,6.7,3.02.13,4.54-1.12,4.54-1.12l-.62-3.99s-5.05,2.76-5.05-1.74Z"/>
    <path class="cls-2" d="m127.44,33.13c-2.46,0-4.41,2.06-5.61,3.8-.73-1.91-2.32-3.8-5.2-3.8-2.35,0-4.24,1.89-5.46,3.57v-2.92h-4.79v16.88h4.79v-11.22c3.86-4.63,6.32-2.41,6.32.19v11.03h4.82v-11.21c0-.13,0-.26-.02-.4,3.68-4.14,6-1.95,6,.58v11.03h4.82v-11.21c0-2.25-1.46-6.33-5.69-6.33Z"/>
  </g>
</svg>