<?xml version="1.0" standalone="no"?>
<!DOCTYPE svg PUBLIC "-//W3C//DTD SVG 20010904//EN"
 "http://www.w3.org/TR/2001/REC-SVG-20010904/DTD/svg10.dtd">
<svg version="1.0" xmlns="http://www.w3.org/2000/svg"
 width="512.000000pt" height="512.000000pt" viewBox="0 0 512.000000 512.000000"
 preserveAspectRatio="xMidYMid meet">

<g transform="translate(0.000000,512.000000) scale(0.100000,-0.100000)"
fill="#54d676" stroke="none">
<path d="M1477 4826 c-665 -186 -1058 -300 -1075 -313 -47 -35 -60 -72 -76
-203 -86 -718 -60 -1562 64 -2125 97 -437 221 -723 436 -1007 290 -381 631
-673 1061 -912 203 -112 589 -266 670 -266 72 0 374 112 575 214 366 184 714
447 970 733 131 146 265 322 335 440 294 499 435 1296 402 2270 -9 267 -40
676 -59 757 -10 48 -37 85 -76 108 -39 22 -2111 598 -2149 597 -17 0 -502
-132 -1078 -293z m2202 -1170 c14 -8 74 -63 133 -123 120 -124 138 -159 118
-235 -10 -38 -90 -122 -738 -771 -400 -401 -739 -735 -754 -743 -35 -18 -111
-18 -146 0 -42 23 -940 927 -952 959 -14 39 -13 81 5 124 18 43 173 205 234
244 61 40 121 40 182 0 24 -16 170 -155 324 -310 l280 -281 570 569 c439 439
578 572 605 580 41 12 101 6 139 -13z"/>
</g>
</svg>
